<?xml version="1.0" encoding="UTF-8"?> <svg xmlns="http://www.w3.org/2000/svg" width="144" height="37" viewBox="0 0 144 37" fill="none"><path d="M57.0958 0.375986C47.7977 -0.896963 38.7414 6.76102 37.0993 16.4578C35.2659 27.3666 42.6701 36.4953 52.9202 36.6221C61.1454 36.6829 69.5016 30.4957 70.8918 18.6892C71.8438 11.1631 67.3458 1.78079 57.0958 0.375986ZM62.5406 18.4813C61.8758 24.9931 56.9698 28.3758 53.2526 28.3758C48.4776 28.4417 44.433 24.1461 45.0929 17.5735C45.6923 11.3254 50.3363 7.87169 55.5746 8.39405C61.5434 8.98235 63.004 13.7952 62.5406 18.4813Z" fill="#FF6139"></path><path d="M124.173 0.822155C119.746 2.0951 115.293 4.9098 113.435 12.3345C111.364 20.5909 107.667 35.6888 107.657 35.7243H116.517L118.295 28.5227H130.968L129.22 35.7192H138.347L142.946 17.2133C144.149 12.2381 143.983 7.71434 140.06 3.69771C135.693 -0.643504 128.545 -0.516718 124.173 0.827232V0.822155ZM134.645 14.7992C134.69 14.8905 133.219 20.7025 133.189 20.6721H120.239V20.667C121.655 14.9159 121.886 13.2981 122.964 11.4774C123.881 9.92552 125.891 7.96791 129.754 8.16063C136.393 8.92136 134.731 14.0588 134.645 14.7992Z" fill="#FF6139"></path><path d="M20.0751 0.821777L9.07454 0.847144L0.395996 35.7239H15.5218C28.3658 35.7239 34.6317 23.3494 33.2415 13.3281C32.2291 6.50187 26.9152 0.821777 20.0801 0.821777H20.0751ZM15.6578 27.5537H11.3562L15.9449 9.00212L19.2088 8.98691C22.3115 8.98691 24.7544 11.4162 25.1976 14.6062C26.0186 19.7132 22.8706 27.4878 15.6578 27.5537Z" fill="#FF6139"></path><path d="M91.0799 0.249221C82.7237 0.502796 76.2715 7.07548 74.3071 15.692C72.4082 24.1157 76.9666 32.5344 82.9151 34.7051C84.3708 35.2781 86.0783 35.5976 87.9167 35.6636C91.3317 35.9172 95.9153 35.7244 101.038 35.7244L105.888 16.1231L91.8455 16.1535L90.0121 23.6137L95.0691 23.5985L93.9912 27.8737C87.1562 28.4468 83.8721 26.7986 82.6683 22.9087C81.7818 20.0991 81.9732 17.3554 82.9252 15.058C83.5548 13.5264 84.8795 11.9847 87.1562 10.3922C90.5108 8.03399 98.6101 7.64855 102.408 12.6896L106.206 5.16351C101.018 1.20774 96.8371 0.0565036 91.0799 0.249221Z" fill="#FF6139"></path></svg> 