<svg xmlns="http://www.w3.org/2000/svg" width="27" height="27" viewBox="0 0 27 27" fill="none"><path fill-rule="evenodd" clip-rule="evenodd" d="M24.1875 26.6548H2.8125C1.56994 26.6548 0.5625 25.4436 0.5625 23.9496V3.66118C0.5625 2.16728 1.56994 0.956055 2.8125 0.956055H24.1875C25.4301 0.956055 26.4375 2.16728 26.4375 3.66118V23.9496C26.4375 25.4436 25.4301 26.6548 24.1875 26.6548ZM25.3125 3.66118C25.3125 2.91457 24.8085 2.30862 24.1875 2.30862H2.8125C2.1915 2.30862 1.6875 2.91457 1.6875 3.66118V7.71888H25.3125V3.66118ZM25.3125 9.07144H1.6875V23.9496C1.6875 24.6963 2.1915 25.3022 2.8125 25.3022H24.1875C24.8085 25.3022 25.3125 24.6963 25.3125 23.9496V9.07144ZM23.0625 18.5394H21.9375C21.627 18.5394 21.375 18.2371 21.375 17.8631V16.5105C21.375 16.1372 21.627 15.8343 21.9375 15.8343H23.0625C23.3736 15.8343 23.625 16.1372 23.625 16.5105V17.8631C23.625 18.2371 23.3736 18.5394 23.0625 18.5394ZM23.0625 13.8054H21.9375C21.627 13.8054 21.375 13.5031 21.375 13.1291V11.7766C21.375 11.4026 21.627 11.1003 21.9375 11.1003H23.0625C23.3736 11.1003 23.625 11.4026 23.625 11.7766V13.1291C23.625 13.5031 23.3736 13.8054 23.0625 13.8054ZM18.5625 18.5394H17.4375C17.127 18.5394 16.875 18.2371 16.875 17.8631V16.5105C16.875 16.1372 17.127 15.8343 17.4375 15.8343H18.5625C18.8736 15.8343 19.125 16.1372 19.125 16.5105V17.8631C19.125 18.2371 18.8736 18.5394 18.5625 18.5394ZM18.5625 13.8054H17.4375C17.127 13.8054 16.875 13.5031 16.875 13.1291V11.7766C16.875 11.4026 17.127 11.1003 17.4375 11.1003H18.5625C18.8736 11.1003 19.125 11.4026 19.125 11.7766V13.1291C19.125 13.5031 18.8736 13.8054 18.5625 13.8054ZM14.0625 18.5394H12.9375C12.6264 18.5394 12.375 18.2371 12.375 17.8631V16.5105C12.375 16.1372 12.6264 15.8343 12.9375 15.8343H14.0625C14.3736 15.8343 14.625 16.1372 14.625 16.5105V17.8631C14.625 18.2371 14.3736 18.5394 14.0625 18.5394ZM14.0625 13.8054H12.9375C12.6264 13.8054 12.375 13.5031 12.375 13.1291V11.7766C12.375 11.4026 12.6264 11.1003 12.9375 11.1003H14.0625C14.3736 11.1003 14.625 11.4026 14.625 11.7766V13.1291C14.625 13.5031 14.3736 13.8054 14.0625 13.8054ZM9.5625 23.2734H8.4375C8.12644 23.2734 7.875 22.9711 7.875 22.5971V21.2445C7.875 20.8705 8.12644 20.5682 8.4375 20.5682H9.5625C9.87356 20.5682 10.125 20.8705 10.125 21.2445V22.5971C10.125 22.9711 9.87356 23.2734 9.5625 23.2734ZM9.5625 18.5394H8.4375C8.12644 18.5394 7.875 18.2371 7.875 17.8631V16.5105C7.875 16.1372 8.12644 15.8343 8.4375 15.8343H9.5625C9.87356 15.8343 10.125 16.1372 10.125 16.5105V17.8631C10.125 18.2371 9.87356 18.5394 9.5625 18.5394ZM9.5625 13.8054H8.4375C8.12644 13.8054 7.875 13.5031 7.875 13.1291V11.7766C7.875 11.4026 8.12644 11.1003 8.4375 11.1003H9.5625C9.87356 11.1003 10.125 11.4026 10.125 11.7766V13.1291C10.125 13.5031 9.87356 13.8054 9.5625 13.8054ZM5.0625 23.2734H3.9375C3.62644 23.2734 3.375 22.9711 3.375 22.5971V21.2445C3.375 20.8705 3.62644 20.5682 3.9375 20.5682H5.0625C5.37356 20.5682 5.625 20.8705 5.625 21.2445V22.5971C5.625 22.9711 5.37356 23.2734 5.0625 23.2734ZM5.0625 18.5394H3.9375C3.62644 18.5394 3.375 18.2371 3.375 17.8631V16.5105C3.375 16.1372 3.62644 15.8343 3.9375 15.8343H5.0625C5.37356 15.8343 5.625 16.1372 5.625 16.5105V17.8631C5.625 18.2371 5.37356 18.5394 5.0625 18.5394ZM12.9375 20.5682H14.0625C14.3736 20.5682 14.625 20.8705 14.625 21.2445V22.5971C14.625 22.9711 14.3736 23.2734 14.0625 23.2734H12.9375C12.6264 23.2734 12.375 22.9711 12.375 22.5971V21.2445C12.375 20.8705 12.6264 20.5682 12.9375 20.5682Z" fill="white"></path></svg>