<svg width="77" height="82" viewBox="0 0 77 82" fill="none" xmlns="http://www.w3.org/2000/svg">
<foreignObject x="-11.1504" y="27.5068" width="99.3037" height="85.752"><div xmlns="http://www.w3.org/1999/xhtml" style="backdrop-filter:blur(18px);height:100%;width:100%"></div></foreignObject><g filter="url(#filter0_i_535_10107)" data-figma-bg-blur-radius="36">
<path d="M26.3496 65.0068L27.282 69.9902C27.4926 71.1379 28.4852 71.9534 29.6281 71.9534V71.9534C30.5156 71.9534 31.3293 72.4011 31.9534 73.0321C33.6639 74.7609 36.0297 75.7589 38.5012 75.7589C40.97 75.7589 43.3333 74.7419 45.0433 73.0274C45.6706 72.3985 46.486 71.9534 47.3742 71.9534V71.9534C48.5172 71.9534 49.5098 71.1379 49.7203 69.9902L50.6527 65.0068" stroke="#0A3A5E" stroke-width="3" stroke-linecap="round"/>
</g>
<foreignObject x="-23.166" y="-32.6309" width="123.353" height="128.073"><div xmlns="http://www.w3.org/1999/xhtml" style="backdrop-filter:blur(18px);clip-path:url(#bgblur_0_535_10107_clip_path);height:100%;width:100%"></div></foreignObject><g filter="url(#filter1_i_535_10107)" data-figma-bg-blur-radius="36">
<path d="M63.8191 23.7941C63.6142 22.6185 63.4093 21.7369 63.1752 21.0609C59.6631 10.5693 49.9463 3.45731 38.971 3.36914H38.7954C38.7076 3.36914 38.5906 3.36914 38.5027 3.36914C38.4149 3.36914 38.2979 3.36914 38.2101 3.36914H38.0052C27.0592 3.48669 17.3424 10.5693 13.8303 21.0609C13.5962 21.7663 13.3913 22.6479 13.1864 23.7941C12.4255 28.1729 12.8937 32.5812 14.6205 36.5486C14.6791 36.6955 14.7376 36.8425 14.7961 36.96C16.1717 39.987 18.1619 43.4843 20.1228 46.8933C22.2301 50.5669 24.3958 54.3873 25.6251 57.3262C26.1519 58.6193 27.4104 59.4421 28.8152 59.4421H48.2781C49.6829 59.4421 50.9121 58.6193 51.4682 57.3262C52.6975 54.358 54.8632 50.5669 56.9705 46.8933C58.9021 43.5136 60.9216 39.987 62.2679 36.9894C62.3264 36.8425 62.385 36.6955 62.4435 36.578C64.1118 32.5812 64.6093 28.1729 63.8191 23.7941ZM59.6631 35.4025C59.6338 35.4906 59.5753 35.6082 59.5168 35.7257C58.1997 38.6352 56.2388 42.0736 54.3364 45.3945C52.1999 49.1562 49.9756 53.0355 48.6585 56.18C48.6 56.3564 48.4244 56.4739 48.2195 56.4739H28.786C28.5811 56.4739 28.4055 56.3564 28.347 56.18C27.0592 53.0355 24.8349 49.1562 22.6691 45.3945C20.7667 42.0736 18.8058 38.6058 17.4595 35.6963C17.4009 35.6082 17.3717 35.4906 17.3131 35.4025C15.8205 31.964 15.4107 28.1435 16.0839 24.3524C16.2595 23.3826 16.4351 22.5891 16.6107 22.0601C19.7131 12.7734 28.3177 6.48431 38.0052 6.39614H38.2101C38.2686 6.39614 38.3564 6.39614 38.4149 6.39614C38.4735 6.39614 38.532 6.39614 38.5906 6.39614C38.6491 6.39614 38.7369 6.39614 38.7954 6.39614H38.971C48.6585 6.48431 57.2632 12.7734 60.3655 22.0601C60.5411 22.5891 60.7167 23.3532 60.8923 24.3524C61.5655 28.1141 61.1557 31.9346 59.6631 35.4025Z" fill="#0A3A5E"/>
</g>
<foreignObject x="-20.5293" y="-29.7393" width="118.058" height="122.292"><div xmlns="http://www.w3.org/1999/xhtml" style="backdrop-filter:blur(18px);clip-path:url(#bgblur_1_535_10107_clip_path);height:100%;width:100%"></div></foreignObject><g filter="url(#filter2_iii_535_10107)" data-figma-bg-blur-radius="36">
<path d="M61.1991 24.5798C61.0153 23.5255 60.8316 22.7347 60.6216 22.1285C57.4716 12.7185 48.7566 6.33982 38.9129 6.26074H38.7554C38.6767 6.26074 38.5717 6.26074 38.4929 6.26074C38.4142 6.26074 38.3092 6.26074 38.2304 6.26074H38.0467C28.2292 6.36618 19.5143 12.7185 16.3643 22.1285C16.1543 22.7611 15.9706 23.5518 15.7868 24.5798C15.1043 28.5072 15.5243 32.4609 17.073 36.0193C17.1255 36.1511 17.178 36.2829 17.2305 36.3883C18.4643 39.1032 20.2493 42.2399 22.008 45.2974C23.898 48.5922 25.8405 52.0188 26.943 54.6546C27.4155 55.8144 28.5442 56.5524 29.8042 56.5524H47.2604C48.5204 56.5524 49.6229 55.8144 50.1216 54.6546C51.2241 51.9925 53.1666 48.5922 55.0566 45.2974C56.7891 42.2662 58.6003 39.1032 59.8078 36.4147C59.8603 36.2829 59.9128 36.1511 59.9653 36.0457C61.4616 32.4609 61.9078 28.5072 61.1991 24.5798Z" fill="#005AC0" fill-opacity="0.48"/>
</g>
<foreignObject x="-23.6152" y="-32.9512" width="124.233" height="128.713"><div xmlns="http://www.w3.org/1999/xhtml" style="backdrop-filter:blur(18px);clip-path:url(#bgblur_2_535_10107_clip_path);height:100%;width:100%"></div></foreignObject><g filter="url(#filter3_i_535_10107)" data-figma-bg-blur-radius="36">
<path d="M62.5194 24.182C62.3249 23.0664 62.1305 22.2297 61.9083 21.5883C58.5754 11.6317 49.3542 4.8825 38.9387 4.79883H38.772C38.6887 4.79883 38.5776 4.79883 38.4943 4.79883C38.411 4.79883 38.2999 4.79883 38.2165 4.79883H38.0221C27.6344 4.91039 18.4132 11.6317 15.0803 21.5883C14.8581 22.2576 14.6636 23.0943 14.4692 24.182C13.7471 28.3375 14.1915 32.5209 15.8302 36.286C15.8857 36.4254 15.9413 36.5649 15.9968 36.6764C17.3022 39.549 19.1909 42.8679 21.0518 46.1031C23.0516 49.5892 25.1069 53.2149 26.2734 56.0038C26.7734 57.2309 27.9677 58.0118 29.3009 58.0118H47.771C49.1042 58.0118 50.2707 57.2309 50.7985 56.0038C51.965 53.187 54.0203 49.5892 56.0201 46.1031C57.8532 42.8958 59.7697 39.549 61.0473 36.7043C61.1029 36.5649 61.1584 36.4254 61.214 36.3139C62.7971 32.5209 63.2693 28.3375 62.5194 24.182Z" stroke="#0A3A5E" stroke-width="3.5"/>
</g>
<defs>
<filter id="filter0_i_535_10107" x="-11.1504" y="27.5068" width="99.3037" height="85.752" filterUnits="userSpaceOnUse" color-interpolation-filters="sRGB">
<feFlood flood-opacity="0" result="BackgroundImageFix"/>
<feBlend mode="normal" in="SourceGraphic" in2="BackgroundImageFix" result="shape"/>
<feColorMatrix in="SourceAlpha" type="matrix" values="0 0 0 0 0 0 0 0 0 0 0 0 0 0 0 0 0 0 127 0" result="hardAlpha"/>
<feOffset dy="4"/>
<feGaussianBlur stdDeviation="1.75"/>
<feComposite in2="hardAlpha" operator="arithmetic" k2="-1" k3="1"/>
<feColorMatrix type="matrix" values="0 0 0 0 1 0 0 0 0 1 0 0 0 0 1 0 0 0 0.36 0"/>
<feBlend mode="normal" in2="shape" result="effect1_innerShadow_535_10107"/>
</filter>
<filter id="filter1_i_535_10107" x="-23.166" y="-32.6309" width="123.353" height="128.073" filterUnits="userSpaceOnUse" color-interpolation-filters="sRGB">
<feFlood flood-opacity="0" result="BackgroundImageFix"/>
<feBlend mode="normal" in="SourceGraphic" in2="BackgroundImageFix" result="shape"/>
<feColorMatrix in="SourceAlpha" type="matrix" values="0 0 0 0 0 0 0 0 0 0 0 0 0 0 0 0 0 0 127 0" result="hardAlpha"/>
<feOffset dy="4"/>
<feGaussianBlur stdDeviation="1.75"/>
<feComposite in2="hardAlpha" operator="arithmetic" k2="-1" k3="1"/>
<feColorMatrix type="matrix" values="0 0 0 0 1 0 0 0 0 1 0 0 0 0 1 0 0 0 0.36 0"/>
<feBlend mode="normal" in2="shape" result="effect1_innerShadow_535_10107"/>
</filter>
<clipPath id="bgblur_0_535_10107_clip_path" transform="translate(23.166 32.6309)"><path d="M63.8191 23.7941C63.6142 22.6185 63.4093 21.7369 63.1752 21.0609C59.6631 10.5693 49.9463 3.45731 38.971 3.36914H38.7954C38.7076 3.36914 38.5906 3.36914 38.5027 3.36914C38.4149 3.36914 38.2979 3.36914 38.2101 3.36914H38.0052C27.0592 3.48669 17.3424 10.5693 13.8303 21.0609C13.5962 21.7663 13.3913 22.6479 13.1864 23.7941C12.4255 28.1729 12.8937 32.5812 14.6205 36.5486C14.6791 36.6955 14.7376 36.8425 14.7961 36.96C16.1717 39.987 18.1619 43.4843 20.1228 46.8933C22.2301 50.5669 24.3958 54.3873 25.6251 57.3262C26.1519 58.6193 27.4104 59.4421 28.8152 59.4421H48.2781C49.6829 59.4421 50.9121 58.6193 51.4682 57.3262C52.6975 54.358 54.8632 50.5669 56.9705 46.8933C58.9021 43.5136 60.9216 39.987 62.2679 36.9894C62.3264 36.8425 62.385 36.6955 62.4435 36.578C64.1118 32.5812 64.6093 28.1729 63.8191 23.7941ZM59.6631 35.4025C59.6338 35.4906 59.5753 35.6082 59.5168 35.7257C58.1997 38.6352 56.2388 42.0736 54.3364 45.3945C52.1999 49.1562 49.9756 53.0355 48.6585 56.18C48.6 56.3564 48.4244 56.4739 48.2195 56.4739H28.786C28.5811 56.4739 28.4055 56.3564 28.347 56.18C27.0592 53.0355 24.8349 49.1562 22.6691 45.3945C20.7667 42.0736 18.8058 38.6058 17.4595 35.6963C17.4009 35.6082 17.3717 35.4906 17.3131 35.4025C15.8205 31.964 15.4107 28.1435 16.0839 24.3524C16.2595 23.3826 16.4351 22.5891 16.6107 22.0601C19.7131 12.7734 28.3177 6.48431 38.0052 6.39614H38.2101C38.2686 6.39614 38.3564 6.39614 38.4149 6.39614C38.4735 6.39614 38.532 6.39614 38.5906 6.39614C38.6491 6.39614 38.7369 6.39614 38.7954 6.39614H38.971C48.6585 6.48431 57.2632 12.7734 60.3655 22.0601C60.5411 22.5891 60.7167 23.3532 60.8923 24.3524C61.5655 28.1141 61.1557 31.9346 59.6631 35.4025Z"/>
</clipPath><filter id="filter2_iii_535_10107" x="-20.5293" y="-29.7393" width="118.058" height="122.292" filterUnits="userSpaceOnUse" color-interpolation-filters="sRGB">
<feFlood flood-opacity="0" result="BackgroundImageFix"/>
<feBlend mode="normal" in="SourceGraphic" in2="BackgroundImageFix" result="shape"/>
<feColorMatrix in="SourceAlpha" type="matrix" values="0 0 0 0 0 0 0 0 0 0 0 0 0 0 0 0 0 0 127 0" result="hardAlpha"/>
<feOffset dy="4"/>
<feGaussianBlur stdDeviation="18"/>
<feComposite in2="hardAlpha" operator="arithmetic" k2="-1" k3="1"/>
<feColorMatrix type="matrix" values="0 0 0 0 1 0 0 0 0 1 0 0 0 0 1 0 0 0 0.36 0"/>
<feBlend mode="normal" in2="shape" result="effect1_innerShadow_535_10107"/>
<feColorMatrix in="SourceAlpha" type="matrix" values="0 0 0 0 0 0 0 0 0 0 0 0 0 0 0 0 0 0 127 0" result="hardAlpha"/>
<feOffset dy="4"/>
<feGaussianBlur stdDeviation="2"/>
<feComposite in2="hardAlpha" operator="arithmetic" k2="-1" k3="1"/>
<feColorMatrix type="matrix" values="0 0 0 0 1 0 0 0 0 1 0 0 0 0 1 0 0 0 0.15 0"/>
<feBlend mode="normal" in2="effect1_innerShadow_535_10107" result="effect2_innerShadow_535_10107"/>
<feColorMatrix in="SourceAlpha" type="matrix" values="0 0 0 0 0 0 0 0 0 0 0 0 0 0 0 0 0 0 127 0" result="hardAlpha"/>
<feOffset dy="1"/>
<feGaussianBlur stdDeviation="0.5"/>
<feComposite in2="hardAlpha" operator="arithmetic" k2="-1" k3="1"/>
<feColorMatrix type="matrix" values="0 0 0 0 1 0 0 0 0 1 0 0 0 0 1 0 0 0 0.05 0"/>
<feBlend mode="normal" in2="effect2_innerShadow_535_10107" result="effect3_innerShadow_535_10107"/>
</filter>
<clipPath id="bgblur_1_535_10107_clip_path" transform="translate(20.5293 29.7393)"><path d="M61.1991 24.5798C61.0153 23.5255 60.8316 22.7347 60.6216 22.1285C57.4716 12.7185 48.7566 6.33982 38.9129 6.26074H38.7554C38.6767 6.26074 38.5717 6.26074 38.4929 6.26074C38.4142 6.26074 38.3092 6.26074 38.2304 6.26074H38.0467C28.2292 6.36618 19.5143 12.7185 16.3643 22.1285C16.1543 22.7611 15.9706 23.5518 15.7868 24.5798C15.1043 28.5072 15.5243 32.4609 17.073 36.0193C17.1255 36.1511 17.178 36.2829 17.2305 36.3883C18.4643 39.1032 20.2493 42.2399 22.008 45.2974C23.898 48.5922 25.8405 52.0188 26.943 54.6546C27.4155 55.8144 28.5442 56.5524 29.8042 56.5524H47.2604C48.5204 56.5524 49.6229 55.8144 50.1216 54.6546C51.2241 51.9925 53.1666 48.5922 55.0566 45.2974C56.7891 42.2662 58.6003 39.1032 59.8078 36.4147C59.8603 36.2829 59.9128 36.1511 59.9653 36.0457C61.4616 32.4609 61.9078 28.5072 61.1991 24.5798Z"/>
</clipPath><filter id="filter3_i_535_10107" x="-23.6152" y="-32.9512" width="124.233" height="128.713" filterUnits="userSpaceOnUse" color-interpolation-filters="sRGB">
<feFlood flood-opacity="0" result="BackgroundImageFix"/>
<feBlend mode="normal" in="SourceGraphic" in2="BackgroundImageFix" result="shape"/>
<feColorMatrix in="SourceAlpha" type="matrix" values="0 0 0 0 0 0 0 0 0 0 0 0 0 0 0 0 0 0 127 0" result="hardAlpha"/>
<feOffset dy="4"/>
<feGaussianBlur stdDeviation="1.75"/>
<feComposite in2="hardAlpha" operator="arithmetic" k2="-1" k3="1"/>
<feColorMatrix type="matrix" values="0 0 0 0 1 0 0 0 0 1 0 0 0 0 1 0 0 0 0.36 0"/>
<feBlend mode="normal" in2="shape" result="effect1_innerShadow_535_10107"/>
</filter>
<clipPath id="bgblur_2_535_10107_clip_path" transform="translate(23.6152 32.9512)"><path d="M62.5194 24.182C62.3249 23.0664 62.1305 22.2297 61.9083 21.5883C58.5754 11.6317 49.3542 4.8825 38.9387 4.79883H38.772C38.6887 4.79883 38.5776 4.79883 38.4943 4.79883C38.411 4.79883 38.2999 4.79883 38.2165 4.79883H38.0221C27.6344 4.91039 18.4132 11.6317 15.0803 21.5883C14.8581 22.2576 14.6636 23.0943 14.4692 24.182C13.7471 28.3375 14.1915 32.5209 15.8302 36.286C15.8857 36.4254 15.9413 36.5649 15.9968 36.6764C17.3022 39.549 19.1909 42.8679 21.0518 46.1031C23.0516 49.5892 25.1069 53.2149 26.2734 56.0038C26.7734 57.2309 27.9677 58.0118 29.3009 58.0118H47.771C49.1042 58.0118 50.2707 57.2309 50.7985 56.0038C51.965 53.187 54.0203 49.5892 56.0201 46.1031C57.8532 42.8958 59.7697 39.549 61.0473 36.7043C61.1029 36.5649 61.1584 36.4254 61.214 36.3139C62.7971 32.5209 63.2693 28.3375 62.5194 24.182Z"/>
</clipPath></defs>
</svg>
