<svg xmlns="http://www.w3.org/2000/svg" width="32" height="31" viewBox="0 0 32 31" fill="none"><path d="M15.6836 1.52441C23.7274 1.52441 30.2118 7.90089 30.2119 15.7217C30.2119 23.5425 23.7275 29.9189 15.6836 29.9189C7.63994 29.9187 1.15625 23.5424 1.15625 15.7217C1.15635 7.90105 7.64 1.52467 15.6836 1.52441Z" stroke="white" stroke-width="2"></path><path d="M22.1602 17.3047V20.1827C22.1602 20.5644 22.0086 20.9304 21.7387 21.2003C21.4689 21.4702 21.1028 21.6218 20.7212 21.6218H10.648C10.2664 21.6218 9.90033 21.4702 9.63047 21.2003C9.3606 20.9304 9.20898 20.5644 9.20898 20.1827V17.3047" stroke="white" stroke-width="2" stroke-linecap="round" stroke-linejoin="round"></path><path d="M12.0859 13.7075L15.6835 17.3051L19.2811 13.7075" stroke="white" stroke-width="2" stroke-linecap="round" stroke-linejoin="round"></path><path d="M15.6855 17.3051V8.6709" stroke="white" stroke-width="2" stroke-linecap="round" stroke-linejoin="round"></path></svg>