<svg xmlns="http://www.w3.org/2000/svg" width="1811" height="494" viewBox="0 0 1811 494" fill="none"><mask id="mask0_40000099_14014" style="mask-type:alpha" maskUnits="userSpaceOnUse" x="0" y="0" width="1811" height="494"><path d="M0 0H1811V494H0V0Z" fill="url(#paint0_linear_40000099_14014)"></path><path d="M1810 1V493H1V1H1810Z" stroke="url(#paint1_linear_40000099_14014)" stroke-opacity="0.8" stroke-width="2"></path></mask><g mask="url(#mask0_40000099_14014)"><path d="M1088.39 69.3087C1166.89 52.467 1239.63 69.9162 1304.27 115.196C1310.07 119.264 1308.93 122.404 1306.29 127.149L1301.08 136.563C1288.92 158.548 1276.86 180.703 1264.29 203.651V203.615C1212.02 146.061 1094.73 140.566 1037.64 212.608L1037.02 213.408C1010.7 247.525 1009.02 307.683 1034.7 341.847C1052.61 365.682 1079.72 372.319 1108.62 375.316C1111.68 375.638 1114.81 375.531 1117.9 375.638C1163.38 377.208 1164.48 376.244 1172.27 334.925C1173.53 328.252 1171.78 326.54 1164.79 326.754C1150.85 327.182 1136.92 326.683 1122.98 327.075C1115.95 327.283 1112.58 326.016 1114.32 318.995L1114.5 318.297C1120.08 298.44 1125.46 278.501 1130.65 258.528L1132.87 249.967C1134.4 244.079 1137.68 242.794 1143.79 242.794C1194.92 242.937 1246 242.866 1297.13 242.545C1305.19 242.509 1306.14 244.186 1304.16 251.501L1300.72 264.127C1283.56 327.263 1266.84 390.486 1250.05 453.71L1249.76 454.795C1248.32 459.946 1246.54 463.686 1239.08 463.809L1238.29 463.808C1188.8 462.909 1139.34 464.69 1089.82 462.856L1085.03 462.666C1005.96 459.303 957.158 419.865 929.921 354.528L929.282 352.98C882.502 238.604 959.944 97.8178 1086.89 69.6358L1088.39 69.3087ZM1303.12 116.834C1239.4 72.1969 1167.85 54.821 1090.63 70.879L1088.81 71.2647C962.094 98.4281 884.677 238.641 931.133 352.223L931.768 353.759C945.171 385.91 963.789 411.623 988.619 429.785C1013.84 448.23 1045.6 458.987 1085.11 460.668H1085.11C1136.26 462.81 1187.04 460.877 1238.33 461.809C1242.32 461.874 1244.22 460.909 1245.36 459.666C1246.64 458.279 1247.32 456.212 1248.12 453.196L1261.54 402.62C1274.98 352.045 1288.45 301.48 1302.23 250.975C1302.72 249.172 1302.98 247.865 1303.03 246.902C1303.08 245.945 1302.91 245.599 1302.81 245.467C1302.71 245.338 1302.43 245.066 1301.47 244.852C1300.5 244.636 1299.12 244.536 1297.14 244.545C1246.01 244.866 1194.92 244.937 1143.79 244.794C1140.8 244.794 1138.92 245.126 1137.63 245.891C1136.46 246.589 1135.49 247.835 1134.81 250.469C1128.92 273.316 1122.81 296.13 1116.43 318.838L1116.43 318.837C1115.39 322.56 1116.02 323.678 1116.52 324.11C1116.87 324.411 1117.5 324.708 1118.62 324.895C1119.73 325.079 1121.15 325.128 1122.92 325.076L1122.92 325.075L1125.55 325.012C1131.68 324.885 1137.8 324.908 1143.89 324.928C1150.86 324.95 1157.8 324.968 1164.73 324.755L1165.4 324.739C1166.93 324.718 1168.31 324.797 1169.49 325.044C1170.86 325.328 1172.13 325.868 1173.09 326.891C1174.06 327.928 1174.49 329.234 1174.61 330.627C1174.73 331.99 1174.57 333.557 1174.24 335.296C1172.3 345.587 1170.75 353.533 1168.79 359.557C1166.82 365.605 1164.36 370.002 1160.42 372.964C1156.5 375.909 1151.4 377.217 1144.64 377.743C1138.73 378.203 1131.32 378.077 1121.96 377.775L1117.83 377.637C1114.94 377.537 1111.55 377.635 1108.42 377.306V377.305C1079.87 374.344 1052.42 367.805 1033.98 344.187L1033.1 343.049C1019.82 325.384 1013.76 301.088 1014.37 277.002C1014.99 252.914 1022.29 228.763 1036.08 211.365L1036.76 210.512C1065.76 174.518 1109.62 157.951 1152.75 157.513C1195.18 157.082 1237.16 172.251 1263.88 200.237C1275.96 178.166 1287.6 156.801 1299.33 135.594L1304.55 126.178C1305.91 123.728 1306.52 122.254 1306.45 121.034C1306.4 120.104 1305.89 118.885 1303.6 117.181L1303.12 116.834ZM640.255 49.9893C750.716 23.335 857.435 85.5285 880.383 189.934C904.399 299.12 833.648 413.873 722.843 445.451C703.981 450.839 684.661 453.408 664.921 452.802L664.883 452.837L662.469 452.822C561.262 451.659 482.265 383.989 468.707 286.81L468.397 284.49C455.377 182.94 533.994 75.6448 640.255 49.9893ZM878.43 190.362C855.748 87.166 750.213 25.5139 640.724 51.9337L640.723 51.9327C535.351 77.3743 457.504 183.8 470.381 284.236L470.688 286.531C484.173 383.2 563.062 450.381 664.099 450.832L664.157 450.777L664.983 450.803C684.506 451.403 703.62 448.863 722.294 443.528H722.295L723.58 443.157C832.679 411.336 902.115 298.045 878.43 190.363V190.362ZM1564 44.1729C1602.91 38.2498 1641.32 40.2124 1678.2 53.5216C1746.7 78.1778 1783.66 140.871 1767.36 212.306C1750.29 287.238 1728.56 361.242 1709.01 435.71C1707.42 441.828 1704.08 443.627 1697.66 443.669L1697.03 443.667C1666.59 443.275 1636.12 443.239 1605.66 443.561C1597.59 443.664 1595.15 442.562 1597.34 434.805L1597.56 434.033C1603.75 413.766 1608.25 393.07 1613.94 372.66C1616.12 364.846 1615.12 361.6 1605.16 361.885C1582.98 362.527 1560.79 362.099 1538.57 362.099L1538.65 362.027C1516.96 362.027 1495.27 362.562 1473.62 361.777C1464.3 361.456 1460.94 364.847 1459.04 372.483C1454.07 392.535 1448.34 412.446 1443.34 432.534L1443.17 433.211C1441.35 440.102 1438.8 443.945 1429.37 443.703C1400.5 442.99 1371.56 443.203 1342.66 443.596L1341.19 443.603C1334.18 443.557 1332.07 442.238 1334.29 434.176C1357.89 347.863 1379.59 261.047 1404.6 175.092L1407.03 166.776C1428.36 94.1294 1484.65 56.6785 1562.16 44.4571L1564 44.1729ZM136.098 50.4893C183.558 50.9175 231.286 47.9212 278.364 51.9532C345.489 57.698 388.215 96.2697 412.766 152.754C451.788 242.601 407.764 388.683 282.985 431.18C259.006 439.351 234.226 443.133 208.797 443.383L203.57 443.431C177.444 443.642 151.347 443.454 125.216 443.454V443.419C95.2812 443.419 65.3841 443.133 35.4494 443.597L34.5861 443.607C25.857 443.666 22.8585 442.392 25.5217 432.714C50.951 339.798 76.1225 246.802 101.262 153.816L126.4 60.838C127.774 55.7712 127.736 50.418 136.098 50.4893ZM1677.52 55.4034C1641.01 42.2283 1602.95 40.2673 1564.3 46.1505H1564.3C1486.35 57.9895 1430.16 95.0817 1408.95 167.339V167.34C1383.73 253.221 1362 339.946 1338.5 426.344L1336.22 434.703L1336.22 434.707C1335.65 436.796 1335.43 438.24 1335.45 439.237C1335.48 440.185 1335.72 440.527 1335.9 440.699C1336.15 440.933 1336.68 441.219 1337.87 441.401C1339.05 441.581 1340.6 441.622 1342.63 441.596L1353.47 441.459C1376.97 441.186 1400.5 441.092 1424 441.58L1429.42 441.703L1429.42 441.704L1430.26 441.714C1434.33 441.704 1436.54 440.808 1437.96 439.492C1439.44 438.108 1440.37 435.969 1441.23 432.715L1441.4 432.049C1443.91 421.985 1446.6 411.969 1449.27 401.978C1451.95 391.98 1454.62 382.006 1457.09 372.001L1457.09 371.997L1459.04 372.483L1457.1 371.997C1458.09 368.03 1459.55 364.746 1462.32 362.573C1465.09 360.391 1468.82 359.611 1473.69 359.778H1473.69L1477.74 359.91C1498 360.497 1518.25 360.027 1538.65 360.027H1543.71L1543.63 360.106C1564.19 360.158 1584.63 360.478 1605.1 359.886L1606.05 359.868C1608.2 359.853 1610.04 360.015 1611.55 360.415C1613.31 360.879 1614.78 361.707 1615.74 363.092C1616.7 364.459 1616.95 366.081 1616.89 367.722C1616.83 369.15 1616.52 370.741 1616.07 372.455L1615.87 373.197C1610.23 393.406 1605.65 414.373 1599.47 434.617C1598.85 436.672 1598.58 438.112 1598.58 439.122C1598.57 440.091 1598.8 440.444 1598.96 440.613C1599.18 440.838 1599.68 441.136 1600.85 441.334C1602.01 441.53 1603.57 441.587 1605.63 441.561H1605.63L1611.35 441.504C1639.93 441.245 1668.51 441.299 1697.05 441.667H1697.05C1700.36 441.701 1702.47 441.285 1703.91 440.387C1705.26 439.542 1706.34 438.07 1707.08 435.207L1707.08 435.202L1708.92 428.216C1728 356.037 1748.88 284.414 1765.41 211.862V211.861L1765.77 210.213C1780.9 140.509 1744.6 79.5481 1677.52 55.4034H1677.52ZM278.194 53.9454C231.206 49.9212 183.743 52.9193 136.079 52.4893C134.192 52.4734 132.951 52.7663 132.111 53.168C131.301 53.555 130.756 54.0944 130.331 54.7852C129.882 55.5151 129.556 56.4321 129.252 57.5841C129.101 58.1558 128.965 58.7483 128.816 59.3888C128.669 60.0171 128.511 60.6866 128.329 61.3585L128.33 61.3595C94.8068 185.316 61.3582 309.351 27.4513 433.242L27.4504 433.244C26.7823 435.672 26.5362 437.372 26.59 438.559C26.6412 439.686 26.9492 440.18 27.2717 440.471C27.6661 440.827 28.408 441.172 29.84 441.383C31.2535 441.591 33.0805 441.633 35.4181 441.598L41.0343 441.519C69.1149 441.168 97.176 441.419 125.216 441.419H127.216V441.455C154.439 441.465 181.583 441.661 208.777 441.383L211.142 441.35C235.553 440.896 259.327 437.128 282.339 429.286H282.34L283.783 428.789C344.753 407.523 386.077 361.168 407.45 308.965C428.84 256.722 430.172 198.809 411.379 154.593L410.932 153.551C386.808 98.0488 345.114 60.211 279.742 54.0841L278.194 53.9454ZM572.158 212.317C591.474 149.804 661.444 117.327 726.741 140.009L728.295 140.56L728.296 140.561L729.146 140.872C764.981 154.249 785.06 187.802 784.637 232.628L784.636 232.643V232.657C783.71 270.884 772.108 305.663 741.147 332.6L741.146 332.602C712.005 357.897 677.745 369.959 638.041 357.944L637.102 357.656C616.618 351.27 601.174 340.73 589.919 326.969C578.677 313.222 571.693 296.357 567.961 277.42V277.417C563.766 255.999 565.601 234.654 571.708 213.813V213.812L572.158 212.317ZM727.616 142.441C662.325 118.855 592.069 151.611 573.627 214.375C567.594 234.963 565.799 255.981 569.923 277.033C577.292 314.428 597.415 343.187 637.696 355.747C676.372 367.795 709.794 356.607 738.472 332.26L739.834 331.091C770.265 304.615 781.721 270.431 782.637 232.608C783.057 188.078 763.011 155.25 727.616 142.441ZM213.735 142.604C216.884 140.169 221.034 139.57 226.355 140.28H226.356C228.225 140.527 230.164 140.548 232.202 140.5C234.176 140.453 236.382 140.335 238.463 140.335C265.828 140.317 286.698 145.598 301.601 157.493C316.539 169.418 325.15 187.72 328.57 213.002L328.698 213.985C333.896 255.755 311.897 315.651 261.163 341.122L261.162 341.123C238.512 352.47 214.19 354.001 192.565 353.467H192.53C183.685 353.467 176.898 353.466 171.887 353.006C166.984 352.556 163.185 351.633 160.862 349.281C158.413 346.801 158.097 343.287 158.614 339.132C159.136 334.94 160.602 329.421 162.496 322.333L165.324 311.779C178.541 262.541 192.059 213.435 204.948 164.167L207.7 153.608C208.932 148.842 210.647 144.991 213.735 142.604ZM226.093 142.264C215.937 140.908 212.042 144.798 209.637 154.11L206.884 164.672C193.072 217.468 178.532 270.096 164.429 322.85C157.27 349.645 156.99 351.35 186.274 351.459L192.53 351.467H192.57C213.767 351.994 237.296 350.515 259.223 339.85L260.266 339.335C310.121 314.305 331.823 255.307 326.714 214.237L326.589 213.271C319.884 163.706 293.181 142.629 239.732 142.338L238.464 142.335C234.598 142.335 230.665 142.743 226.854 142.353L226.093 142.264ZM1510.59 182.025C1531.85 136.103 1589.27 117.302 1636.91 140.168L1638.04 140.721L1638.05 140.722L1638.91 141.157C1647.76 145.703 1654.65 151.582 1659.3 158.757C1664.11 166.175 1666.45 174.871 1666.15 184.678V184.68C1665.68 199.427 1662.67 213.675 1658.9 227.67C1657.02 234.666 1654.94 241.625 1652.89 248.549C1650.84 255.483 1648.82 262.387 1647.03 269.324V269.326C1646.57 271.129 1645.82 272.562 1644.77 273.635C1643.7 274.716 1642.45 275.304 1641.18 275.613C1639.95 275.915 1638.67 275.958 1637.5 275.944C1636.92 275.937 1636.32 275.914 1635.77 275.895C1635.2 275.875 1634.66 275.858 1634.14 275.858H1559.34L1559.38 275.823C1538.36 275.828 1517.33 275.854 1496.3 275.821C1495.74 275.821 1495.15 275.845 1494.51 275.872C1493.88 275.899 1493.2 275.931 1492.54 275.941C1491.24 275.961 1489.75 275.911 1488.44 275.474C1487.02 275.002 1485.7 274.034 1485.12 272.268C1484.59 270.661 1484.78 268.712 1485.45 266.467L1485.45 266.463L1486.22 263.878C1490.01 250.939 1492.98 237.818 1496.37 224.63C1499.99 210.616 1504.07 196.624 1510.09 183.124L1510.59 182.025ZM1637.16 142.513C1589.85 119.07 1532.42 137.981 1511.92 183.939L1511.37 185.191C1499.87 211.527 1495.6 239.821 1487.37 267.042C1484.85 275.427 1491.45 273.821 1496.3 273.821C1519.02 273.857 1541.74 273.821 1564.46 273.821L1564.42 273.858H1634.14C1638.65 273.858 1643.49 275.035 1645.1 268.826C1652.28 240.923 1663.23 213.662 1664.15 184.617C1664.72 165.742 1655.18 151.469 1637.16 142.513Z" fill="url(#paint2_linear_40000099_14014)" fill-opacity="0.8"></path></g><defs><linearGradient id="paint0_linear_40000099_14014" x1="1131.63" y1="143.522" x2="987.967" y2="861.596" gradientUnits="userSpaceOnUse"><stop stop-color="#F2485C"></stop><stop offset="1" stop-color="#141A48" stop-opacity="0"></stop></linearGradient><linearGradient id="paint1_linear_40000099_14014" x1="35.7866" y1="209.736" x2="1846.79" y2="209.736" gradientUnits="userSpaceOnUse"><stop stop-color="#BF0811"></stop><stop offset="1" stop-color="#F40000"></stop></linearGradient><linearGradient id="paint2_linear_40000099_14014" x1="466.986" y1="248.357" x2="885.067" y2="248.357" gradientUnits="userSpaceOnUse"><stop stop-color="#BF0811"></stop><stop offset="1" stop-color="#FF3640"></stop></linearGradient></defs></svg>