<svg xmlns="http://www.w3.org/2000/svg" width="1645" height="431" viewBox="0 0 1645 431" fill="none"><mask id="mask0_2_674" style="mask-type:alpha" maskUnits="userSpaceOnUse" x="4" y="0" width="1637" height="423"><path d="M1446.73 4.16016C1482.49 -1.64803 1517.75 0.161533 1551.62 12.8428L1553.23 13.4551H1553.23C1616.46 37.7395 1650.8 99.1625 1636.51 169.436L1636.16 171.097V171.098C1620.67 243.67 1601.09 315.344 1583.22 387.488L1581.5 394.472L1581.5 394.474C1580.76 397.499 1579.65 399.235 1578.12 400.252C1576.56 401.291 1574.39 401.702 1571.24 401.667H1571.25C1544.5 401.299 1517.73 401.245 1490.95 401.504L1485.6 401.561H1485.6C1483.66 401.587 1482.14 401.532 1480.97 401.322C1479.81 401.112 1479.13 400.77 1478.73 400.334C1478.35 399.916 1478.09 399.262 1478.1 398.112C1478.11 396.949 1478.4 395.392 1478.99 393.306L1478.99 393.305C1484.42 374.315 1488.5 354.827 1493.36 335.728L1494.34 331.913C1494.86 329.938 1495.2 328.186 1495.26 326.678C1495.32 325.169 1495.09 323.805 1494.36 322.688C1493.62 321.555 1492.46 320.818 1490.93 320.387C1489.61 320.014 1487.97 319.854 1485.98 319.868L1485.11 319.885H1485.11C1465.15 320.502 1445.2 320.131 1425.16 320.102L1425.23 320.027H1422.82C1403.73 320.027 1384.72 320.497 1365.72 319.91L1361.92 319.778H1361.92C1357.44 319.613 1354.17 320.39 1351.8 322.379C1349.59 324.229 1348.32 326.998 1347.42 330.536L1347.24 331.254V331.256C1344.92 341.272 1342.41 351.255 1339.9 361.251C1337.4 371.244 1334.88 381.252 1332.53 391.306C1331.68 394.957 1330.73 397.556 1329.03 399.247C1327.49 400.785 1325.17 401.704 1321.25 401.714L1320.44 401.703H1320.44C1296.75 401.078 1273.01 401.165 1249.3 401.459L1239.14 401.596C1237.23 401.622 1235.72 401.583 1234.55 401.392C1233.37 401.2 1232.67 400.876 1232.25 400.447C1231.84 400.041 1231.56 399.403 1231.53 398.266C1231.51 397.255 1231.69 395.931 1232.1 394.195L1232.29 393.426L1232.29 393.424C1254.41 307.081 1274.74 220.301 1298.17 134.355L1300.44 126.041C1310.47 89.6189 1328.75 62.1342 1353.63 42.2676C1378.14 22.7034 1409.11 10.4854 1445.02 4.44336L1446.73 4.16016ZM1514.54 100.08C1470.26 77.3958 1416.99 96.1065 1397.31 141.468L1396.85 142.553C1391.23 155.972 1387.43 169.897 1384.05 183.895C1380.87 197.041 1378.08 210.211 1374.52 223.179L1373.8 225.77V225.771C1373.19 227.938 1373.08 229.634 1373.48 230.936C1373.91 232.318 1374.87 233.11 1376.02 233.519C1377.12 233.906 1378.4 233.961 1379.59 233.941C1380.2 233.931 1380.83 233.9 1381.42 233.873C1382.02 233.845 1382.59 233.821 1383.13 233.821C1403.62 233.856 1424.1 233.825 1444.58 233.822L1444.55 233.857H1512.3C1512.81 233.857 1513.32 233.874 1513.86 233.895C1514.38 233.914 1514.93 233.937 1515.46 233.944C1516.53 233.958 1517.65 233.913 1518.71 233.638C1519.78 233.358 1520.81 232.837 1521.66 231.909C1522.46 231.047 1523.06 229.886 1523.46 228.369L1523.54 228.062V228.061C1525.22 221.103 1527.12 214.182 1529.04 207.248C1530.96 200.319 1532.91 193.375 1534.67 186.395C1538.08 172.868 1540.82 159.159 1541.38 145.017L1541.43 143.646V143.646C1541.97 124.663 1533.08 110.207 1516.4 101.061L1515.6 100.629L1515.6 100.628L1514.54 100.08Z" stroke="url(#paint0_linear_2_674)" stroke-opacity="0.8" stroke-width="2"></path><path d="M108.489 10.4893C152.376 10.9118 196.264 8.01362 239.659 11.7646L241.726 11.9482C303.677 17.6063 343.311 55.3047 366.297 110.816L366.837 112.131C385.009 156.78 383.866 215.496 363.582 268.365C343.462 320.805 304.556 367.378 247.163 388.74L245.805 389.24H245.804C224.15 397.115 201.787 400.895 178.837 401.35L176.614 401.383C150.835 401.665 125.098 401.459 99.3018 401.454V401.419H98.3018C72.0162 401.419 45.7332 401.168 19.4277 401.519L14.166 401.597C11.9712 401.632 10.2029 401.593 8.80859 401.374C7.40912 401.155 6.51719 400.774 5.95801 400.235C5.42472 399.722 5.06445 398.938 5.00781 397.607C4.95749 396.423 5.1519 394.877 5.62695 392.858L5.84766 391.964L5.84863 391.963C37.622 268.074 68.966 144.041 100.381 20.083L100.38 20.082C100.545 19.4306 100.69 18.7781 100.827 18.1484C100.966 17.5129 101.097 16.9035 101.243 16.3135C101.536 15.1282 101.871 14.0948 102.366 13.2363C102.85 12.3969 103.487 11.7253 104.409 11.2549C105.344 10.7776 106.64 10.4725 108.489 10.4893ZM192.975 100.273C188.081 99.5762 184.454 100.193 181.763 102.414C179.282 104.461 177.775 107.731 176.658 112.006L176.44 112.873C163.594 165.69 149.996 218.309 136.728 271.056L134.078 281.606C132.296 288.725 130.944 294.16 130.466 298.263C129.99 302.34 130.332 305.422 132.306 307.555C134.238 309.643 137.51 310.559 142.11 311.01C146.76 311.466 153.077 311.467 161.383 311.467H161.418V311.466C181.332 311.992 203.575 310.515 224.34 299.737L225.328 299.217L225.329 299.216C249.112 286.474 266.09 265.04 276.463 241.662C286.671 218.655 290.516 193.69 288.118 173.12L287.999 172.145C284.815 147.031 276.824 129.011 263.07 117.295C249.538 105.768 230.589 100.483 205.619 100.338L204.426 100.335C202.483 100.335 200.467 100.452 198.578 100.5C196.655 100.549 194.788 100.529 192.974 100.273H192.975Z" stroke="url(#paint1_linear_2_674)" stroke-opacity="0.8" stroke-width="2"></path><path d="M1001.11 29.2842C1074.35 12.5148 1142.22 29.8725 1202.59 74.9961V74.9971C1205.19 76.9461 1206.02 78.5074 1206.1 79.9727C1206.18 81.3491 1205.62 82.85 1204.64 84.8154L1204.19 85.6875C1191.36 110.347 1178.72 135.112 1165.52 160.854C1140.74 132.523 1101.22 117.079 1061.21 117.513C1020.97 117.949 980.132 134.441 953.163 170.164L952.529 171.011C939.764 188.201 932.97 212.118 932.398 236.029C931.836 259.565 937.299 283.233 949.188 300.601L949.759 301.423C966.8 325.627 992.587 332.305 1019.74 335.31V335.311C1022.28 335.596 1024.95 335.553 1027.45 335.607L1028.5 335.638C1039.14 336.03 1047.26 336.267 1053.54 335.746C1059.82 335.225 1064.41 333.934 1067.89 331.146C1071.37 328.356 1073.59 324.183 1075.4 318.23C1077.21 312.284 1078.66 304.411 1080.48 294.1C1080.78 292.398 1080.91 290.942 1080.81 289.721C1080.71 288.49 1080.36 287.427 1079.64 286.598C1078.91 285.769 1077.91 285.289 1076.72 285.025C1075.69 284.797 1074.47 284.719 1073.06 284.739L1072.45 284.754C1065.94 284.967 1059.43 284.95 1052.89 284.928C1047.18 284.908 1041.46 284.885 1035.73 285.012L1033.27 285.075H1033.27C1031.59 285.128 1030.2 285.081 1029.08 284.883C1027.96 284.684 1027.2 284.348 1026.7 283.892C1025.77 283.041 1025.33 281.334 1026.32 277.552C1032.3 254.851 1038.03 232.043 1043.54 209.201L1043.54 209.2C1044.22 206.397 1045.25 204.883 1046.61 204.017C1048.02 203.121 1049.97 202.794 1052.8 202.794C1100.71 202.937 1148.59 202.866 1196.5 202.545C1198.37 202.536 1199.74 202.635 1200.74 202.873C1201.72 203.109 1202.22 203.451 1202.5 203.842C1202.78 204.245 1202.95 204.878 1202.9 205.96C1202.85 206.906 1202.64 208.094 1202.27 209.593L1202.11 210.254C1184.9 277.589 1168.19 345.031 1151.41 412.468C1150.66 415.45 1149.98 417.77 1148.61 419.367C1147.3 420.879 1145.24 421.876 1141.38 421.808H1141.38C1093.39 420.878 1045.7 422.808 997.779 420.667H997.78C960.621 418.98 930.692 408.182 906.9 389.611C883.473 371.325 865.932 345.452 853.318 313.164L852.721 311.622C809.094 197.797 881.354 57.6479 999.712 29.6084L1001.11 29.2842Z" stroke="url(#paint2_linear_2_674)" stroke-opacity="0.8" stroke-width="2"></path><path d="M581.191 9.95703C683.751 -16.4517 782.82 44.8105 804.73 147.92L804.984 149.135C827.303 257.412 761.877 371.18 659.253 403.122L658.043 403.494V403.495C640.467 408.853 622.471 411.405 604.089 410.803L603.656 410.788L603.609 410.834C508.411 410.535 433.902 343.019 421.177 245.68L420.888 243.371C408.794 142.717 481.525 36.3225 580.031 10.2598L581.191 9.95703ZM661.719 99.96C600.887 77.4099 535.879 109.744 517.959 171.631L517.541 173.11C511.944 193.495 510.209 214.328 513.872 235.219L514.051 236.213V236.215C520.95 273.574 539.751 302.537 577.337 315.396L578.229 315.696H578.229C614.901 327.886 646.585 316.522 673.65 292.002L674.937 290.824L674.938 290.823C703.259 264.529 714.162 230.712 715.318 193.41L715.366 191.632V191.617C715.759 147.152 697.128 114.031 663.953 100.816L663.167 100.508L661.719 99.96Z" stroke="url(#paint3_linear_2_674)" stroke-opacity="0.8" stroke-width="2"></path></mask><g mask="url(#mask0_2_674)"><path d="M-74 -66H1854V472H-74V-66Z" fill="url(#paint4_linear_2_674)"></path><path d="M1853 -65V471H-73V-65H1853Z" stroke="url(#paint5_linear_2_674)" stroke-opacity="0.8" stroke-width="2"></path></g><defs><linearGradient id="paint0_linear_2_674" x1="1230.53" y1="201.357" x2="1640.72" y2="201.357" gradientUnits="userSpaceOnUse"><stop stop-color="#BF0811"></stop><stop offset="1" stop-color="#FF3640"></stop></linearGradient><linearGradient id="paint1_linear_2_674" x1="4" y1="205.713" x2="380.678" y2="205.713" gradientUnits="userSpaceOnUse"><stop stop-color="#BF0811"></stop><stop offset="1" stop-color="#FF3640"></stop></linearGradient><linearGradient id="paint2_linear_2_674" x1="838.894" y1="222.409" x2="1207.11" y2="222.409" gradientUnits="userSpaceOnUse"><stop stop-color="#BF0811"></stop><stop offset="1" stop-color="#FF3640"></stop></linearGradient><linearGradient id="paint3_linear_2_674" x1="418.572" y1="207.357" x2="810.352" y2="207.357" gradientUnits="userSpaceOnUse"><stop stop-color="#BF0811"></stop><stop offset="1" stop-color="#FF3640"></stop></linearGradient><linearGradient id="paint4_linear_2_674" x1="1130.74" y1="90.3055" x2="970.971" y2="870.94" gradientUnits="userSpaceOnUse"><stop stop-color="#F2485C"></stop><stop offset="1" stop-color="#141A48" stop-opacity="0"></stop></linearGradient><linearGradient id="paint5_linear_2_674" x1="-35.9014" y1="162.417" x2="1892.1" y2="162.417" gradientUnits="userSpaceOnUse"><stop stop-color="#BF0811"></stop><stop offset="1" stop-color="#F40000"></stop></linearGradient></defs></svg>