<svg xmlns="http://www.w3.org/2000/svg" width="17" height="13" viewBox="0 0 17 13" fill="none"><path d="M14.0833 0.5H3.41667C1.95 0.5 0.75 1.7 0.75 3.16667V9.83333C0.75 11.3 1.95 12.5 3.41667 12.5H14.0833C15.55 12.5 16.75 11.3 16.75 9.83333V3.16667C16.75 1.7 15.55 0.5 14.0833 0.5ZM15.15 4.36667L9.88333 7.9C9.55 8.1 9.15 8.23333 8.75 8.23333C8.35 8.23333 7.95 8.1 7.61667 7.9L2.35 4.36667C2.08333 4.16667 2.01667 3.76667 2.21667 3.43333C2.41667 3.16667 2.81667 3.1 3.15 3.3L8.41667 6.83333C8.61667 6.96667 8.95 6.96667 9.15 6.83333L14.4167 3.3C14.75 3.1 15.15 3.16667 15.35 3.5C15.4833 3.76667 15.4167 4.16667 15.15 4.36667Z" fill="white"></path></svg>