<svg xmlns="http://www.w3.org/2000/svg" width="417" height="105" viewBox="0 0 417 105" fill="none"><mask id="mask0_4_1167" style="mask-type:alpha" maskUnits="userSpaceOnUse" x="0" y="0" width="417" height="105"><path d="M367.294 1.79492C376.147 0.356663 384.848 0.7785 393.203 3.81738L394.011 4.12012H394.012C409.63 10.1193 418.173 25.1973 414.823 42.5596L414.654 43.3877V43.3887C410.842 61.2493 406.061 78.8764 401.629 96.6562L400.747 100.215V100.217C400.584 100.888 400.373 101.127 400.199 101.243C399.993 101.381 399.626 101.486 398.871 101.478C392.514 101.39 386.15 101.373 379.785 101.425L377.058 101.451H377.055C376.568 101.458 376.242 101.442 376.021 101.402C375.972 101.394 375.935 101.384 375.907 101.376C375.907 101.362 375.903 101.345 375.903 101.325C375.905 101.13 375.954 100.81 376.099 100.301L376.1 100.302C377.388 95.7978 378.397 91.1038 379.521 86.585L380.012 84.6602C380.147 84.1413 380.252 83.6333 380.27 83.168C380.287 82.7016 380.222 82.1789 379.92 81.7158C379.606 81.2356 379.133 80.9638 378.625 80.8203C378.257 80.7165 377.84 80.6706 377.386 80.6621L376.92 80.665H376.919C372.445 80.8033 367.984 80.7481 363.479 80.7275L363.506 80.7012H361.087C356.53 80.7012 352.038 80.8054 347.545 80.6982L345.618 80.6387H345.616C344.389 80.5936 343.341 80.7985 342.535 81.4736C341.846 82.0511 341.471 82.8617 341.226 83.749L341.128 84.1338L341.127 84.1357C340.537 86.6774 339.903 89.2119 339.264 91.7568C338.626 94.2987 337.983 96.8514 337.385 99.417C337.168 100.341 336.962 100.812 336.693 101.079C336.502 101.269 336.168 101.461 335.406 101.487L335.053 101.488H335.052C329.873 101.352 324.686 101.348 319.507 101.397L314.331 101.461C313.85 101.468 313.523 101.455 313.294 101.418C313.232 101.408 313.187 101.397 313.155 101.388C313.154 101.374 313.151 101.358 313.15 101.34C313.147 101.197 313.169 100.982 313.236 100.665L313.32 100.312V100.312C318.774 79.0247 323.788 57.679 329.509 36.5068L330.663 32.2754C333.175 23.1457 337.744 16.2901 343.945 11.3398C349.962 6.53651 357.567 3.48617 366.432 1.93945L367.294 1.79492ZM385.049 24.9512C373.44 18.8125 359.359 23.5891 354.037 35.4229L353.79 35.9922C352.338 39.463 351.359 43.0529 350.496 46.626C349.736 49.7747 349.073 52.8753 348.256 55.9424L347.896 57.2549V57.2568C347.725 57.8611 347.654 58.4599 347.819 58.9941C348.011 59.6099 348.458 59.9651 348.93 60.1328C349.342 60.2791 349.782 60.2884 350.1 60.2832C350.268 60.2804 350.44 60.2723 350.586 60.2656L350.988 60.2529C355.599 60.2607 360.212 60.2547 364.821 60.2529L364.812 60.2617H383.861C383.975 60.2617 384.093 60.2664 384.229 60.2715C384.358 60.2764 384.508 60.2823 384.656 60.2842C384.948 60.2879 385.313 60.2771 385.68 60.1816C386.065 60.0813 386.46 59.8861 386.792 59.5264C387.076 59.2188 387.269 58.8382 387.396 58.4053L387.447 58.2168V58.2158C387.871 56.4588 388.351 54.7081 388.84 52.9434C389.328 51.1834 389.826 49.406 390.276 47.6191C391.122 44.2674 391.814 40.8386 391.99 37.291L392.019 36.5801V36.5791C392.162 31.5295 389.812 27.6442 385.476 25.1846L385.05 24.9512H385.049Z" stroke="url(#paint0_linear_4_1167)" stroke-opacity="0.8" stroke-width="2"></path><path d="M26.585 3.41504C37.6551 3.52162 48.5512 2.8082 59.3848 3.69238L60.4336 3.7832C75.737 5.18099 85.5884 14.4024 91.3789 28.1602L91.6514 28.8184C96.193 39.9771 95.924 54.7223 90.8174 68.0322C85.7966 81.118 76.1441 92.7048 61.9629 98.1084L61.2842 98.3604C56.0331 100.27 50.6105 101.221 45.0391 101.384L43.9229 101.406H43.9219C37.6141 101.475 31.3218 101.431 25 101.426V101.415H24C17.7651 101.415 11.5118 101.36 5.25586 101.425L2.5752 101.461C2.02054 101.47 1.62549 101.458 1.33887 101.413C1.14152 101.382 1.05524 101.343 1.02539 101.327C1.01736 101.303 1.00492 101.252 1.00098 101.159C0.993486 100.983 1.0179 100.725 1.0957 100.353L1.19238 99.9404V99.9395C9.27896 68.4086 17.2562 36.8412 25.251 5.29492C25.2967 5.11506 25.3363 4.93701 25.3711 4.77734C25.407 4.61246 25.4376 4.4688 25.4717 4.33105C25.5411 4.05033 25.6065 3.86815 25.6797 3.74121C25.7419 3.63333 25.8048 3.57315 25.8926 3.52832C25.9939 3.47664 26.1965 3.41161 26.585 3.41504ZM48.1992 24.7812C46.8528 24.5894 45.68 24.7348 44.7656 25.4893C43.897 26.206 43.4589 27.3201 43.1611 28.5498C40.1102 41.0934 36.8943 53.5863 33.7324 66.1152L32.3818 71.4873C31.9333 73.2789 31.574 74.7179 31.4453 75.8213C31.3196 76.8996 31.368 77.9812 32.1064 78.7793C32.8039 79.533 33.8968 79.7779 35.0762 79.8936C36.3013 80.0137 37.947 80.0127 40.0361 80.0127V80.0137C45.0662 80.1471 50.78 79.7887 56.1602 77.0781L56.6797 76.8076C62.9106 73.4694 67.3318 67.8697 70.0225 61.8057C72.6265 55.9367 73.6436 49.5601 73.0771 44.2295L73.0176 43.7168C72.1943 37.2235 70.111 32.431 66.417 29.2842C62.8445 26.2411 57.9223 24.8714 51.6221 24.793L51.0088 24.79C50.5064 24.79 49.943 24.8209 49.501 24.832C49.0248 24.8441 48.5984 24.8377 48.1982 24.7812H48.1992Z" stroke="url(#paint1_linear_4_1167)" stroke-opacity="0.8" stroke-width="2"></path><path d="M254.924 3.04492C273.042 -1.10306 289.848 3.0477 304.874 14.0215L305.588 14.5488C306.166 14.9811 306.18 15.1997 306.184 15.2588C306.193 15.4255 306.114 15.6912 305.782 16.3281C302.673 22.3001 299.61 28.2966 296.428 34.5039C289.927 27.6212 280.025 23.9181 270.045 24.0264C259.694 24.1387 249.152 28.3521 242.128 37.5039L241.796 37.9434C238.434 42.4712 236.675 48.7191 236.526 54.917C236.383 60.9199 237.747 67.0107 240.781 71.5703L241.08 72.0068C245.611 78.442 252.46 80.1715 259.416 80.9414V80.9424C259.802 80.9856 260.215 81.0017 260.611 81.0098L261.703 81.0303C264.397 81.1295 266.512 81.1927 268.163 81.0557C269.819 80.9182 271.164 80.5701 272.22 79.7236C273.277 78.8759 273.9 77.6441 274.379 76.0723C274.856 74.507 275.23 72.4541 275.691 69.8438C275.772 69.3858 275.819 68.9421 275.786 68.5381C275.752 68.1238 275.627 67.6819 275.305 67.3135C274.982 66.9455 274.562 66.7654 274.163 66.6768C273.871 66.6118 273.553 66.5869 273.223 66.585L272.89 66.5898C271.249 66.6436 269.604 66.6395 267.94 66.6338C266.697 66.6295 265.441 66.6245 264.182 66.6436L262.921 66.6719H262.92C262.512 66.6847 262.217 66.6709 262.008 66.6338C261.887 66.6124 261.823 66.5873 261.793 66.5732C261.79 66.5605 261.785 66.5418 261.782 66.5146C261.769 66.3777 261.784 66.1226 261.896 65.6924C263.419 59.91 264.878 54.1005 266.281 48.2832C266.429 47.6739 266.614 47.496 266.738 47.417C266.908 47.3089 267.222 47.2217 267.913 47.2217C280.108 47.258 292.293 47.2399 304.488 47.1582C304.929 47.1561 305.202 47.1804 305.368 47.2168C305.368 47.2254 305.37 47.2345 305.369 47.2441C305.359 47.4415 305.306 47.7374 305.19 48.1904C303 56.7602 300.841 65.3367 298.696 73.916L292.285 99.6582C292.089 100.446 291.947 100.857 291.731 101.107C291.589 101.273 291.311 101.484 290.469 101.469C278.177 101.231 266.149 101.725 253.944 101.18H253.945C244.621 100.756 237.158 98.0517 231.241 93.4336C225.502 88.954 221.154 82.6247 217.992 74.6797L217.689 73.9062C206.787 45.4604 224.761 10.4317 254.226 3.20996L254.924 3.04492Z" stroke="url(#paint2_linear_4_1167)" stroke-opacity="0.8" stroke-width="2"></path><path d="M147.08 3.25586C172.672 -3.33391 197.373 11.8558 202.99 37.4971L203.119 38.1055C208.703 65.1957 192.405 93.6474 166.842 101.787L166.236 101.976H166.235C161.836 103.317 157.338 103.954 152.746 103.804L152.313 103.79L152.296 103.807C128.794 103.59 110.382 87.0106 106.988 63.0039L106.837 61.8486C103.816 36.7036 121.933 10.0807 146.499 3.41016L147.08 3.25586ZM167.269 24.6035C151.623 19.0338 134.999 27.2938 130.199 43.0879L129.977 43.8584V43.8594C128.551 49.0516 128.088 54.3776 128.983 59.7324L129.074 60.251V60.252C130.851 69.8748 135.711 77.4705 145.438 80.8916L145.905 81.0518C155.405 84.2097 163.628 81.3311 170.589 75.168L171.259 74.5615L171.26 74.5605C178.536 67.8045 181.385 59.1556 181.759 49.7041L181.787 48.7871V48.7734C181.888 37.3373 177.118 28.6129 168.441 25.0498L168.025 24.8838L167.269 24.6035Z" stroke="url(#paint3_linear_4_1167)" stroke-opacity="0.8" stroke-width="2"></path></mask><g mask="url(#mask0_4_1167)"><path d="M-5.97852 -15H423.021V119H-5.97852V-15Z" fill="url(#paint4_linear_4_1167)"></path><path d="M422.021 -14V118H-4.97852V-14H422.021Z" stroke="url(#paint5_linear_4_1167)" stroke-opacity="0.8" stroke-width="2"></path></g><defs><linearGradient id="paint0_linear_4_1167" x1="312.15" y1="51.2452" x2="416.545" y2="51.2452" gradientUnits="userSpaceOnUse"><stop stop-color="#BF0811"></stop><stop offset="1" stop-color="#FF3640"></stop></linearGradient><linearGradient id="paint1_linear_4_1167" x1="0" y1="52.3539" x2="95.8643" y2="52.3539" gradientUnits="userSpaceOnUse"><stop stop-color="#BF0811"></stop><stop offset="1" stop-color="#FF3640"></stop></linearGradient><linearGradient id="paint2_linear_4_1167" x1="213.475" y1="51.4682" x2="307.185" y2="51.4682" gradientUnits="userSpaceOnUse"><stop stop-color="#BF0811"></stop><stop offset="1" stop-color="#FF3640"></stop></linearGradient><linearGradient id="paint3_linear_4_1167" x1="105.508" y1="52.7721" x2="205.215" y2="52.7721" gradientUnits="userSpaceOnUse"><stop stop-color="#BF0811"></stop><stop offset="1" stop-color="#FF3640"></stop></linearGradient><linearGradient id="paint4_linear_4_1167" x1="262.088" y1="23.9311" x2="248.743" y2="141.526" gradientUnits="userSpaceOnUse"><stop stop-color="#F2485C"></stop><stop offset="1" stop-color="#141A48" stop-opacity="0"></stop></linearGradient><linearGradient id="paint5_linear_4_1167" x1="2.49881" y1="41.892" x2="431.499" y2="41.892" gradientUnits="userSpaceOnUse"><stop stop-color="#BF0811"></stop><stop offset="1" stop-color="#F40000"></stop></linearGradient></defs></svg>