<svg xmlns="http://www.w3.org/2000/svg" width="23" height="21" viewBox="0 0 23 21" fill="none"><path d="M22.649 18.7662L17.6397 14.1658C18.8458 12.6913 19.4968 10.8966 19.4946 9.05246C19.4946 4.34205 15.3217 0.509766 10.1926 0.509766C5.06353 0.509766 0.890625 4.34205 0.890625 9.05246C0.890625 13.7629 5.06353 17.5952 10.1926 17.5952C12.2006 17.5972 14.1549 16.9993 15.7604 15.8917L20.7697 20.4921C21.0233 20.7003 21.354 20.8114 21.694 20.8027C22.0339 20.7939 22.3574 20.666 22.5979 20.4451C22.8384 20.2243 22.9777 19.9272 22.9872 19.615C22.9967 19.3028 22.8757 18.999 22.649 18.7662ZM3.54834 9.05246C3.54834 7.84561 3.93802 6.66587 4.6681 5.66241C5.39818 4.65896 6.43588 3.87686 7.64996 3.41502C8.86404 2.95318 10.2 2.83234 11.4888 3.06778C12.7777 3.30323 13.9616 3.88438 14.8908 4.73775C15.82 5.59112 16.4529 6.67838 16.7092 7.86203C16.9656 9.04569 16.834 10.2726 16.3311 11.3876C15.8282 12.5025 14.9766 13.4555 13.884 14.126C12.7913 14.7965 11.5067 15.1544 10.1926 15.1544C8.43109 15.1524 6.74232 14.5089 5.49673 13.365C4.25115 12.2211 3.55045 10.6702 3.54834 9.05246Z" fill="#0A3A5E"></path></svg>