<svg width="16" height="16" viewBox="0 0 16 16" fill="none" xmlns="http://www.w3.org/2000/svg">
<path d="M15.0395 12.0034L11.7111 8.97711C11.5537 8.8341 11.347 8.75783 11.1344 8.7644C10.9219 8.77097 10.7203 8.85987 10.5721 9.01232L8.61266 11.0274C8.14102 10.9373 7.19284 10.6418 6.21681 9.66819C5.24079 8.69134 4.94519 7.7407 4.85758 7.27234L6.87104 5.3121C7.02368 5.164 7.1127 4.96232 7.11928 4.74974C7.12585 4.53716 7.04945 4.33037 6.90625 4.17313L3.88074 0.845467C3.73748 0.687728 3.53837 0.592048 3.32571 0.578747C3.11304 0.565445 2.90356 0.635571 2.74177 0.774231L0.964941 2.29804C0.823377 2.44012 0.738882 2.62921 0.727485 2.82945C0.715202 3.03416 0.481022 7.88317 4.24101 11.6448C7.52118 14.9242 11.63 15.1641 12.7616 15.1641C12.927 15.1641 13.0285 15.1592 13.0555 15.1575C13.2558 15.1463 13.4447 15.0614 13.5861 14.9192L15.1091 13.1416C15.2483 12.9803 15.319 12.771 15.306 12.5584C15.293 12.3457 15.1973 12.1466 15.0395 12.0034Z" fill="#F40000"/>
</svg>
