<svg xmlns="http://www.w3.org/2000/svg" width="17" height="13" viewBox="0 0 17 13" fill="none"><path d="M14.306 0.462891H3.63932C2.17266 0.462891 0.972656 1.66289 0.972656 3.12956V9.79622C0.972656 11.2629 2.17266 12.4629 3.63932 12.4629H14.306C15.7727 12.4629 16.9727 11.2629 16.9727 9.79622V3.12956C16.9727 1.66289 15.7727 0.462891 14.306 0.462891ZM15.3727 4.32956L10.106 7.86289C9.77266 8.06289 9.37266 8.19622 8.97266 8.19622C8.57266 8.19622 8.17266 8.06289 7.83932 7.86289L2.57266 4.32956C2.30599 4.12956 2.23932 3.72956 2.43932 3.39622C2.63932 3.12956 3.03932 3.06289 3.37266 3.26289L8.63932 6.79622C8.83932 6.92956 9.17266 6.92956 9.37266 6.79622L14.6393 3.26289C14.9727 3.06289 15.3727 3.12956 15.5727 3.46289C15.706 3.72956 15.6393 4.12956 15.3727 4.32956Z" fill="#F40000"></path></svg>