<svg width="53" height="39" viewBox="0 0 53 39" fill="none" xmlns="http://www.w3.org/2000/svg">
<path d="M25.3203 12.7263H17.3748C16.8074 12.7263 16.2656 12.9693 15.8883 13.3932C15.5111 13.8171 15.3324 14.3834 15.3982 14.9472L15.9875 19.9985C16.1046 21.0015 16.9544 21.758 17.9642 21.758H24.731C25.7409 21.758 26.5908 21.0016 26.7078 19.9985L27.2971 14.9472C27.3629 14.3835 27.1842 13.8171 26.807 13.3932C26.4297 12.9693 25.8877 12.7263 25.3203 12.7263ZM26.4815 14.8519L25.8922 19.9032C25.8235 20.4924 25.3243 20.9368 24.7309 20.9368H17.9641C17.3708 20.9368 16.8716 20.4924 16.8029 19.9032L16.2136 14.8519C16.175 14.5208 16.2799 14.1881 16.5015 13.9391C16.7232 13.6901 17.0415 13.5474 17.3748 13.5474H25.3203C25.6536 13.5474 25.9719 13.6902 26.1935 13.9391C26.4152 14.188 26.5201 14.5208 26.4815 14.8519Z" fill="white"/>
<path d="M52.5015 4.60089L50.2438 0.222432C50.2048 0.146896 50.1456 0.088499 50.0762 0.050628C49.9606 -0.0126954 49.8166 -0.0191616 49.6906 0.0457013L33.1289 8.58482L33.2177 7.74089C33.7135 7.5816 34.0735 7.11648 34.0735 6.56843C34.0735 5.88932 33.521 5.33685 32.8419 5.33685H9.8526C9.17349 5.33685 8.62102 5.88932 8.62102 6.56843C8.62102 7.11648 8.98105 7.5816 9.47676 7.74089L10.0623 13.303L9.09908 13.1425C9.08779 13.1405 9.0767 13.1412 9.06542 13.1403C9.05402 13.1394 9.04314 13.1369 9.03155 13.1369H7.38945C7.16273 13.1369 6.97892 13.3207 6.97892 13.5475V16.8317C6.97892 17.0584 7.16273 17.2422 7.38945 17.2422H9.03155C9.25826 17.2422 9.44207 17.0584 9.44207 16.8317V14.0321L10.1515 14.1503L11.0387 22.579H9.03155C7.89973 22.579 6.97892 23.4998 6.97892 24.6316C6.97892 24.8583 7.16273 25.0422 7.38945 25.0422H11.9757C12.5598 25.0422 13.1115 25.2506 13.5473 25.6315V27.5495C13.0253 27.0162 12.2982 26.6843 11.4947 26.6843C10.7285 26.6843 10.007 26.983 9.46239 27.5263C9.07557 27.914 8.81345 28.3922 8.6944 28.9124H6.97892V28.6196C6.97892 28.3929 6.79511 28.209 6.5684 28.209C6.34169 28.209 6.15787 28.3929 6.15787 28.6196V28.9124H3.69472V28.7369C3.69472 28.0578 3.14226 27.5053 2.46315 27.5053C1.78404 27.5053 1.23157 28.0578 1.23157 28.7369V29.3229V31.0241H0.410525C0.183812 31.0241 0 31.2079 0 31.4346V34.2496C0 34.4763 0.183812 34.6601 0.410525 34.6601H1.23157V36.3614V36.9474C1.23157 37.6265 1.78404 38.179 2.46315 38.179C3.14226 38.179 3.69472 37.6265 3.69472 36.9474V36.7719H6.15787V37.0647C6.15787 37.2914 6.34169 37.4752 6.5684 37.4752C6.79511 37.4752 6.97892 37.2914 6.97892 37.0647V36.7719H8.69502C8.98885 38.0465 10.1321 39 11.4947 39C12.8573 39 14.0005 38.0465 14.2944 36.7719H16.0105V37.0647C16.0105 37.2914 16.1943 37.4752 16.421 37.4752C16.6477 37.4752 16.8315 37.2914 16.8315 37.0647V36.7719H20.9368V37.0647C20.9368 37.2914 21.1206 37.4752 21.3473 37.4752C21.574 37.4752 21.7578 37.2914 21.7578 37.0647V36.7719H25.8631V37.0647C25.8631 37.2914 26.0469 37.4752 26.2736 37.4752C26.5003 37.4752 26.6841 37.2914 26.6841 37.0647V36.7719H28.4002C28.694 38.0465 29.8373 39 31.1999 39C32.5625 39 33.7057 38.0465 33.9996 36.7719H35.7157V37.0647C35.7157 37.2914 35.8995 37.4752 36.1262 37.4752C36.3529 37.4752 36.5367 37.2914 36.5367 37.0647V36.7719H38.9999V36.9474C38.9999 37.6265 39.5523 38.179 40.2314 38.179C40.9105 38.179 41.463 37.6265 41.463 36.9474V36.3614V34.6601H42.2841C42.5108 34.6601 42.6946 34.4763 42.6946 34.2496V31.4346C42.6946 31.2079 42.5108 31.0241 42.2841 31.0241H41.463V29.3229V28.7369C41.463 28.0578 40.9105 27.5053 40.2314 27.5053C39.5523 27.5053 38.9999 28.0578 38.9999 28.7369V28.9124H36.5367V28.6196C36.5367 28.3929 36.3529 28.209 36.1262 28.209C35.8995 28.209 35.7157 28.3929 35.7157 28.6196V28.9124H34.0002C33.881 28.3922 33.6188 27.9139 33.2316 27.5256C32.6877 26.983 31.9661 26.6843 31.2 26.6843C30.3965 26.6843 29.6693 27.0161 29.1474 27.5495V25.6315C29.583 25.2507 30.1349 25.0422 30.719 25.0422H35.3051C35.5318 25.0422 35.7157 24.8583 35.7157 24.6316C35.7157 23.4998 34.7949 22.579 33.663 22.579H31.6559L32.5431 14.1503L33.2525 14.0321V16.8317C33.2525 17.0584 33.4363 17.2422 33.663 17.2422H35.3051C35.5318 17.2422 35.7157 17.0584 35.7157 16.8317V13.5475C35.7157 13.3207 35.5318 13.1369 35.3051 13.1369H33.663C33.6517 13.1369 33.6411 13.1394 33.63 13.1402C33.6185 13.1412 33.6071 13.1405 33.5955 13.1425L32.6323 13.303L32.7176 12.4931L46.6663 5.30032L49.8225 6.30898C49.8633 6.32201 49.9055 6.32837 49.9475 6.32837C50.0124 6.32837 50.077 6.31308 50.1357 6.28281L52.3249 5.15397C52.5263 5.05 52.6055 4.80235 52.5015 4.60089ZM8.62102 16.421H7.79997V13.9579H8.62102V16.421ZM34.0736 13.9579H34.8946V16.421H34.0736V13.9579ZM46.806 4.30449L46.0534 2.84497L49.7021 0.963635L50.4546 2.42295L46.806 4.30449ZM9.8526 6.1579H32.842C33.0684 6.1579 33.2525 6.34203 33.2525 6.56843C33.2525 6.79483 33.0684 6.97895 32.842 6.97895H9.8526C9.62619 6.97895 9.44207 6.79483 9.44207 6.56843C9.44207 6.34203 9.62619 6.1579 9.8526 6.1579ZM10.9918 14.2902L13.0042 14.6256L13.7143 22.5789H11.8643L10.9918 14.2902ZM13.5856 11.9053H29.109L28.1559 22.5789H14.5386L13.5856 11.9053ZM13.6177 11.0842C13.7872 10.6064 14.2438 10.2632 14.7789 10.2632H27.9157C28.4509 10.2632 28.9075 10.6064 29.0769 11.0842H13.6177ZM28.3262 28.9123H26.6841V28.6195C26.6841 28.3928 26.5003 28.2089 26.2736 28.2089C26.0469 28.2089 25.8631 28.3928 25.8631 28.6195V28.9123H21.7578V28.6195C21.7578 28.3928 21.574 28.2089 21.3473 28.2089C21.1206 28.2089 20.9368 28.3928 20.9368 28.6195V28.9123H16.8315V28.6195C16.8315 28.3928 16.6477 28.2089 16.421 28.2089C16.1943 28.2089 16.0105 28.3928 16.0105 28.6195V28.9123H14.3684V25.8631H28.3262V28.9123ZM30.7894 29.7333V31.7274H29.1473V29.7333H30.7894ZM38.9999 33.1355H36.5367V32.5484H38.9999V33.1355ZM35.7157 33.1355H26.6841V32.5484H35.7157V33.1355ZM31.6104 35.9507V33.9566H33.2525V35.9507H31.6104ZM30.7894 33.9566V35.9507H29.1473V33.9566H30.7894ZM11.9052 35.9507V33.9566H13.5473V35.9507H11.9052ZM3.69472 32.5484H6.15787V33.1355H3.69472V32.5484ZM6.97892 32.5484H11.0842V33.1355H6.97892V32.5484ZM11.0842 29.7333V31.7274H9.44207V29.7333H11.0842ZM16.0105 29.7333V31.7274H14.3684V29.7333H16.0105ZM20.9368 31.7273H16.8315V29.7332H20.9368V31.7273ZM21.7578 29.7333H25.8631V31.7274H21.7578V29.7333ZM13.5473 31.7273H11.9052V29.7332H13.5473V31.7273ZM11.0842 33.9566V35.9507H9.44207V33.9566H11.0842ZM11.9052 33.1355V32.5484H16.0105V33.1355H11.9052ZM16.8315 32.5484H20.9368V33.1355H16.8315V32.5484ZM21.7578 32.5484H25.8631V33.1355H21.7578V32.5484ZM31.6104 31.7273V29.7332H33.2525V31.7273H31.6104ZM28.3262 31.7273H26.6841V29.7332H28.3262V31.7273ZM10.043 28.1068C10.4318 27.7189 10.9475 27.5052 11.4947 27.5052C12.4008 27.5052 13.1704 28.096 13.4417 28.9123H11.9052V28.6195C11.9052 28.3928 11.7214 28.2089 11.4947 28.2089C11.268 28.2089 11.0842 28.3928 11.0842 28.6195V28.9123H9.54737C9.64651 28.6125 9.81339 28.3369 10.043 28.1068ZM8.62102 29.7333V31.7274H6.97892V29.7333H8.62102ZM6.15787 29.7333V31.7274H3.69472V29.7333H6.15787ZM0.82105 33.839V31.8451H1.23157V32.138V33.5462V33.8391H0.82105V33.839ZM2.87367 36.9473C2.87367 37.1737 2.68955 37.3578 2.46315 37.3578C2.23674 37.3578 2.05262 37.1737 2.05262 36.9473V36.3612V34.2495V33.5461V32.1379V31.4344V29.3227V28.7367C2.05262 28.5103 2.23674 28.3261 2.46315 28.3261C2.68955 28.3261 2.87367 28.5103 2.87367 28.7367V36.9473ZM3.69472 35.9507V33.9566H6.15787V35.9507H3.69472ZM6.97892 33.9566H8.62102V35.9507H6.97892V33.9566ZM11.4947 38.1788C10.5886 38.1788 9.81904 37.588 9.54768 36.7718H11.0842V37.0646C11.0842 37.2913 11.268 37.4751 11.4947 37.4751C11.7214 37.4751 11.9052 37.2913 11.9052 37.0646V36.7718H13.4417C13.1704 37.5879 12.4008 38.1788 11.4947 38.1788ZM14.3684 35.9507V33.9566H16.0105V35.9507H14.3684ZM16.8315 35.9507V33.9566H20.9368V35.9507H16.8315ZM21.7578 35.9507V33.9566H25.8631V35.9507H21.7578ZM26.6841 33.9566H28.3262V35.9507H26.6841V33.9566ZM31.1999 38.1788C30.2938 38.1788 29.5242 37.588 29.2529 36.7718H30.7894V37.0643C30.7894 37.291 30.9732 37.4748 31.1999 37.4748C31.4266 37.4748 31.6104 37.291 31.6104 37.0643V36.7718H33.1469C32.8755 37.5879 32.106 38.1788 31.1999 38.1788ZM34.0736 35.9507V33.9566H35.7157V35.9507H34.0736ZM36.5367 35.9507V33.9566H38.9999V35.9507H36.5367ZM41.8735 31.8451V33.839H41.463V33.5461V32.1379V31.845L41.8735 31.8451ZM39.8209 28.7368C39.8209 28.5104 40.005 28.3263 40.2314 28.3263C40.4578 28.3263 40.642 28.5104 40.642 28.7368V29.3228V31.4345V32.138V33.5462V34.2496V36.3614V36.9474C40.642 37.1738 40.4578 37.3579 40.2314 37.3579C40.005 37.3579 39.8209 37.1738 39.8209 36.9474V28.7368ZM38.9999 29.7333V31.7274H36.5367V29.7333H38.9999ZM35.7157 31.7273H34.0736V29.7332H35.7157V31.7273ZM31.1999 27.5052C31.7472 27.5052 32.2627 27.7189 32.651 28.1061C32.881 28.3366 33.048 28.6124 33.1472 28.9122H31.6104V28.6197C31.6104 28.393 31.4266 28.2091 31.1999 28.2091C30.9732 28.2091 30.7894 28.393 30.7894 28.6197V28.9122H29.2529C29.5242 28.096 30.2938 27.5052 31.1999 27.5052ZM34.8242 24.221H30.7189C29.9189 24.221 29.1636 24.5112 28.5732 25.0421H14.1213C13.5309 24.5112 12.7756 24.221 11.9757 24.221H7.87038C8.03982 23.7431 8.49643 23.4 9.03155 23.4H11.4947H14.1631H28.5315H31.1999H33.663C34.1983 23.4 34.6549 23.7431 34.8242 24.221ZM30.8303 22.5789H28.9803L29.6904 14.6256L31.7028 14.2902L30.8303 22.5789ZM29.7658 13.7807L29.9667 11.5313C29.9672 11.5252 29.9662 11.5194 29.9664 11.5134C29.9667 11.507 29.9682 11.5011 29.9682 11.4947C29.9682 10.3629 29.0474 9.4421 27.9156 9.4421H14.7789C13.6471 9.4421 12.7263 10.3629 12.7263 11.4947C12.7263 11.5011 12.7279 11.507 12.7281 11.5134C12.7284 11.5194 12.7273 11.5252 12.7278 11.5313L12.9287 13.7807L10.9025 13.4431L10.3085 7.8H32.3858L32.2333 9.24864C32.2332 9.24998 32.233 9.25131 32.2329 9.25265L31.7918 13.4431L29.7658 13.7807ZM33.0261 9.56157L45.3236 3.22101L46.0763 4.68073L32.8203 11.5164L33.0261 9.56157ZM49.9105 5.475L47.6983 4.76807L50.831 3.15266L51.5837 4.61228L49.9105 5.475Z" fill="white"/>
</svg>
