<svg width="50" height="51" viewBox="0 0 50 51" fill="none" xmlns="http://www.w3.org/2000/svg">
<g clip-path="url(#clip0_1759_25876)">
<path d="M40.849 15.6501C40.8624 15.5813 40.8789 15.535 40.8789 15.4887C40.8789 14.0326 40.8789 12.5781 40.8789 11.0832H24.7678V16.426C24.9993 16.426 25.2323 16.4215 25.4653 16.426C26.348 16.4469 26.9618 17.0598 26.9708 17.9403C26.9783 18.7864 26.9783 19.6325 26.9708 20.4786C26.9633 21.3845 26.3525 22.0094 25.4533 22.0199C24.4706 22.0303 23.4863 22.0318 22.5036 22.0199C21.6164 22.0079 21.016 21.386 21.013 20.5011C21.01 19.643 21.01 18.7834 21.013 17.9253C21.0175 17.0673 21.6238 16.4514 22.4856 16.426C22.7201 16.4185 22.9546 16.426 23.213 16.426V11.0368H9.13468V15.6471C9.27507 15.6546 9.4065 15.6591 9.53943 15.6665C10.2832 15.7069 10.8299 16.2391 10.8463 16.9836C10.8657 17.8297 10.8642 18.6758 10.8463 19.5219C10.8314 20.2514 10.2563 20.818 9.53047 20.8299C8.74635 20.8434 7.96223 20.8419 7.17811 20.8299C6.44776 20.8195 5.87572 20.2544 5.86228 19.5264C5.84734 18.6803 5.84884 17.8342 5.86228 16.988C5.87274 16.2645 6.40892 15.7189 7.12733 15.6695C7.26175 15.6606 7.39766 15.6561 7.56643 15.6471V11.0578C7.26025 11.0578 6.95407 11.0578 6.6464 11.0578C5.79955 11.0578 4.95419 11.0623 4.10734 11.0563C3.35758 11.0503 2.93042 10.6183 2.92743 9.86933C2.92295 8.98584 2.92295 8.10236 2.92743 7.21887C2.93042 6.47142 3.35309 6.04537 4.10734 6.03192C4.51658 6.02445 4.92582 6.03192 5.36791 6.03192V4.24103C4.86607 4.24103 4.3717 4.24103 3.87733 4.24103C3.36654 4.24103 2.85574 4.25598 2.34643 4.23505C1.8894 4.21711 1.5892 3.89122 1.59368 3.47116C1.59816 3.0496 1.90583 2.74464 2.37033 2.73866C3.22913 2.7267 4.08793 2.73417 4.94673 2.73417C5.08115 2.73417 5.21706 2.73417 5.37837 2.73417C5.44109 1.8477 5.77267 1.12715 6.48061 0.608424C6.972 0.248153 7.52611 0.0867042 8.12801 0.110623C9.24968 0.156964 10.4908 0.935807 10.6611 2.71474C10.7851 2.72072 10.9165 2.73268 11.0464 2.73268C11.8933 2.73417 12.7386 2.72969 13.5855 2.73567C14.1142 2.73866 14.4353 3.02119 14.4413 3.46667C14.4473 3.91664 14.1023 4.23356 13.5765 4.23804C12.7431 4.24552 11.9082 4.23954 11.0748 4.23954C10.9404 4.23954 10.8075 4.23954 10.6536 4.23954V6.04986H22.163V3.57431C21.9943 3.57431 21.8643 3.57431 21.7329 3.57431C20.8995 3.57431 20.0646 3.57729 19.2312 3.57431C18.7233 3.57132 18.3948 3.27533 18.3903 2.82835C18.3858 2.3754 18.7009 2.07941 19.2207 2.07492C20.1781 2.06745 21.1355 2.07343 22.1242 2.07343C22.1556 1.92842 22.1839 1.79986 22.2123 1.6698C22.4319 0.690644 23.2922 0 24.2943 0C24.5931 0 24.8918 0 25.1905 0C26.221 0 27.041 0.642807 27.2919 1.64588C27.3248 1.77744 27.3532 1.91198 27.3905 2.07492C28.2478 2.07492 29.1051 2.07492 29.9624 2.07492C30.0998 2.07492 30.2372 2.07044 30.3731 2.07791C30.8227 2.10183 31.1453 2.41875 31.1393 2.82835C31.1334 3.24842 30.8197 3.56833 30.3672 3.57281C29.3844 3.58327 28.4016 3.5758 27.3636 3.5758V6.01996H39.3345V4.23954C38.8551 4.23954 38.3846 4.23954 37.9156 4.23954C37.3809 4.23954 36.8447 4.25448 36.3101 4.23206C35.8456 4.21263 35.5558 3.89272 35.5633 3.46518C35.5692 3.04212 35.8724 2.74314 36.3414 2.73716C37.2002 2.7267 38.059 2.73417 38.9178 2.73268C39.0522 2.73268 39.1867 2.73268 39.3524 2.73268C39.4032 1.84022 39.7482 1.12416 40.4502 0.605434C40.9281 0.251143 41.4733 0.0881991 42.0603 0.109128C43.4448 0.156964 44.3678 1.08829 44.6382 2.71474C44.7591 2.72072 44.8906 2.73268 45.022 2.73268C45.8689 2.73417 46.7142 2.72969 47.5611 2.73567C48.0838 2.73866 48.4034 3.02269 48.4139 3.47265C48.4228 3.90318 48.0823 4.23206 47.579 4.23804C46.6082 4.24851 45.6388 4.24103 44.6382 4.24103V6.03192C45.0384 6.03192 45.4327 6.02893 45.827 6.03192C46.6395 6.03939 47.0742 6.46993 47.0756 7.27418C47.0786 8.13225 47.0786 8.99182 47.0756 9.84989C47.0727 10.6093 46.6336 11.0548 45.8733 11.0578C44.7293 11.0638 43.5867 11.0578 42.4127 11.0578V15.6396C42.5711 15.6501 42.7279 15.6561 42.8862 15.6695C43.518 15.7204 44.0631 16.1599 44.096 16.7847C44.1483 17.7519 44.1527 18.7251 44.099 19.6908C44.0601 20.3665 43.4806 20.821 42.7936 20.8299C42.0214 20.8389 41.2508 20.8404 40.4786 20.8299C39.7408 20.8195 39.1747 20.2738 39.1568 19.5353C39.1359 18.7266 39.1418 17.9179 39.1493 17.1091C39.1568 16.2182 39.6661 15.7009 40.5533 15.6636C40.6503 15.6591 40.7459 15.6546 40.8535 15.6486L40.849 15.6501ZM17.3672 9.51504H33.069V7.56718H17.3672V9.51504ZM4.4419 9.52999H15.8318V7.5612H4.4419V9.52999ZM34.6298 7.55522V9.53895H45.5492V7.55522H34.6298ZM25.8596 6.03491C25.8596 5.78975 25.8596 5.55953 25.8596 5.32782C25.8596 4.32175 25.8551 3.31419 25.8626 2.30813C25.8656 1.86563 25.6505 1.5831 25.2622 1.41418C24.4273 1.04942 23.6446 1.55769 23.6461 2.4606C23.6461 3.64756 23.6461 4.83451 23.6461 6.03491H25.8611H25.8596ZM9.10779 6.01099C9.11675 5.9198 9.1302 5.84954 9.1302 5.77779C9.1302 4.77172 9.13916 3.76565 9.1302 2.75958C9.12422 2.09286 8.6418 1.61599 8.00704 1.62047C7.37227 1.62346 6.90628 2.10033 6.90031 2.77304C6.89284 3.68044 6.89881 4.58635 6.89881 5.49376C6.89881 5.66268 6.89881 5.8316 6.89881 6.01249H9.10929L9.10779 6.01099ZM40.8774 6.00501H43.0893C43.0893 4.85095 43.0893 3.72529 43.0878 2.59814C43.0878 2.52489 43.0624 2.45164 43.04 2.37988C42.8817 1.87759 42.3978 1.57114 41.8527 1.62645C41.3448 1.67728 40.8953 2.08688 40.8848 2.59664C40.8609 3.7238 40.8774 4.85244 40.8774 6.00501ZM22.5289 17.9403V20.5011H25.4429V17.9403H22.5289ZM7.37974 17.1899V19.3111H9.32585V17.1899H7.37974ZM40.6727 17.1869V19.3186H42.6009V17.1869H40.6727Z" fill="white"/>
<path d="M7.5873 43.3551V42.3027C7.16313 42.2414 6.74195 42.2085 6.3357 42.1158C4.44784 41.6853 3.07376 40.008 3.00953 38.0721C2.99311 37.5624 2.99012 37.0511 3.00356 36.5413C3.02596 35.7162 3.65475 35.181 4.46875 35.2946C5.98919 35.5054 7.19599 36.2439 8.10258 37.4786C8.18324 37.5878 8.2609 37.7014 8.35649 37.8359C8.88969 37.0033 9.54387 36.2992 10.431 35.8926C11.0225 35.622 11.6617 35.4336 12.2995 35.2976C12.9268 35.163 13.6079 35.613 13.6616 36.2289C13.7557 37.2903 13.8498 38.3756 13.4376 39.4011C12.7341 41.1471 11.4183 42.0844 9.54537 42.2444C9.43335 42.2534 9.32133 42.2563 9.21081 42.2638C9.19886 42.2638 9.1884 42.2713 9.1436 42.2862V43.3551C10.0308 43.5509 10.8253 43.9381 11.4541 44.6138C11.6483 44.8216 11.8171 45.0548 11.9844 45.285C12.3234 45.7484 12.7685 46.0011 13.3465 46.0026C15.5749 46.0041 17.8018 46.0041 20.0302 46.0026C20.5619 46.0026 21.0189 45.7993 21.3117 45.3598C22.0136 44.3044 22.962 43.6227 24.2151 43.3596V42.3027C23.7954 42.2414 23.3758 42.207 22.9695 42.1143C21.0592 41.6778 19.6747 39.9467 19.6508 37.9884C19.6448 37.5026 19.6433 37.0182 19.6508 36.5324C19.6643 35.7341 20.2945 35.19 21.0861 35.2946C22.6379 35.4994 23.8582 36.2603 24.7782 37.5175C24.8365 37.5982 24.8947 37.679 24.9545 37.7582C24.9619 37.7672 24.9754 37.7716 24.9843 37.7761C25.2995 37.4174 25.5922 37.0347 25.9342 36.7028C26.7736 35.8896 27.7877 35.4217 28.9482 35.2856C29.6233 35.2064 30.2865 35.6893 30.3268 36.356C30.3686 37.0616 30.3955 37.7836 30.2954 38.4787C29.9758 40.6822 28.2866 42.1532 26.0537 42.2519C25.9671 42.2564 25.8805 42.2638 25.764 42.2713V43.3357C26.0253 43.4194 26.2882 43.4896 26.5421 43.5868C27.4069 43.9142 28.085 44.4763 28.5987 45.2432C28.9333 45.7454 29.4023 46.0056 30.0102 46.0041C32.2132 46.0041 34.4162 46.0041 36.6192 46.0041C37.1957 46.0041 37.6647 45.7858 37.9873 45.3074C38.6803 44.2789 39.6182 43.6167 40.8564 43.3611V42.3715C40.1664 42.198 39.4689 42.1233 38.8625 41.8497C37.2061 41.1008 36.3608 39.7554 36.2757 37.9406C36.2547 37.4936 36.2622 37.0451 36.2757 36.5967C36.301 35.7042 36.9298 35.1735 37.8095 35.3051C39.2852 35.5248 40.4606 36.2498 41.3553 37.4383C41.4374 37.5474 41.5181 37.658 41.6002 37.7672C41.6062 37.7746 41.6226 37.7746 41.6047 37.7687C42.0005 37.3441 42.3574 36.9001 42.7771 36.5234C43.5657 35.8163 44.5097 35.4172 45.5626 35.2871C46.2467 35.2034 46.9098 35.6429 46.9591 36.3306C47.0278 37.2679 47.0876 38.2201 46.8023 39.1455C46.2497 40.9408 44.6919 42.1472 42.7936 42.2474C42.6711 42.2534 42.5471 42.2608 42.4008 42.2683V43.3416C42.4784 43.3641 42.5695 43.394 42.6606 43.4164C43.7285 43.6929 44.5858 44.276 45.1967 45.1938C45.5776 45.7649 46.0913 46.025 46.7709 46.0056C47.2429 45.9921 47.7163 45.9996 48.1898 46.0041C49.2891 46.0145 49.9866 46.7111 49.9925 47.8024C49.9955 48.2883 49.9985 48.7726 49.9925 49.2585C49.9791 50.2466 49.301 50.9402 48.3093 50.9866C48.2227 50.991 48.1345 50.9896 48.0479 50.9896C39.2359 50.9896 30.4239 50.9896 21.6134 50.9866C21.4177 50.9866 21.2116 50.9671 21.0294 50.9014C20.7142 50.7877 20.538 50.4379 20.6007 50.1165C20.6709 49.7622 20.877 49.5365 21.2459 49.4947C21.3818 49.4797 21.5193 49.4872 21.6567 49.4872C30.406 49.4872 39.1552 49.4872 47.9045 49.4872C48.2968 49.4872 48.493 49.2879 48.493 48.8892C48.493 48.5783 48.4736 48.2658 48.499 47.9564C48.5259 47.6171 48.4109 47.4795 48.0599 47.5005C47.6626 47.5244 47.2638 47.4945 46.865 47.5079C45.6015 47.5543 44.6426 47.037 43.9227 46.0011C43.049 44.7424 41.3807 44.4105 40.132 45.2491C39.8109 45.4644 39.5242 45.7664 39.2971 46.0833C38.622 47.0236 37.7304 47.5079 36.5729 47.5064C34.3953 47.5064 32.2162 47.5064 30.0385 47.5064C28.896 47.5064 28.0013 47.034 27.3546 46.0923C26.1672 44.3627 23.8582 44.3567 22.6514 46.0833C21.9897 47.0311 21.0891 47.5094 19.9316 47.5079C17.754 47.5064 15.5749 47.5079 13.3973 47.5079C12.2547 47.5079 11.36 47.034 10.7133 46.0908C9.53043 44.3642 7.18255 44.3612 6.00861 46.0818C5.36488 47.0251 4.47173 47.5019 3.32916 47.5079C2.8318 47.5109 2.33295 47.5124 1.83559 47.5079C1.6026 47.5049 1.49805 47.5916 1.50552 47.8383C1.51896 48.2853 1.51747 48.7337 1.50552 49.1822C1.49954 49.4124 1.60409 49.4976 1.81767 49.4917C1.91774 49.4887 2.01632 49.4917 2.11638 49.4917C7.28112 49.4917 12.4459 49.4917 17.6121 49.4947C17.7958 49.4947 17.9959 49.4917 18.1602 49.5589C18.4784 49.689 18.6352 49.9611 18.6038 50.3064C18.571 50.6517 18.3589 50.8744 18.0273 50.9611C17.8854 50.9985 17.7316 50.994 17.5837 50.994C12.3682 50.9955 7.15417 50.9821 1.93865 51.006C0.809517 51.012 -0.0925945 50.2615 0.00149991 49.0686C0.0358518 48.6351 0.00448703 48.1986 0.00747416 47.7621C0.014942 46.7366 0.706461 46.0325 1.73702 46.0115C2.27172 46.0011 2.8079 46.0041 3.3426 46.0115C3.89223 46.0175 4.3642 45.8202 4.6644 45.3702C5.36787 44.3148 6.31778 43.6361 7.58282 43.3626L7.5873 43.3551ZM45.4775 36.8463C43.5553 37.1318 42.1603 39.2097 42.453 40.745C43.5508 40.7629 44.423 40.3414 45.0414 39.422C45.5701 38.6372 45.5089 37.7522 45.4775 36.8448V36.8463ZM25.7938 40.7106C26.575 40.8332 27.5368 40.4385 28.1208 39.7957C28.8989 38.9377 28.8989 37.9032 28.8347 36.8478C26.8154 37.1558 25.5698 39.2471 25.7938 40.7121V40.7106ZM12.2054 36.8508C10.2234 37.1184 8.84638 39.3368 9.19438 40.7525C10.4251 40.7375 11.36 40.2397 11.9336 39.1141C12.304 38.3875 12.1949 37.6177 12.2054 36.8508ZM7.55295 40.7271C7.8442 39.0827 6.18037 36.9734 4.52998 36.8657C4.25218 39.2082 5.5456 40.8751 7.55295 40.7271ZM24.1883 40.7136C24.5049 39.1096 22.8067 36.9405 21.1802 36.8717C20.9308 39.2381 22.2899 40.9737 24.1883 40.7136ZM37.82 36.8508C37.5482 39.2292 38.9402 40.9917 40.84 40.7121C41.1208 39.0752 39.5914 37.1094 37.82 36.8508Z" fill="white"/>
<path d="M21.3983 24.627C21.343 24.7824 21.2698 25.0739 21.1369 25.3355C20.9861 25.633 20.6112 25.7451 20.296 25.6375C19.9555 25.5209 19.7195 25.201 19.7778 24.8661C19.8226 24.612 19.9017 24.3564 20.0123 24.1247C20.1661 23.8003 20.529 23.6672 20.8666 23.7629C21.1877 23.8541 21.3998 24.1441 21.3983 24.627Z" fill="white"/>
<path d="M20.2049 28.5018C20.1496 28.6602 20.0839 28.9547 19.9495 29.2148C19.7867 29.5332 19.4118 29.6409 19.0773 29.5198C18.7308 29.3942 18.5157 29.0504 18.5874 28.6976C18.6322 28.4793 18.6979 28.2626 18.7845 28.0578C18.9219 27.7349 19.2834 27.5674 19.6179 27.6407C19.9629 27.7169 20.1959 28.0069 20.2019 28.5018H20.2049Z" fill="white"/>
<path d="M23.2309 32.816C23.2413 32.7039 23.201 32.5141 23.2787 32.4169C23.437 32.2151 23.6312 31.9953 23.8582 31.9071C24.139 31.798 24.4168 31.946 24.599 32.2031C24.8081 32.4961 24.8021 33.2242 24.593 33.5187C24.3974 33.7922 24.124 33.8849 23.8074 33.8116C23.5042 33.7414 23.3115 33.5366 23.2548 33.2256C23.2324 33.1046 23.2398 32.979 23.2309 32.8175V32.816Z" fill="white"/>
<path d="M29.3873 28.6767C29.3918 29.1745 29.1424 29.484 28.7854 29.5542C28.4553 29.62 28.0954 29.4376 27.9639 29.1162C27.8848 28.9219 27.825 28.7171 27.7817 28.5108C27.7055 28.1565 27.9087 27.8037 28.2462 27.6736C28.5703 27.5481 28.9676 27.6542 29.1259 27.9606C29.2603 28.2208 29.3305 28.5138 29.3873 28.6767Z" fill="white"/>
<path d="M30.5882 32.5888C30.5793 33.0807 30.3388 33.3767 29.9968 33.4454C29.6518 33.5157 29.3053 33.3542 29.1649 33.0268C29.0767 32.822 29.0125 32.6053 28.9677 32.387C28.899 32.0477 29.0991 31.7143 29.4262 31.5798C29.7503 31.4467 30.1416 31.5379 30.3089 31.8459C30.4538 32.112 30.5255 32.4184 30.5867 32.5888H30.5882Z" fill="white"/>
<path d="M24.7946 24.7182C24.7199 24.9484 24.687 25.2041 24.5631 25.4014C24.3988 25.6615 24.109 25.7437 23.8058 25.666C23.5056 25.5897 23.304 25.3909 23.2577 25.077C23.2308 24.8946 23.2338 24.7048 23.2413 24.5194C23.2592 24.0321 23.5594 23.7316 24.0045 23.7406C24.4257 23.7495 24.7199 24.059 24.7408 24.5149C24.7438 24.5762 24.7408 24.639 24.7408 24.7018C24.7587 24.7078 24.7767 24.7137 24.7961 24.7197L24.7946 24.7182Z" fill="white"/>
<path d="M28.1939 24.7855C28.1939 25.2773 27.9654 25.5703 27.6204 25.6585C27.3023 25.7407 26.9244 25.5748 26.7825 25.2534C26.6824 25.0277 26.6108 24.7855 26.5689 24.5418C26.5152 24.2264 26.7377 23.908 27.0543 23.7854C27.377 23.6613 27.7653 23.766 27.9311 24.0784C28.0685 24.3355 28.1372 24.63 28.1924 24.7855H28.1939Z" fill="white"/>
<path d="M19.0116 32.396C18.9563 32.5589 18.8906 32.8534 18.7547 33.112C18.5874 33.4349 18.1752 33.5426 17.8451 33.4035C17.5105 33.2615 17.3208 32.9102 17.403 32.5544C17.4478 32.3616 17.5031 32.1688 17.5777 31.9864C17.7196 31.6455 18.09 31.4572 18.4276 31.5364C18.7681 31.6156 19.0026 31.9116 19.0101 32.396H19.0116Z" fill="white"/>
<path d="M24.7393 28.7754C24.7393 29.5019 24.3331 29.8951 23.764 29.7216C23.3518 29.5961 23.2024 29.2732 23.2383 28.5825C23.2607 28.158 23.4788 27.8874 23.8611 27.8142C24.3794 27.714 24.7393 28.1086 24.7393 28.7754Z" fill="white"/>
<path d="M7.59931 23.4175C7.6023 22.7045 8.0892 22.3068 8.65824 22.5565C9.06897 22.7374 9.11527 23.0961 9.11527 23.4878C9.11527 23.869 8.99728 24.1844 8.62987 24.3309C8.18777 24.5073 7.53658 24.2427 7.59931 23.4175Z" fill="white"/>
<path d="M9.11223 26.9874C9.10924 27.6481 8.68507 28.0368 8.14888 27.8754C7.55594 27.6975 7.51561 27.0621 7.65153 26.5314C7.75607 26.1233 8.20862 25.9185 8.59994 26.0561C8.96586 26.1846 9.11522 26.4552 9.11223 26.9859V26.9874Z" fill="white"/>
<path d="M7.55591 30.472C7.61864 30.2627 7.63507 30.019 7.75903 29.8561C7.87254 29.7066 8.0921 29.5885 8.28178 29.5571C8.75524 29.4779 9.0898 29.8307 9.11071 30.3733C9.13759 31.0401 8.85829 31.4317 8.35646 31.4332C7.88449 31.4332 7.59922 31.0774 7.55591 30.4735V30.472Z" fill="white"/>
<path d="M47.4535 30.2403C47.4445 30.7172 47.1981 31.0087 46.8516 31.0894C46.5245 31.1657 46.172 30.9997 46.0256 30.6723C45.9405 30.481 45.8793 30.2747 45.8404 30.0699C45.7822 29.762 45.9958 29.4077 46.287 29.2881C46.6051 29.1565 47.0159 29.2477 47.1787 29.5407C47.3191 29.7948 47.3937 30.0863 47.452 30.2403H47.4535Z" fill="white"/>
<path d="M11.5318 26.7557C11.5228 26.2714 11.7707 25.9634 12.1322 25.8827C12.4608 25.808 12.8103 25.9754 12.9551 26.3043C13.0388 26.4956 13.1015 26.7019 13.1388 26.9067C13.1956 27.2132 12.9775 27.5675 12.6863 27.6871C12.3667 27.8171 11.9604 27.7215 11.7961 27.4299C11.6602 27.1863 11.587 26.9067 11.5303 26.7572L11.5318 26.7557Z" fill="white"/>
<path d="M36.5713 31.1178C36.1636 31.1163 35.8051 30.7531 35.8111 30.3524C35.8216 29.735 36.2129 29.2327 36.6848 29.2298C37.0986 29.2268 37.4809 29.584 37.4301 29.9922C37.339 30.7112 37.121 31.073 36.5713 31.1193V31.1178Z" fill="white"/>
<path d="M37.7229 25.8558C38.1306 25.8618 38.4876 26.2251 38.4771 26.6272C38.4622 27.2506 38.0709 27.7454 37.5974 27.7454C37.1837 27.7454 36.8387 27.3896 36.8506 26.977C36.8671 26.3521 37.2584 25.8499 37.7229 25.8573V25.8558Z" fill="white"/>
<path d="M5.18861 26.7528C5.13484 26.9008 5.07211 27.1579 4.95113 27.3821C4.7958 27.6721 4.52099 27.7843 4.19389 27.7215C3.85187 27.6572 3.58303 27.4434 3.60543 27.1056C3.62634 26.7662 3.74284 26.403 3.91759 26.11C4.09233 25.8185 4.43735 25.7871 4.75099 25.9291C5.04821 26.0636 5.19309 26.3133 5.18861 26.7513V26.7528Z" fill="white"/>
<path d="M11.3676 24.3579C10.7985 24.3684 10.5685 23.8841 10.4953 23.2577C10.4475 22.8481 10.812 22.4953 11.2287 22.4848C11.6961 22.4729 12.086 22.9617 12.1128 23.5926C12.1308 24.0022 11.7902 24.352 11.3676 24.3579Z" fill="white"/>
<path d="M42.3798 26.947C42.3798 27.6526 41.984 28.0443 41.4284 27.8724C40.8624 27.696 40.7862 27.1952 40.9296 26.5345C41.0192 26.1219 41.4762 25.9186 41.8735 26.0546C42.2245 26.1742 42.3798 26.4492 42.3798 26.947Z" fill="white"/>
<path d="M4.15205 29.9952C4.14309 30.6216 3.76074 31.1224 3.29176 31.1164C2.87207 31.1119 2.54647 30.7726 2.55245 30.345C2.56141 29.7097 2.93629 29.2224 3.41423 29.2268C3.83841 29.2298 4.15952 29.5632 4.15355 29.9952H4.15205Z" fill="white"/>
<path d="M14.1694 30.2209C14.1769 30.7142 13.9484 31.0042 13.581 31.0909C13.2464 31.1701 12.8954 31.0117 12.758 30.6768C12.6654 30.4511 12.5922 30.2059 12.5728 29.9637C12.5444 29.6274 12.7879 29.3418 13.1194 29.2596C13.457 29.1759 13.7527 29.2716 13.9245 29.5676C14.0574 29.7978 14.1171 30.0714 14.1694 30.2194V30.2209Z" fill="white"/>
<path d="M42.45 23.461C42.3544 23.6912 42.2872 23.9408 42.1513 24.1441C42.0751 24.2592 41.8899 24.3325 41.7421 24.3624C41.4015 24.4296 41.1372 24.2846 40.9714 23.9797C40.7847 23.6344 40.8474 22.9587 41.0968 22.7165C41.3418 22.4788 41.6345 22.41 41.9497 22.564C42.3126 22.7404 42.4142 23.0543 42.45 23.4624V23.461Z" fill="white"/>
<path d="M37.8798 23.5028C37.9395 23.3399 38.0037 23.0543 38.1441 22.8151C38.3174 22.5206 38.6131 22.4235 38.9521 22.5206C39.3091 22.6223 39.5137 22.8854 39.4883 23.2337C39.4659 23.5192 39.3599 23.8197 39.215 24.0694C39.0388 24.3713 38.7087 24.4266 38.3906 24.322C38.068 24.2174 37.8887 23.9707 37.8798 23.5028Z" fill="white"/>
<path d="M5.34095 24.3579C4.92723 24.3564 4.58521 24.0021 4.59865 23.5911C4.61956 22.9572 5.0049 22.4774 5.48433 22.4848C5.89805 22.4923 6.26547 22.8496 6.21618 23.2607C6.1415 23.8855 5.91597 24.3684 5.34095 24.3579Z" fill="white"/>
<path d="M46.4229 26.8783C46.4065 27.3387 46.2422 27.5734 45.936 27.69C45.6134 27.8141 45.2728 27.7558 45.1085 27.4643C44.9457 27.1758 44.8517 26.82 44.8352 26.4881C44.8203 26.1652 45.0742 25.9604 45.3968 25.8842C45.709 25.8094 45.9868 25.9066 46.1436 26.1682C46.2929 26.4164 46.3601 26.7124 46.4229 26.8783Z" fill="white"/>
<path d="M45.3864 23.6209C45.3834 24.0499 45.0578 24.3638 44.6247 24.3593C44.084 24.3519 43.8346 23.8825 43.7868 23.2337C43.7554 22.8151 44.1273 22.4683 44.541 22.4877C45.0862 22.5131 45.3132 22.9855 45.3879 23.6209H45.3864Z" fill="white"/>
<path d="M40.8848 30.4944C40.8505 30.0848 40.958 29.7515 41.3478 29.596C41.66 29.4719 41.9587 29.5317 42.1932 29.7948C42.4665 30.0983 42.465 30.8876 42.1828 31.1836C41.9707 31.4063 41.7063 31.4945 41.4046 31.3959C41.1059 31.2987 40.9371 31.0819 40.8863 30.7755C40.8699 30.6783 40.8834 30.5782 40.8834 30.4944H40.8848Z" fill="white"/>
</g>
<defs>
<clipPath id="clip0_1759_25876">
<rect width="50" height="51" fill="white"/>
</clipPath>
</defs>
</svg>
