<svg width="51" height="31" viewBox="0 0 51 31" fill="none" xmlns="http://www.w3.org/2000/svg">
<path d="M26.5938 18.0659H24.3951C24.2634 18.0659 24.133 18.0917 24.0113 18.1418C23.8896 18.1919 23.779 18.2654 23.6859 18.358C23.5928 18.4505 23.5189 18.5605 23.4685 18.6814C23.4181 18.8024 23.3921 18.9321 23.3921 19.063C23.3921 19.1939 23.4181 19.3236 23.4685 19.4446C23.5189 19.5655 23.5928 19.6755 23.6859 19.768C23.779 19.8606 23.8896 19.9341 24.0113 19.9842C24.133 20.0343 24.2634 20.0601 24.3951 20.0601H26.5938C26.8506 20.0531 27.095 19.9489 27.2772 19.7688C27.4593 19.5888 27.5655 19.3464 27.5741 19.0912C27.5773 18.827 27.4766 18.572 27.2935 18.3805C27.1104 18.1891 26.8593 18.0762 26.5938 18.0659ZM42.0864 20.9727L41.854 21.9416C41.7856 22.2008 41.8236 22.4764 41.9597 22.7078C42.0957 22.9391 42.3186 23.1073 42.5794 23.1753C42.8401 23.2433 43.1173 23.2055 43.3501 23.0703C43.5828 22.935 43.752 22.7134 43.8204 22.4542L44.047 21.4853C44.455 20.2347 42.4887 19.6658 42.0864 20.9727ZM40.2334 27.7551L39.712 29.693C39.6577 29.9454 39.7016 30.2089 39.8351 30.4304C39.9685 30.6518 40.1814 30.8147 40.4309 30.8862C40.6805 30.9577 40.948 30.9324 41.1795 30.8155C41.411 30.6986 41.5893 30.4988 41.6784 30.2563L42.1997 28.3185C42.602 27.0115 40.6414 26.4989 40.2334 27.7551ZM48.3253 22.0599L47.6907 20.1221C47.226 18.8095 45.322 19.6038 45.781 20.8037L46.4213 22.6852C46.4598 22.8129 46.5236 22.9316 46.6091 23.0344C46.6945 23.1371 46.7998 23.2218 46.9187 23.2834C47.0376 23.345 47.1677 23.3823 47.3014 23.393C47.435 23.4037 47.5695 23.3877 47.6968 23.3459C47.8241 23.3041 47.9417 23.2373 48.0426 23.1496C48.1435 23.0618 48.2257 22.9548 48.2843 22.8349C48.3429 22.715 48.3767 22.5846 48.3838 22.4515C48.3908 22.3184 48.3709 22.1852 48.3253 22.0599ZM50.2916 27.7551C50.2573 27.6218 50.1957 27.497 50.1108 27.3884C50.0258 27.2797 49.9193 27.1897 49.7978 27.1237C49.6763 27.0578 49.5424 27.0174 49.4045 27.0052C49.2667 26.9929 49.1278 27.0089 48.9964 27.0523C48.865 27.0957 48.7441 27.1655 48.641 27.2574C48.538 27.3493 48.4551 27.4613 48.3974 27.5864C48.3398 27.7115 48.3087 27.847 48.306 27.9846C48.3034 28.1222 48.3292 28.2588 48.382 28.3861L49.0223 30.3239C49.1241 30.5611 49.3134 30.7506 49.5513 30.8533C49.7892 30.956 50.0577 30.9642 50.3016 30.8762C50.5454 30.7882 50.746 30.6107 50.8622 30.3801C50.9784 30.1496 51.0014 29.8835 50.9263 29.6367L50.2916 27.7551ZM9.19153 21.9416L8.90254 20.9727C8.86868 20.8443 8.80972 20.7239 8.72903 20.6182C8.64834 20.5125 8.5475 20.4236 8.43226 20.3566C8.19953 20.2214 7.92229 20.1836 7.66154 20.2516C7.40079 20.3196 7.17789 20.4878 7.04186 20.7191C6.90583 20.9505 6.86783 21.2261 6.93621 21.4853L7.22521 22.4542C7.29359 22.7134 7.46276 22.935 7.69549 23.0703C7.92822 23.2055 8.20545 23.2433 8.46621 23.1753C8.72696 23.1073 8.94986 22.9391 9.08589 22.7078C9.22191 22.4764 9.25992 22.2008 9.19153 21.9416ZM10.7669 27.7551C10.6917 27.4967 10.5164 27.2785 10.2794 27.1485C10.0424 27.0186 9.7632 26.9875 9.5032 27.0622C9.2432 27.1369 9.0237 27.3113 8.89299 27.5469C8.76228 27.7824 8.73106 28.06 8.8062 28.3185L9.32187 30.2563C9.41097 30.4988 9.58926 30.6986 9.82077 30.8155C10.0523 30.9324 10.3198 30.9577 10.5693 30.8862C10.8188 30.8147 11.0317 30.6518 11.1652 30.4304C11.2986 30.2089 11.3426 29.9454 11.2882 29.693L10.7669 27.7551ZM3.40023 20.1221L2.6579 22.0599C2.57449 22.3191 2.59808 22.6007 2.72348 22.8426C2.84888 23.0845 3.06582 23.267 3.32657 23.3499C3.58732 23.4328 3.87052 23.4094 4.11388 23.2847C4.35724 23.1601 4.54082 22.9444 4.62423 22.6852L5.25889 20.8037C5.72355 19.6038 3.8139 18.8095 3.3549 20.1221H3.40023ZM0.69158 27.7551L0.0569169 29.6367C-0.0249485 29.8934 -0.00308194 30.1717 0.117886 30.4127C0.238853 30.6537 0.449423 30.8384 0.705002 30.9277C0.960582 31.017 1.2411 31.004 1.48716 30.8913C1.73321 30.7786 1.92548 30.5751 2.02324 30.3239L2.6579 28.3861C2.74206 28.1268 2.7192 27.845 2.59433 27.6026C2.46946 27.3601 2.25282 27.1769 1.99207 27.0932C1.73132 27.0096 1.44782 27.0323 1.20393 27.1564C0.960039 27.2806 0.775742 27.4959 0.69158 27.7551ZM49.9913 7.23877H31.6767L30.8664 1.97166H31.1667C31.4245 1.96604 31.6704 1.8625 31.8537 1.6823C32.0371 1.5021 32.1441 1.25892 32.1527 1.00274C32.1486 0.741946 32.0441 0.492652 31.8607 0.306137C31.6773 0.119622 31.4289 0.0100699 31.1667 1.54775e-05H19.8845C19.7486 -0.000726906 19.6138 0.025244 19.4881 0.0764354C19.3623 0.127627 19.2479 0.20303 19.1516 0.298307C19.0552 0.393585 18.9787 0.506859 18.9265 0.631617C18.8743 0.756375 18.8475 0.890157 18.8475 1.02527C18.8649 1.28526 18.9823 1.5286 19.1754 1.70481C19.3685 1.88102 19.6224 1.97658 19.8845 1.97166H20.0601L19.3065 7.21624H1.04291C0.904596 7.21469 0.767382 7.24082 0.639434 7.29307C0.511485 7.34533 0.395417 7.42263 0.298138 7.52039C0.200858 7.61815 0.124354 7.73436 0.0731784 7.86211C0.0220029 7.98987 -0.00279825 8.12655 0.000250564 8.26402V10.3145C0.000122467 10.5128 0.0608051 10.7063 0.174202 10.8694C0.287599 11.0324 0.448317 11.1572 0.634914 11.2271L5.66689 13.165L5.25889 14.4212C5.17548 14.6804 5.19907 14.9619 5.32447 15.2039C5.44987 15.4458 5.6668 15.6283 5.92755 15.7112C6.1883 15.7941 6.47151 15.7707 6.71487 15.646C6.95823 15.5214 7.1418 15.3057 7.22521 15.0465L7.57088 13.9198L12.7728 15.9703C12.9025 16.0206 13.0423 16.0399 13.1808 16.0267H16.8812V17.3392C16.4873 17.6036 16.165 17.9603 15.9427 18.3779C15.7203 18.7954 15.6047 19.2609 15.6062 19.7334V28.1833C15.6313 28.9429 15.9541 29.6626 16.5057 30.1889C17.0573 30.7151 17.794 31.0062 18.5585 30.9999H19.4821C20.2367 30.9929 20.9592 30.6957 21.4981 30.1705C22.0369 29.6453 22.3502 28.9331 22.3721 28.1833V26.1947H28.6054V28.1326C28.6054 28.5072 28.6805 28.8782 28.8264 29.2236C28.9723 29.5691 29.1861 29.8821 29.4552 30.1444C29.7244 30.4067 30.0434 30.613 30.3937 30.7512C30.7441 30.8894 31.1186 30.9567 31.4954 30.9492H32.4757C33.2272 30.9492 33.9479 30.6524 34.4792 30.1242C35.0106 29.596 35.3091 28.8796 35.3091 28.1326V19.6827C35.3077 19.2174 35.1975 18.7588 34.987 18.3433C34.7765 17.9277 34.4716 17.5666 34.0964 17.2885V16.0154H37.8534C37.9715 16.0243 38.09 16.005 38.199 15.9591L43.401 13.9086L43.809 15.0352C43.8475 15.1629 43.9113 15.2816 43.9967 15.3844C44.0822 15.4871 44.1874 15.5718 44.3064 15.6334C44.4253 15.695 44.5554 15.7323 44.689 15.743C44.8227 15.7538 44.9572 15.7378 45.0845 15.6959C45.2118 15.6541 45.3294 15.5874 45.4303 15.4996C45.5312 15.4118 45.6134 15.3048 45.672 15.1849C45.7306 15.065 45.7644 14.9347 45.7715 14.8015C45.7785 14.6684 45.7586 14.5353 45.713 14.4099L45.3333 13.165L50.3596 11.2271C50.5473 11.1581 50.7092 11.0337 50.8237 10.8706C50.9382 10.7075 50.9997 10.5134 51 10.3145V8.26402C51.0016 7.99932 50.8997 7.74436 50.7157 7.55303C50.5317 7.36169 50.2801 7.249 50.014 7.23877H49.9913ZM32.0734 16.8153C31.5855 16.7875 31.0965 16.8447 30.6284 16.9843V16.5844C30.6284 16.2459 30.561 15.9107 30.43 15.5983C30.299 15.2858 30.1071 15.0022 29.8653 14.7639C29.6234 14.5256 29.3365 14.3373 29.0211 14.2098C28.7056 14.0823 28.3679 14.0182 28.0274 14.0212H22.9275C22.587 14.0182 22.2493 14.0823 21.9338 14.2098C21.6184 14.3373 21.3315 14.5256 21.0896 14.7639C20.8478 15.0022 20.6559 15.2858 20.5249 15.5983C20.3939 15.9107 20.3265 16.2459 20.3265 16.5844V16.9843C19.8583 16.8451 19.3694 16.7879 18.8815 16.8153V16.1281C18.8815 14.0776 22.2815 13.3114 25.6418 13.3959C29.0021 13.4804 32.0621 14.4775 32.0621 16.1281L32.0734 16.8153ZM30.5208 24.2231H20.4625C20.2301 24.2231 20.1168 24.1104 20.1168 23.9358C20.1168 23.7611 20.2301 23.5415 20.4625 23.5415H30.5208C30.6185 23.5501 30.709 23.5959 30.7734 23.6694C30.8379 23.7429 30.8712 23.8384 30.8664 23.9358C30.8629 23.9773 30.8511 24.0176 30.8317 24.0546C30.8124 24.0915 30.7859 24.1243 30.7538 24.151C30.7216 24.1777 30.6845 24.1978 30.6445 24.2102C30.6045 24.2226 30.5625 24.2269 30.5208 24.2231ZM28.6168 21.5416H22.3835V16.5844C22.3835 16.435 22.4432 16.2917 22.5494 16.186C22.6557 16.0804 22.7998 16.021 22.9501 16.021H28.0501C28.1961 16.0337 28.3329 16.0972 28.4366 16.2002C28.5402 16.3032 28.604 16.4392 28.6168 16.5844V21.5416ZM24.9731 8.49499H25.9534V11.6271H24.9731V8.49499ZM28.8434 1.97166L30.3508 12.1115C29.5684 11.942 28.775 11.8272 27.9764 11.7679V8.16826C27.9895 7.95927 27.961 7.74976 27.8926 7.55172C27.8242 7.35367 27.7172 7.17097 27.5778 7.01403C27.4383 6.85709 27.2691 6.72901 27.0799 6.63708C26.8906 6.54515 26.685 6.49119 26.4748 6.47828V5.18826C26.478 4.92502 26.3781 4.67086 26.1962 4.47953C26.0143 4.28819 25.7647 4.17468 25.5001 4.163C25.3637 4.16151 25.2284 4.18693 25.102 4.23779C24.9755 4.28864 24.8605 4.36393 24.7635 4.45928C24.6665 4.55463 24.5896 4.66816 24.537 4.79329C24.4845 4.91842 24.4574 5.05267 24.4575 5.18826V6.55714C24.0476 6.5857 23.6639 6.76798 23.3841 7.06708C23.1042 7.36618 22.9491 7.75979 22.9501 8.16826V11.7003L20.6381 12.0439L22.1398 1.97166H28.8434ZM2.02324 9.23294H12.1382V13.5649L2.02324 9.62164V9.23294ZM14.1668 14.0212V9.23294H19.0231L18.5018 12.8213C18.0676 13.1363 17.7126 13.547 17.4648 14.0212H14.1668ZM19.4821 28.955H18.5585C18.3328 28.9547 18.1148 28.8737 17.9442 28.7268C17.7736 28.58 17.6618 28.3771 17.6292 28.1551V19.7052C17.6284 19.5842 17.652 19.4642 17.6985 19.3524C17.7451 19.2406 17.8137 19.1392 17.9003 19.0542C17.9869 18.9691 18.0898 18.9022 18.2028 18.8572C18.3158 18.8123 18.4368 18.7903 18.5585 18.7926H19.4821C19.7181 18.8014 19.9412 18.902 20.1034 19.0727C20.2655 19.2433 20.3538 19.4705 20.3491 19.7052V21.5247C19.7353 21.5607 19.1585 21.8287 18.7371 22.2739C18.3156 22.719 18.0814 23.3076 18.0825 23.9189C18.0824 24.5191 18.3203 25.0952 18.7446 25.5223C19.1689 25.9493 19.7454 26.1929 20.3491 26.2004V28.1382C20.3308 28.3549 20.2318 28.557 20.0714 28.705C19.911 28.8529 19.7009 28.9361 19.4821 28.9381V28.955ZM33.2974 28.1551C33.293 28.3669 33.2061 28.5686 33.0549 28.7179C32.9037 28.8671 32.7001 28.9521 32.4871 28.955H31.5067C31.2852 28.9626 31.0697 28.8828 30.9072 28.7329C30.7448 28.583 30.6486 28.3753 30.6398 28.1551V26.1947C31.2353 26.1655 31.7968 25.9096 32.208 25.4802C32.6191 25.0508 32.8484 24.4807 32.8484 23.8879C32.8484 23.2951 32.6191 22.725 32.208 22.2956C31.7968 21.8662 31.2353 21.6103 30.6398 21.5811V19.7221C30.6336 19.487 30.7214 19.259 30.8839 19.088C31.0463 18.917 31.2703 18.8169 31.5067 18.8095H32.4871C32.601 18.8152 32.7127 18.8435 32.8155 18.8927C32.9182 18.9419 33.0101 19.0111 33.0856 19.0961C33.1611 19.1812 33.2187 19.2803 33.2551 19.3878C33.2915 19.4953 33.3059 19.609 33.2974 19.7221V28.1551ZM32.5437 12.8833L31.9771 9.23294H36.8334V14.0212H33.5297C33.2832 13.5818 32.9474 13.1981 32.5437 12.8946V12.8833ZM48.977 9.63291L38.862 13.5762V9.23294H48.96L48.977 9.63291Z" fill="white"/>
</svg>
