<svg width="28" height="35" viewBox="0 0 28 35" fill="none" xmlns="http://www.w3.org/2000/svg">
<path d="M2.83593 21.7L12.765 34.4054C12.9097 34.5901 13.0967 34.74 13.3114 34.8431C13.5261 34.9463 13.7625 35 14.0022 35C14.2419 35 14.4784 34.9463 14.693 34.8431C14.9077 34.74 15.0947 34.5901 15.2395 34.4054L25.1685 21.7C26.7389 19.691 27.6987 17.2983 27.9398 14.7908C28.181 12.2832 27.694 9.7604 26.5337 7.50584C25.3733 5.25128 23.5855 3.3544 21.3714 2.02843C19.1572 0.702468 16.6044 0 14 0C11.3956 0 8.8428 0.702468 6.62864 2.02843C4.41447 3.3544 2.62671 5.25128 1.46634 7.50584C0.305971 9.7604 -0.181007 12.2832 0.0601569 14.7908C0.301321 17.2983 1.26106 19.691 2.83149 21.7H2.83593ZM14.0022 6.38325C15.4275 6.38325 16.8207 6.79192 18.0058 7.55757C19.1908 8.32323 20.1145 9.41148 20.6599 10.6847C21.2053 11.958 21.348 13.359 21.07 14.7107C20.7919 16.0623 20.1056 17.3039 19.0978 18.2784C18.09 19.2529 16.8059 19.9165 15.4081 20.1854C14.0102 20.4542 12.5613 20.3163 11.2445 19.7889C9.92776 19.2615 8.80231 18.3684 8.01048 17.2225C7.21865 16.0766 6.79601 14.7294 6.79601 13.3513C6.79836 11.5039 7.55834 9.73291 8.90926 8.42664C10.2602 7.12038 12.0917 6.38552 14.0022 6.38325Z" fill="white"/>
</svg>
