<svg width="55" height="50" viewBox="0 0 55 50" fill="none" xmlns="http://www.w3.org/2000/svg">
<path d="M29.2649 0.710741C33.6302 0.710741 37.993 0.705498 42.3583 0.710741C45.7353 0.713363 47.72 2.6509 47.8222 6.02521C47.8729 7.69095 48.7381 8.52382 50.4179 8.52382C50.8977 8.52382 51.3801 8.50809 51.8572 8.53431C53.1786 8.61034 54.1566 9.41525 54.4502 10.7131C54.7832 12.176 54.6443 13.6652 54.5761 15.144C54.5472 15.7653 54.2248 16.2268 53.4907 16.1822C52.7225 16.135 52.6045 15.6159 52.6097 14.9919C52.6176 13.9432 52.6045 12.897 52.6097 11.8483C52.615 11.2269 52.455 10.5977 51.8022 10.5269C50.6381 10.4037 49.453 10.4089 48.2837 10.464C47.6492 10.4954 47.8301 11.1116 47.8275 11.5127C47.8117 13.6076 47.8196 15.7024 47.8196 17.7973C47.8196 24.4751 47.8196 31.1529 47.8196 37.8307C47.8196 40.2953 47.0226 42.2879 44.5318 43.2265C43.955 43.4441 43.9131 43.8531 43.9052 44.3644C43.8921 45.2768 43.9734 46.1865 43.7584 47.0989C43.5277 48.0821 42.9718 48.8608 42.0725 49.1073C40.2976 49.5923 38.4387 49.7155 36.6952 49.0155C35.4183 48.5016 35.0591 47.3297 35.067 45.9978C35.0827 43.5883 35.0591 43.5883 32.668 43.5883C30.0068 43.5883 27.3431 43.6171 24.6819 43.5726C23.7957 43.5568 23.3788 43.7954 23.4758 44.7419C23.5335 45.303 23.523 45.8798 23.4601 46.4409C23.2399 48.3705 22.0968 49.3904 20.1409 49.3957C13.9874 49.4062 7.83395 49.3957 1.68049 49.4035C1.05387 49.4035 0.395793 49.4455 0.130988 48.7297C-0.133818 48.0192 0.401037 47.5997 0.854615 47.1907C4.18173 44.1756 7.50622 41.1578 10.8491 38.1585C11.7746 37.3273 12.4982 37.6184 12.7709 38.8768C13.1851 40.7908 14.0844 41.559 16.0167 41.559C24.8759 41.5669 33.7351 41.5695 42.5943 41.559C44.5974 41.5564 45.7877 40.4028 45.7929 38.3892C45.8165 29.3989 45.7929 20.406 45.8191 11.4157C45.8191 10.5767 45.5098 10.3984 44.7468 10.4037C40.2949 10.4325 35.8431 10.4351 31.3938 10.4037C30.5338 10.3958 30.2716 10.6737 30.2795 11.5311C30.3188 15.6762 30.3188 19.8239 30.2795 23.9691C30.2716 24.8474 30.5705 25.1148 31.4095 25.0676C32.4111 25.0099 33.4179 25.0126 34.4194 25.0676C35.691 25.1358 36.7555 24.8789 37.7675 23.9743C38.8949 22.9675 40.4051 22.9046 41.8654 23.0698C42.4081 23.1301 42.9089 23.4211 42.867 24.0739C42.8224 24.7478 42.3636 25.1148 41.7133 25.0466C40.2268 24.892 39.0207 25.3639 37.896 26.3418C37.1592 26.9816 36.1341 27.0681 35.164 27.0707C31.2811 27.0812 27.3955 27.0838 23.5125 27.0707C22.1754 27.0655 20.9143 26.7875 19.8892 25.8358C19.2468 25.2407 18.4917 25.0152 17.6108 25.0519C16.3916 25.0991 15.1646 25.1148 13.9455 25.0466C13.0409 24.9968 12.7263 25.2747 12.7499 26.2107C12.8102 28.5232 12.7656 30.8357 12.7709 33.1508C12.7709 33.8822 12.742 34.6767 11.8034 34.7134C10.7573 34.7527 10.7337 33.9163 10.7337 33.135C10.7363 26.022 10.7127 18.9063 10.7599 11.7933C10.7678 10.7183 10.4899 10.3879 9.38608 10.3958C5.3668 10.422 6.00391 10.4142 5.95671 13.7727C5.94885 14.3391 5.96982 14.9132 5.87544 15.4664C5.78629 15.9856 5.39826 16.3421 4.8503 16.2766C4.34428 16.2163 3.93528 15.9043 3.93003 15.3327C3.91692 13.8933 3.83827 12.4435 3.97198 11.0172C4.11094 9.53847 5.33272 8.59985 6.86911 8.53169C8.08302 8.47925 9.58534 9.00624 10.4348 8.32718C11.279 7.65337 10.6026 6.11173 10.7521 4.96336C11.0641 2.59322 13.1746 0.726472 15.6497 0.715985C20.1881 0.69501 24.7265 0.710741 29.2649 0.710741ZM28.2712 17.7448C28.2712 15.6526 28.2423 13.5578 28.2843 11.4655C28.3 10.6895 28.0824 10.3958 27.2592 10.4037C22.7679 10.4378 18.2767 10.4378 13.7829 10.4037C12.9596 10.3984 12.7447 10.7026 12.7551 11.4734C12.7918 13.9589 12.742 16.4444 12.7787 18.9299C12.7971 20.2277 12.2203 21.9109 13.0121 22.7211C13.8668 23.5942 15.5736 22.9833 16.9055 22.999C18.24 23.0121 19.5981 23.0305 20.6259 23.9297C21.7061 24.8736 22.8728 25.1515 24.2388 25.065C25.2377 25.0021 26.2471 25.0073 27.246 25.065C28.0562 25.1148 28.3 24.8186 28.2817 24.0215C28.2345 21.9293 28.2659 19.8344 28.2659 17.7422L28.2712 17.7448ZM29.2334 8.52906C34.3381 8.52906 39.4428 8.53693 44.5476 8.51596C44.9933 8.51596 45.612 8.81747 45.8034 7.99683C46.6031 4.59368 45.0693 2.59584 41.6137 2.59584C33.368 2.59584 25.1197 2.59322 16.8741 2.60371C16.2684 2.60371 15.6523 2.65352 15.0597 2.77413C13.5758 3.07564 12.8259 3.99853 12.7735 5.51657C12.7551 6.08289 12.8181 6.65707 12.7551 7.21815C12.6398 8.22755 12.9832 8.56839 14.0477 8.5579C19.1079 8.50285 24.1706 8.53431 29.2308 8.53431L29.2334 8.52906ZM3.99558 47.0465C4.02442 47.1488 4.05588 47.2536 4.08472 47.3559H11.7484C14.9155 47.3559 14.905 47.3559 14.6507 44.1546C14.6166 43.7141 14.5223 43.4415 14.0634 43.2894C12.9465 42.9197 12.0892 42.1961 11.4757 41.1972C11.2056 40.7567 10.9461 40.7016 10.5528 41.0635C8.37405 43.0665 6.18219 45.0565 3.99558 47.0491V47.0465ZM19.2363 43.4546C18.497 43.4546 17.8887 43.4546 17.2831 43.4546C16.8137 43.4546 16.6145 43.6932 16.5332 44.1599C16.098 46.6821 16.6433 47.3585 19.1655 47.3559C19.6427 47.3559 20.1199 47.3585 20.5944 47.3375C21.0323 47.3165 21.3784 47.0911 21.4098 46.648C21.4832 45.6569 21.7664 44.5374 21.3023 43.7141C20.93 43.0534 19.8525 43.5778 19.2363 43.4546ZM39.4927 43.4493C36.7345 43.4493 36.7056 43.4756 36.9704 46.0187C37.036 46.6401 37.1566 47.3742 37.9405 47.3139C39.2226 47.2143 40.6122 47.8881 41.7763 46.8551C41.8313 46.8053 41.834 46.6952 41.8576 46.6139C42.4947 44.2936 41.8628 43.4493 39.4927 43.4493Z" fill="white"/>
<path d="M42.8832 34.7759C42.92 36.8497 41.2158 38.609 39.113 38.6745C36.853 38.7427 35.1016 37.0438 35.0938 34.7785C35.0885 32.6128 36.8163 30.8667 38.9793 30.8536C41.1004 30.8405 42.8439 32.5945 42.8832 34.7785V34.7759ZM38.9426 32.8803C37.8205 32.9065 37.1204 33.6537 37.1283 34.8231C37.1362 35.9924 37.8257 36.6479 39.0291 36.6321C40.1801 36.6164 40.8697 35.8954 40.8539 34.7287C40.8356 33.596 40.07 32.8567 38.9426 32.8803Z" fill="white"/>
<path d="M19.447 38.6565C17.2603 38.6225 15.6427 36.9261 15.6663 34.6923C15.6899 32.4874 17.4413 30.7858 19.6016 30.8723C21.7699 30.9588 23.5501 32.7889 23.4662 34.8496C23.3797 37.0074 21.6021 38.6932 19.4443 38.6592L19.447 38.6565ZM21.4579 34.7762C21.4658 33.6724 20.7133 32.9173 19.5754 32.8911C18.5136 32.8649 17.6064 33.675 17.5645 34.6897C17.5173 35.7909 18.3851 36.6377 19.544 36.6246C20.7028 36.6089 21.45 35.8879 21.4579 34.7788V34.7762Z" fill="white"/>
<path d="M29.1234 35.7808C28.253 35.7808 27.3825 35.7965 26.5121 35.7755C25.8645 35.7598 25.3952 35.4321 25.4004 34.753C25.4057 34.0687 25.9012 33.7567 26.5357 33.7515C28.3631 33.7331 30.1932 33.741 32.0206 33.7489C32.7049 33.7489 33.1139 34.1552 33.1244 34.7897C33.1349 35.4662 32.6551 35.7755 31.997 35.7808C31.04 35.7886 30.0804 35.7808 29.1234 35.7808Z" fill="white"/>
</svg>
