<svg width="55" height="49" viewBox="0 0 55 49" fill="none" xmlns="http://www.w3.org/2000/svg">
<path d="M29.2043 0.00566317C33.5697 0.00566317 37.9324 0.000419494 42.2978 0.00566317C45.6747 0.00828501 47.6594 1.94582 47.7617 5.32013C47.8124 6.98587 48.6776 7.81874 50.3573 7.81874C50.8371 7.81874 51.3195 7.80301 51.7967 7.82923C53.1181 7.90526 54.0961 8.71017 54.3897 10.008C54.7227 11.471 54.5837 12.9602 54.5155 14.4389C54.4867 15.0603 54.1642 15.5217 53.4301 15.4771C52.6619 15.4299 52.5439 14.9108 52.5492 14.2868C52.557 13.2381 52.5439 12.192 52.5492 11.1432C52.5544 10.5219 52.3945 9.89262 51.7416 9.82183C50.5775 9.6986 49.3925 9.70384 48.2231 9.7589C47.5886 9.79037 47.7696 10.4065 47.7669 10.8076C47.7512 12.9025 47.7591 14.9973 47.7591 17.0922C47.7591 23.77 47.7591 30.4478 47.7591 37.1257C47.7591 39.5902 46.962 41.5828 44.4713 42.5214C43.8945 42.739 43.8525 43.148 43.8447 43.6593C43.8316 44.5717 43.9128 45.4815 43.6978 46.3939C43.4671 47.377 42.9113 48.1557 42.012 48.4022C40.237 48.8872 38.3781 49.0105 36.6346 48.3104C35.3578 47.7965 34.9986 46.6246 35.0064 45.2927C35.0222 42.8832 34.9986 42.8832 32.6075 42.8832C29.9463 42.8832 27.2825 42.9121 24.6213 42.8675C23.7352 42.8518 23.3183 43.0903 23.4153 44.0368C23.473 44.5979 23.4625 45.1747 23.3996 45.7358C23.1793 47.6654 22.0362 48.6853 20.0803 48.6906C13.9269 48.7011 7.7734 48.6906 1.61995 48.6985C0.993328 48.6985 0.335246 48.7404 0.0704408 48.0246C-0.194365 47.3141 0.34049 46.8946 0.794068 46.4856C4.12118 43.4705 7.44567 40.4528 10.7885 37.4534C11.714 36.6223 12.4377 36.9133 12.7103 38.1718C13.1246 40.0857 14.0239 40.8539 15.9562 40.8539C24.8154 40.8618 33.6745 40.8644 42.5337 40.8539C44.5368 40.8513 45.7271 39.6977 45.7324 37.6841C45.756 28.6938 45.7324 19.7009 45.7586 10.7106C45.7586 9.87164 45.4492 9.69336 44.6863 9.6986C40.2344 9.72744 35.7825 9.73006 31.3332 9.6986C30.4733 9.69074 30.2111 9.96865 30.219 10.826C30.2583 14.9711 30.2583 19.1189 30.219 23.264C30.2111 24.1423 30.51 24.4097 31.349 24.3625C32.3505 24.3049 33.3573 24.3075 34.3588 24.3625C35.6304 24.4307 36.6949 24.1738 37.7069 23.2692C38.8343 22.2625 40.3445 22.1995 41.8049 22.3647C42.3476 22.425 42.8484 22.716 42.8064 23.3689C42.7618 24.0427 42.303 24.4097 41.6528 24.3416C40.1662 24.1869 38.9602 24.6588 37.8354 25.6368C37.0987 26.2765 36.0735 26.363 35.1035 26.3656C31.2205 26.3761 27.3349 26.3787 23.452 26.3656C22.1149 26.3604 20.8538 26.0825 19.8286 25.1307C19.1863 24.5356 18.4312 24.3101 17.5502 24.3468C16.3311 24.394 15.1041 24.4097 13.8849 24.3416C12.9804 24.2918 12.6658 24.5697 12.6894 25.5057C12.7497 27.8181 12.7051 30.1306 12.7103 32.4457C12.7103 33.1772 12.6815 33.9716 11.7429 34.0083C10.6968 34.0476 10.6732 33.2113 10.6732 32.4299C10.6758 25.3169 10.6522 18.2012 10.6994 11.0882C10.7072 10.0132 10.4293 9.68287 9.32553 9.69073C5.30625 9.71695 5.94336 9.70909 5.89617 13.0677C5.8883 13.634 5.90928 14.2082 5.81489 14.7614C5.72575 15.2805 5.33771 15.6371 4.78975 15.5715C4.28374 15.5112 3.87473 15.1992 3.86949 14.6277C3.85638 13.1883 3.77772 11.7384 3.91143 10.3121C4.05039 8.83339 5.27217 7.89478 6.80857 7.82661C8.02248 7.77417 9.52479 8.30116 10.3743 7.6221C11.2185 6.94829 10.5421 5.40665 10.6915 4.25829C11.0035 1.88814 13.1141 0.0213942 15.5891 0.0109068C20.1275 -0.0100679 24.6659 0.00566317 29.2043 0.00566317ZM28.2106 17.0397C28.2106 14.9475 28.1818 12.8527 28.2237 10.7604C28.2395 9.98438 28.0219 9.69074 27.1986 9.6986C22.7074 9.73268 18.2162 9.73268 13.7224 9.6986C12.8991 9.69336 12.6841 9.99749 12.6946 10.7683C12.7313 13.2538 12.6815 15.7393 12.7182 18.2248C12.7365 19.5226 12.1597 21.2059 12.9515 22.016C13.8063 22.8891 15.5131 22.2782 16.845 22.2939C18.1795 22.307 19.5376 22.3254 20.5654 23.2247C21.6456 24.1685 22.8123 24.4464 24.1782 24.3599C25.1772 24.297 26.1866 24.3022 27.1855 24.3599C27.9956 24.4097 28.2395 24.1135 28.2211 23.3164C28.1739 21.2242 28.2054 19.1294 28.2054 17.0371L28.2106 17.0397ZM29.1729 7.82399C34.2776 7.82399 39.3823 7.83185 44.487 7.81088C44.9327 7.81088 45.5515 8.11239 45.7429 7.29175C46.5425 3.88861 45.0088 1.89077 41.5532 1.89077C33.3075 1.89077 25.0592 1.88814 16.8135 1.89863C16.2079 1.89863 15.5917 1.94845 14.9992 2.06905C13.5152 2.37056 12.7654 3.29345 12.7129 4.81149C12.6946 5.37781 12.7575 5.95199 12.6946 6.51307C12.5792 7.52247 12.9227 7.86331 13.9872 7.85283C19.0473 7.79777 24.1101 7.82923 29.1702 7.82923L29.1729 7.82399ZM3.93503 46.3414C3.96387 46.4437 3.99533 46.5485 4.02417 46.6508H11.6878C14.855 46.6508 14.8445 46.6508 14.5902 43.4495C14.5561 43.0091 14.4617 42.7364 14.0029 42.5843C12.886 42.2146 12.0286 41.491 11.4151 40.4921C11.1451 40.0516 10.8855 39.9966 10.4922 40.3584C8.3135 42.3615 6.12164 44.3514 3.93503 46.344V46.3414ZM19.1758 42.7495C18.4364 42.7495 17.8282 42.7495 17.2225 42.7495C16.7532 42.7495 16.5539 42.9881 16.4727 43.4548C16.0374 45.977 16.5828 46.6534 19.105 46.6508C19.5822 46.6508 20.0593 46.6534 20.5339 46.6324C20.9717 46.6115 21.3178 46.386 21.3493 45.9429C21.4227 44.9518 21.7059 43.8323 21.2418 43.0091C20.8695 42.3484 19.7919 42.8727 19.1758 42.7495ZM39.4321 42.7443C36.6739 42.7443 36.6451 42.7705 36.9099 45.3137C36.9754 45.935 37.096 46.6692 37.88 46.6088C39.1621 46.5092 40.5516 47.183 41.7157 46.15C41.7708 46.1002 41.7734 45.9901 41.797 45.9088C42.4341 43.5885 41.8022 42.7443 39.4321 42.7443Z" fill="white"/>
<path d="M42.8227 34.0708C42.8594 36.1447 41.1552 37.9039 39.0525 37.9695C36.7925 38.0376 35.0411 36.3387 35.0332 34.0734C35.028 31.9078 36.7558 30.1616 38.9188 30.1485C41.0398 30.1354 42.7834 31.8894 42.8227 34.0734V34.0708ZM38.8821 32.1752C37.7599 32.2014 37.0599 32.9486 37.0678 34.118C37.0756 35.2873 37.7652 35.9428 38.9686 35.927C40.1196 35.9113 40.8091 35.1903 40.7934 34.0236C40.775 32.891 40.0095 32.1516 38.8821 32.1752Z" fill="white"/>
<path d="M19.3864 37.9515C17.1998 37.9174 15.5821 36.221 15.6057 33.9872C15.6293 31.7823 17.3807 30.0807 19.5411 30.1672C21.7094 30.2537 23.4896 32.0838 23.4057 34.1445C23.3192 36.3023 21.5416 37.9882 19.3838 37.9541L19.3864 37.9515ZM21.3974 34.0711C21.4052 32.9673 20.6528 32.2123 19.5149 32.186C18.453 32.1598 17.5459 32.97 17.5039 33.9846C17.4567 35.0858 18.3246 35.9326 19.4834 35.9195C20.6423 35.9038 21.3895 35.1828 21.3974 34.0738V34.0711Z" fill="white"/>
<path d="M29.0629 35.0757C28.1924 35.0757 27.322 35.0914 26.4515 35.0705C25.804 35.0547 25.3346 34.727 25.3399 34.0479C25.3451 33.3636 25.8407 33.0516 26.4751 33.0464C28.3026 33.028 30.1326 33.0359 31.96 33.0438C32.6443 33.0438 33.0533 33.4502 33.0638 34.0846C33.0743 34.7611 32.5945 35.0705 31.9364 35.0757C30.9795 35.0836 30.0199 35.0757 29.0629 35.0757Z" fill="white"/>
</svg>
