<svg width="43" height="59" viewBox="0 0 43 59" fill="none" xmlns="http://www.w3.org/2000/svg">
<g clip-path="url(#clip0_660_14442)">
<path d="M42.7578 13.8205V16.581C42.7578 16.9836 42.4282 17.3095 42.021 17.3095H38.4535V56.6608H42.021C42.4282 56.6608 42.7578 56.9868 42.7578 57.3892C42.7578 57.7916 42.4282 58.1177 42.021 58.1177H1.48981C1.08746 58.1177 0.757812 57.7918 0.757812 57.3892C0.757812 56.9866 1.08746 56.6608 1.48981 56.6608H5.06211V17.3094H1.48981C1.08746 17.3094 0.757812 16.9834 0.757812 16.5808V13.8203C0.757812 13.4177 1.08746 13.0918 1.48981 13.0918H42.0211C42.4283 13.0918 42.758 13.4177 42.758 13.8203L42.7578 13.8205ZM41.2843 15.8525V14.5489H2.22648V15.8525H41.2843ZM36.9802 56.6607V49.9273H28.3377L26.8836 51.365C26.743 51.504 26.5588 51.5807 26.36 51.5807H23.5584V56.6607H36.98H36.9802ZM36.9802 48.4703V47.3057H27.0096L25.5555 48.7435C25.4149 48.8777 25.2306 48.9544 25.0319 48.9544H23.5584V50.1238H26.0547L27.5137 48.686C27.6494 48.5518 27.8385 48.4703 28.0323 48.4703H36.98H36.9802ZM36.9802 45.8488V17.3094H23.5585V47.4973H24.7316L26.1857 46.0595C26.3215 45.9253 26.5106 45.8487 26.7043 45.8487H36.9802V45.8488ZM22.085 56.6607V17.3094H21.4307V56.6607H22.085ZM19.9572 56.6607V51.5807H17.1508C16.9569 51.5807 16.7679 51.504 16.6274 51.365L15.1732 49.9273H6.53561V56.6607H19.9572ZM19.9572 50.1238V48.9544H18.4789C18.2801 48.9544 18.0961 48.8777 17.9555 48.7435L16.5013 47.3057H6.53561V48.4703H15.4785C15.6773 48.4703 15.8614 48.5518 16.0021 48.686L17.4563 50.1238H19.9574H19.9572ZM19.9572 47.4975V17.3095H6.53561V45.849H16.8066C17.0006 45.849 17.1895 45.9256 17.3302 46.0598L18.7844 47.4976H19.9574L19.9572 47.4975Z" fill="white"/>
<path d="M35.856 21.0568V37.5957C35.856 38.8227 34.8479 39.8146 33.607 39.8146H26.9278C25.6869 39.8146 24.6836 38.8227 24.6836 37.5957V21.0568C24.6836 19.8347 25.6869 18.8379 26.9278 18.8379H33.607C34.8479 18.8379 35.856 19.8347 35.856 21.0568ZM34.3825 37.5957V21.0568C34.3825 20.6399 34.0335 20.2948 33.607 20.2948H26.9278C26.5013 20.2948 26.1571 20.6399 26.1571 21.0568V37.5957C26.1571 38.0175 26.5013 38.3625 26.9278 38.3625H33.607C34.0335 38.3625 34.3825 38.0175 34.3825 37.5957Z" fill="white"/>
<path d="M18.8326 21.0568V37.5957C18.8326 38.8227 17.8245 39.8146 16.5836 39.8146H9.90435C8.66828 39.8146 7.66016 38.8227 7.66016 37.5957V21.0568C7.66016 19.8347 8.66828 18.8379 9.90435 18.8379H16.5836C17.8245 18.8379 18.8326 19.8347 18.8326 21.0568ZM17.3589 37.5957V21.0568C17.3589 20.6399 17.0099 20.2948 16.5834 20.2948H9.90418C9.47765 20.2948 9.1335 20.6399 9.1335 21.0568V37.5957C9.1335 38.0175 9.47765 38.3625 9.90418 38.3625H16.5834C17.0099 38.3625 17.3589 38.0175 17.3589 37.5957Z" fill="white"/>
<path fill-rule="evenodd" clip-rule="evenodd" d="M14.3474 0.226988L14.4303 0.117188H17.8815L17.7987 0.226988L13.8505 5.41381L17.7987 10.628H14.3474L10.3991 5.41381L14.3474 0.226988ZM4.90445 1.89229L4.96031 1.81019H7.30671L7.25152 1.89229L4.57363 5.41397L7.25152 8.93483H4.90445L2.22656 5.41397L4.90445 1.89229ZM9.26727 1.04521L9.34998 0.963934H12.2493L12.1664 1.04521L8.85325 5.41397L12.1664 9.78141H9.26727L5.95426 5.41397L9.26727 1.04521Z" fill="white"/>
<path fill-rule="evenodd" clip-rule="evenodd" d="M28.2175 0.226988L28.1347 0.117188H24.6836L24.7661 0.226988L28.7144 5.41381L24.7661 10.628H28.2177L32.1653 5.41381L28.2175 0.226988ZM37.6318 1.89229L37.5771 1.81019H35.2576L35.3126 1.89229L37.9912 5.41397L35.3126 8.93483H37.6317L40.3101 5.41397L37.6317 1.89229H37.6318ZM33.2695 1.04521L33.2143 0.963934H30.3158L30.3985 1.04521L33.7114 5.41397L30.3985 9.78141H33.2693L36.583 5.41397L33.2693 1.04521H33.2695Z" fill="white"/>
</g>
<defs>
<clipPath id="clip0_660_14442">
<rect width="42" height="58" fill="white" transform="translate(0.757812 0.117188)"/>
</clipPath>
</defs>
</svg>
