<svg width="42" height="59" viewBox="0 0 42 59" fill="none" xmlns="http://www.w3.org/2000/svg">
<g clip-path="url(#clip0_3323_10109)">
<path fill-rule="evenodd" clip-rule="evenodd" d="M13.6953 4.82116L16.8941 9.66416H19.2125L16.0354 4.82116L19.2125 0H16.8941L13.6953 4.82116Z" fill="white"/>
<path fill-rule="evenodd" clip-rule="evenodd" d="M9.13477 4.82116L12.3336 9.66416H14.652L11.4748 4.82116L14.652 0H12.3336L9.13477 4.82116Z" fill="white"/>
<path fill-rule="evenodd" clip-rule="evenodd" d="M28.9605 4.82116L25.7618 9.66416H23.4434L26.6205 4.82116L23.4434 0H25.7618L28.9605 4.82116Z" fill="white"/>
<path fill-rule="evenodd" clip-rule="evenodd" d="M33.5211 4.82116L30.3223 9.66416H28.0039L31.181 4.82116L28.0039 0H30.3223L33.5211 4.82116Z" fill="white"/>
<path d="M42 13.8828V16.6945C42 17.1046 41.6703 17.4365 41.2632 17.4365H37.6957V57.5171H41.2632C41.6703 57.5171 42 57.8491 42 58.259C42 58.6689 41.6703 59.001 41.2632 59.001H0.732001C0.32965 59.001 0 58.669 0 58.259C0 57.8489 0.32965 57.5171 0.732001 57.5171H4.3043V17.4364H0.732001C0.32965 17.4364 0 17.1044 0 16.6943V13.8827C0 13.4726 0.32965 13.1406 0.732001 13.1406H41.2633C41.6705 13.1406 42.0002 13.4726 42.0002 13.8827L42 13.8828ZM40.5265 15.9525V14.6247H1.46867V15.9525H40.5265ZM36.2224 57.5169V50.6587H27.5799L26.1258 52.1232C25.9852 52.2647 25.8009 52.3428 25.6022 52.3428H22.8006V57.5169H36.2222H36.2224ZM36.2224 49.1748V47.9886H26.2518L24.7977 49.4531C24.6571 49.5898 24.4728 49.6678 24.2741 49.6678H22.8006V50.8589H25.2969L26.7559 49.3945C26.8916 49.2578 27.0807 49.1748 27.2744 49.1748H36.2222H36.2224ZM36.2224 46.5047V17.4364H22.8007V48.1838H23.9738L25.4279 46.7193C25.5637 46.5826 25.7528 46.5046 25.9465 46.5046H36.2224V46.5047ZM21.3272 57.5169V17.4364H20.6729V57.5169H21.3272ZM19.1994 57.5169V52.3428H16.393C16.1991 52.3428 16.0101 52.2647 15.8696 52.1232L14.4154 50.6587H5.7778V57.5169H19.1994ZM19.1994 50.8589V49.6678H17.7211C17.5223 49.6678 17.3382 49.5898 17.1977 49.4531L15.7435 47.9886H5.7778V49.1748H14.7207C14.9195 49.1748 15.1036 49.2578 15.2443 49.3945L16.6985 50.8589H19.1996H19.1994ZM19.1994 48.1839V17.4365H5.7778V46.5049H16.0488C16.2427 46.5049 16.4317 46.583 16.5724 46.7197L18.0266 48.1841H19.1996L19.1994 48.1839Z" fill="white"/>
<path d="M35.0982 21.2542V38.0996C35.0982 39.3493 34.0901 40.3597 32.8492 40.3597H26.17C24.9291 40.3597 23.9258 39.3493 23.9258 38.0996V21.2542C23.9258 20.0094 24.9291 18.9941 26.17 18.9941H32.8492C34.0901 18.9941 35.0982 20.0094 35.0982 21.2542ZM33.6247 38.0996V21.2542C33.6247 20.8295 33.2757 20.4781 32.8492 20.4781H26.17C25.7434 20.4781 25.3993 20.8295 25.3993 21.2542V38.0996C25.3993 38.5292 25.7434 38.8806 26.17 38.8806H32.8492C33.2757 38.8806 33.6247 38.5292 33.6247 38.0996Z" fill="white"/>
<path d="M18.0748 21.2542V38.0996C18.0748 39.3493 17.0666 40.3597 15.8257 40.3597H9.14653C7.91047 40.3597 6.90234 39.3493 6.90234 38.0996V21.2542C6.90234 20.0094 7.91047 18.9941 9.14653 18.9941H15.8257C17.0666 18.9941 18.0748 20.0094 18.0748 21.2542ZM16.6011 38.0996V21.2542C16.6011 20.8295 16.2521 20.4781 15.8256 20.4781H9.14637C8.71984 20.4781 8.37568 20.8295 8.37568 21.2542V38.0996C8.37568 38.5292 8.71984 38.8806 9.14637 38.8806H15.8256C16.2521 38.8806 16.6011 38.5292 16.6011 38.0996Z" fill="white"/>
</g>
<defs>
<clipPath id="clip0_3323_10109">
<rect width="42" height="59" fill="white"/>
</clipPath>
</defs>
</svg>
