<svg width="53" height="53" viewBox="0 0 53 53" fill="none" xmlns="http://www.w3.org/2000/svg">
<g clip-path="url(#clip0_3053_10264)">
<path d="M10.0589 34.2302V36.4852C9.88866 36.7056 9.71846 36.926 9.59932 37.1803V37.1973C9.54826 37.282 9.51422 37.3668 9.48018 37.4516C9.48018 37.4516 9.48018 37.4346 9.46316 37.4346C9.29296 37.0616 9.0717 36.7395 8.81641 36.4343V34.2133C8.81641 33.8742 9.08872 33.5859 9.44614 33.5859C9.78654 33.6029 10.0589 33.8911 10.0589 34.2302Z" fill="white"/>
<path d="M16.4946 43.8596C16.2223 45.4703 15.4394 46.691 14.265 47.3014C13.3119 47.81 12.1886 47.8779 10.9972 47.5218L12.4609 46.8097C12.7673 46.6571 12.9034 46.2841 12.7503 45.9789C12.5971 45.6738 12.2226 45.5381 11.9163 45.6907L10.3164 46.4706C10.6738 45.216 11.3887 44.2665 12.3758 43.7579C13.5332 43.1475 14.9799 43.1814 16.4946 43.8596Z" fill="white"/>
<path d="M10.0591 40.0469V40.4538C9.95703 40.4199 9.87193 40.386 9.76981 40.3351C9.68471 40.3012 9.58259 40.2503 9.48047 40.2164H9.59961C9.61663 40.2164 9.65067 40.2164 9.66769 40.1995C9.70173 40.1995 9.75279 40.1825 9.76981 40.1656L10.0591 40.0469Z" fill="white"/>
<path d="M10.06 36.4863V38.6904L9.88978 38.7582C9.85574 38.5887 9.80468 38.4192 9.75362 38.2496C9.70256 38.0801 9.63448 37.9105 9.58342 37.741C9.53237 37.6392 9.49833 37.5375 9.44727 37.4358V37.4188C9.49833 37.3341 9.53237 37.2493 9.58342 37.1815V37.1645C9.7366 36.9441 9.88978 36.7067 10.06 36.4863Z" fill="white"/>
<path d="M15.2003 36.5368C14.962 37.7915 14.3493 38.7409 13.4302 39.2326C12.8005 39.5548 12.0856 39.6565 11.3027 39.5209L11.9154 39.2665C12.2388 39.1309 12.375 38.7579 12.2388 38.4527C12.1027 38.1306 11.7452 37.9949 11.4219 38.1306L10.3496 38.5884C10.656 37.6389 11.2006 36.9098 11.9665 36.5029C12.8856 36.0113 14.0259 36.0282 15.2003 36.5368Z" fill="white"/>
<path d="M9.6688 40.0972C9.60072 40.1311 9.51562 40.165 9.44754 40.199H9.43052C9.22628 40.3007 9.02204 40.3855 8.80078 40.4533V40.0803C8.83482 40.0803 8.88588 40.0972 8.91992 40.0972C8.988 40.0972 9.05608 40.0803 9.12416 40.0633H9.14118C9.1582 40.0633 9.17522 40.0464 9.17522 40.0464C9.31138 39.9785 9.43052 39.8768 9.48158 39.7242C9.60072 39.4869 9.51562 39.1817 9.31138 39.0121L9.29436 38.9952L9.87304 38.7578V38.7748C9.9241 38.9952 9.95814 39.2156 9.99218 39.4529C10.0262 39.7242 9.90708 39.9785 9.6688 40.0972Z" fill="white"/>
<path d="M9.89285 38.7743L9.33119 39.0116C9.29715 38.9947 9.26311 38.9608 9.22907 38.9438C9.21205 38.9438 9.19503 38.9268 9.17801 38.9268L9.00781 38.859C9.10993 38.3504 9.26311 37.8926 9.46735 37.4688C9.51841 37.5535 9.55245 37.6552 9.60351 37.757C9.67159 37.9265 9.72265 38.0791 9.77371 38.2656C9.80775 38.4182 9.85881 38.5878 9.89285 38.7743Z" fill="white"/>
<path d="M9.44754 37.4704C9.2433 37.8943 9.09012 38.352 8.988 38.8607L8.80078 38.7759V36.4531C9.05608 36.7414 9.27734 37.0974 9.44754 37.4704Z" fill="white"/>
<path d="M6.55522 39.1476L7.45727 39.5375C6.74243 39.6393 6.06164 39.5375 5.48296 39.2154C4.56389 38.7237 3.95117 37.7912 3.71289 36.5196C4.88726 36.011 6.0276 35.994 6.94667 36.4688C7.72959 36.8926 8.30827 37.6386 8.5976 38.6559L7.04879 37.9947C6.72542 37.859 6.368 38.0116 6.23184 38.3168C6.07866 38.6559 6.23184 39.012 6.55522 39.1476Z" fill="white"/>
<path d="M9.78794 44.5729L9.77092 44.5899C9.63476 44.8272 9.51562 45.0646 9.39648 45.3189C9.20926 45.7428 9.05608 46.2175 8.95396 46.7092L8.80078 46.6414V51.7447H10.0432V44.166L9.78794 44.5729ZM9.4135 48.2521C9.37946 48.2351 9.34542 48.2182 9.3284 48.2012H9.51562L9.4135 48.2521Z" fill="white"/>
<path d="M9.49832 48.2012C9.46428 48.2181 9.43024 48.2351 9.41322 48.252C9.37918 48.2351 9.34514 48.2181 9.32812 48.2012H9.49832Z" fill="white"/>
<path d="M9.39648 45.3207C9.20926 45.7446 9.05608 46.2193 8.95396 46.711L8.80078 46.6432V44.2695C8.91992 44.4391 9.02204 44.6086 9.12416 44.7782C9.14118 44.7951 9.14118 44.8121 9.1582 44.829C9.2433 44.9816 9.3284 45.1512 9.39648 45.3207Z" fill="white"/>
<path d="M6.35012 46.8281L7.81384 47.5402C6.62244 47.8963 5.48211 47.8115 4.54601 47.3198C3.37164 46.6925 2.58872 45.4887 2.31641 43.8611C3.81416 43.1829 5.27787 43.149 6.43522 43.7763C7.42238 44.3019 8.13722 45.2514 8.49463 46.506L6.89476 45.7261C6.5884 45.5735 6.21397 45.7091 6.06079 46.0143C5.90761 46.3195 6.04377 46.6755 6.35012 46.8281Z" fill="white"/>
<path d="M10.0603 40.4535V44.1666L10.0432 44.1835C9.95813 44.3022 9.87304 44.4379 9.78794 44.5735L9.77092 44.5905C9.63476 44.8109 9.51562 45.0482 9.39648 45.3195C9.3284 45.15 9.2433 44.9804 9.1582 44.8278C9.1582 44.8109 9.14118 44.7939 9.12416 44.777C9.02204 44.5905 8.91992 44.4209 8.80078 44.2514V40.4535C9.00502 40.3857 9.20926 40.284 9.43052 40.1992H9.48158C9.4986 40.1992 9.4986 40.2162 9.51562 40.2162C9.60072 40.267 9.68582 40.3009 9.77092 40.3349C9.87304 40.3857 9.95813 40.4196 10.0603 40.4535Z" fill="white"/>
<path d="M10.0605 38.6895V40.0458L9.78822 40.1645C9.73716 40.1815 9.70312 40.1984 9.66908 40.1984C9.65206 40.1984 9.63504 40.1984 9.601 40.2154H9.49888C9.48754 40.2154 9.47619 40.2097 9.46484 40.1984C9.53292 40.1645 9.61802 40.1306 9.6861 40.0967C9.90736 39.978 10.0435 39.7237 10.0095 39.4694C9.97544 39.232 9.9414 38.9946 9.89034 38.7742L10.0605 38.6895Z" fill="white"/>
<path d="M9.48283 40.2149H9.42969H9.4474C9.46511 40.1972 9.48283 40.2149 9.48283 40.2149Z" fill="white"/>
<path d="M9.49802 39.7408C9.42994 39.8934 9.32782 39.9951 9.19166 40.0629C9.07252 39.9781 8.9704 39.8594 8.93636 39.7238C8.8853 39.4356 9.02146 39.1474 9.29378 39.0287L9.32782 39.0117C9.53206 39.1813 9.61715 39.4695 9.49802 39.7408Z" fill="white"/>
<path d="M9.14118 40.0803C9.0731 40.1142 9.00502 40.1142 8.91992 40.1142C8.88588 40.1142 8.83482 40.1142 8.80078 40.0972V38.7578L8.988 38.8426V38.8595C8.95396 39.063 8.91992 39.2495 8.88588 39.4529C8.86886 39.5377 8.88588 39.6225 8.9029 39.6903C8.9029 39.7412 8.91992 39.7751 8.93694 39.809C9.00502 39.9446 9.05608 39.9955 9.14118 40.0803Z" fill="white"/>
<path d="M9.1928 40.0637C9.17578 40.0637 9.15876 40.0807 9.15876 40.0807C9.09068 40.0128 9.0226 39.945 8.97154 39.8433C8.95452 39.8094 8.9375 39.7585 8.9375 39.7246C8.97154 39.8602 9.05664 39.9789 9.1928 40.0637Z" fill="white"/>
<path d="M9.32959 39.0106L9.29555 39.0276C9.02323 39.1463 8.87005 39.4345 8.93813 39.7227C8.92111 39.638 8.90409 39.5532 8.92111 39.4854C8.93813 39.265 8.97217 39.0615 9.02323 38.875L9.19343 38.9428C9.22747 38.9428 9.27853 38.9767 9.32959 39.0106Z" fill="white"/>
<path d="M26.7743 33.6035C26.4339 33.6035 26.1445 33.8748 26.1445 34.2308V51.7449H27.387V34.2308C27.404 33.8917 27.1317 33.6035 26.7743 33.6035Z" fill="white"/>
<path d="M33.8384 43.8616C33.5661 45.4723 32.7831 46.693 31.6088 47.3034C30.6727 47.812 29.5323 47.8798 28.341 47.5238L29.8047 46.8117C30.111 46.6591 30.2472 46.2861 30.094 45.9809C29.9408 45.6757 29.5664 45.5401 29.26 45.6927L27.6602 46.4726C28.0176 45.2179 28.7324 44.2685 29.7196 43.7599C30.8769 43.1495 32.3406 43.1834 33.8384 43.8616Z" fill="white"/>
<path d="M32.544 36.5368C32.3058 37.7915 31.693 38.7409 30.774 39.2326C30.1442 39.5548 29.4294 39.6565 28.6465 39.5209L29.2592 39.2665C29.5826 39.1309 29.7187 38.7579 29.5826 38.4527C29.4464 38.1306 29.089 37.9949 28.7656 38.1306L27.6934 38.5884C27.9997 37.6389 28.5444 36.9098 29.3103 36.5029C30.2293 36.0113 31.3697 36.0282 32.544 36.5368Z" fill="white"/>
<path d="M23.897 39.1476L24.7991 39.5375C24.0842 39.6393 23.4034 39.5375 22.8248 39.2154C21.9057 38.7237 21.293 37.7912 21.0547 36.5196C22.2291 36.011 23.3694 35.994 24.2885 36.4688C25.0714 36.8926 25.6501 37.6386 25.9394 38.6559L24.3906 37.9947C24.0672 37.859 23.7098 38.0116 23.5736 38.3168C23.4375 38.6559 23.5736 39.012 23.897 39.1476Z" fill="white"/>
<path d="M23.6939 46.8281L25.1576 47.5402C23.9662 47.8963 22.8259 47.8115 21.8898 47.3198C20.7154 46.6925 19.9325 45.4887 19.6602 43.8611C21.1579 43.1829 22.6216 43.149 23.779 43.7763C24.7661 44.3019 25.481 45.2514 25.8384 46.506L24.2385 45.7261C23.9322 45.5735 23.5577 45.7091 23.4045 46.0143C23.2684 46.3195 23.3875 46.6755 23.6939 46.8281Z" fill="white"/>
<path d="M51.1821 43.8596C50.9098 45.4703 50.1269 46.691 48.9525 47.3014C47.9994 47.81 46.8761 47.8779 45.6847 47.5218L47.1484 46.8097C47.4548 46.6571 47.5909 46.2841 47.4378 45.9789C47.2846 45.6738 46.9101 45.5381 46.6038 45.6907L45.0039 46.4706C45.3613 45.216 46.0762 44.2665 47.0633 43.7579C48.2207 43.1475 49.6844 43.1814 51.1821 43.8596Z" fill="white"/>
<path d="M49.8878 36.5368C49.6495 37.7915 49.0368 38.7409 48.1177 39.2326C47.488 39.5548 46.7731 39.6565 45.9902 39.5209L46.6029 39.2665C46.9263 39.1309 47.0625 38.7579 46.9263 38.4527C46.7902 38.1306 46.4327 37.9949 46.1094 38.1306L45.0371 38.5884C45.3435 37.6389 45.8881 36.9098 46.654 36.5029C47.5901 36.0113 48.7134 36.0282 49.8878 36.5368Z" fill="white"/>
<path d="M41.2408 39.1476L42.1428 39.5375C41.428 39.6393 40.7472 39.5375 40.1685 39.2154C39.2494 38.7237 38.6367 37.7912 38.3984 36.5196C39.5728 36.011 40.7131 35.994 41.6322 36.4688C42.4151 36.8926 42.9938 37.6386 43.2832 38.6559L41.7343 37.9947C41.411 37.859 41.0535 38.0116 40.9174 38.3168C40.7812 38.6559 40.9174 39.012 41.2408 39.1476Z" fill="white"/>
<path d="M41.0376 46.8281L42.5013 47.5402C41.3099 47.8963 40.1696 47.8115 39.2335 47.3198C38.0591 46.6925 37.2762 45.4887 37.0039 43.8611C38.5017 43.1829 39.9654 43.149 41.1227 43.7763C42.1099 44.3019 42.8247 45.2514 43.1821 46.506L41.5823 45.7261C41.2759 45.5735 40.9015 45.7091 40.7483 46.0143C40.6121 46.3195 40.7313 46.6755 41.0376 46.8281Z" fill="white"/>
<path d="M44.7464 34.2308V51.7449H43.5039V34.2308C43.5039 33.8917 43.7762 33.6035 44.1336 33.6035C44.4911 33.6035 44.7464 33.8917 44.7464 34.2308Z" fill="white"/>
<path d="M53 52.3715C53 52.7105 52.7277 52.9988 52.3703 52.9988H0.629737C0.289338 52.9988 0 52.7275 0 52.3715C0 52.0154 0.272319 51.7441 0.629737 51.7441H8.81631V52.3545C8.81631 52.6766 9.05459 52.9479 9.37797 52.9818H9.49711C9.82049 52.9649 10.0758 52.6936 10.0758 52.3545V51.7441H26.1596V52.3545C26.1596 52.6766 26.3979 52.9479 26.7213 52.9818H26.8404C27.1638 52.9649 27.4191 52.6936 27.4191 52.3545V51.7441H43.5199V52.3545C43.5199 52.6936 43.7752 52.9818 44.1326 52.9818H44.1496C44.49 52.9818 44.7794 52.7105 44.7794 52.3545V51.7441H52.3703C52.7107 51.7441 53 52.0324 53 52.3715Z" fill="white"/>
<path d="M10.0583 51.7461V52.3565C10.0583 52.6786 9.82002 52.9499 9.49664 52.9838H9.3775C9.05413 52.9668 8.79883 52.6955 8.79883 52.3565V51.7461H10.0583Z" fill="white"/>
<path d="M27.4021 51.7461V52.3565C27.4021 52.6786 27.1638 52.9499 26.8404 52.9838H26.7213C26.3979 52.9668 26.1426 52.6955 26.1426 52.3565V51.7461H27.4021Z" fill="white"/>
<path d="M44.7458 51.7461V52.3565C44.7458 52.6955 44.4905 52.9838 44.1331 52.9838H44.1161C43.7757 52.9838 43.4863 52.7125 43.4863 52.3565V51.7461H44.7458Z" fill="white"/>
<path d="M11.2165 6.98561V7.35861H7.57422V6.98561C7.57422 6.56175 7.91462 6.22266 8.34011 6.22266H10.4336C10.8761 6.22266 11.2165 6.56175 11.2165 6.98561Z" fill="white"/>
<path d="M11.217 8.59766V9.64884C11.217 10.0727 10.8766 10.4118 10.4511 10.4118H8.35769C7.9322 10.4118 7.5918 10.0727 7.5918 9.64884V8.59766H11.217Z" fill="white"/>
<path d="M9.97457 0.627319V3.59437H6.67271C6.33231 3.59437 6.04297 3.3231 6.04297 2.96705C6.04297 2.611 6.31529 2.33973 6.67271 2.33973H8.73211V0.627319C8.73211 0.288228 9.00443 0 9.36185 0C9.70225 0.0169546 9.97457 0.288228 9.97457 0.627319Z" fill="white"/>
<path d="M12.6638 2.96655C12.6638 3.30564 12.3914 3.59386 12.034 3.59386H9.97461V2.35618H12.034C12.3914 2.33923 12.6638 2.62745 12.6638 2.96655Z" fill="white"/>
<path d="M9.97488 3.59375H8.73242V4.98402H9.97488V3.59375Z" fill="white"/>
<path d="M45.9196 6.98561V7.35861H42.2773V6.98561C42.2773 6.56175 42.6177 6.22266 43.0432 6.22266H45.1367C45.5622 6.22266 45.9196 6.56175 45.9196 6.98561Z" fill="white"/>
<path d="M45.9202 8.59766V9.64884C45.9202 10.0727 45.5798 10.4118 45.1543 10.4118H43.0608C42.6353 10.4118 42.2949 10.0727 42.2949 9.64884V8.59766H45.9202Z" fill="white"/>
<path d="M47.4528 2.96716C47.4528 3.30625 47.1805 3.59448 46.823 3.59448H41.4618C41.1214 3.59448 40.832 3.32321 40.832 2.96716C40.832 2.61112 41.1044 2.33984 41.4618 2.33984H46.823C47.1634 2.33984 47.4528 2.62807 47.4528 2.96716Z" fill="white"/>
<path d="M44.7639 0.627319V2.33973H43.5215V0.627319C43.5215 0.288228 43.7938 0 44.1512 0C44.4916 0.0169546 44.7639 0.288228 44.7639 0.627319Z" fill="white"/>
<path d="M44.7639 3.59375H43.5215V4.98402H44.7639V3.59375Z" fill="white"/>
<path d="M33.7167 4.68009H20.2539C20.5092 4.06973 21.1049 3.62891 21.8027 3.62891H32.1508C32.8657 3.62891 33.4784 4.06973 33.7167 4.68009Z" fill="white"/>
<path d="M30.0912 15.5312L30.0231 16.1755C29.989 16.5316 29.6316 16.8028 29.2232 16.8028H24.2704C23.8619 16.8028 23.5215 16.5316 23.4704 16.1755L23.4023 15.5312H30.0912Z" fill="white"/>
<path d="M33.8358 5.93359H20.1348V7.35778H33.8358V5.93359Z" fill="white"/>
<path d="M30.8409 8.5957L30.2282 14.2924H23.267L22.6543 8.5957H30.8409Z" fill="white"/>
<path d="M27.8953 18.0566H25.5977V18.8196H27.8953V18.0566Z" fill="white"/>
<path d="M25.3775 21.9717L20.5949 26.9393C20.4757 27.058 20.3055 27.1258 20.1524 27.1258C19.9992 27.1258 19.846 27.075 19.7269 26.9563C19.4716 26.7189 19.4716 26.329 19.7098 26.0747L24.4924 21.107C24.7137 20.8527 25.1222 20.8527 25.3604 21.09C25.6157 21.3274 25.6157 21.7173 25.3775 21.9717Z" fill="white"/>
<path d="M27.3688 21.5336V28.4002C27.3688 28.7393 27.0965 29.0275 26.7391 29.0275C26.3817 29.0275 26.1094 28.7562 26.1094 28.4002V21.5336C26.1094 21.1945 26.3817 20.9062 26.7391 20.9062C27.0965 20.9232 27.3688 21.1945 27.3688 21.5336Z" fill="white"/>
<path d="M33.7511 26.9407C33.6319 27.0594 33.4788 27.1102 33.3256 27.1102C33.1554 27.1102 33.0022 27.0424 32.8831 26.9237L28.1005 21.956C27.8622 21.7017 27.8622 21.3118 28.1175 21.0744C28.3728 20.837 28.7642 20.837 29.0025 21.0914L33.8021 26.059C34.0064 26.3134 33.9894 26.7033 33.7511 26.9407Z" fill="white"/>
<path d="M9.20758 25.498C8.6289 25.498 8.15234 25.9728 8.15234 26.5492C8.15234 27.1257 8.6289 27.6004 9.20758 27.6004C9.78625 27.6004 10.2628 27.1257 10.2628 26.5492C10.2628 25.9728 9.78625 25.498 9.20758 25.498ZM9.20758 26.7357C9.10546 26.7357 9.02036 26.651 9.02036 26.5492C9.02036 26.4475 9.10546 26.3627 9.20758 26.3627C9.3097 26.3627 9.3948 26.4475 9.3948 26.5492C9.3948 26.651 9.3097 26.7357 9.20758 26.7357Z" fill="white"/>
<path d="M9.39592 26.5498C9.39592 26.6515 9.31082 26.7363 9.2087 26.7363C9.10658 26.7363 9.02148 26.6515 9.02148 26.5498C9.02148 26.4481 9.10658 26.3633 9.2087 26.3633C9.31082 26.3633 9.39592 26.4481 9.39592 26.5498Z" fill="white"/>
<path d="M13.0275 23.0862C13.5653 22.8641 14.1831 23.1184 14.4061 23.6558C14.629 24.1933 14.3738 24.807 13.8342 25.0292C13.2964 25.2513 12.6786 24.9969 12.4556 24.4595C12.2326 23.9237 12.4879 23.3083 13.0275 23.0862Z" fill="white"/>
<path d="M17.5474 22.6336C18.1302 22.6336 18.6027 22.163 18.6027 21.5824C18.6027 21.0019 18.1302 20.5312 17.5474 20.5312C16.9646 20.5312 16.4922 21.0019 16.4922 21.5824C16.4922 22.163 16.9646 22.6336 17.5474 22.6336Z" fill="white"/>
<path d="M19.0633 28.9074C18.9782 29.4839 18.4336 29.8738 17.8549 29.7721C17.2762 29.6704 16.8848 29.1448 16.9869 28.5683C17.089 27.9919 17.6166 27.6019 18.1953 27.7036C18.774 27.8054 19.1655 28.3479 19.0633 28.9074Z" fill="white"/>
<path d="M26.6529 29.8906C26.0742 29.8906 25.5977 30.3654 25.5977 30.9418C25.5977 31.5183 26.0742 31.993 26.6529 31.993C27.2316 31.993 27.7081 31.5183 27.7081 30.9418C27.7081 30.3654 27.2316 29.8906 26.6529 29.8906ZM26.6529 31.1283C26.5508 31.1283 26.4657 31.0435 26.4657 30.9418C26.4657 30.8401 26.5508 30.7553 26.6529 30.7553C26.755 30.7553 26.8401 30.8401 26.8401 30.9418C26.8401 31.0435 26.755 31.1283 26.6529 31.1283Z" fill="white"/>
<path d="M26.8412 30.9424C26.8412 31.0441 26.7561 31.1289 26.654 31.1289C26.5519 31.1289 26.4668 31.0441 26.4668 30.9424C26.4668 30.8406 26.5519 30.7559 26.654 30.7559C26.7561 30.7559 26.8412 30.8406 26.8412 30.9424Z" fill="white"/>
<path d="M35.3677 29.7899C35.9505 29.7899 36.423 29.3192 36.423 28.7387C36.423 28.1581 35.9505 27.6875 35.3677 27.6875C34.7849 27.6875 34.3125 28.1581 34.3125 28.7387C34.3125 29.3192 34.7849 29.7899 35.3677 29.7899Z" fill="white"/>
<path d="M37.2221 22.2617C36.6775 22.4821 36.0647 22.2278 35.8435 21.6852C35.6222 21.1427 35.8775 20.5323 36.4051 20.3119C36.9498 20.0915 37.5625 20.3458 37.7838 20.8714C38.005 21.4309 37.7497 22.0413 37.2221 22.2617Z" fill="white"/>
<path d="M40.3541 22.7363C39.7754 22.7363 39.2988 23.2111 39.2988 23.7875C39.2988 24.364 39.7754 24.8387 40.3541 24.8387C40.9327 24.8387 41.4093 24.364 41.4093 23.7875C41.4093 23.2111 40.9327 22.7363 40.3541 22.7363ZM40.3541 23.974C40.2519 23.974 40.1668 23.8892 40.1668 23.7875C40.1668 23.6858 40.2519 23.601 40.3541 23.601C40.4392 23.601 40.5243 23.6688 40.5413 23.7536V23.7875C40.5413 23.8892 40.4562 23.974 40.3541 23.974Z" fill="white"/>
<path d="M40.5405 23.7863C40.5405 23.888 40.4554 23.9728 40.3532 23.9728C40.2511 23.9728 40.166 23.888 40.166 23.7863C40.166 23.6846 40.2511 23.5998 40.3532 23.5998C40.4554 23.5829 40.5405 23.6676 40.5405 23.7863Z" fill="white"/>
<path d="M44.3873 25.5C43.8086 25.5 43.332 25.9747 43.332 26.5512C43.332 27.1276 43.8086 27.6024 44.3873 27.6024C44.9659 27.6024 45.4425 27.1276 45.4425 26.5512C45.4425 25.9747 44.9659 25.5 44.3873 25.5ZM44.3873 26.7377C44.2851 26.7377 44.2 26.6529 44.2 26.5512C44.2 26.4495 44.2851 26.3647 44.3873 26.3647C44.4894 26.3647 44.5745 26.4495 44.5745 26.5512C44.5745 26.6529 44.4894 26.7377 44.3873 26.7377Z" fill="white"/>
<path d="M44.5737 26.5498C44.5737 26.6515 44.4886 26.7363 44.3864 26.7363C44.2843 26.7363 44.1992 26.6515 44.1992 26.5498C44.1992 26.4481 44.2843 26.3633 44.3864 26.3633C44.4886 26.3633 44.5737 26.4481 44.5737 26.5498Z" fill="white"/>
</g>
<defs>
<clipPath id="clip0_3053_10264">
<rect width="53" height="53" fill="white"/>
</clipPath>
</defs>
</svg>
