<svg width="56" height="42" viewBox="0 0 56 42" fill="none" xmlns="http://www.w3.org/2000/svg">
<g clip-path="url(#clip0_3323_10124)">
<path d="M28.0818 41.997C20.0454 41.997 12.009 41.997 3.97268 41.997C1.22043 41.997 0.0109129 40.7917 0.00828921 38.0365C0.00304183 34.1537 0.0292787 30.271 0.000418145 26.3882C-0.023195 23.3194 0.952817 20.6548 3.04914 18.3739C7.1867 13.8717 11.256 9.30467 15.4539 4.85688C18.4449 1.6921 22.2283 0.0436201 26.6335 0.0228845C35.2365 -0.0159948 43.8396 0.00474085 52.4453 0.0125167C54.623 0.0125167 55.9873 1.32404 55.9899 3.45463C56.003 15.1469 56.003 26.8392 55.9899 38.5315C55.9899 40.701 54.5994 41.9918 52.322 41.9944C44.2437 42.0022 36.1627 41.997 28.0844 41.997H28.0818ZM28.0791 31.6654C36.3306 31.6654 44.5821 31.6447 52.8336 31.6914C53.8805 31.6965 54.093 31.3959 54.0877 30.4187C54.0484 21.619 54.0668 12.8194 54.0641 4.02227C54.0641 2.26752 53.6811 1.88909 51.9232 1.88909C43.7137 1.88909 35.5068 1.88909 27.2973 1.88909C22.9682 1.88909 19.3134 3.40538 16.4011 6.61163C12.3501 11.0724 8.27815 15.5176 4.22718 19.9783C3.22231 21.0851 2.5454 22.3733 2.21481 23.8352C1.73468 25.9709 2.11511 28.1352 1.95244 30.2787C1.86848 31.357 2.10986 31.7147 3.32463 31.7043C11.5761 31.6395 19.8276 31.6706 28.0791 31.6706V31.6654ZM27.9637 40.0063C35.8295 40.0063 43.6927 40.0063 51.5585 40.0063C53.9041 40.0063 53.9907 39.8482 54.093 37.5233C54.1428 36.3854 53.7545 36.2247 52.7182 36.2299C42.0581 36.2688 31.3955 36.2532 20.7328 36.2532C14.8347 36.2532 8.93408 36.248 3.03603 36.2636C2.68707 36.2636 2.22531 36.0329 1.98655 36.502C1.14435 38.1479 2.26466 40.0038 4.10387 40.0038C12.0563 40.0038 20.0087 40.0038 27.9611 40.0038L27.9637 40.0063ZM28.0765 33.5524C19.7752 33.5524 11.4738 33.5472 3.16983 33.5705C2.77366 33.5705 2.01803 33.231 2.02591 33.9308C2.03378 34.5995 2.78415 34.1589 3.18295 34.2833C3.26166 34.3092 3.35612 34.2859 3.4427 34.2859C19.8722 34.2859 36.3018 34.2859 52.7287 34.2859C53.0356 34.2859 53.34 34.2963 53.647 34.2859C53.8805 34.2781 54.093 34.1978 54.0694 33.9204C54.0484 33.6846 53.8962 33.5394 53.6365 33.5446C53.3741 33.5472 53.1117 33.5524 52.8494 33.5524C44.59 33.5524 36.3332 33.5524 28.0739 33.5524H28.0765Z" fill="white"/>
<path d="M32.0696 23.1129C25.6967 23.1129 19.3237 23.1155 12.9508 23.1129C10.781 23.1129 10.0779 22.1798 9.82598 20.0388C9.42194 16.5993 10.4347 13.9037 13.1003 11.6254C14.7034 10.2542 15.9628 8.49429 17.4294 6.95726C20.0085 4.25126 23.1963 2.87234 26.9718 2.87234C35.1341 2.87234 43.2964 2.89048 51.4587 2.85161C52.7285 2.84642 53.1273 3.31038 53.1195 4.52601C53.0775 10.1739 53.0775 15.8243 53.1195 21.4722C53.13 22.6982 52.7075 23.144 51.4482 23.1362C44.9886 23.0922 38.5265 23.1155 32.067 23.1155L32.0696 23.1129ZM20.7773 21.2363C30.7761 21.2363 40.6333 21.2286 50.4905 21.2493C51.2829 21.2493 51.1674 20.7853 51.1674 20.3188C51.1674 15.4433 51.1543 10.5678 51.1806 5.69498C51.1832 5.00033 51.0467 4.72559 50.257 4.72818C42.3964 4.75928 34.5359 4.70744 26.6753 4.76965C23.4744 4.79557 20.7641 6.09414 18.6022 8.45022C17.0201 10.1765 15.4354 11.9001 13.8691 13.6419C13.6644 13.87 13.2551 14.0177 13.3732 14.4972C15.7686 14.4972 18.1614 14.4817 20.5516 14.5024C22.0497 14.5154 22.6794 15.3526 22.2859 16.7756C21.8766 18.2504 21.5408 19.7511 20.7773 21.2337V21.2363ZM20.305 16.379C18.5839 16.379 16.9703 16.3427 15.3593 16.392C14.2049 16.4257 12.6228 15.8684 12.0115 16.6356C11.4317 17.3639 11.8357 18.8569 11.8121 20.0155C11.8069 20.2306 11.8042 20.451 11.8488 20.6583C11.9171 20.9797 12.1401 21.1508 12.4707 21.2363C16.7604 22.3457 19.0824 21.0523 20.2656 16.8793C20.2997 16.76 20.2893 16.6278 20.3076 16.3816L20.305 16.379Z" fill="white"/>
<path d="M45.1847 28.7973C43.9201 28.7973 42.6555 28.8232 41.3909 28.7895C40.0475 28.7532 39.0453 27.8176 38.9508 26.576C38.8511 25.2774 39.7589 24.0411 41.1364 23.9918C43.8781 23.8907 46.6304 23.8907 49.3747 23.9918C50.7548 24.0411 51.6521 25.2697 51.5524 26.5812C51.4579 27.8253 50.4583 28.7584 49.1124 28.7921C47.8058 28.8258 46.4965 28.7999 45.1873 28.7999L45.1847 28.7973ZM45.2818 25.8995C44.1037 25.8995 42.9257 25.8995 41.7477 25.8995C41.3515 25.8995 40.8819 25.8788 40.9055 26.4257C40.9238 26.8326 41.3016 26.9233 41.6873 26.9233C44.0434 26.9156 46.3995 26.9156 48.7555 26.9233C49.1858 26.9233 49.6266 26.8482 49.6004 26.3609C49.5741 25.8451 49.0756 25.9021 48.6847 25.9021C47.5513 25.9021 46.4152 25.9021 45.2818 25.9021V25.8995Z" fill="white"/>
<path d="M33.1074 17.7945C32.7532 17.7245 32.4619 17.5897 32.2783 17.245C32.0789 16.8743 32.1865 16.5581 32.42 16.2937C32.8503 15.809 33.3173 15.358 33.779 14.8993C35.8675 12.8231 37.9612 10.7521 40.0497 8.67599C40.5403 8.1887 41.0624 7.74548 41.7104 8.39088C42.3585 9.03627 41.8967 9.55207 41.4113 10.0316C38.9766 12.4369 36.5418 14.8397 34.1096 17.245C33.8263 17.5249 33.5298 17.7686 33.1074 17.7919V17.7945Z" fill="white"/>
<path d="M41.606 13.3357C41.6034 13.9474 37.9801 17.5735 37.3714 17.5424C37.0145 17.5243 36.7259 17.348 36.5239 17.0188C36.3088 16.6663 36.335 16.3268 36.5895 16.065C37.7413 14.8908 38.8747 13.6882 40.1131 12.6047C40.7218 12.0708 41.6112 12.5736 41.606 13.3357Z" fill="white"/>
<path d="M36.7044 8.51367C37.1741 8.52404 37.4758 8.70288 37.6175 9.04243C37.7723 9.41826 37.7434 9.81224 37.4312 10.1207C36.3292 11.2171 35.2325 12.3161 34.1096 13.3917C33.7711 13.7157 33.3435 13.7805 32.9368 13.4436C32.5538 13.1299 32.3753 12.6763 32.6718 12.3057C33.7502 10.9631 35.0017 9.77077 36.2951 8.63031C36.4106 8.52922 36.6205 8.537 36.7071 8.51367H36.7044Z" fill="white"/>
</g>
<defs>
<clipPath id="clip0_3323_10124">
<rect width="56" height="42" fill="white"/>
</clipPath>
</defs>
</svg>
