<svg width="180" height="181" viewBox="0 0 180 181" fill="none" xmlns="http://www.w3.org/2000/svg">
<path d="M23.4272 90.2979C23.4272 127.065 53.2329 156.871 90 156.871C126.767 156.871 156.573 127.065 156.573 90.2979C156.573 53.5307 126.767 23.7251 90 23.7251C53.2329 23.7251 23.4272 53.5307 23.4272 90.2979Z" fill="#00A5D1"/>
<path fill-rule="evenodd" clip-rule="evenodd" d="M123.105 63.1012L117.352 57.2634C114.052 53.9074 108.609 53.8792 105.253 57.1788L98.7669 63.5806L116.548 81.6014L123.034 75.1996C126.39 71.9 126.419 66.4571 123.119 63.1012H123.105ZM98.4708 90.4003L80.4782 108.153L81.987 109.676L99.9796 91.9232L98.4708 90.4003ZM93.3381 85.1971L75.3455 102.95L76.8543 104.473L94.8469 86.72L93.3381 85.1971ZM88.2054 79.9939L70.2128 97.7468L71.7216 99.2697L89.7142 81.5168L88.2054 79.9939ZM97.2299 65.0894L91.7588 70.4759L109.54 88.4967L115.011 83.1102L97.2299 65.0894ZM90.2359 71.9846L59.468 102.33L77.2491 120.35L108.017 90.0055L90.2359 71.9846Z" fill="white"/>
<path fill-rule="evenodd" clip-rule="evenodd" d="M53.3623 126.146L62.824 124.214L55.421 116.712L53.3482 126.146H53.3623ZM65.3339 123.692L76.121 121.478L58.3258 103.444L55.971 114.202L65.3198 123.692H65.3339Z" fill="white"/>
</svg>
