<svg width="180" height="181" viewBox="0 0 180 181" fill="none" xmlns="http://www.w3.org/2000/svg">
<path d="M156.573 90.2979C156.573 127.065 126.767 156.871 90 156.871C53.2329 156.871 23.4272 127.065 23.4272 90.2979C23.4272 53.5307 53.2329 23.7251 90 23.7251C126.767 23.7251 156.573 53.5307 156.573 90.2979Z" fill="#FFAA00"/>
<path fill-rule="evenodd" clip-rule="evenodd" d="M59.7878 44.7251C59.5474 46.1695 59.4272 55.4374 59.4272 60.613C59.4272 65.6683 63.9946 73.7326 70.0042 74.9363L68.6821 135.274C68.6821 135.876 75.1724 135.876 75.1724 135.274L73.7301 74.9363C79.8599 73.7326 84.4272 65.6683 84.4272 60.613C84.4272 55.4374 84.307 46.1695 83.9465 44.7251H59.7878ZM79.0186 47.6138C78.658 47.6138 78.2974 47.9749 78.2974 48.336V62.1778C78.2974 62.5389 78.658 62.8999 79.0186 62.8999C79.4994 62.8999 79.8599 62.5389 79.8599 62.1778V48.336C79.8599 47.9749 79.4994 47.6138 79.0186 47.6138ZM74.3311 47.6138C73.8503 47.6138 73.4897 47.9749 73.4897 48.336V62.1778C73.4897 62.5389 73.8503 62.8999 74.3311 62.8999C74.6917 62.8999 75.0522 62.5389 75.0522 62.1778V48.336C75.0522 47.9749 74.6917 47.6138 74.3311 47.6138ZM69.5234 47.6138C69.0426 47.6138 68.8022 47.9749 68.8022 48.336V62.1778C68.8022 62.5389 69.0426 62.8999 69.5234 62.8999C70.0042 62.8999 70.2446 62.5389 70.2446 62.1778V48.336C70.2446 47.9749 70.0042 47.6138 69.5234 47.6138ZM64.7157 47.6138C64.3551 47.6138 63.9946 47.9749 63.9946 48.336V62.1778C63.9946 62.5389 64.3551 62.8999 64.7157 62.8999C65.1965 62.8999 65.5571 62.5389 65.5571 62.1778V48.336C65.5571 47.9749 65.1965 47.6138 64.7157 47.6138ZM71.9272 129.857C71.3263 129.857 70.8455 130.7 70.8455 131.783C70.8455 132.866 71.3263 133.709 71.9272 133.709C72.5282 133.709 73.009 132.866 73.009 131.783C73.009 130.7 72.5282 129.857 71.9272 129.857Z" fill="white"/>
<path fill-rule="evenodd" clip-rule="evenodd" d="M107.927 44.7251C99.8852 44.7251 93.4272 51.535 93.4272 59.9258C93.4272 67.4653 98.7886 73.7888 105.734 74.8833L104.272 136.087C104.272 136.938 111.461 136.938 111.461 136.087L109.999 74.8833C117.066 73.7888 122.427 67.4653 122.427 59.9258C122.427 51.535 115.847 44.7251 107.927 44.7251ZM107.927 130.736C107.318 130.736 106.831 131.709 106.831 132.803C106.831 133.898 107.318 134.749 107.927 134.749C108.415 134.749 108.902 133.898 108.902 132.803C108.902 131.709 108.415 130.736 107.927 130.736Z" fill="white"/>
</svg>
