<svg width="71" height="54" viewBox="0 0 71 54" fill="none" xmlns="http://www.w3.org/2000/svg">
<path d="M49.872 25.2818H58.7163C64.8581 26.5091 70.0173 31.1727 70.0173 39.0273C70.0173 48.1091 63.1384 54 54.5398 54C43.9758 54 38.0796 45.4091 38.0796 33.6273C38.0796 15.7091 49.6263 1.96363 71 0V5.64546C58.2249 7.60908 50.8547 14.9727 49.872 25.2818ZM11.7924 25.2818H20.6367C26.7785 26.5091 31.9377 31.1727 31.9377 39.0273C31.9377 48.1091 25.0588 54 16.4602 54C5.89619 54 0 45.4091 0 33.6273C0 15.7091 11.5467 1.96363 32.9204 0V5.64546C20.1453 7.60908 12.7751 14.9727 11.7924 25.2818Z" fill="white"/>
</svg>
