<svg width="71" height="54" viewBox="0 0 71 54" fill="none" xmlns="http://www.w3.org/2000/svg">
<path d="M21.128 28.7182L12.2837 28.7182C6.14187 27.4909 0.982697 22.8273 0.982697 14.9727C0.982696 5.89092 7.86159 7.14965e-06 16.4602 6.39794e-06C27.0242 5.4744e-06 32.9204 8.59091 32.9204 20.3727C32.9204 38.2909 21.3737 52.0364 2.01948e-06 54L1.52594e-06 48.3546C12.7751 46.3909 20.1453 39.0273 21.128 28.7182ZM59.2076 28.7182L50.3633 28.7182C44.2215 27.4909 39.0623 22.8273 39.0623 14.9727C39.0623 5.89092 45.9412 3.82063e-06 54.5398 3.06891e-06C65.1038 2.14538e-06 71 8.59091 71 20.3727C71 38.2909 59.4533 52.0364 38.0796 54L38.0796 48.3545C50.8547 46.3909 58.2249 39.0273 59.2076 28.7182Z" fill="white"/>
</svg>
