<?xml version="1.0" encoding="utf-8"?>
<!-- Generator: Adobe Illustrator 16.0.0, SVG Export Plug-In . SVG Version: 6.00 Build 0)  -->
<!DOCTYPE svg PUBLIC "-//W3C//DTD SVG 1.1//EN" "http://www.w3.org/Graphics/SVG/1.1/DTD/svg11.dtd">
<svg version="1.1" id="Layer_1" xmlns="http://www.w3.org/2000/svg" xmlns:xlink="http://www.w3.org/1999/xlink" x="0px" y="0px"
	 width="220.371px" height="219.784px" viewBox="158.742 129.326 220.371 219.784"
	 enable-background="new 158.742 129.326 220.371 219.784" xml:space="preserve">
<g>
	<path fill="#0A1A9C" d="M199.313,138.532l5.854,28.404L375,182.803l4.113,6.465l-26.443,81.096l-4.701,3.526h-120.47l2.351,12.342
		h120.426l-4.07,11.753H224.56l-5.289-4.114l-29.971-145.739l-30.559-7.052l2.352-11.753 M207.518,178.689l17.042,83.447h118.706
		l22.331-68.168L207.518,178.689z"/>
	<path fill="#0A1A9C" d="M241.646,303.273c12.34,0,22.918,10.577,22.918,22.918c0,12.929-10.578,22.919-22.918,22.919
		c-12.341,0-22.919-9.99-22.919-22.919C218.727,313.851,229.305,303.273,241.646,303.273z M241.647,312.934
		c-6.979,0-13.259,6.28-13.259,13.259c0,7.676,5.583,13.259,13.259,13.259c6.977,0,13.258-5.583,13.258-13.259
		C254.905,319.214,248.624,312.934,241.647,312.934z"/>
	<path fill="#0A1A9C" d="M326.646,303.273c12.34,0,22.918,10.577,22.918,22.918c0,12.929-10.578,22.919-22.918,22.919
		c-12.341,0-22.919-9.99-22.919-22.919C303.727,313.851,314.305,303.273,326.646,303.273z M326.646,312.934
		c-6.979,0-13.259,6.28-13.259,13.259c0,7.676,5.583,13.259,13.259,13.259c6.978,0,13.258-5.583,13.258-13.259
		C339.904,319.214,333.624,312.934,326.646,312.934z"/>
</g>
</svg>
