<?xml version="1.0" encoding="utf-8"?>
<!-- Generator: Adobe Illustrator 16.0.0, SVG Export Plug-In . SVG Version: 6.00 Build 0)  -->
<!DOCTYPE svg PUBLIC "-//W3C//DTD SVG 1.1//EN" "http://www.w3.org/Graphics/SVG/1.1/DTD/svg11.dtd">
<svg version="1.1" id="Layer_1" xmlns="http://www.w3.org/2000/svg" xmlns:xlink="http://www.w3.org/1999/xlink" x="0px" y="0px"
	 width="483.665px" height="595.28px" viewBox="55.808 48.895 483.665 595.28"
	 enable-background="new 55.808 48.895 483.665 595.28" xml:space="preserve">
<g>
	<path fill="#FFFFFF" d="M300.14,385.535c-3.021,0-6.043-1.157-8.344-3.458l-47.211-47.211c-4.615-4.615-4.615-12.074,0-16.689
		c4.615-4.615,12.074-4.615,16.689,0l38.866,38.866l38.867-38.866c4.614-4.615,12.074-4.615,16.688,0
		c4.615,4.615,4.615,12.074,0,16.689l-47.21,47.211C306.183,384.378,303.161,385.535,300.14,385.535z"/>
	<path fill="#FFFFFF" d="M300.14,385.535c-6.515,0-11.803-8.475-11.803-18.958V176.994c0-10.465,5.288-18.958,11.803-18.958
		c6.516,0,11.803,8.494,11.803,18.958v189.583C311.943,377.061,306.656,385.535,300.14,385.535z"/>
	<path fill="#FFFFFF" d="M491.757,644.175H103.578c-26.341,0-47.771-20.891-47.771-46.562V215.462
		c0-16.166,6.566-31.997,17.988-43.437L178.919,66.902c11.607-11.627,27.048-18.007,43.455-18.007h269.364
		c26.322,0,47.734,20.872,47.734,46.525v502.23C539.473,623.303,518.079,644.175,491.757,644.175z M222.374,86.1
		c-6.474,0-12.557,2.511-17.133,7.087L100.1,198.329c-4.502,4.501-7.087,10.752-7.087,17.133v382.151
		c0,5.152,4.743,9.356,10.565,9.356h388.16c5.804,0,10.529-4.186,10.529-9.319V95.42c0-5.134-4.726-9.32-10.529-9.32H222.374z"/>
	<path fill="#FFFFFF" d="M181.326,212.92H90.14c-10.27,0-18.603-8.334-18.603-18.603s34.411-18.603,44.681-18.603h65.108
		c5.134,0,9.301-4.167,9.301-9.301v-65.109c0-10.269,8.334-18.603,18.603-18.603s18.603-15.525,18.603-5.257v88.968
		C227.832,192.048,206.96,212.92,181.326,212.92z"/>
	<g>
		<path fill="#FFFFFF" d="M162.303,466.685h44.937c8.883,0,16.056,2.519,21.519,7.554c5.462,5.036,8.193,12.111,8.193,21.226
			c0,7.839-2.438,14.663-7.311,20.474c-4.875,5.811-12.333,8.716-22.378,8.716h-31.355v42.451h-13.604V466.685z M215.067,480.493
			c-2.986-1.412-7.082-2.119-12.284-2.119h-26.876v34.795h26.876c6.062,0,10.983-1.299,14.761-3.896s5.667-7.178,5.667-13.74
			C223.211,488.149,220.496,483.137,215.067,480.493z"/>
		<path fill="#FFFFFF" d="M264.798,466.685h40.138c13.627,0,24.195,4.899,31.706,14.697c6.7,8.842,10.051,20.166,10.051,33.975
			c0,10.664-1.979,20.303-5.937,28.916c-6.971,15.222-18.956,22.832-35.955,22.832h-40.003V466.685z M302.268,555.483
			c4.5,0,8.198-0.479,11.096-1.436c5.168-1.777,9.401-5.195,12.699-10.254c2.629-4.056,4.522-9.251,5.682-15.586
			c0.669-3.782,1.003-7.291,1.003-10.527c0-12.441-2.418-22.103-7.253-28.984c-4.835-6.881-12.621-10.322-23.36-10.322h-23.596
			v77.109H302.268z"/>
		<path fill="#FFFFFF" d="M376.385,466.685h69.658v12.305h-56.055v30.488h49.287v11.963h-49.287v45.664h-13.604V466.685z"/>
	</g>
</g>
</svg>
