<?xml version="1.0" encoding="utf-8"?>
<!-- Generator: Adobe Illustrator 24.0.3, SVG Export Plug-In . SVG Version: 6.00 Build 0)  -->
<svg version="1.1" id="Capa_1" xmlns="http://www.w3.org/2000/svg" xmlns:xlink="http://www.w3.org/1999/xlink" x="0px" y="0px"
	 viewBox="0 0 30.35 30.35" style="enable-background:new 0 0 30.35 30.35;" xml:space="preserve">
<style type="text/css">
	.st0{fill:none;stroke:#EF796F;stroke-miterlimit:10;}
	.st1{fill:#EF796F;}
</style>
<g>
	<g>
		<g>
			
				<ellipse transform="matrix(0.2282 -0.9736 0.9736 0.2282 -3.0627 26.4863)" class="st0" cx="15.18" cy="15.18" rx="14.68" ry="14.68"/>
		</g>
	</g>
	<g>
		<g>
			<path class="st1" d="M15.45,17.73l4.56-4.58c0.15-0.15,0.15-0.39,0-0.54c-0.15-0.15-0.39-0.15-0.54,0l-4.29,4.3l-4.29-4.3
				c-0.15-0.15-0.39-0.15-0.54,0c-0.08,0.08-0.11,0.17-0.11,0.27c0,0.1,0.04,0.2,0.11,0.27l4.56,4.58c0.07,0.07,0.17,0.11,0.27,0.11
				S15.38,17.81,15.45,17.73z"/>
		</g>
	</g>
</g>
</svg>
