<?xml version="1.0" encoding="utf-8"?>
<!-- Generator: Adobe Illustrator 24.0.3, SVG Export Plug-In . SVG Version: 6.00 Build 0)  -->
<svg version="1.1" id="Capa_1" xmlns="http://www.w3.org/2000/svg" xmlns:xlink="http://www.w3.org/1999/xlink" x="0px" y="0px"
	 viewBox="0 0 39 39" style="enable-background:new 0 0 39 39;" xml:space="preserve">
<style type="text/css">
	.st0{fill:#FF7A6E;}
</style>
<title>icons-bw</title>
<path class="st0" d="M19.5,0C8.7,0,0,8.8,0,19.5S8.8,39,19.6,39C30.3,39,39,30.3,39,19.5S30.3,0,19.5,0L19.5,0z M28.4,15.2
	c0,0.2,0,0.4,0,0.6c0,7-5.6,12.7-12.5,12.7c-0.1,0-0.1,0-0.2,0l0,0c-2.4,0-4.8-0.7-6.9-2c0.4,0,0.7,0.1,1.1,0.1c2,0,4-0.7,5.6-1.9
	c-1.9,0-3.6-1.3-4.2-3.1c0.3,0.1,0.6,0.1,0.8,0.1c0.4,0,0.8-0.1,1.2-0.2c-2.1-0.4-3.6-2.3-3.6-4.4V17c0.6,0.3,1.3,0.5,2,0.6
	c-1.2-0.8-2-2.2-2-3.7c0-0.8,0.2-1.6,0.6-2.2c2.3,2.8,5.6,4.5,9.2,4.7c-0.1-0.3-0.1-0.7-0.1-1c0-2.5,2-4.5,4.4-4.5
	c1.2,0,2.4,0.5,3.3,1.4c1-0.2,2-0.6,2.9-1.1c-0.3,1-1.1,1.9-2,2.5c0.9-0.1,1.8-0.3,2.6-0.7C30,13.8,29.2,14.6,28.4,15.2z"/>
</svg>
