<?xml version="1.0" encoding="utf-8"?>
<!-- Generator: Adobe Illustrator 16.0.0, SVG Export Plug-In . SVG Version: 6.00 Build 0)  -->
<!DOCTYPE svg PUBLIC "-//W3C//DTD SVG 1.1//EN" "http://www.w3.org/Graphics/SVG/1.1/DTD/svg11.dtd">
<svg version="1.1" id="Layer_1" xmlns="http://www.w3.org/2000/svg" xmlns:xlink="http://www.w3.org/1999/xlink" x="0px" y="0px"
	 width="22.165px" height="19.688px" viewBox="0 0 22.165 19.688" enable-background="new 0 0 22.165 19.688" xml:space="preserve">
<path fill="#AC451E" d="M22.002,7.027l-0.006-0.008c0,0-0.145-0.348-0.619-0.348s-3.301,0-3.301,0s-1.52-3.061-2.363-4.757
	C15.604,1.707,15.1,0.632,15.028,0.48c-0.254-0.535-0.98-0.554-1.242-0.387s-0.574,0.592-0.383,1.139
	c0.018,0.063,2.477,5.438,2.477,5.438H6.282l2.403-5.26c0.231-0.418,0.088-0.947-0.324-1.192c-0.42-0.25-0.968-0.113-1.22,0.308
	L7.139,0.529c-0.027,0.046-0.052,0.098-0.07,0.148L4.315,6.67H0.889c-0.232,0-0.461,0.072-0.63,0.244C0.092,7.082,0,7.306,0,7.541
	c0,0.096,0.017,0.183,0.039,0.256l0.002,0.008l3.547,11.26v0.001c0.117,0.369,0.457,0.622,0.848,0.622h13.299h0.006
	c0.383-0.006,0.721-0.256,0.838-0.62v-0.003l3.545-11.26l0.002-0.002C22.208,7.538,22.161,7.251,22.002,7.027z M16.975,17.928H4.983
	L1.995,8.443h17.966L16.975,17.928z"/>
</svg>
