<?xml version="1.0" encoding="utf-8"?>
<!-- Generator: Adobe Illustrator 24.0.3, SVG Export Plug-In . SVG Version: 6.00 Build 0)  -->
<svg version="1.1" id="Capa_1" xmlns="http://www.w3.org/2000/svg" xmlns:xlink="http://www.w3.org/1999/xlink" x="0px" y="0px"
	 viewBox="0 0 39.3 39.3" style="enable-background:new 0 0 39.3 39.3;" xml:space="preserve">
<style type="text/css">
	.st0{fill:#FF7A6E;}
	.st1{fill:#7D7E7E;}
	.st2{fill:#A9AAAB;}
	.st3{fill:#D7D8D7;}
	.st4{fill:#FFFFFF;}
</style>
<title>icons-bw</title>
<circle class="st0" cx="19.6" cy="19.6" r="19.6"/>
<path class="st1" d="M23.8,10.6c-0.1-0.1-0.2,0-0.2,0.1v15.3l6.5,3.4c0.3,0.2,0.6,0,0.6-0.4V14.3c0-0.1,0-0.1-0.1-0.2L23.8,10.6z"/>
<path class="st2" d="M16.4,22.4l7-11.7c0.1-0.1,0.2-0.1,0.3-0.1l6.8,3.5c0.1,0,0.1,0.1,0.1,0.2c0,0,0,0,0,0l-7,11.7L16.4,22.4z"/>
<path class="st3" d="M10.1,11c-0.4-0.2-0.6-0.1-0.3,0.4l6.7,11.1l7.1,3.7l-7.1-11.8c0,0-0.1-0.1-0.1-0.1L10.1,11z"/>
<path class="st4" d="M16.4,29.1c0,0.2-0.1,0.4-0.3,0.4c-0.1,0-0.2,0-0.3-0.1l-6.2-3.2c-0.2-0.1-0.4-0.4-0.4-0.7V11
	c0-0.1,0.1-0.3,0.2-0.3c0.1,0,0.2,0,0.2,0l6.7,3.4c0.1,0,0.1,0.1,0.1,0.1V29.1z"/>
</svg>
