<svg width="25" height="24" viewBox="0 0 25 24" fill="none" xmlns="http://www.w3.org/2000/svg">
<path fill-rule="evenodd" clip-rule="evenodd" d="M18.5638 9.67742C18.5638 14.4597 14.6421 18.3548 9.78188 18.3548C4.92163 18.3548 1 14.4597 1 9.67742C1 4.89511 4.92163 1 9.78188 1C14.6421 1 18.5638 4.89511 18.5638 9.67742ZM15.885 17.2406C14.212 18.5637 12.0903 19.3548 9.78188 19.3548C4.37949 19.3548 0 15.0221 0 9.67742C0 4.33273 4.37949 0 9.78188 0C15.1843 0 19.5638 4.33273 19.5638 9.67742C19.5638 12.3781 18.4455 14.8204 16.6422 16.5759L24.1494 23.2603L23.4765 24L15.885 17.2406Z" fill="#00A0DF"/>
</svg>
