<svg width="27" height="24" viewBox="0 0 27 24" fill="none" xmlns="http://www.w3.org/2000/svg">
<path d="M25.8169 1.34707C24.7507 2.12797 23.5702 2.72524 22.3209 3.11586C21.6504 2.31529 20.7592 1.74787 19.768 1.49034C18.7768 1.23281 17.7333 1.29759 16.7786 1.67592C15.824 2.05425 15.0043 2.72789 14.4304 3.60571C13.8565 4.48353 13.5561 5.52319 13.5698 6.58407V7.74014C11.6132 7.79282 9.67445 7.34223 7.92616 6.42851C6.17788 5.5148 4.67435 4.16631 3.54949 2.50314C3.54949 2.50314 -0.903986 12.9078 9.11634 17.532C6.82339 19.1482 4.09188 19.9586 1.32275 19.8442C11.3431 25.6245 23.5902 19.8442 23.5902 6.54939C23.5891 6.22737 23.5593 5.90614 23.5011 5.58985C24.6374 4.42626 25.4393 2.95715 25.8169 1.34707Z" stroke="#00A0DF" stroke-width="2" stroke-linecap="round" stroke-linejoin="round"/>
</svg>
