<svg width="28" height="29" viewBox="0 0 28 29" fill="none" xmlns="http://www.w3.org/2000/svg">
<g clip-path="url(#clip0_550:24718)">
<path d="M19.2181 3.19116H8.08443C5.00994 3.19116 2.51758 5.77911 2.51758 8.97151V20.5322C2.51758 23.7246 5.00994 26.3125 8.08443 26.3125H19.2181C22.2926 26.3125 24.785 23.7246 24.785 20.5322V8.97151C24.785 5.77911 22.2926 3.19116 19.2181 3.19116Z" stroke="#00A0DF" stroke-width="2" stroke-linecap="round" stroke-linejoin="round"/>
<path d="M18.1046 14.0234C18.242 14.9855 18.0838 15.9681 17.6523 16.8315C17.2209 17.6948 16.5383 18.3949 15.7016 18.8322C14.8649 19.2695 13.9166 19.4217 12.9918 19.2672C12.067 19.1127 11.2126 18.6593 10.5502 17.9715C9.88788 17.2838 9.45123 16.3966 9.30242 15.4363C9.1536 14.476 9.30019 13.4915 9.72133 12.6226C10.1425 11.7538 10.8167 11.045 11.6482 10.5971C12.4797 10.1491 13.426 9.98474 14.3526 10.1274C15.2978 10.2729 16.1728 10.7303 16.8484 11.4318C17.5241 12.1334 17.9645 13.042 18.1046 14.0234Z" stroke="#00A0DF" stroke-width="2" stroke-linecap="round" stroke-linejoin="round"/>
</g>
<defs>
<clipPath id="clip0_550:24718">
<rect width="26.7209" height="27.7457" fill="white" transform="translate(0.290771 0.878906)"/>
</clipPath>
</defs>
</svg>
