<svg width="28" height="29" viewBox="0 0 28 29" fill="none" xmlns="http://www.w3.org/2000/svg">
<g clip-path="url(#clip0_550:24717)">
<path d="M25.4675 8.30086C25.3352 7.7522 25.0659 7.2495 24.6866 6.84353C24.3074 6.43756 23.8317 6.14269 23.3076 5.98872C21.3926 5.50317 13.7326 5.50317 13.7326 5.50317C13.7326 5.50317 6.07258 5.50317 4.15759 6.03497C3.63347 6.18894 3.15776 6.4838 2.77851 6.88977C2.39926 7.29574 2.12991 7.79844 1.99765 8.3471C1.64718 10.3651 1.47574 12.4122 1.4855 14.4627C1.47301 16.5287 1.64445 18.5914 1.99765 20.6246C2.14346 21.1562 2.41885 21.6398 2.79721 22.0286C3.17557 22.4174 3.64412 22.6983 4.15759 22.8442C6.07258 23.376 13.7326 23.376 13.7326 23.376C13.7326 23.376 21.3926 23.376 23.3076 22.8442C23.8317 22.6902 24.3074 22.3954 24.6866 21.9894C25.0659 21.5834 25.3352 21.0807 25.4675 20.5321C25.8153 18.5293 25.9867 16.4978 25.9796 14.4627C25.9921 12.3968 25.8207 10.334 25.4675 8.30086Z" stroke="#00A0DF" stroke-width="2" stroke-linecap="round" stroke-linejoin="round"/>
<path d="M11.2275 18.2431L17.6294 14.4627L11.2275 10.6824V18.2431Z" stroke="#00A0DF" stroke-width="2" stroke-linecap="round" stroke-linejoin="round"/>
</g>
<defs>
<clipPath id="clip0_550:24717">
<rect width="26.7209" height="27.7457" fill="white" transform="translate(0.37207 0.878906)"/>
</clipPath>
</defs>
</svg>
