<svg width="19" height="18" viewBox="0 0 19 18" fill="none" xmlns="http://www.w3.org/2000/svg">
<path d="M5.70818 8.32358C5.70818 6.75529 4.42626 5.47653 2.85409 5.47653C1.28192 5.47653 0 6.74323 0 8.32358C0 9.90393 1.28192 11.1706 2.85409 11.1706C4.43835 11.1706 5.70818 9.89187 5.70818 8.32358Z" fill="#00A0DF"/>
<path d="M12.2497 8.32358C12.2497 6.75529 10.9678 5.47653 9.39559 5.47653C7.82342 5.47653 6.5415 6.74323 6.5415 8.32358C6.5415 9.90393 7.82342 11.1706 9.39559 11.1706C10.9678 11.1706 12.2497 9.89187 12.2497 8.32358Z" fill="#00A0DF"/>
<path d="M13.0856 8.32358C13.0856 9.90393 14.3676 11.1706 15.9397 11.1706C17.5119 11.1706 18.7938 9.89187 18.7938 8.32358C18.7938 6.75529 17.5119 5.47653 15.9397 5.47653C14.3555 5.47653 13.0856 6.75529 13.0856 8.32358Z" fill="#00A0DF"/>
<path d="M5.99856 17.0336C7.57072 17.0336 8.85264 15.7549 8.85264 14.1866C8.85264 12.6183 7.57072 11.3395 5.99856 11.3395C4.42639 11.3395 3.14447 12.6183 3.14447 14.1866C3.14447 15.7549 4.42639 17.0336 5.99856 17.0336Z" fill="#00A0DF"/>
<path d="M12.5401 17.0336C14.1122 17.0336 15.3942 15.7549 15.3942 14.1866C15.3942 12.6183 14.1122 11.3395 12.5401 11.3395C10.9679 11.3395 9.68597 12.6183 9.68597 14.1866C9.68597 15.7549 10.9558 17.0336 12.5401 17.0336Z" fill="#00A0DF"/>
<path d="M3.14447 2.84704C3.14447 4.41532 4.42639 5.69408 5.99856 5.69408C7.58282 5.69408 8.85264 4.41532 8.85264 2.84704C8.85264 1.27875 7.57072 0 5.99856 0C4.42639 0 3.14447 1.26669 3.14447 2.84704Z" fill="#00A0DF"/>
<path d="M12.5401 0C10.9679 0 9.68597 1.27875 9.68597 2.84704C9.68597 4.41532 10.9679 5.69408 12.5401 5.69408C14.1122 5.69408 15.3942 4.41532 15.3942 2.84704C15.3942 1.26669 14.1122 0 12.5401 0Z" fill="#00A0DF"/>
</svg>
