<svg width="16" height="16" viewBox="0 0 16 16" fill="none" xmlns="http://www.w3.org/2000/svg">
<path d="M15.7548 14.394L12.1276 10.7668C13.0009 9.60436 13.4723 8.18932 13.4708 6.73536C13.4708 3.0215 10.4492 0 6.73536 0C3.0215 0 0 3.0215 0 6.73536C0 10.4492 3.0215 13.4708 6.73536 13.4708C8.18932 13.4723 9.60436 13.0009 10.7668 12.1276L14.394 15.7548C14.5776 15.9189 14.8171 16.0065 15.0632 15.9996C15.3094 15.9927 15.5436 15.8918 15.7177 15.7177C15.8918 15.5436 15.9927 15.3094 15.9996 15.0632C16.0065 14.8171 15.9189 14.5776 15.7548 14.394ZM1.92439 6.73536C1.92439 5.78384 2.20655 4.85369 2.73518 4.06252C3.26382 3.27137 4.01519 2.65473 4.89428 2.2906C5.77337 1.92647 6.74069 1.8312 7.67394 2.01683C8.60717 2.20246 9.46444 2.66067 10.1372 3.33349C10.81 4.00632 11.2683 4.86355 11.4539 5.79678C11.6396 6.73003 11.5443 7.69735 11.1801 8.57643C10.816 9.45555 10.1994 10.2069 9.40818 10.7356C8.61703 11.2642 7.68688 11.5463 6.73536 11.5463C5.45988 11.5448 4.23708 11.0374 3.33518 10.1356C2.43328 9.2336 1.92592 8.01084 1.92439 6.73536Z" fill="white"/>
</svg>
