<svg width="21" height="29" viewBox="0 0 21 29" fill="none" xmlns="http://www.w3.org/2000/svg">
<path fill-rule="evenodd" clip-rule="evenodd" d="M13.0144 26.0784L13.0115 26.0822C12.4843 26.8695 11.5997 28.2389 10.6531 28.2389C9.70646 28.2389 8.82181 26.8695 8.29845 26.0889C6.72362 23.8425 4.31466 20.2209 2.63782 16.8599C1.45575 14.4894 0.653076 12.2287 0.653076 10.6131C0.653076 5.08773 5.13353 0.602539 10.6531 0.602539C16.1726 0.602539 20.6531 5.08773 20.6531 10.6131C20.6531 12.2287 19.8504 14.4894 18.6683 16.8599C16.9944 20.2161 14.5892 23.831 13.0144 26.0784ZM10.6045 5.60686C13.1717 5.60686 15.2556 7.69199 15.2556 10.2619C15.2556 12.8309 13.1717 14.917 10.6045 14.917C8.03821 14.917 5.95431 12.8309 5.95431 10.2619C5.95431 7.69199 8.03821 5.60686 10.6045 5.60686Z" fill="#007FAD"/>
</svg>
