<svg id="Capa_1" data-name="Capa 1" xmlns="http://www.w3.org/2000/svg" viewBox="0 0 38.95 38.95"><defs><style>.cls-1{fill:#1d1d1b;}</style></defs><title>icon-bw</title><path class="cls-1" d="M19.67,16a3.49,3.49,0,1,0,3.49,3.48A3.48,3.48,0,0,0,19.67,16Z"/><path class="cls-1" d="M28.38,15A4.35,4.35,0,0,0,24,10.67H15.11A4.35,4.35,0,0,0,10.76,15v8.91a4.36,4.36,0,0,0,4.35,4.36H24a4.35,4.35,0,0,0,4.35-4.36h0ZM19.67,25.19a5.71,5.71,0,1,1,5.7-5.71A5.72,5.72,0,0,1,19.67,25.19Z"/><path class="cls-1" d="M19.57,0A19.48,19.48,0,1,0,39.05,19.48,19.48,19.48,0,0,0,19.57,0Zm11,23.93A6.57,6.57,0,0,1,24,30.5H15.11a6.57,6.57,0,0,1-6.57-6.57V15a6.58,6.58,0,0,1,6.57-6.57H24A6.58,6.58,0,0,1,30.6,15Z"/></svg>