<svg width="12" height="16" viewBox="0 0 12 16" fill="none" xmlns="http://www.w3.org/2000/svg">
<path d="M10.0018 4.02333C9.99812 4.01962 9.99627 4.01404 9.99255 4.01032C9.98883 4.00661 9.98512 4.00661 9.9814 4.00289C8.95956 2.98257 7.54942 2.35254 5.99623 2.35254C4.44303 2.35254 3.03289 2.98443 2.01105 4.00289C2.00734 4.00661 2.00176 4.00661 1.9999 4.01032C1.99619 4.01404 1.99433 4.01962 1.99062 4.02333C0.978065 5.04551 0.350098 6.45054 0.350098 7.99867C0.350098 9.54866 0.978065 10.9555 1.99247 11.9777C1.99619 11.9814 1.99805 11.987 2.00176 11.9907C2.00548 11.9945 2.01105 11.9963 2.01477 12C3.03661 13.0166 4.44489 13.6467 5.99623 13.6467C7.54757 13.6467 8.95585 13.0166 9.97769 12C9.9814 11.9963 9.98698 11.9945 9.99069 11.9907C9.99441 11.987 9.99627 11.9814 9.99998 11.9777C11.0144 10.9555 11.6442 9.54866 11.6442 7.99867C11.6424 6.44868 11.0144 5.04365 10.0018 4.02333ZM9.8272 11.528C9.50578 11.2306 9.1565 10.976 8.78492 10.7641C9.02645 10.0059 9.17322 9.13979 9.19366 8.21611H11.2039C11.15 9.49105 10.6372 10.6489 9.8272 11.528ZM0.790417 8.21611H2.80066C2.82109 9.13979 2.96601 10.0059 3.20939 10.7641C2.83781 10.976 2.48667 11.2325 2.16711 11.528C1.35522 10.6489 0.842438 9.49105 0.790417 8.21611ZM2.16154 4.47123C2.48296 4.76859 2.83224 5.02507 3.20568 5.23693C2.96415 5.9952 2.81923 6.85941 2.7988 7.77937H0.790417C0.842438 6.50815 1.35336 5.35216 2.16154 4.47123ZM6.2136 5.97104C6.97905 5.94317 7.71663 5.76289 8.39291 5.44509C8.60842 6.14574 8.73847 6.94118 8.75891 7.78308H6.2136V5.97104ZM6.2136 5.53615V2.80416C7.04593 2.93239 7.78723 3.79102 8.25356 5.03064C7.62002 5.33358 6.93075 5.50642 6.2136 5.53615ZM5.77885 2.80416V5.53615C5.06171 5.50642 4.37057 5.33358 3.74075 5.03064C4.20522 3.79102 4.94652 2.93239 5.77885 2.80416ZM5.77885 5.97104V7.78308H3.23354C3.25212 6.94304 3.38403 6.14574 3.59955 5.44509C4.27582 5.76103 5.0134 5.94131 5.77885 5.97104ZM5.77885 13.1932C4.94838 13.0649 4.20708 12.2082 3.74261 10.9723C4.37429 10.6693 5.06357 10.4965 5.77885 10.4668V13.1932ZM5.77885 10.0337C5.01526 10.0616 4.27582 10.2419 3.60141 10.5597C3.38589 9.85903 3.25398 9.05987 3.2354 8.21797H5.78071V10.0337H5.77885ZM3.35431 11.1804C3.64785 11.9368 4.04358 12.5631 4.5062 12.9943C3.74075 12.7657 3.04776 12.3643 2.47367 11.8365C2.74492 11.5837 3.04032 11.3644 3.35431 11.1804ZM6.2136 13.1932V10.4668C6.92889 10.4965 7.62002 10.6693 8.24985 10.9723C7.78538 12.2082 7.04408 13.0649 6.2136 13.1932ZM6.2136 10.0337V8.21611H8.75891C8.74033 9.05987 8.60842 9.85717 8.39291 10.5597C7.71478 10.2419 6.97719 10.0616 6.2136 10.0337ZM9.19366 7.78122C9.17322 6.86127 9.0283 5.9952 8.78678 5.23879C9.16021 5.02692 9.5095 4.77045 9.83091 4.47309C10.6391 5.35216 11.15 6.50815 11.202 7.78308H9.19366V7.78122ZM9.52436 4.16458C9.25125 4.41734 8.95585 4.63664 8.64186 4.82249C8.34832 4.06236 7.95259 3.43605 7.48811 3.00487C8.25542 3.23347 8.94842 3.63491 9.52436 4.16458ZM3.35245 4.82249C3.03847 4.63664 2.74306 4.41734 2.46995 4.16458C3.04404 3.63491 3.73889 3.23347 4.5062 3.00302C4.04173 3.43605 3.646 4.06236 3.35245 4.82249ZM8.63815 11.1804C8.95213 11.3663 9.24754 11.5837 9.52065 11.8365C8.94656 12.3643 8.25356 12.7657 7.48811 12.9943C7.94887 12.5613 8.3446 11.9368 8.63815 11.1804Z" fill="white"/>
</svg>
