<svg width="237" height="237" viewBox="0 0 237 237" fill="none" xmlns="http://www.w3.org/2000/svg">
<path d="M0.837112 118.451C0.837112 183.621 53.6675 236.451 118.837 236.451C184.007 236.451 236.837 183.621 236.837 118.451C236.837 53.2816 184.007 0.451172 118.837 0.451172C53.6675 0.451172 0.837112 53.2816 0.837112 118.451Z" fill="#00A5D1"/>
<path d="M236.837 118.451C236.837 183.621 184.007 236.451 118.837 236.451C53.6675 236.451 0.837112 183.621 0.837112 118.451C0.837112 53.2816 53.6675 0.451172 118.837 0.451172C184.007 0.451172 236.837 53.2816 236.837 118.451Z" fill="#B40000"/>
<path d="M75.7371 154.756C72.5375 159.382 65.1025 170.828 65.1025 177.071C65.1025 180.957 66.6465 184.685 69.3949 187.433C72.1432 190.182 75.8707 191.726 79.7574 191.726C83.6441 191.726 87.3717 190.182 90.12 187.433C92.8683 184.685 94.4123 180.957 94.4123 177.071C94.4123 170.828 86.9774 159.382 83.7777 154.756C83.3042 154.14 82.6954 153.641 81.9983 153.298C81.3012 152.954 80.5345 152.776 79.7574 152.776C78.9803 152.776 78.2136 152.954 77.5166 153.298C76.8195 153.641 76.2107 154.14 75.7371 154.756Z" fill="white"/>
<path d="M114.817 154.756C111.617 159.382 104.182 170.828 104.182 177.071C104.182 180.957 105.726 184.685 108.475 187.433C111.223 190.182 114.95 191.726 118.837 191.726C122.724 191.726 126.451 190.182 129.2 187.433C131.948 184.685 133.492 180.957 133.492 177.071C133.492 170.828 126.057 159.382 122.857 154.756C122.384 154.14 121.775 153.641 121.078 153.298C120.381 152.954 119.614 152.776 118.837 152.776C118.06 152.776 117.293 152.954 116.596 153.298C115.899 153.641 115.29 154.14 114.817 154.756Z" fill="white"/>
<path d="M161.937 154.756C161.464 154.14 160.855 153.641 160.158 153.298C159.461 152.954 158.694 152.776 157.917 152.776C157.14 152.776 156.373 152.954 155.676 153.298C154.979 153.641 154.37 154.14 153.896 154.756C150.697 159.382 143.262 170.828 143.262 177.071C143.262 180.957 144.806 184.685 147.554 187.433C150.303 190.182 154.03 191.726 157.917 191.726C161.804 191.726 165.531 190.182 168.279 187.433C171.028 184.685 172.572 180.957 172.572 177.071C172.572 170.828 165.137 159.382 161.937 154.756Z" fill="white"/>
<path d="M167.574 74.4865C165.317 71.4609 162.387 69.0028 159.014 67.3069C155.642 65.6111 151.921 64.7242 148.147 64.7166H138.377C138.377 59.5343 136.318 54.5643 132.654 50.8998C128.989 47.2354 124.019 45.1768 118.837 45.1768C113.655 45.1768 108.685 47.2354 105.02 50.8998C101.356 54.5643 99.2972 59.5343 99.2972 64.7166H89.5273C85.7527 64.7242 82.0317 65.6111 78.6595 67.3069C75.2874 69.0028 72.3566 71.4609 70.0998 74.4865H167.574ZM118.837 54.9467C121.426 54.9544 123.906 55.9862 125.737 57.8168C127.567 59.6473 128.599 62.1278 128.607 64.7166H109.067C109.075 62.1278 110.107 59.6473 111.937 57.8168C113.768 55.9862 116.248 54.9544 118.837 54.9467Z" fill="white"/>
<path d="M177.457 79.3715H60.2176C58.922 79.3715 57.6795 79.8861 56.7634 80.8023C55.8473 81.7184 55.3326 82.9609 55.3326 84.2564C55.3326 85.552 55.8473 86.7945 56.7634 87.7106C57.6795 88.6267 58.922 89.1414 60.2176 89.1414H65.1025V118.451C65.1025 124.929 67.6759 131.142 72.2564 135.722C76.8369 140.303 83.0495 142.876 89.5274 142.876H148.147C154.625 142.876 160.837 140.303 165.418 135.722C169.998 131.142 172.572 124.929 172.572 118.451V89.1414H177.457C178.752 89.1414 179.995 88.6267 180.911 87.7106C181.827 86.7945 182.342 85.552 182.342 84.2564C182.342 82.9609 181.827 81.7184 180.911 80.8023C179.995 79.8861 178.752 79.3715 177.457 79.3715Z" fill="white"/>
</svg>
