<svg width="74" height="71" viewBox="0 0 74 71" fill="none" xmlns="http://www.w3.org/2000/svg">
<path d="M60.0951 57.8026C59.8145 58.4163 59.7089 59.1357 59.3921 59.8451C58.8046 61.155 57.4514 62.0295 55.8837 62.2703C56.6131 61.0033 57.7154 59.8484 58.4977 58.4427C59.2931 57.0173 59.9631 55.4698 60.4746 53.787C61.7618 52.3813 63.4715 51.827 65.0689 51.045C68.0426 49.5865 70.4817 47.125 71.4487 43.7099C71.9042 42.0931 71.8118 40.209 72.7227 38.6087C73.0792 37.985 73.6337 37.5429 74 36.8235C71.1187 36.9588 69.1714 38.0345 67.3 39.1828C64.9006 41.1263 62.8543 43.7099 62.3262 47.5375C62.1645 48.6956 62.2734 50.3289 61.3064 50.8536C61.8773 47.9268 61.7684 44.8087 61.4978 41.9248C63.62 40.7039 65.4485 38.866 66.3462 36.5662C66.7654 35.4905 66.8281 34.3983 67.1746 33.1841C67.8083 30.9799 69.0031 29.2872 70.4289 27.7001C64.6233 26.9873 60.1677 30.7225 58.9465 35.0351C58.7221 35.8238 58.5538 36.5662 58.501 37.3317C58.3755 39.064 58.897 40.3509 59.204 41.542C60.1974 45.4257 59.6495 49.6096 58.6297 53.0215C57.6296 56.364 55.7451 59.1885 53.7813 61.3761C49.8768 65.7283 43.0712 69.414 34.8992 68.5825C27.0672 67.7873 21.6511 64.0224 18.1856 58.8882C15.6443 55.1266 13.6706 49.3721 14.6145 43.1357C14.8686 41.4562 15.7037 39.5886 15.5089 37.3944C15.2317 34.296 13.6607 31.8015 11.6804 30.188C9.6869 28.5613 6.9112 27.2876 3.51501 27.8287C3.90776 28.3996 4.39954 28.8285 4.78899 29.3598C5.63391 30.5048 6.26431 31.8675 6.70327 33.3127C6.9277 34.0552 7.03332 34.8273 7.27755 35.672C7.96075 38.0345 9.20503 39.5688 10.8487 40.9019C11.4031 41.3506 12.4494 41.8027 12.5715 42.1789C12.7332 42.687 12.4395 43.799 12.3801 44.4754C12.1722 46.9039 12.4296 48.9794 12.8257 51.1077C11.6738 50.3586 11.9048 48.7748 11.7398 47.6628C11.5517 46.3925 11.1193 45.2244 10.6539 44.218C8.81557 40.242 5.29397 37.5528 0 37.0116C0.448865 37.8365 0.89773 38.1797 1.27398 38.8627C2.24432 40.6082 2.12221 42.6276 2.67669 44.3467C3.76254 47.6991 6.1884 50.1508 9.37666 51.4244C10.7464 51.9722 13.0105 52.9456 13.6508 54.1037C14.0501 54.8264 14.1954 55.7271 14.5452 56.463C15.2614 57.9643 16.0172 59.393 16.905 60.6073C17.3638 61.2342 17.9744 61.7853 18.179 62.4584C16.7136 62.234 15.74 61.5378 15.0535 60.5446C14.4 59.6009 14.2218 58.3537 13.6508 57.3572C13.2382 56.6411 12.8257 55.902 12.1821 55.252C11.7035 54.7703 11.0236 54.1268 10.3338 53.721C7.47228 52.0448 2.46216 51.9227 0.0627091 54.3578C2.41595 55.4863 4.42594 56.7104 5.86825 58.7562C6.26431 59.3172 6.48874 59.8154 6.8881 60.2872C9.33375 63.1645 14.3208 65.7415 19.3276 63.6034C21.3607 65.5139 23.8327 67.3353 26.79 68.6419C29.6779 69.9189 33.2028 70.9649 37.0611 70.8131C44.936 70.4996 50.6161 67.4837 54.7945 63.4153C56.2764 64.0158 58.2633 64.3854 60.2799 64.1181C63.1645 63.7354 66.0987 61.7721 67.4221 59.8451C67.8941 59.1621 68.1747 58.5681 68.6367 57.994C69.5378 56.8721 70.6896 55.7898 71.9537 55.0606C72.5841 54.6977 73.4026 54.5921 73.9967 53.975C72.6798 52.9291 71.0065 52.2922 69.1483 52.1899C64.6035 51.9392 61.4912 54.7307 60.0951 57.8026Z" fill="#009FDD"/>
<path d="M23.8258 62.8613C26.7995 65.1876 30.5159 66.943 35.2619 67.3356C41.8596 67.8801 47.3318 65.3888 51.1075 62.1156C55.0054 58.7401 57.6854 54.0183 58.131 47.9503C58.3686 44.7133 57.8768 41.6282 56.8867 38.9423C55.2298 34.4416 52.5432 30.6173 47.8764 29.2512C47.246 29.0665 46.3119 29.0269 45.6386 28.753C44.7706 28.3999 44.5099 27.255 44.83 26.4532C45.1073 25.7602 45.9753 25.2554 46.8202 25.3346C47.6321 25.4105 48.015 26.4169 48.6223 26.826C51.3881 28.6738 55.144 26.1331 54.5268 22.9127C53.9691 19.9958 50.1042 17.7124 46.6354 17.7553C44.4703 17.7817 42.5131 18.5571 40.7308 19.6559C40.7308 18.93 40.7308 15.3235 40.7308 15.3235H48.3747V7.83003H40.7275V0H33.0836V7.83003H25.3803V15.3268H33.0869C33.0869 15.3268 33.0869 18.5868 33.0869 19.4447C29.3805 16.6038 23.3637 17.9434 21.0303 20.5534C20.4659 21.1836 19.7926 22.1669 19.6639 23.2888C19.3041 26.4334 22.7333 28.6045 25.3836 27.0768C26.2219 26.595 26.6774 25.681 27.3705 25.5227C29.6148 25.0112 30.4003 28.2086 28.5521 28.8784C27.8722 29.1226 27.1329 29.1028 26.5619 29.2512C22.093 30.4028 19.5979 33.6893 17.7991 37.4508C16.7727 39.5989 16.0367 42.3508 15.9344 45.2776C15.7693 50.0785 17.0367 54.1668 18.8553 57.2057C20.2382 59.5188 21.7993 61.2775 23.8258 62.8613ZM37.0013 61.7196C36.8066 61.7196 36.6151 61.713 36.4237 61.7031C36.4996 61.5316 36.5392 61.3402 36.5392 61.1422C36.5392 60.3602 35.9022 59.7267 35.1233 59.7267C34.3411 59.7267 33.7074 60.3635 33.7074 61.1422C33.7074 61.2049 33.714 61.2676 33.7206 61.327C33.4038 61.2511 33.0968 61.1686 32.7965 61.0762C32.7635 60.3239 32.143 59.7234 31.3839 59.7234C31.0076 59.7234 30.6644 59.8718 30.4102 60.116C29.024 59.4165 27.9481 58.6114 27.2088 57.9713C27.1956 57.9581 27.1824 57.9482 27.1692 57.935C27.1725 57.8954 27.1758 57.8591 27.1758 57.8195C27.1758 57.0375 26.5388 56.4039 25.7599 56.4039C25.7269 56.4039 25.6906 56.4072 25.6576 56.4105C25.3968 56.1037 25.1526 55.7902 24.9216 55.4668C25.1592 55.2128 25.3044 54.8762 25.3044 54.5033C25.3044 53.7213 24.6674 53.0878 23.8885 53.0878C23.7862 53.0878 23.6872 53.0977 23.5882 53.1208C23.4198 52.7413 23.2713 52.352 23.1393 51.9527C23.2845 51.7316 23.367 51.4677 23.367 51.1839C23.367 50.6461 23.0634 50.1775 22.6211 49.9366C22.5188 49.3691 22.4396 48.7917 22.3967 48.1944C22.3406 47.4322 22.3406 46.6667 22.3967 45.9111C23.0073 45.7527 23.4594 45.1984 23.4594 44.5418C23.4594 44.0402 23.1954 43.5981 22.8026 43.3473C22.8852 43.0206 22.9776 42.6973 23.0799 42.3805C23.3142 42.5488 23.5981 42.6478 23.905 42.6478C24.6872 42.6478 25.3209 42.0109 25.3209 41.2322C25.3209 40.5294 24.806 39.9454 24.1294 39.8365C24.3209 39.4636 24.5123 39.1303 24.7004 38.8367C24.9612 39.1303 25.3374 39.3184 25.7599 39.3184C26.5421 39.3184 27.1758 38.6816 27.1758 37.9029C27.1758 37.4541 26.9679 37.0549 26.6411 36.7975C26.9579 36.6061 27.2352 36.5005 27.4464 36.4346C27.5025 36.4247 27.5619 36.4148 27.6213 36.4049C28.3276 36.2894 29.3574 36.1178 30.5093 35.6921C30.7502 35.8835 31.0538 35.999 31.3872 35.999C32.1694 35.999 32.8031 35.3622 32.8031 34.5835C32.8031 34.5571 32.7998 34.5307 32.7998 34.5043C33.9385 33.7058 34.8791 32.6829 35.5854 31.5214C35.7075 32.178 36.2851 32.6796 36.9782 32.6796C37.6977 32.6796 38.2918 32.1417 38.3809 31.4455C39.0872 32.6334 40.0377 33.6794 41.1929 34.4911C41.1896 34.5208 41.1896 34.5538 41.1896 34.5835C41.1896 35.3655 41.8266 35.999 42.6055 35.999C42.9389 35.999 43.2458 35.8835 43.49 35.6888C44.6485 36.1178 45.6849 36.2894 46.3945 36.4049C46.4539 36.4148 46.5133 36.4247 46.5694 36.4346C46.774 36.5005 47.0381 36.5995 47.3417 36.7777C47.0017 37.0384 46.7806 37.4442 46.7806 37.9062C46.7806 38.6882 47.4176 39.3217 48.1965 39.3217C48.6388 39.3217 49.0348 39.1171 49.2923 38.8004C49.487 39.1007 49.6817 39.4405 49.8798 39.8266C49.1966 39.9256 48.6685 40.5162 48.6685 41.2256C48.6685 42.0076 49.3055 42.6412 50.0844 42.6412C50.4012 42.6412 50.695 42.5356 50.9326 42.3574C51.0349 42.6775 51.1306 43.0008 51.2132 43.3308C50.7973 43.5783 50.5201 44.0303 50.5201 44.5483C50.5201 45.2215 50.9953 45.789 51.6257 45.9309C51.6785 46.6832 51.6818 47.4454 51.6257 48.2043C51.5828 48.7785 51.5102 49.3361 51.4145 49.8806C50.893 50.0884 50.5201 50.5999 50.5201 51.1971C50.5201 51.537 50.6422 51.8504 50.8402 52.0946C50.7148 52.4543 50.5795 52.804 50.4276 53.1472C50.3187 53.1208 50.2032 53.1043 50.0877 53.1043C49.3055 53.1043 48.6718 53.7411 48.6718 54.5198C48.6718 54.9059 48.8269 55.259 49.081 55.513C48.8566 55.8298 48.6157 56.1367 48.3615 56.4336C48.3087 56.427 48.2559 56.4237 48.1998 56.4237C47.4176 56.4237 46.7839 57.0606 46.7839 57.8393C46.7839 57.8954 46.7872 57.9515 46.7938 58.0076C46.0545 58.6477 44.9786 59.4462 43.5957 60.1424C43.3415 59.8949 42.995 59.7432 42.6121 59.7432C41.8497 59.7432 41.2292 60.347 41.1962 61.1026C40.8992 61.1917 40.5922 61.2775 40.2754 61.3501C40.2853 61.2874 40.2886 61.2247 40.2886 61.1587C40.2886 60.3767 39.6516 59.7432 38.8727 59.7432C38.0905 59.7432 37.4535 60.38 37.4535 61.1587C37.4535 61.3567 37.4964 61.5481 37.569 61.7196C37.3743 61.713 37.1894 61.7163 37.0013 61.7196ZM37.0013 27.3804C37.1102 28.2911 37.3412 29.1787 37.6812 30.0168C37.4733 29.8947 37.2323 29.8254 36.9716 29.8254C36.7439 29.8254 36.5293 29.8815 36.3412 29.9772C36.668 29.1457 36.8924 28.2746 37.0013 27.3804Z" fill="#009FDD"/>
<path d="M38.8594 35.9793C39.6416 35.9793 40.2753 35.3424 40.2753 34.5637C40.2753 33.7817 39.6383 33.1482 38.8594 33.1482C38.0772 33.1482 37.4402 33.785 37.4402 34.5637C37.4435 35.3457 38.0772 35.9793 38.8594 35.9793Z" fill="#009FDD"/>
<path d="M35.12 35.9793C35.9022 35.9793 36.5359 35.3424 36.5359 34.5637C36.5359 33.7817 35.8989 33.1482 35.12 33.1482C34.3378 33.1482 33.7041 33.785 33.7041 34.5637C33.7041 35.3457 34.3378 35.9793 35.12 35.9793Z" fill="#009FDD"/>
<path d="M29.4903 39.302C30.2725 39.302 30.9062 38.6652 30.9062 37.8865C30.9062 37.1045 30.2692 36.4709 29.4903 36.4709C28.708 36.4709 28.071 37.1078 28.071 37.8865C28.0743 38.6685 28.708 39.302 29.4903 39.302Z" fill="#009FDD"/>
<path d="M44.4476 39.302C45.2299 39.302 45.8636 38.6652 45.8636 37.8865C45.8636 37.1045 45.2266 36.4709 44.4476 36.4709C43.6654 36.4709 43.0317 37.1078 43.0317 37.8865C43.0317 38.6685 43.6654 39.302 44.4476 39.302Z" fill="#009FDD"/>
<path d="M39.2925 37.8865C39.2925 38.6685 39.9295 39.3021 40.7084 39.3021C41.4906 39.3021 42.1243 38.6652 42.1243 37.8865C42.1243 37.1045 41.4873 36.471 40.7084 36.471C39.9295 36.4677 39.2925 37.1045 39.2925 37.8865Z" fill="#009FDD"/>
<path d="M35.5525 37.8865C35.5525 38.6685 36.1895 39.3021 36.9684 39.3021C37.7506 39.3021 38.3843 38.6652 38.3843 37.8865C38.3843 37.1045 37.7473 36.471 36.9684 36.471C36.1895 36.4677 35.5525 37.1045 35.5525 37.8865Z" fill="#009FDD"/>
<path d="M33.2323 39.302C34.0145 39.302 34.6482 38.6652 34.6482 37.8865C34.6482 37.1045 34.0112 36.4709 33.2323 36.4709C32.4534 36.4709 31.8164 37.1078 31.8164 37.8865C31.8131 38.6685 32.4501 39.302 33.2323 39.302Z" fill="#009FDD"/>
<path d="M30.0944 40.6117C30.0053 40.7964 29.9558 41.001 29.9558 41.2188C29.9558 42.0008 30.5928 42.6343 31.375 42.6343C31.9625 42.6343 32.4675 42.2747 32.682 41.7665C32.7579 41.5949 32.7975 41.4036 32.7975 41.2056C32.7975 40.4236 32.1605 39.79 31.3816 39.79C30.8106 39.79 30.3222 40.1299 30.0944 40.6117Z" fill="#009FDD"/>
<path d="M27.6309 42.6382C28.1227 42.6382 28.555 42.3875 28.8092 42.008C28.9643 41.7803 29.0567 41.5065 29.0567 41.2095C29.0567 40.4275 28.4197 39.7939 27.6375 39.7939C27.1457 39.7939 26.7133 40.0447 26.4592 40.4242C26.3041 40.6519 26.2117 40.9257 26.2117 41.2227C26.215 42.0014 26.8487 42.6382 27.6309 42.6382Z" fill="#009FDD"/>
<path d="M44.9197 41.2095C44.9197 41.9915 45.5567 42.625 46.3389 42.625C47.1211 42.625 47.7548 41.9882 47.7548 41.2095C47.7548 40.4275 47.1178 39.794 46.3389 39.794C45.5567 39.7907 44.9197 40.4275 44.9197 41.2095Z" fill="#009FDD"/>
<path d="M41.1836 41.2095C41.1836 41.9915 41.8206 42.625 42.5995 42.625C43.3817 42.625 44.0154 41.9882 44.0154 41.2095C44.0154 40.4275 43.3784 39.794 42.5995 39.794C41.8173 39.7907 41.1836 40.4275 41.1836 41.2095Z" fill="#009FDD"/>
<path d="M38.8594 39.79C38.0772 39.79 37.4402 40.4269 37.4402 41.2056C37.4402 41.9876 38.0772 42.6211 38.8594 42.6211C39.6416 42.6211 40.2753 41.9843 40.2753 41.2056C40.2786 40.4269 39.6416 39.79 38.8594 39.79Z" fill="#009FDD"/>
<path d="M35.1199 39.79C34.6281 39.79 34.1958 40.0408 33.9416 40.4203C33.7865 40.6479 33.6941 40.9218 33.6941 41.2188C33.6941 42.0008 34.3311 42.6343 35.11 42.6343C35.6018 42.6343 36.0341 42.3836 36.2883 42.0041C36.4434 41.7764 36.5358 41.5026 36.5358 41.2056C36.5391 40.4269 35.9021 39.79 35.1199 39.79Z" fill="#009FDD"/>
<path d="M46.7708 44.5318C46.7708 45.3138 47.4077 45.9473 48.1866 45.9473C48.9689 45.9473 49.6025 45.3105 49.6025 44.5318C49.6025 43.7498 48.9656 43.1162 48.1866 43.1162C47.4044 43.1129 46.7708 43.7498 46.7708 44.5318Z" fill="#009FDD"/>
<path d="M30.9093 44.5318C30.9093 43.7497 30.2723 43.1162 29.4934 43.1162C28.7112 43.1162 28.0742 43.753 28.0742 44.5318C28.0742 45.3138 28.7112 45.9473 29.4934 45.9473C30.2723 45.9473 30.9093 45.3105 30.9093 44.5318Z" fill="#009FDD"/>
<path d="M25.7509 45.9473C25.7542 45.9473 25.7575 45.9473 25.7608 45.9473C25.7641 45.9473 25.7674 45.9473 25.7707 45.9473C26.5529 45.9473 27.1866 45.3105 27.1866 44.5318C27.1866 43.7497 26.5496 43.1162 25.7707 43.1162C25.7674 43.1162 25.7641 43.1162 25.7608 43.1162C25.7575 43.1162 25.7542 43.1162 25.7509 43.1162C24.9687 43.1162 24.335 43.753 24.335 44.5318C24.335 45.3105 24.9687 45.9473 25.7509 45.9473Z" fill="#009FDD"/>
<path d="M44.4476 43.113C43.6654 43.113 43.0317 43.7499 43.0317 44.5286C43.0317 45.3106 43.6687 45.9441 44.4476 45.9441C45.2299 45.9441 45.8635 45.3073 45.8635 44.5286C45.8668 43.7499 45.2299 43.113 44.4476 43.113Z" fill="#009FDD"/>
<path d="M40.7084 43.113C39.9262 43.113 39.2925 43.7499 39.2925 44.5286C39.2925 45.3106 39.9295 45.9441 40.7084 45.9441C41.4906 45.9441 42.1243 45.3073 42.1243 44.5286C42.1276 43.7499 41.4906 43.113 40.7084 43.113Z" fill="#009FDD"/>
<path d="M35.5525 44.5318C35.5525 45.3138 36.1895 45.9473 36.9684 45.9473C37.7506 45.9473 38.3843 45.3105 38.3843 44.5318C38.3843 43.7498 37.7473 43.1162 36.9684 43.1162C36.1895 43.1129 35.5525 43.7498 35.5525 44.5318Z" fill="#009FDD"/>
<path d="M31.8132 44.5318C31.8132 45.3138 32.4502 45.9473 33.2291 45.9473C34.0081 45.9473 34.645 45.3105 34.645 44.5318C34.645 43.7497 34.0081 43.1162 33.2291 43.1162C32.4502 43.1162 31.8132 43.7497 31.8132 44.5318Z" fill="#009FDD"/>
<path d="M50.0778 49.2703C50.8598 49.2703 51.4937 48.6365 51.4937 47.8547C51.4937 47.073 50.8598 46.4392 50.0778 46.4392C49.2958 46.4392 48.6619 47.073 48.6619 47.8547C48.6619 48.6365 49.2958 49.2703 50.0778 49.2703Z" fill="#009FDD"/>
<path d="M31.382 49.2703C32.164 49.2703 32.7979 48.6365 32.7979 47.8547C32.7979 47.073 32.164 46.4392 31.382 46.4392C30.6 46.4392 29.9661 47.073 29.9661 47.8547C29.9661 48.6365 30.6 49.2703 31.382 49.2703Z" fill="#009FDD"/>
<path d="M27.6582 46.4351C26.876 46.4351 26.239 47.0719 26.239 47.8506C26.239 48.6326 26.876 49.2661 27.6549 49.2661C27.6549 49.2661 27.6549 49.2661 27.6582 49.2661C27.6615 49.2661 27.6582 49.2661 27.6615 49.2661C28.4437 49.2661 29.0807 48.6293 29.0807 47.8506C29.0774 47.0719 28.4437 46.4351 27.6582 46.4351C27.6615 46.4351 27.6582 46.4351 27.6582 46.4351Z" fill="#009FDD"/>
<path d="M23.922 49.2703C24.704 49.2703 25.3379 48.6365 25.3379 47.8547C25.3379 47.073 24.704 46.4392 23.922 46.4392C23.14 46.4392 22.5061 47.073 22.5061 47.8547C22.5061 48.6365 23.14 49.2703 23.922 49.2703Z" fill="#009FDD"/>
<path d="M47.7548 47.8547C47.7548 47.0727 47.1178 46.4392 46.3389 46.4392C45.5567 46.4392 44.9197 47.076 44.9197 47.8547C44.9197 48.6368 45.5567 49.2703 46.3389 49.2703C47.1211 49.2703 47.7548 48.6335 47.7548 47.8547Z" fill="#009FDD"/>
<path d="M42.5995 49.2703C43.3815 49.2703 44.0154 48.6365 44.0154 47.8547C44.0154 47.073 43.3815 46.4392 42.5995 46.4392C41.8175 46.4392 41.1836 47.073 41.1836 47.8547C41.1836 48.6365 41.8175 49.2703 42.5995 49.2703Z" fill="#009FDD"/>
<path d="M40.2794 47.8547C40.2794 47.0727 39.6425 46.4392 38.8635 46.4392C38.0813 46.4392 37.4443 47.076 37.4443 47.8547C37.4443 48.6368 38.0813 49.2703 38.8635 49.2703C39.6425 49.2703 40.2794 48.6335 40.2794 47.8547Z" fill="#009FDD"/>
<path d="M35.12 49.2703C35.902 49.2703 36.5359 48.6365 36.5359 47.8547C36.5359 47.073 35.902 46.4392 35.12 46.4392C34.338 46.4392 33.7041 47.073 33.7041 47.8547C33.7041 48.6365 34.338 49.2703 35.12 49.2703Z" fill="#009FDD"/>
<path d="M48.1867 49.7583C47.4044 49.7583 46.7708 50.3951 46.7708 51.1738C46.7708 51.9559 47.4077 52.5894 48.1867 52.5894C48.9689 52.5894 49.6026 51.9526 49.6026 51.1738C49.6059 50.3951 48.9689 49.7583 48.1867 49.7583Z" fill="#009FDD"/>
<path d="M29.4903 52.5923C30.2725 52.5923 30.9062 51.9555 30.9062 51.1768C30.9062 50.3948 30.2692 49.7612 29.4903 49.7612C28.708 49.7612 28.071 50.3981 28.071 51.1768C28.0743 51.9555 28.708 52.5923 29.4903 52.5923Z" fill="#009FDD"/>
<path d="M27.1703 51.1738C27.1703 50.3918 26.5333 49.7583 25.7544 49.7583C25.7412 49.7583 25.7313 49.7583 25.7181 49.7616C25.7049 49.7616 25.695 49.7583 25.6818 49.7583C24.8996 49.7583 24.2659 50.3951 24.2659 51.1738C24.2659 51.9559 24.9029 52.5894 25.6818 52.5894C25.695 52.5894 25.7049 52.5894 25.7181 52.5861C25.7313 52.5861 25.7412 52.5894 25.7544 52.5894C26.5333 52.5927 27.1703 51.9559 27.1703 51.1738Z" fill="#009FDD"/>
<path d="M43.0317 51.1738C43.0317 51.9559 43.6687 52.5894 44.4476 52.5894C45.2299 52.5894 45.8636 51.9526 45.8636 51.1738C45.8636 50.3918 45.2266 49.7583 44.4476 49.7583C43.6654 49.7583 43.0317 50.3951 43.0317 51.1738Z" fill="#009FDD"/>
<path d="M40.7084 52.5923C41.4906 52.5923 42.1243 51.9555 42.1243 51.1768C42.1243 50.3948 41.4873 49.7612 40.7084 49.7612C39.9262 49.7612 39.2925 50.3981 39.2925 51.1768C39.2925 51.9555 39.9295 52.5923 40.7084 52.5923Z" fill="#009FDD"/>
<path d="M36.9723 52.5923C37.7545 52.5923 38.3882 51.9555 38.3882 51.1768C38.3882 50.3948 37.7512 49.7612 36.9723 49.7612C36.1901 49.7612 35.5564 50.3981 35.5564 51.1768C35.5531 51.9555 36.1901 52.5923 36.9723 52.5923Z" fill="#009FDD"/>
<path d="M33.2323 52.5923C34.0145 52.5923 34.6482 51.9555 34.6482 51.1768C34.6482 50.3948 34.0112 49.7612 33.2323 49.7612C32.4534 49.7612 31.8164 50.3981 31.8164 51.1768C31.8131 51.9555 32.4501 52.5923 33.2323 52.5923Z" fill="#009FDD"/>
<path d="M31.382 55.9126C32.164 55.9126 32.7979 55.2789 32.7979 54.4971C32.7979 53.7153 32.164 53.0815 31.382 53.0815C30.6 53.0815 29.9661 53.7153 29.9661 54.4971C29.9661 55.2789 30.6 55.9126 31.382 55.9126Z" fill="#009FDD"/>
<path d="M29.0568 54.4971C29.0568 53.7151 28.4198 53.0815 27.6376 53.0815C27.6343 53.0815 27.6277 53.0815 27.6244 53.0815C27.6211 53.0815 27.6178 53.0815 27.6112 53.0815C26.829 53.0815 26.1953 53.7184 26.1953 54.4971C26.1953 55.2791 26.8323 55.9126 27.6112 55.9126C27.6145 55.9126 27.6211 55.9126 27.6244 55.9126C27.6277 55.9126 27.631 55.9126 27.6376 55.9126C28.4231 55.9159 29.0568 55.2791 29.0568 54.4971Z" fill="#009FDD"/>
<path d="M46.3389 53.0815C45.5567 53.0815 44.9197 53.7184 44.9197 54.4971C44.9197 55.2791 45.5567 55.9126 46.3389 55.9126C47.1211 55.9126 47.7548 55.2758 47.7548 54.4971C47.7548 53.7151 47.1211 53.0815 46.3389 53.0815Z" fill="#009FDD"/>
<path d="M42.5995 55.9126C43.3815 55.9126 44.0154 55.2789 44.0154 54.4971C44.0154 53.7153 43.3815 53.0815 42.5995 53.0815C41.8175 53.0815 41.1836 53.7153 41.1836 54.4971C41.1836 55.2789 41.8175 55.9126 42.5995 55.9126Z" fill="#009FDD"/>
<path d="M40.2794 54.4971C40.2794 53.7151 39.6425 53.0815 38.8635 53.0815C38.0813 53.0815 37.4443 53.7184 37.4443 54.4971C37.4443 55.2791 38.0813 55.9126 38.8635 55.9126C39.6425 55.9159 40.2794 55.2791 40.2794 54.4971Z" fill="#009FDD"/>
<path d="M35.12 55.9126C35.902 55.9126 36.5359 55.2789 36.5359 54.4971C36.5359 53.7153 35.902 53.0815 35.12 53.0815C34.338 53.0815 33.7041 53.7153 33.7041 54.4971C33.7041 55.2789 34.338 55.9126 35.12 55.9126Z" fill="#009FDD"/>
<path d="M29.4902 56.4041C28.708 56.4041 28.071 57.0409 28.071 57.8196C28.071 58.6016 28.708 59.2351 29.4902 59.2351C30.2725 59.2351 30.9062 58.5983 30.9062 57.8196C30.9095 57.0376 30.2725 56.4041 29.4902 56.4041Z" fill="#009FDD"/>
<path d="M44.4476 59.2351C45.2296 59.2351 45.8636 58.6014 45.8636 57.8196C45.8636 57.0378 45.2296 56.4041 44.4476 56.4041C43.6657 56.4041 43.0317 57.0378 43.0317 57.8196C43.0317 58.6014 43.6657 59.2351 44.4476 59.2351Z" fill="#009FDD"/>
<path d="M40.7084 59.2351C41.4904 59.2351 42.1243 58.6014 42.1243 57.8196C42.1243 57.0378 41.4904 56.4041 40.7084 56.4041C39.9264 56.4041 39.2925 57.0378 39.2925 57.8196C39.2925 58.6014 39.9264 59.2351 40.7084 59.2351Z" fill="#009FDD"/>
<path d="M36.9723 59.2351C37.7543 59.2351 38.3882 58.6014 38.3882 57.8196C38.3882 57.0378 37.7543 56.4041 36.9723 56.4041C36.1903 56.4041 35.5564 57.0378 35.5564 57.8196C35.5564 58.6014 36.1903 59.2351 36.9723 59.2351Z" fill="#009FDD"/>
<path d="M33.2323 59.2351C34.0143 59.2351 34.6482 58.6014 34.6482 57.8196C34.6482 57.0378 34.0143 56.4041 33.2323 56.4041C32.4503 56.4041 31.8164 57.0378 31.8164 57.8196C31.8164 58.6014 32.4503 59.2351 33.2323 59.2351Z" fill="#009FDD"/>
</svg>
