<?xml version="1.0" encoding="utf-8"?>
<!-- Generator: Adobe Illustrator 16.0.0, SVG Export Plug-In . SVG Version: 6.00 Build 0)  -->
<!DOCTYPE svg PUBLIC "-//W3C//DTD SVG 1.1//EN" "http://www.w3.org/Graphics/SVG/1.1/DTD/svg11.dtd">
<svg version="1.1" id="Layer_1" xmlns="http://www.w3.org/2000/svg" xmlns:xlink="http://www.w3.org/1999/xlink" x="0px" y="0px"
	 width="400px" height="120px" viewBox="0 0 400 120" enable-background="new 0 0 400 120" xml:space="preserve">
<path fill="#966C49" d="M16.5,8.5C16.8,8.6,16.9,9,16.7,9.3C16.6,9.4,16.6,9.5,16.5,9.5l-11.4,7c-0.5,0.3-0.8,0.1-0.8-0.5V2
	c0-0.5,0.4-0.8,0.8-0.5L16.5,8.5z"/>
<path fill="#966C49" d="M24,1h2.2c0.6,0,1,0.4,1,1v14c0,0.6-0.4,1-1,1H24c-0.603,0-1-0.4-1-1V2C23,1.5,23.4,1,24,1z M33.8,1H36
	c0.6,0,1,0.4,1,1v14c0,0.6-0.4,1-1,1h-2.2c-0.6,0-1-0.4-1-1V2C32.8,1.5,33.2,1,33.8,1z"/>
<path fill="#966C49" d="M81,1.4c0-0.6,0.397-1,1-1H87.4C88,0.4,88.1,0.7,87.7,1.1l-6,6C81.3,7.5,81,7.4,81,6.8V1.4z M81,17.2
	c0,0.6,0.397,1,1,1H87.4c0.603,0,0.7-0.3,0.303-0.7l-6-6c-0.4-0.4-0.7-0.3-0.7,0.3L81,17.2L81,17.2z M98.8,1.4c0-0.6-0.4-1-1-1h-5.4
	c-0.6,0-0.697,0.3-0.3,0.7l6,6c0.4,0.4,0.7,0.3,0.7-0.3V1.4z M98.8,17.2c0,0.6-0.4,1-1,1h-5.4c-0.6,0-0.697-0.3-0.3-0.7l6-6
	c0.4-0.4,0.7-0.3,0.7,0.3V17.2z"/>
<path fill="#966C49" d="M112.7,5c0,0.6,0.397,1,1,1h4.1c0.6,0,0.7-0.3,0.3-0.7l-4.7-4.7C113,0.2,112.7,0.3,112.7,0.9V5z M105.6,6
	c0.603,0,1-0.4,1-1V0.9c0-0.6-0.3-0.7-0.7-0.3L101.2,5.3C100.8,5.7,100.9,6,101.5,6H105.6z M106.6,13.1c0-0.6-0.397-1-1-1h-4.1
	c-0.603,0-0.7,0.3-0.3,0.7l4.697,4.7c0.4,0.4,0.7,0.3,0.7-0.3L106.6,13.1L106.6,13.1z M113.7,12.1c-0.603,0-1,0.4-1,1v4.1
	c0,0.5,0.3,0.7,0.697,0.3l4.7-4.7c0.4-0.4,0.3-0.7-0.3-0.7H113.7z"/>
<path fill="#966C49" d="M67,5.8c-0.5,0.4-1.2,0.6-1.8,0.6H62c-0.603,0-1,0.4-1,1v5.7c0,0.6,0.397,1,1,1h4.2c0.3,0.2,0.5,0.4,0.8,0.6
	l3.5,2.6c0.397,0.3,0.8,0.1,0.8-0.4V3.5c0-0.5-0.4-0.7-0.8-0.4L67,5.8z"/>
<path fill="#966C49" d="M73.9,2.5c0,0,3.9-0.8,3.9,7.7S73.9,18,73.9,18"/>
<path fill="#966C49" d="M72.6,6.4c0,0,2.603-0.4,2.603,3.8c0,4.2-2.603,3.9-2.603,3.9"/>
<path fill="#966C49" d="M47,5.8c-0.5,0.4-1.2,0.6-1.8,0.6H42c-0.603,0-1,0.4-1,1v5.7c0,0.6,0.397,1,1,1h4.2c0.3,0.2,0.5,0.4,0.8,0.6
	l3.5,2.6c0.397,0.3,0.8,0.1,0.8-0.4V3.5c0-0.5-0.4-0.7-0.8-0.4L47,5.8z"/>
<path fill="#966C49" d="M52.8,7l5.4,5.4 M52.8,12.4L58.2,7"/>
<path fill="#966C49" d="M128.7,8.6c-6.2-4.2-6.5,7.8,0,3.9 M135.2,8.6c-6.2-4.2-6.5,7.8,0,3.9"/>
<path fill="#966C49" d="M122.2,3.4H137.9v13.1H122.2V3.4z M120.8,2v15.7h18.3V2H120.8z"/>
<path fill="#966C49" d="M143.2,3h14c1.1,0,2,0.9,2,2v10c0,1.1-0.9,2-2,2h-14c-1.103,0-2-0.9-2-2V5C141.2,3.9,142.1,3,143.2,3z"/>
<path fill="#FFFFFF" d="M146.4,13.8c-0.8,0-1.6-0.4-2.1-1c-1.1-1.4-1-3.4,0.1-4.8c0.5-0.6,2-1.7,4.603,0.2L148.4,9
	c-1.397-1-2.6-1.1-3.3-0.3c-0.8,1-0.8,2.4-0.1,3.5c0.7,0.9,1.897,0.8,3.397-0.1l0.5,0.9C148.2,13.5,147.3,13.7,146.4,13.8
	L146.4,13.8z M153.9,13.8c-0.8,0-1.6-0.4-2.1-1c-1.1-1.4-1-3.4,0.1-4.8c0.5-0.6,2-1.7,4.603,0.2L156,9c-1.4-1-2.603-1.1-3.3-0.3
	c-0.803,1-0.803,2.4-0.103,3.5c0.7,0.9,1.9,0.8,3.4-0.1l0.5,0.9C155.7,13.5,154.8,13.7,153.9,13.8L153.9,13.8z"/>
<path fill="#FFFFFF" d="M60.3,77c0.6,0.2,0.8,0.8,0.6,1.4c-0.1,0.3-0.3,0.5-0.6,0.6L30,96.5c-1,0.6-1.7,0.1-1.7-1v-35
	c0-1.1,0.8-1.5,1.7-1L60.3,77z"/>
<path fill="#966C49" d="M2.5,79c0-20.7,16.8-37.5,37.5-37.5S77.5,58.3,77.5,79S60.7,116.5,40,116.5S2.5,99.7,2.5,79z"/>
<path fill="#FFFFFF" d="M140.3,77c0.6,0.2,0.8,0.8,0.6,1.4c-0.1,0.3-0.3,0.5-0.6,0.6L110,96.5c-1,0.6-1.7,0.1-1.7-1v-35
	c0-1.1,0.8-1.5,1.7-1L140.3,77z"/>
<path fill="#966C49" d="M82.5,79c0-20.7,16.8-37.5,37.5-37.5s37.5,16.8,37.5,37.5s-16.8,37.5-37.5,37.5S82.5,99.7,82.5,79z"/>
<circle fill="#966C49" cx="201.9" cy="47.1" r="8.1"/>
<circle fill="#966C49" cx="233.9" cy="79" r="5"/>
<circle fill="#966C49" cx="201.9" cy="110.9" r="6"/>
<circle fill="#966C49" cx="170.1" cy="79" r="7"/>
<circle fill="#966C49" cx="178.2" cy="56.3" r="7.5"/>
<circle fill="#966C49" cx="226.3" cy="56.1" r="4.5"/>
<circle fill="#966C49" cx="225.8" cy="102.8" r="5.5"/>
<circle fill="#966C49" cx="178.2" cy="102.8" r="6.5"/>
<path fill="#966C49" d="M178,9.4c0,0.4-0.4,0.7-0.9,0.7c-0.1,0-0.2,0-0.2-0.1L172,8.2C171.5,8,171.4,7.6,171.9,7.4l6.2-3.6
	c0.5-0.3,0.8-0.1,0.7,0.5L178,9.4L178,9.4z"/>
<path fill="#966C49" d="M169.4,15.9c-1,0-2-0.2-2.897-0.7c-2-1-3.2-3-3.2-5.2c0.1-3.4,2.9-6,6.3-6c2.5,0.1,4.8,1.7,5.603,4.1
	l0.1-0.1l2.1,1.1c-0.6-4.4-4.697-7.5-9.1-6.9c-3.9,0.6-6.9,3.9-7,7.9c0,2.9,1.7,5.6,4.3,7c1.2,0.6,2.5,0.9,3.8,1
	c2.603,0,5-1.2,6.603-3.3l-1.8-0.9C173,15.1,171.2,15.9,169.4,15.9L169.4,15.9z"/>
<path fill="#966C49" d="M183.4,3.2c0.803,0,1.5,0.7,1.5,1.5c0,0.8-0.697,1.5-1.5,1.5c-0.8,0-1.5-0.7-1.5-1.5
	C181.9,3.8,182.6,3.2,183.4,3.2z M188.5,3.2h8.5c0.897,0,1.5,0.7,1.5,1.5c0,0.8-0.7,1.5-1.5,1.5h-8.5c-0.9,0-1.5-0.7-1.5-1.5
	C186.9,3.8,187.6,3.2,188.5,3.2z M183.4,8.2c0.803,0,1.5,0.7,1.5,1.5c0,0.8-0.697,1.5-1.5,1.5c-0.8,0-1.5-0.7-1.5-1.5
	C181.9,8.8,182.6,8.2,183.4,8.2z M188.5,8.2h8.5c0.897,0,1.5,0.7,1.5,1.5c0,0.8-0.7,1.5-1.5,1.5h-8.5c-0.9,0-1.5-0.7-1.5-1.5
	C186.9,8.8,187.6,8.2,188.5,8.2z M183.4,13.2c0.803,0,1.5,0.7,1.5,1.5c0,0.8-0.697,1.5-1.5,1.5c-0.8,0-1.5-0.7-1.5-1.5
	C181.9,13.8,182.6,13.2,183.4,13.2z M188.5,13.2h8.5c0.897,0,1.5,0.7,1.5,1.5c0,0.8-0.7,1.5-1.5,1.5h-8.5c-0.9,0-1.5-0.7-1.5-1.5
	C186.9,13.8,187.6,13.2,188.5,13.2z"/>
</svg>
