<?xml version="1.0" encoding="UTF-8" standalone="no"?>
<!DOCTYPE svg PUBLIC "-//W3C//DTD SVG 1.1//EN" "http://www.w3.org/Graphics/SVG/1.1/DTD/svg11.dtd">
<svg width="100%" height="100%" viewBox="0 0 98 98" version="1.1" xmlns="http://www.w3.org/2000/svg" xmlns:xlink="http://www.w3.org/1999/xlink" xml:space="preserve" xmlns:serif="http://www.serif.com/" style="fill-rule:evenodd;clip-rule:evenodd;stroke-linejoin:round;stroke-miterlimit:2;">
    <path d="M94.8,46.2C93.4,46.2 92.3,47.3 92.3,48.7L92.3,91.3C92.3,91.9 91.8,92.4 91.2,92.4L6,92.4C5.4,92.4 4.9,91.9 4.9,91.3L4.9,6C4.9,5.4 5.4,4.9 6,4.9L48.6,4.9C50,4.9 51.1,3.8 51.1,2.4C51.1,1 50,0 48.7,0L6,0C2.7,0 0,2.7 0,6L0,91.3C0,94.6 2.7,97.3 6,97.3L91.3,97.3C94.6,97.3 97.3,94.6 97.3,91.3L97.3,48.7C97.3,47.3 96.2,46.2 94.8,46.2Z" style="fill-rule:nonzero;"/>
    <path d="M97.3,2.5C97.3,2.2 97.2,1.9 97.1,1.6C97,1.3 96.8,1 96.6,0.8C96.1,0.3 95.4,0 94.8,0L63.6,0.2C62.2,0.2 61.1,1.3 61.1,2.7C61.1,4.1 62.2,5.2 63.6,5.2L88.6,5L53.1,40.6C52.1,41.6 52.1,43.2 53.1,44.2C53.6,44.7 54.2,44.9 54.9,44.9C55.6,44.9 56.2,44.6 56.7,44.2L92.2,8.7L92,33.7C92,35.1 93,36.2 94.4,36.3L94.5,36.3C95.9,36.3 97,35.2 97,33.8L97.3,2.5Z" style="fill-rule:nonzero;"/>
</svg>
