<?xml version="1.0" encoding="utf-8"?>
<!-- Generator: Adobe Illustrator 16.0.0, SVG Export Plug-In . SVG Version: 6.00 Build 0)  -->
<!DOCTYPE svg PUBLIC "-//W3C//DTD SVG 1.1//EN" "http://www.w3.org/Graphics/SVG/1.1/DTD/svg11.dtd">
<svg version="1.1" id="Layer_1" xmlns="http://www.w3.org/2000/svg" xmlns:xlink="http://www.w3.org/1999/xlink" x="0px" y="0px"
	 width="1737.352px" height="2872.479px" viewBox="0 0 1737.352 2872.479" enable-background="new 0 0 1737.352 2872.479"
	 xml:space="preserve">
<g>
	<g>
		<g>
			<g>
				<defs>
					<rect id="SVGID_2_" x="0" width="1737.352" height="2871.479"/>
				</defs>
				<clipPath id="SVGID_3_">
					<use xlink:href="#SVGID_2_"  overflow="visible"/>
				</clipPath>
				<path clip-path="url(#SVGID_3_)" fill="#966C49" d="M1384.404,1728.471c0,7.947-6.441,14.393-14.391,14.394
					c-7.948,0-14.392-6.444-14.392-14.394s6.442-14.391,14.392-14.391S1384.404,1720.523,1384.404,1728.471"/>
			</g>
		</g>
	</g>
	<g>
		<g>
			<g>
				<defs>
					<rect id="SVGID_4_" x="0" width="1737.352" height="2871.479"/>
				</defs>
				<clipPath id="SVGID_5_">
					<use xlink:href="#SVGID_4_"  overflow="visible"/>
				</clipPath>
				<path clip-path="url(#SVGID_5_)" fill="#966C49" d="M152.768,1585.471c0,7.947-6.442,14.392-14.392,14.392
					s-14.393-6.442-14.393-14.392s6.442-14.391,14.393-14.391C146.324,1571.08,152.768,1577.521,152.768,1585.471"/>
			</g>
		</g>
	</g>
	<g>
		<g>
			<g>
				<defs>
					<rect id="SVGID_6_" x="0" width="1737.352" height="2871.479"/>
				</defs>
				<clipPath id="SVGID_7_">
					<use xlink:href="#SVGID_6_"  overflow="visible"/>
				</clipPath>
				<path clip-path="url(#SVGID_7_)" fill="#966C49" d="M620.21,2319.471c0,7.947-6.443,14.393-14.392,14.394
					c-7.948,0-14.392-6.444-14.392-14.394s6.441-14.391,14.392-14.391C613.768,2305.08,620.21,2311.523,620.21,2319.471"/>
			</g>
		</g>
	</g>
	<g>
		<g>
			<g>
				<defs>
					<rect id="SVGID_8_" x="0" width="1737.352" height="2871.479"/>
				</defs>
				<clipPath id="SVGID_9_">
					<use xlink:href="#SVGID_8_"  overflow="visible"/>
				</clipPath>
				<path clip-path="url(#SVGID_9_)" fill="#966C49" d="M1569.277,84.09c0,7.949-6.442,14.39-14.393,14.39
					c-7.946,0-14.392-6.442-14.392-14.39c0-7.948,6.444-14.39,14.392-14.39C1562.832,69.7,1569.277,76.142,1569.277,84.09"/>
			</g>
		</g>
	</g>
	<g>
		<g>
			<g>
				<defs>
					<rect id="SVGID_10_" x="0" width="1737.352" height="2871.479"/>
				</defs>
				<clipPath id="SVGID_11_">
					<use xlink:href="#SVGID_10_"  overflow="visible"/>
				</clipPath>
				<path clip-path="url(#SVGID_11_)" fill="#966C49" d="M1540.209,2580.406c0,7.947-6.442,14.391-14.392,14.391
					s-14.391-6.44-14.391-14.391s6.441-14.392,14.391-14.392C1533.767,2566.018,1540.209,2572.459,1540.209,2580.406"/>
			</g>
		</g>
	</g>
	<g>
		<g>
			<g>
				<defs>
					<rect id="SVGID_12_" x="0" width="1737.352" height="2871.479"/>
				</defs>
				<clipPath id="SVGID_13_">
					<use xlink:href="#SVGID_12_"  overflow="visible"/>
				</clipPath>
				<path clip-path="url(#SVGID_13_)" fill="#966C49" d="M0.001,2580.406c0-7.947,6.441-14.392,14.392-14.392
					c7.948,0,14.392,6.442,14.392,14.392s-6.442,14.391-14.392,14.391S0.001,2588.354,0.001,2580.406"/>
			</g>
		</g>
	</g>
	<g>
		<rect id="SVGID_1_" x="0" fill="none" width="1737.352" height="2871.479"/>
	</g>
</g>
<rect x="1296.404" y="2450.977" fill="#966C49" stroke="#FFFFFF" stroke-miterlimit="10" width="39.573" height="21.4"/>
<rect x="950.213" y="2018.49" fill="#966C49" stroke="#FFFFFF" stroke-miterlimit="10" width="39.573" height="21.397"/>
<rect x="553.713" y="1834.99" fill="#966C49" stroke="#FFFFFF" stroke-miterlimit="10" width="39.573" height="21.397"/>
<g>
	<g>
		<g>
			<path fill="#966C49" d="M604.114,2754.42c0,7.947-6.442,14.391-14.391,14.391c-7.949,0-14.394-6.44-14.394-14.391
				s6.443-14.391,14.394-14.391C597.67,2740.029,604.114,2746.473,604.114,2754.42"/>
		</g>
	</g>
</g>
<g>
	<g>
		<g>
			<path fill="#966C49" d="M1059.25,1552.1c0,7.949-6.441,14.393-14.392,14.394c-7.949,0-14.393-6.442-14.393-14.394
				c0-7.945,6.442-14.389,14.393-14.389S1059.25,1544.153,1059.25,1552.1"/>
		</g>
	</g>
</g>
<rect x="655.831" y="1256.699" fill="#966C49" stroke="#FFFFFF" stroke-miterlimit="10" width="39.572" height="21.396"/>
<rect x="902.115" y="148.411" fill="#966C49" stroke="#FFFFFF" stroke-miterlimit="10" width="39.574" height="21.399"/>
<rect x="1099.26" y="461.491" fill="#966C49" stroke="#FFFFFF" stroke-miterlimit="10" width="39.572" height="21.396"/>
<g>
	<g>
		<g>
			<path fill="#966C49" d="M941.184,770.881c0-7.948-6.442-14.39-14.391-14.39c-7.949,0-14.393,6.439-14.393,14.39
				s6.442,14.391,14.393,14.391C934.74,785.271,941.184,778.829,941.184,770.881"/>
		</g>
	</g>
	<g>
		<g>
			<path fill="#966C49" d="M1567.577,1185.881c0-7.948-6.441-14.39-14.393-14.39c-7.947,0-14.39,6.439-14.39,14.39
				s6.441,14.391,14.39,14.391C1561.136,1200.271,1567.577,1193.829,1567.577,1185.881"/>
		</g>
	</g>
	<g>
		<path fill="#966C49" d="M510.152,599.881c0-7.948-6.441-14.39-14.392-14.39c-7.947,0-14.393,6.44-14.393,14.39
			s6.443,14.391,14.393,14.391C503.706,614.271,510.152,607.829,510.152,599.881"/>
	</g>
</g>
</svg>
