<svg width="35" height="36" viewBox="0 0 35 36" fill="none" xmlns="http://www.w3.org/2000/svg">
<path d="M32.4802 25.7624C31.5026 24.7431 30.1829 24.157 28.7898 24.157H23.853C23.1932 24.157 22.6066 23.9022 22.1911 23.52H22.5089H23.4864C29.1809 23.52 33.7999 18.7039 33.7999 12.7665V10.8299C33.7999 4.91804 29.2053 0.101928 23.5353 0.0764463L11.2178 0C5.01011 0 0 5.24931 0 11.6963V29.3044C0 32.5406 2.51728 35.1653 5.62111 35.1653C8.72493 35.1653 11.2422 32.5406 11.2422 29.3299V24.157C11.4133 25.1763 11.7066 26.1956 12.0976 27.1639C12.7575 28.7183 13.6862 30.1198 14.8837 31.3175C16.0568 32.4897 17.4254 33.407 18.9407 34.0696C20.5048 34.7321 22.1667 35.0634 23.853 35.0634H28.7898C30.1829 35.0634 31.5026 34.4773 32.4802 33.458C33.4578 32.4387 34.0199 31.0627 34.0199 29.6102C34.0199 28.1577 33.4578 26.7817 32.4802 25.7624ZM21.7757 14.8306H21.7024H12.2931C11.4622 14.8306 10.8023 14.1171 10.8023 13.2762C10.8023 12.4098 11.4866 11.7218 12.2931 11.7218H21.7024H21.7757C22.5822 11.7472 23.2176 12.4353 23.2176 13.2762C23.2176 14.1171 22.5822 14.8051 21.7757 14.8306Z" fill="white"/>
</svg>
