<svg width="181" height="181" viewBox="0 0 181 181" fill="none" xmlns="http://www.w3.org/2000/svg">
<path d="M24.1447 90.2979C24.1447 127.065 53.9504 156.871 90.7175 156.871C127.485 156.871 157.29 127.065 157.29 90.2979C157.29 53.5307 127.485 23.7251 90.7175 23.7251C53.9504 23.7251 24.1447 53.5307 24.1447 90.2979Z" fill="#557F00"/>
<path d="M73.219 69.9983L87.504 69.5256L80.8829 62.9006L70.7809 63.2366C71.3591 65.635 72.1487 67.9827 73.219 69.9983Z" fill="white"/>
<path d="M80.621 50.7603C76.7499 50.0142 73.039 49.7837 70.6874 49.7251L80.3358 59.3735L80.621 50.7603Z" fill="white"/>
<path d="M78.844 60.8664L69.2346 51.2531C69.3244 53.6125 69.5861 57.3117 70.3284 61.1476L78.844 60.8664Z" fill="white"/>
<path d="M89.4689 53.7094C87.4337 52.6039 85.0939 51.7992 82.7111 51.2172L82.3713 61.4122L88.9924 68.0372L89.4689 53.7094Z" fill="white"/>
<path d="M75.6209 73.3893C80.2264 77.9948 87.4799 78.3112 92.2689 74.2917L89.5423 71.5651L74.4953 72.0651C74.8508 72.5377 75.2186 72.987 75.6209 73.3893Z" fill="white"/>
<path d="M96.566 64.9204C96.5309 61.6235 95.2144 58.5102 92.8551 56.1509C92.4489 55.7446 92.0036 55.3696 91.5309 55.0142L91.0309 70.0762L93.7575 72.8067C95.6013 70.6114 96.5972 67.854 96.566 64.9204Z" fill="white"/>
<path d="M104.93 66.6863C105.078 66.7371 106.938 67.3504 109.293 67.3504C111.504 67.3504 114.157 66.8074 116.219 64.741C120.481 60.4754 118.246 53.718 118.149 53.432C118.043 53.1234 117.801 52.8773 117.493 52.7757C117.207 52.682 110.465 50.4554 106.204 54.721C101.942 58.9866 104.176 65.744 104.274 66.03C104.379 66.3386 104.621 66.5808 104.93 66.6863Z" fill="white"/>
<path d="M103.035 94.6823H106.285L119.637 81.3273C120.047 80.9171 120.715 80.9171 121.125 81.3273C121.535 81.7375 121.535 82.4054 121.125 82.8156L109.262 94.6826H119.282C121.177 94.6826 122.837 93.6162 123.513 91.9638C123.833 91.1747 123.896 90.3779 123.696 89.5224C123.622 89.2099 123.696 88.8818 123.896 88.6279C124.095 88.3779 124.399 88.2294 124.72 88.2294H125.829C128.157 88.2294 130.157 86.4442 130.282 84.2489C130.353 83.0106 129.876 81.8075 128.978 80.9481C128.571 80.5575 128.54 79.9169 128.911 79.495C130.368 77.827 130.286 75.2958 128.72 73.7294C127.153 72.163 124.622 72.081 122.958 73.538C122.536 73.9091 121.896 73.8818 121.505 73.4716C120.649 72.5732 119.439 72.1044 118.204 72.1669C116.009 72.2919 114.224 74.288 114.224 76.62V77.7333C114.224 78.0536 114.075 78.3583 113.825 78.5575C113.575 78.7568 113.243 78.831 112.931 78.7568C112.075 78.5575 111.278 78.6161 110.489 78.9403C108.845 79.6122 107.743 81.3505 107.743 83.2606V84.2138C107.743 84.5341 107.595 84.8388 107.345 85.038C107.095 85.2372 106.763 85.3114 106.45 85.2372C105.442 85.0028 104.489 85.1317 103.63 85.5497C101.888 86.4052 101.06 88.5575 101.704 90.5614L103.035 94.6823Z" fill="white"/>
<path d="M74.3749 94.6823H82.5937L57.6877 66.0413C56.9143 65.1468 55.8361 64.6351 54.6525 64.5921C53.4767 64.5453 52.3595 64.9867 51.5236 65.8265C49.8791 67.471 49.8791 70.1468 51.5236 71.7913L74.3749 94.6823Z" fill="white"/>
<path d="M67.8051 129.725H112.766C123.457 122.245 129.938 110.018 130.266 96.7874H50.3051C50.6332 110.017 57.1137 122.244 67.8051 129.725Z" fill="white"/>
</svg>
