<?xml version="1.0" encoding="utf-8"?>
<!-- Generator: Adobe Illustrator 16.0.0, SVG Export Plug-In . SVG Version: 6.00 Build 0)  -->
<!DOCTYPE svg PUBLIC "-//W3C//DTD SVG 1.1//EN" "http://www.w3.org/Graphics/SVG/1.1/DTD/svg11.dtd">
<svg version="1.1" id="Layer_1" xmlns="http://www.w3.org/2000/svg" xmlns:xlink="http://www.w3.org/1999/xlink" x="0px" y="0px"
	 width="427.041px" height="427.043px" viewBox="0 0 427.041 427.043" enable-background="new 0 0 427.041 427.043"
	 xml:space="preserve">
<g>
	<path fill="#FFFFFF" d="M421.833,394.551L289.139,261.857c23.062-29.276,34.657-64.635,34.657-100.025
		c0-41.401-15.828-82.827-47.42-114.413C244.797,15.84,203.395,0,162.005,0C120.55-0.006,79.053,15.781,47.42,47.42
		C15.811,79.023,0,120.473,0,161.898c0,41.42,15.811,82.869,47.42,114.479c31.585,31.592,73.011,47.42,114.419,47.42
		c34.931,0,69.825-11.334,98.888-33.812l1.131-0.852l4.911,4.911l127.782,127.784c3.471,3.471,8.049,5.221,12.597,5.215
		c4.554,0.006,9.132-1.744,12.602-5.221l2.072-2.073c3.476-3.47,5.227-8.054,5.22-12.602
		C427.054,402.6,425.304,398.022,421.833,394.551z M255.107,255.101c-25.728,25.734-59.479,38.616-93.209,38.61
		c-33.729,0.006-67.475-12.876-93.209-38.61c-25.733-25.728-38.609-59.48-38.609-93.209s12.876-67.475,38.609-93.209
		c25.734-25.734,59.487-38.61,93.209-38.61c33.729,0,67.476,12.876,93.209,38.61c25.734,25.734,38.616,59.486,38.61,93.209
		C293.729,195.621,280.847,229.373,255.107,255.101z"/>
</g>
</svg>
