<svg width="181" height="181" viewBox="0 0 181 181" fill="none" xmlns="http://www.w3.org/2000/svg">
<path d="M24.4058 90.2979C24.4058 127.065 54.2114 156.871 90.9785 156.871C127.746 156.871 157.551 127.065 157.551 90.2979C157.551 53.5307 127.746 23.7251 90.9785 23.7251C54.2114 23.7251 24.4058 53.5307 24.4058 90.2979Z" fill="#00A5D1"/>
<path d="M157.551 90.2979C157.551 127.065 127.746 156.871 90.9785 156.871C54.2114 156.871 24.4058 127.065 24.4058 90.2979C24.4058 53.5307 54.2114 23.7251 90.9785 23.7251C127.746 23.7251 157.551 53.5307 157.551 90.2979Z" fill="#B40000"/>
<path d="M66.6625 110.78C64.8574 113.39 60.6628 119.847 60.6628 123.37C60.6628 125.562 61.5339 127.665 63.0844 129.216C64.6349 130.766 66.7379 131.638 68.9307 131.638C71.1235 131.638 73.2265 130.766 74.777 129.216C76.3276 127.665 77.1986 125.562 77.1986 123.37C77.1986 119.847 73.004 113.39 71.1989 110.78C70.9317 110.433 70.5882 110.151 70.1949 109.957C69.8017 109.764 69.3691 109.663 68.9307 109.663C68.4923 109.663 68.0597 109.764 67.6665 109.957C67.2732 110.151 66.9297 110.433 66.6625 110.78Z" fill="white"/>
<path d="M88.7104 110.78C86.9052 113.39 82.7106 119.847 82.7106 123.37C82.7106 125.562 83.5817 127.665 85.1322 129.216C86.6827 130.766 88.7857 131.638 90.9785 131.638C93.1713 131.638 95.2743 130.766 96.8248 129.216C98.3754 127.665 99.2465 125.562 99.2465 123.37C99.2465 119.847 95.0519 113.39 93.2467 110.78C92.9795 110.433 92.636 110.151 92.2428 109.957C91.8495 109.764 91.4169 109.663 90.9785 109.663C90.5401 109.663 90.1076 109.764 89.7143 109.957C89.321 110.151 88.9775 110.433 88.7104 110.78Z" fill="white"/>
<path d="M115.295 110.78C115.027 110.433 114.684 110.151 114.291 109.957C113.897 109.764 113.465 109.663 113.026 109.663C112.588 109.663 112.155 109.764 111.762 109.957C111.369 110.151 111.025 110.433 110.758 110.78C108.953 113.39 104.758 119.847 104.758 123.37C104.758 125.562 105.629 127.665 107.18 129.216C108.731 130.766 110.834 131.638 113.026 131.638C115.219 131.638 117.322 130.766 118.873 129.216C120.423 127.665 121.294 125.562 121.294 123.37C121.294 119.847 117.1 113.39 115.295 110.78Z" fill="white"/>
<path d="M118.475 65.4941C117.202 63.7871 115.548 62.4002 113.646 61.4435C111.743 60.4867 109.644 59.9864 107.514 59.9821H102.002C102.002 57.0584 100.841 54.2544 98.7735 52.187C96.7062 50.1196 93.9022 48.9582 90.9785 48.9582C88.0547 48.9582 85.2508 50.1196 83.1834 52.187C81.116 54.2544 79.9546 57.0584 79.9546 59.9821H74.4426C72.3131 59.9864 70.2138 60.4867 68.3113 61.4435C66.4088 62.4002 64.7553 63.7871 63.4821 65.4941H118.475ZM90.9785 54.4701C92.439 54.4745 93.8384 55.0566 94.8712 56.0894C95.9039 57.1221 96.4861 58.5216 96.4904 59.9821H85.4665C85.4709 58.5216 86.053 57.1221 87.0857 56.0894C88.1185 55.0566 89.5179 54.4745 90.9785 54.4701Z" fill="white"/>
<path d="M124.05 68.25H57.9068C57.1759 68.25 56.4749 68.5404 55.958 69.0572C55.4412 69.5741 55.1508 70.2751 55.1508 71.006C55.1508 71.7369 55.4412 72.4379 55.958 72.9548C56.4749 73.4716 57.1759 73.762 57.9068 73.762H60.6628V90.2979C60.6628 93.9525 62.1146 97.4575 64.6988 100.042C67.283 102.626 70.788 104.078 74.4427 104.078H107.514C111.169 104.078 114.674 102.626 117.258 100.042C119.842 97.4575 121.294 93.9525 121.294 90.2979V73.762H124.05C124.781 73.762 125.482 73.4716 125.999 72.9548C126.516 72.4379 126.806 71.7369 126.806 71.006C126.806 70.2751 126.516 69.5741 125.999 69.0572C125.482 68.5404 124.781 68.25 124.05 68.25Z" fill="white"/>
</svg>
