<svg width="19" height="19" viewBox="0 0 19 19" fill="none" xmlns="http://www.w3.org/2000/svg">
<path d="M17.771 16.2128L13.6905 12.1322C14.6729 10.8244 15.2032 9.23252 15.2014 7.59681C15.2014 3.41873 11.8022 0.0195312 7.62416 0.0195312C3.44607 0.0195312 0.046875 3.41873 0.046875 7.59681C0.046875 11.7749 3.44607 15.1741 7.62416 15.1741C9.25986 15.1759 10.8518 14.6455 12.1596 13.6631L16.2401 17.7437C16.4467 17.9283 16.7161 18.0269 16.993 18.0191C17.2699 18.0114 17.5334 17.8979 17.7293 17.702C17.9252 17.5061 18.0387 17.2426 18.0464 16.9657C18.0542 16.6887 17.9556 16.4193 17.771 16.2128ZM2.21181 7.59681C2.21181 6.52635 2.52924 5.47993 3.12396 4.58987C3.71867 3.69982 4.56396 3.00611 5.55294 2.59646C6.54192 2.18681 7.63016 2.07963 8.68005 2.28847C9.72994 2.4973 10.6943 3.01278 11.4513 3.76971C12.2082 4.52664 12.7237 5.49102 12.9325 6.54092C13.1413 7.59081 13.0342 8.67905 12.6245 9.66802C12.2149 10.657 11.5211 11.5023 10.6311 12.097C9.74104 12.6917 8.69462 13.0092 7.62416 13.0092C6.18924 13.0074 4.81359 12.4367 3.79895 11.422C2.78431 10.4074 2.21353 9.03172 2.21181 7.59681Z" fill="#D3D3D3"/>
</svg>
