<svg width="77" height="71" viewBox="0 0 77 71" fill="none" xmlns="http://www.w3.org/2000/svg">
<rect width="77" height="71" fill="#0A3A5E"/>
<g clip-path="url(#clip0_2942_10107)">
<path d="M22.0589 42.2302V44.4852C21.8887 44.7056 21.7185 44.926 21.5993 45.1803V45.1973C21.5483 45.282 21.5142 45.3668 21.4802 45.4516C21.4802 45.4516 21.4802 45.4346 21.4632 45.4346C21.293 45.0616 21.0717 44.7395 20.8164 44.4343V42.2133C20.8164 41.8742 21.0887 41.5859 21.4461 41.5859C21.7865 41.6029 22.0589 41.8911 22.0589 42.2302Z" fill="white"/>
<path d="M28.4946 51.8596C28.2223 53.4703 27.4394 54.691 26.265 55.3014C25.3119 55.81 24.1886 55.8779 22.9972 55.5218L24.4609 54.8097C24.7673 54.6571 24.9034 54.2841 24.7503 53.9789C24.5971 53.6738 24.2226 53.5381 23.9163 53.6907L22.3164 54.4706C22.6738 53.216 23.3887 52.2665 24.3758 51.7579C25.5332 51.1475 26.9799 51.1814 28.4946 51.8596Z" fill="white"/>
<path d="M22.0591 48.0469V48.4538C21.957 48.4199 21.8719 48.386 21.7698 48.3351C21.6847 48.3012 21.5826 48.2503 21.4805 48.2164H21.5996C21.6166 48.2164 21.6507 48.2164 21.6677 48.1995C21.7017 48.1995 21.7528 48.1825 21.7698 48.1656L22.0591 48.0469Z" fill="white"/>
<path d="M22.06 44.4863V46.6904L21.8898 46.7582C21.8557 46.5887 21.8047 46.4192 21.7536 46.2496C21.7026 46.0801 21.6345 45.9105 21.5834 45.741C21.5324 45.6392 21.4983 45.5375 21.4473 45.4358V45.4188C21.4983 45.3341 21.5324 45.2493 21.5834 45.1815V45.1645C21.7366 44.9441 21.8898 44.7067 22.06 44.4863Z" fill="white"/>
<path d="M27.2003 44.5368C26.962 45.7915 26.3493 46.7409 25.4302 47.2326C24.8005 47.5548 24.0856 47.6565 23.3027 47.5209L23.9154 47.2665C24.2388 47.1309 24.375 46.7579 24.2388 46.4527C24.1027 46.1306 23.7452 45.9949 23.4219 46.1306L22.3496 46.5884C22.656 45.6389 23.2006 44.9098 23.9665 44.5029C24.8856 44.0113 26.0259 44.0282 27.2003 44.5368Z" fill="white"/>
<path d="M21.6688 48.0972C21.6007 48.1311 21.5156 48.165 21.4475 48.199H21.4305C21.2263 48.3007 21.022 48.3855 20.8008 48.4533V48.0803C20.8348 48.0803 20.8859 48.0972 20.9199 48.0972C20.988 48.0972 21.0561 48.0803 21.1242 48.0633H21.1412C21.1582 48.0633 21.1752 48.0464 21.1752 48.0464C21.3114 47.9785 21.4305 47.8768 21.4816 47.7242C21.6007 47.4869 21.5156 47.1817 21.3114 47.0121L21.2944 46.9952L21.873 46.7578V46.7748C21.9241 46.9952 21.9581 47.2156 21.9922 47.4529C22.0262 47.7242 21.9071 47.9785 21.6688 48.0972Z" fill="white"/>
<path d="M21.8928 46.7743L21.3312 47.0116C21.2972 46.9947 21.2631 46.9608 21.2291 46.9438C21.2121 46.9438 21.195 46.9268 21.178 46.9268L21.0078 46.859C21.1099 46.3504 21.2631 45.8926 21.4673 45.4688C21.5184 45.5535 21.5524 45.6552 21.6035 45.757C21.6716 45.9265 21.7226 46.0791 21.7737 46.2656C21.8077 46.4182 21.8588 46.5878 21.8928 46.7743Z" fill="white"/>
<path d="M21.4475 45.4704C21.2433 45.8943 21.0901 46.352 20.988 46.8607L20.8008 46.7759V44.4531C21.0561 44.7414 21.2773 45.0974 21.4475 45.4704Z" fill="white"/>
<path d="M18.5552 47.1476L19.4573 47.5375C18.7424 47.6393 18.0616 47.5375 17.483 47.2154C16.5639 46.7237 15.9512 45.7912 15.7129 44.5196C16.8873 44.011 18.0276 43.994 18.9467 44.4688C19.7296 44.8926 20.3083 45.6386 20.5976 46.6559L19.0488 45.9947C18.7254 45.859 18.368 46.0116 18.2318 46.3168C18.0787 46.6559 18.2318 47.012 18.5552 47.1476Z" fill="white"/>
<path d="M21.7879 52.5729L21.7709 52.5899C21.6348 52.8272 21.5156 53.0646 21.3965 53.3189C21.2093 53.7428 21.0561 54.2175 20.954 54.7092L20.8008 54.6414V59.7447H22.0432V52.166L21.7879 52.5729ZM21.4135 56.2521C21.3795 56.2351 21.3454 56.2182 21.3284 56.2012H21.5156L21.4135 56.2521Z" fill="white"/>
<path d="M21.4983 56.2012C21.4643 56.2181 21.4302 56.2351 21.4132 56.252C21.3792 56.2351 21.3451 56.2181 21.3281 56.2012H21.4983Z" fill="white"/>
<path d="M21.3965 53.3207C21.2093 53.7446 21.0561 54.2193 20.954 54.711L20.8008 54.6432V52.2695C20.9199 52.4391 21.022 52.6086 21.1242 52.7782C21.1412 52.7951 21.1412 52.8121 21.1582 52.829C21.2433 52.9816 21.3284 53.1512 21.3965 53.3207Z" fill="white"/>
<path d="M18.3501 54.8281L19.8138 55.5402C18.6224 55.8963 17.4821 55.8115 16.546 55.3198C15.3716 54.6925 14.5887 53.4887 14.3164 51.8611C15.8142 51.1829 17.2779 51.149 18.4352 51.7763C19.4224 52.3019 20.1372 53.2514 20.4946 54.506L18.8948 53.7261C18.5884 53.5735 18.214 53.7091 18.0608 54.0143C17.9076 54.3195 18.0438 54.6755 18.3501 54.8281Z" fill="white"/>
<path d="M22.0603 48.4535V52.1666L22.0432 52.1835C21.9581 52.3022 21.873 52.4379 21.7879 52.5735L21.7709 52.5905C21.6348 52.8109 21.5156 53.0482 21.3965 53.3195C21.3284 53.15 21.2433 52.9804 21.1582 52.8278C21.1582 52.8109 21.1412 52.7939 21.1242 52.777C21.022 52.5905 20.9199 52.4209 20.8008 52.2514V48.4535C21.005 48.3857 21.2093 48.284 21.4305 48.1992H21.4816C21.4986 48.1992 21.4986 48.2162 21.5156 48.2162C21.6007 48.267 21.6858 48.3009 21.7709 48.3349C21.873 48.3857 21.9581 48.4196 22.0603 48.4535Z" fill="white"/>
<path d="M22.0605 46.6895V48.0458L21.7882 48.1645C21.7372 48.1815 21.7031 48.1984 21.6691 48.1984C21.6521 48.1984 21.635 48.1984 21.601 48.2154H21.4989C21.4875 48.2154 21.4762 48.2097 21.4648 48.1984C21.5329 48.1645 21.618 48.1306 21.6861 48.0967C21.9074 47.978 22.0435 47.7237 22.0095 47.4694C21.9754 47.232 21.9414 46.9946 21.8903 46.7742L22.0605 46.6895Z" fill="white"/>
<path d="M21.4828 48.2149H21.4297H21.4474C21.4651 48.1972 21.4828 48.2149 21.4828 48.2149Z" fill="white"/>
<path d="M21.498 47.7408C21.4299 47.8934 21.3278 47.9951 21.1917 48.0629C21.0725 47.9781 20.9704 47.8594 20.9364 47.7238C20.8853 47.4356 21.0215 47.1474 21.2938 47.0287L21.3278 47.0117C21.5321 47.1813 21.6172 47.4695 21.498 47.7408Z" fill="white"/>
<path d="M21.1412 48.0803C21.0731 48.1142 21.005 48.1142 20.9199 48.1142C20.8859 48.1142 20.8348 48.1142 20.8008 48.0972V46.7578L20.988 46.8426V46.8595C20.954 47.063 20.9199 47.2495 20.8859 47.4529C20.8689 47.5377 20.8859 47.6225 20.9029 47.6903C20.9029 47.7412 20.9199 47.7751 20.9369 47.809C21.005 47.9446 21.0561 47.9955 21.1412 48.0803Z" fill="white"/>
<path d="M21.1928 48.0637C21.1758 48.0637 21.1588 48.0807 21.1588 48.0807C21.0907 48.0128 21.0226 47.945 20.9715 47.8433C20.9545 47.8094 20.9375 47.7585 20.9375 47.7246C20.9715 47.8602 21.0566 47.9789 21.1928 48.0637Z" fill="white"/>
<path d="M21.3296 47.0106L21.2955 47.0276C21.0232 47.1463 20.8701 47.4345 20.9381 47.7227C20.9211 47.638 20.9041 47.5532 20.9211 47.4854C20.9381 47.265 20.9722 47.0615 21.0232 46.875L21.1934 46.9428C21.2275 46.9428 21.2785 46.9767 21.3296 47.0106Z" fill="white"/>
<path d="M38.7743 41.6035C38.4339 41.6035 38.1445 41.8748 38.1445 42.2308V59.7449H39.387V42.2308C39.404 41.8917 39.1317 41.6035 38.7743 41.6035Z" fill="white"/>
<path d="M45.8384 51.8616C45.5661 53.4723 44.7831 54.693 43.6088 55.3034C42.6727 55.812 41.5323 55.8798 40.341 55.5238L41.8047 54.8117C42.111 54.6591 42.2472 54.2861 42.094 53.9809C41.9408 53.6757 41.5664 53.5401 41.26 53.6927L39.6602 54.4726C40.0176 53.2179 40.7324 52.2685 41.7196 51.7599C42.8769 51.1495 44.3406 51.1834 45.8384 51.8616Z" fill="white"/>
<path d="M44.544 44.5368C44.3058 45.7915 43.693 46.7409 42.774 47.2326C42.1442 47.5548 41.4294 47.6565 40.6465 47.5209L41.2592 47.2665C41.5826 47.1309 41.7187 46.7579 41.5826 46.4527C41.4464 46.1306 41.089 45.9949 40.7656 46.1306L39.6934 46.5884C39.9997 45.6389 40.5444 44.9098 41.3103 44.5029C42.2293 44.0113 43.3697 44.0282 44.544 44.5368Z" fill="white"/>
<path d="M35.897 47.1476L36.7991 47.5375C36.0842 47.6393 35.4034 47.5375 34.8248 47.2154C33.9057 46.7237 33.293 45.7912 33.0547 44.5196C34.2291 44.011 35.3694 43.994 36.2885 44.4688C37.0714 44.8926 37.6501 45.6386 37.9394 46.6559L36.3906 45.9947C36.0672 45.859 35.7098 46.0116 35.5736 46.3168C35.4375 46.6559 35.5736 47.012 35.897 47.1476Z" fill="white"/>
<path d="M35.6939 54.8281L37.1576 55.5402C35.9662 55.8963 34.8259 55.8115 33.8898 55.3198C32.7154 54.6925 31.9325 53.4887 31.6602 51.8611C33.1579 51.1829 34.6216 51.149 35.779 51.7763C36.7661 52.3019 37.481 53.2514 37.8384 54.506L36.2385 53.7261C35.9322 53.5735 35.5577 53.7091 35.4045 54.0143C35.2684 54.3195 35.3875 54.6755 35.6939 54.8281Z" fill="white"/>
<path d="M63.1821 51.8596C62.9098 53.4703 62.1269 54.691 60.9525 55.3014C59.9994 55.81 58.8761 55.8779 57.6847 55.5218L59.1484 54.8097C59.4548 54.6571 59.5909 54.2841 59.4378 53.9789C59.2846 53.6738 58.9101 53.5381 58.6038 53.6907L57.0039 54.4706C57.3613 53.216 58.0762 52.2665 59.0633 51.7579C60.2207 51.1475 61.6844 51.1814 63.1821 51.8596Z" fill="white"/>
<path d="M61.8878 44.5368C61.6495 45.7915 61.0368 46.7409 60.1177 47.2326C59.488 47.5548 58.7731 47.6565 57.9902 47.5209L58.6029 47.2665C58.9263 47.1309 59.0625 46.7579 58.9263 46.4527C58.7902 46.1306 58.4327 45.9949 58.1094 46.1306L57.0371 46.5884C57.3435 45.6389 57.8881 44.9098 58.654 44.5029C59.5901 44.0113 60.7134 44.0282 61.8878 44.5368Z" fill="white"/>
<path d="M53.2408 47.1476L54.1428 47.5375C53.428 47.6393 52.7472 47.5375 52.1685 47.2154C51.2494 46.7237 50.6367 45.7912 50.3984 44.5196C51.5728 44.011 52.7131 43.994 53.6322 44.4688C54.4151 44.8926 54.9938 45.6386 55.2832 46.6559L53.7343 45.9947C53.411 45.859 53.0535 46.0116 52.9174 46.3168C52.7812 46.6559 52.9174 47.012 53.2408 47.1476Z" fill="white"/>
<path d="M53.0376 54.8281L54.5013 55.5402C53.3099 55.8963 52.1696 55.8115 51.2335 55.3198C50.0591 54.6925 49.2762 53.4887 49.0039 51.8611C50.5017 51.1829 51.9654 51.149 53.1227 51.7763C54.1099 52.3019 54.8247 53.2514 55.1821 54.506L53.5823 53.7261C53.2759 53.5735 52.9015 53.7091 52.7483 54.0143C52.6121 54.3195 52.7313 54.6755 53.0376 54.8281Z" fill="white"/>
<path d="M56.7464 42.2308V59.7449H55.5039V42.2308C55.5039 41.8917 55.7762 41.6035 56.1336 41.6035C56.4911 41.6035 56.7464 41.8917 56.7464 42.2308Z" fill="white"/>
<path d="M65 60.3715C65 60.7105 64.7277 60.9988 64.3703 60.9988H12.6297C12.2893 60.9988 12 60.7275 12 60.3715C12 60.0154 12.2723 59.7441 12.6297 59.7441H20.8163V60.3545C20.8163 60.6766 21.0546 60.9479 21.378 60.9818H21.4971C21.8205 60.9649 22.0758 60.6936 22.0758 60.3545V59.7441H38.1596V60.3545C38.1596 60.6766 38.3979 60.9479 38.7213 60.9818H38.8404C39.1638 60.9649 39.4191 60.6936 39.4191 60.3545V59.7441H55.5199V60.3545C55.5199 60.6936 55.7752 60.9818 56.1326 60.9818H56.1496C56.49 60.9818 56.7794 60.7105 56.7794 60.3545V59.7441H64.3703C64.7107 59.7441 65 60.0324 65 60.3715Z" fill="white"/>
<path d="M22.0583 59.7461V60.3565C22.0583 60.6786 21.82 60.9499 21.4966 60.9838H21.3775C21.0541 60.9668 20.7988 60.6955 20.7988 60.3565V59.7461H22.0583Z" fill="white"/>
<path d="M39.4021 59.7461V60.3565C39.4021 60.6786 39.1638 60.9499 38.8404 60.9838H38.7213C38.3979 60.9668 38.1426 60.6955 38.1426 60.3565V59.7461H39.4021Z" fill="white"/>
<path d="M56.7458 59.7461V60.3565C56.7458 60.6955 56.4905 60.9838 56.1331 60.9838H56.1161C55.7757 60.9838 55.4863 60.7125 55.4863 60.3565V59.7461H56.7458Z" fill="white"/>
<path d="M23.2165 14.9856V15.3586H19.5742V14.9856C19.5742 14.5617 19.9146 14.2227 20.3401 14.2227H22.4336C22.8761 14.2227 23.2165 14.5617 23.2165 14.9856Z" fill="white"/>
<path d="M23.217 16.5977V17.6488C23.217 18.0727 22.8766 18.4118 22.4511 18.4118H20.3577C19.9322 18.4118 19.5918 18.0727 19.5918 17.6488V16.5977H23.217Z" fill="white"/>
<path d="M21.9746 8.62732V11.5944H18.6727C18.3323 11.5944 18.043 11.3231 18.043 10.9671C18.043 10.611 18.3153 10.3397 18.6727 10.3397H20.7321V8.62732C20.7321 8.28823 21.0044 8 21.3619 8C21.7022 8.01695 21.9746 8.28823 21.9746 8.62732Z" fill="white"/>
<path d="M24.6638 10.9665C24.6638 11.3056 24.3914 11.5939 24.034 11.5939H21.9746V10.3562H24.034C24.3914 10.3392 24.6638 10.6275 24.6638 10.9665Z" fill="white"/>
<path d="M21.9749 11.5938H20.7324V12.984H21.9749V11.5938Z" fill="white"/>
<path d="M57.9196 14.9856V15.3586H54.2773V14.9856C54.2773 14.5617 54.6177 14.2227 55.0432 14.2227H57.1367C57.5622 14.2227 57.9196 14.5617 57.9196 14.9856Z" fill="white"/>
<path d="M57.9202 16.5977V17.6488C57.9202 18.0727 57.5798 18.4118 57.1543 18.4118H55.0608C54.6353 18.4118 54.2949 18.0727 54.2949 17.6488V16.5977H57.9202Z" fill="white"/>
<path d="M59.4528 10.9672C59.4528 11.3063 59.1805 11.5945 58.823 11.5945H53.4618C53.1214 11.5945 52.832 11.3232 52.832 10.9672C52.832 10.6111 53.1044 10.3398 53.4618 10.3398H58.823C59.1634 10.3398 59.4528 10.6281 59.4528 10.9672Z" fill="white"/>
<path d="M56.7639 8.62732V10.3397H55.5215V8.62732C55.5215 8.28823 55.7938 8 56.1512 8C56.4916 8.01695 56.7639 8.28823 56.7639 8.62732Z" fill="white"/>
<path d="M56.7639 11.5938H55.5215V12.984H56.7639V11.5938Z" fill="white"/>
<path d="M45.7167 12.6801H32.2539C32.5092 12.0697 33.1049 11.6289 33.8027 11.6289H44.1508C44.8657 11.6289 45.4784 12.0697 45.7167 12.6801Z" fill="white"/>
<path d="M42.0912 23.5312L42.0231 24.1755C41.989 24.5316 41.6316 24.8028 41.2232 24.8028H36.2704C35.8619 24.8028 35.5215 24.5316 35.4704 24.1755L35.4023 23.5312H42.0912Z" fill="white"/>
<path d="M45.8358 13.9336H32.1348V15.3578H45.8358V13.9336Z" fill="white"/>
<path d="M42.8409 16.5957L42.2282 22.2924H35.267L34.6543 16.5957H42.8409Z" fill="white"/>
<path d="M39.8953 26.0566H37.5977V26.8196H39.8953V26.0566Z" fill="white"/>
<path d="M37.3775 29.9717L32.5949 34.9393C32.4757 35.058 32.3055 35.1258 32.1524 35.1258C31.9992 35.1258 31.846 35.075 31.7269 34.9563C31.4716 34.7189 31.4716 34.329 31.7098 34.0747L36.4924 29.107C36.7137 28.8527 37.1222 28.8527 37.3604 29.09C37.6157 29.3274 37.6157 29.7173 37.3775 29.9717Z" fill="white"/>
<path d="M39.3688 29.5336V36.4002C39.3688 36.7393 39.0965 37.0275 38.7391 37.0275C38.3817 37.0275 38.1094 36.7562 38.1094 36.4002V29.5336C38.1094 29.1945 38.3817 28.9062 38.7391 28.9062C39.0965 28.9232 39.3688 29.1945 39.3688 29.5336Z" fill="white"/>
<path d="M45.7511 34.9407C45.6319 35.0594 45.4788 35.1102 45.3256 35.1102C45.1554 35.1102 45.0022 35.0424 44.8831 34.9237L40.1005 29.956C39.8622 29.7017 39.8622 29.3118 40.1175 29.0744C40.3728 28.837 40.7642 28.837 41.0025 29.0914L45.8021 34.059C46.0064 34.3134 45.9894 34.7033 45.7511 34.9407Z" fill="white"/>
<path d="M21.2076 33.498C20.6289 33.498 20.1523 33.9728 20.1523 34.5492C20.1523 35.1257 20.6289 35.6004 21.2076 35.6004C21.7863 35.6004 22.2628 35.1257 22.2628 34.5492C22.2628 33.9728 21.7863 33.498 21.2076 33.498ZM21.2076 34.7357C21.1055 34.7357 21.0204 34.651 21.0204 34.5492C21.0204 34.4475 21.1055 34.3627 21.2076 34.3627C21.3097 34.3627 21.3948 34.4475 21.3948 34.5492C21.3948 34.651 21.3097 34.7357 21.2076 34.7357Z" fill="white"/>
<path d="M21.3959 34.5498C21.3959 34.6515 21.3108 34.7363 21.2087 34.7363C21.1066 34.7363 21.0215 34.6515 21.0215 34.5498C21.0215 34.4481 21.1066 34.3633 21.2087 34.3633C21.3108 34.3633 21.3959 34.4481 21.3959 34.5498Z" fill="white"/>
<path d="M25.0275 31.0862C25.5653 30.8641 26.1831 31.1184 26.4061 31.6558C26.629 32.1933 26.3738 32.807 25.8342 33.0292C25.2964 33.2513 24.6786 32.9969 24.4556 32.4595C24.2326 31.9237 24.4879 31.3083 25.0275 31.0862Z" fill="white"/>
<path d="M29.5474 30.6336C30.1302 30.6336 30.6027 30.163 30.6027 29.5824C30.6027 29.0019 30.1302 28.5312 29.5474 28.5312C28.9646 28.5312 28.4922 29.0019 28.4922 29.5824C28.4922 30.163 28.9646 30.6336 29.5474 30.6336Z" fill="white"/>
<path d="M31.0633 36.9074C30.9782 37.4839 30.4336 37.8738 29.8549 37.7721C29.2762 37.6704 28.8848 37.1448 28.9869 36.5683C29.089 35.9919 29.6166 35.6019 30.1953 35.7036C30.774 35.8054 31.1655 36.3479 31.0633 36.9074Z" fill="white"/>
<path d="M38.6529 37.8906C38.0742 37.8906 37.5977 38.3654 37.5977 38.9418C37.5977 39.5183 38.0742 39.993 38.6529 39.993C39.2316 39.993 39.7081 39.5183 39.7081 38.9418C39.7081 38.3654 39.2316 37.8906 38.6529 37.8906ZM38.6529 39.1283C38.5508 39.1283 38.4657 39.0435 38.4657 38.9418C38.4657 38.8401 38.5508 38.7553 38.6529 38.7553C38.755 38.7553 38.8401 38.8401 38.8401 38.9418C38.8401 39.0435 38.755 39.1283 38.6529 39.1283Z" fill="white"/>
<path d="M38.8412 38.9424C38.8412 39.0441 38.7561 39.1289 38.654 39.1289C38.5519 39.1289 38.4668 39.0441 38.4668 38.9424C38.4668 38.8406 38.5519 38.7559 38.654 38.7559C38.7561 38.7559 38.8412 38.8406 38.8412 38.9424Z" fill="white"/>
<path d="M47.3677 37.7899C47.9505 37.7899 48.423 37.3192 48.423 36.7387C48.423 36.1581 47.9505 35.6875 47.3677 35.6875C46.7849 35.6875 46.3125 36.1581 46.3125 36.7387C46.3125 37.3192 46.7849 37.7899 47.3677 37.7899Z" fill="white"/>
<path d="M49.2221 30.2617C48.6775 30.4821 48.0647 30.2278 47.8435 29.6852C47.6222 29.1427 47.8775 28.5323 48.4051 28.3119C48.9498 28.0915 49.5625 28.3458 49.7838 28.8714C50.005 29.4309 49.7497 30.0413 49.2221 30.2617Z" fill="white"/>
<path d="M52.3541 30.7363C51.7754 30.7363 51.2988 31.2111 51.2988 31.7875C51.2988 32.364 51.7754 32.8387 52.3541 32.8387C52.9327 32.8387 53.4093 32.364 53.4093 31.7875C53.4093 31.2111 52.9327 30.7363 52.3541 30.7363ZM52.3541 31.974C52.2519 31.974 52.1668 31.8892 52.1668 31.7875C52.1668 31.6858 52.2519 31.601 52.3541 31.601C52.4392 31.601 52.5243 31.6688 52.5413 31.7536V31.7875C52.5413 31.8892 52.4562 31.974 52.3541 31.974Z" fill="white"/>
<path d="M52.5405 31.7863C52.5405 31.888 52.4554 31.9728 52.3532 31.9728C52.2511 31.9728 52.166 31.888 52.166 31.7863C52.166 31.6846 52.2511 31.5998 52.3532 31.5998C52.4554 31.5829 52.5405 31.6676 52.5405 31.7863Z" fill="white"/>
<path d="M56.3873 33.5C55.8086 33.5 55.332 33.9747 55.332 34.5512C55.332 35.1276 55.8086 35.6024 56.3873 35.6024C56.9659 35.6024 57.4425 35.1276 57.4425 34.5512C57.4425 33.9747 56.9659 33.5 56.3873 33.5ZM56.3873 34.7377C56.2851 34.7377 56.2 34.6529 56.2 34.5512C56.2 34.4495 56.2851 34.3647 56.3873 34.3647C56.4894 34.3647 56.5745 34.4495 56.5745 34.5512C56.5745 34.6529 56.4894 34.7377 56.3873 34.7377Z" fill="white"/>
<path d="M56.5737 34.5498C56.5737 34.6515 56.4886 34.7363 56.3864 34.7363C56.2843 34.7363 56.1992 34.6515 56.1992 34.5498C56.1992 34.4481 56.2843 34.3633 56.3864 34.3633C56.4886 34.3633 56.5737 34.4481 56.5737 34.5498Z" fill="white"/>
</g>
<defs>
<clipPath id="clip0_2942_10107">
<rect width="53" height="53" fill="white" transform="translate(12 8)"/>
</clipPath>
</defs>
</svg>
