<svg width="22" height="22" viewBox="0 0 22 22" fill="none" xmlns="http://www.w3.org/2000/svg">
<path d="M21.4369 19.7606L16.6253 14.949C17.7837 13.4068 18.409 11.5297 18.4069 9.60093C18.4069 4.67425 14.3987 0.666016 9.47203 0.666016C4.54534 0.666016 0.537109 4.67425 0.537109 9.60093C0.537109 14.5276 4.54534 18.5358 9.47203 18.5358C11.4008 18.538 13.2779 17.9126 14.8201 16.7542L19.6317 21.5658C19.8753 21.7835 20.1929 21.8998 20.5195 21.8906C20.8461 21.8815 21.1567 21.7477 21.3878 21.5167C21.6188 21.2857 21.7526 20.975 21.7617 20.6484C21.7708 20.3219 21.6546 20.0042 21.4369 19.7606ZM3.08994 9.60093C3.08994 8.33868 3.46425 7.10476 4.16552 6.05524C4.86679 5.00571 5.86353 4.1877 7.02971 3.70466C8.19588 3.22161 9.47911 3.09522 10.7171 3.34148C11.9551 3.58773 13.0923 4.19557 13.9848 5.08812C14.8774 5.98067 15.4852 7.11785 15.7315 8.35585C15.9777 9.59385 15.8513 10.8771 15.3683 12.0432C14.8853 13.2094 14.0673 14.2062 13.0177 14.9074C11.9682 15.6087 10.7343 15.983 9.47203 15.983C7.78001 15.981 6.15789 15.3079 4.96145 14.1115C3.76502 12.9151 3.09197 11.2929 3.08994 9.60093Z" fill="#94B4CC"/>
</svg>
