<svg width="15" height="14" viewBox="0 0 15 14" fill="none" xmlns="http://www.w3.org/2000/svg">
<path d="M7.35547 0.826172C10.9462 0.82643 13.8662 3.67678 13.8662 7.2041C13.8662 10.7315 10.9462 13.5818 7.35547 13.582C3.76451 13.582 0.84375 10.7316 0.84375 7.2041C0.843796 3.67662 3.76454 0.826172 7.35547 0.826172Z" stroke="#F40000" stroke-width="0.5"/>
<path d="M10.487 7.93652V9.2687C10.487 9.44536 10.4168 9.61478 10.2919 9.7397C10.167 9.86461 9.99755 9.93479 9.82089 9.93479H5.15828C4.98162 9.93479 4.8122 9.86461 4.68728 9.7397C4.56236 9.61478 4.49219 9.44536 4.49219 9.2687V7.93652" stroke="#F40000" stroke-width="0.5" stroke-linecap="round" stroke-linejoin="round"/>
<path d="M5.82422 6.27246L7.48944 7.93768L9.15466 6.27246" stroke="#F40000" stroke-width="0.5" stroke-linecap="round" stroke-linejoin="round"/>
<path d="M7.49023 7.93696V3.94043" stroke="#F40000" stroke-width="0.5" stroke-linecap="round" stroke-linejoin="round"/>
</svg>
