<?xml version="1.0" encoding="UTF-8"?>
<svg id="Capa_1" data-name="Capa 1" xmlns="http://www.w3.org/2000/svg" viewBox="0 0 800 800">
  <defs>
    <style>
      .cls-1 {
        stroke-dasharray: 5.06 5.06;
      }

      .cls-1, .cls-2, .cls-3, .cls-4, .cls-5, .cls-6, .cls-7, .cls-8, .cls-9, .cls-10, .cls-11, .cls-12, .cls-13 {
        stroke: #fff;
      }

      .cls-1, .cls-2, .cls-3, .cls-4, .cls-5, .cls-6, .cls-8, .cls-9, .cls-10, .cls-12, .cls-13 {
        fill: none;
      }

      .cls-1, .cls-2, .cls-3, .cls-4, .cls-6, .cls-8, .cls-9, .cls-10, .cls-12, .cls-13 {
        stroke-linecap: round;
        stroke-linejoin: bevel;
        stroke-width: 1.5px;
      }

      .cls-14 {
        letter-spacing: -.02em;
      }

      .cls-2 {
        stroke-dasharray: 4.95 4.95;
      }

      .cls-15, .cls-16, .cls-17, .cls-18 {
        fill: #fff;
      }

      .cls-15, .cls-17 {
        font-family: Montserrat-Medium, Montserrat;
        font-weight: 500;
      }

      .cls-19 {
        letter-spacing: 0em;
      }

      .cls-20 {
        letter-spacing: -.01em;
      }

      .cls-3 {
        stroke-dasharray: 5;
      }

      .cls-4 {
        stroke-dasharray: 5.23 5.23;
      }

      .cls-21 {
        letter-spacing: 0em;
      }

      .cls-5, .cls-7, .cls-11 {
        stroke-miterlimit: 10;
      }

      .cls-6 {
        stroke-dasharray: 5.37 5.37;
      }

      .cls-22 {
        letter-spacing: 0em;
      }

      .cls-23 {
        font-size: 40px;
      }

      .cls-23, .cls-24 {
        fill: #bf0811;
      }

      .cls-23, .cls-18 {
        font-family: Montserrat-Bold, Montserrat;
        font-weight: 700;
      }

      .cls-25 {
        font-size: 28.61px;
      }

      .cls-17 {
        font-size: 18px;
      }

      .cls-7 {
        opacity: .8;
      }

      .cls-7, .cls-11 {
        fill: #0d3b5d;
      }

      .cls-26 {
        letter-spacing: 0em;
      }

      .cls-8 {
        stroke-dasharray: 4.77 4.77;
      }

      .cls-27 {
        letter-spacing: 0em;
      }

      .cls-28 {
        letter-spacing: 0em;
      }

      .cls-29 {
        font-size: 17px;
      }

      .cls-30 {
        letter-spacing: 0em;
      }

      .cls-31 {
        letter-spacing: 0em;
      }

      .cls-32 {
        letter-spacing: 0em;
      }

      .cls-33 {
        letter-spacing: -.02em;
      }

      .cls-10 {
        stroke-dasharray: 4.76 4.76;
      }

      .cls-34 {
        letter-spacing: -.01em;
      }

      .cls-35 {
        letter-spacing: -.03em;
      }

      .cls-18 {
        font-size: 78px;
      }

      .cls-11 {
        opacity: .5;
      }

      .cls-12 {
        stroke-dasharray: 4.88 4.88;
      }

      .cls-13 {
        stroke-dasharray: 4.74 4.74;
      }
    </style>
  </defs>
  <g>
    <path class="cls-9" d="M238.01,673.79c.7.45,1.41.89,2.11,1.33"/>
    <path class="cls-8" d="M244.19,677.62c23.59,14.24,49.2,25.45,76.3,33.13"/>
    <path class="cls-9" d="M322.78,711.39c.8.22,1.61.44,2.41.65"/>
  </g>
  <g>
    <path class="cls-9" d="M103.6,492.67c.22.8.45,1.61.68,2.41"/>
    <path class="cls-1" d="M105.71,499.93c5.68,18.74,13.07,36.73,21.98,53.81"/>
    <path class="cls-9" d="M128.87,555.97c.39.74.79,1.47,1.18,2.2"/>
  </g>
  <g>
    <path class="cls-9" d="M127.3,264.18c-.38.74-.76,1.48-1.14,2.22"/>
    <path class="cls-13" d="M124.04,270.65c-9.3,19-16.74,39.08-22.08,60"/>
    <path class="cls-9" d="M101.38,332.95c-.2.81-.4,1.62-.59,2.43"/>
  </g>
  <g>
    <path class="cls-9" d="M320.9,106.27c-.8.23-1.6.46-2.4.69"/>
    <path class="cls-12" d="M313.82,108.35c-27.54,8.47-53.46,20.63-77.19,35.89"/>
    <path class="cls-9" d="M234.58,145.57c-.7.46-1.39.92-2.09,1.38"/>
  </g>
  <g>
    <path class="cls-9" d="M575.36,143.91c-.7-.45-1.41-.9-2.11-1.34"/>
    <path class="cls-10" d="M569.19,140.06c-26.18-15.92-54.87-28.11-85.34-35.85"/>
    <path class="cls-9" d="M481.54,103.63c-.81-.2-1.62-.39-2.43-.59,0,.47.04.94.04,1.42"/>
  </g>
  <g>
    <path class="cls-9" d="M710.33,335.03c.43,0,.86.03,1.29.03-.19-.81-.39-1.62-.59-2.43"/>
    <path class="cls-4" d="M709.72,327.57c-6.13-23.02-14.8-44.99-25.7-65.61"/>
    <path class="cls-9" d="M682.78,259.66c-.4-.73-.79-1.47-1.2-2.2"/>
  </g>
  <g>
    <path class="cls-9" d="M680.19,562.19c.41-.73.81-1.45,1.22-2.18"/>
    <path class="cls-6" d="M683.96,555.29c9.55-18.04,17.4-37.12,23.33-57.04"/>
    <path class="cls-9" d="M708.03,495.68c.23-.8.46-1.6.68-2.41"/>
  </g>
  <g>
    <path class="cls-9" d="M480.24,713.83c.81-.2,1.62-.39,2.43-.6"/>
    <path class="cls-2" d="M487.45,711.99c28.26-7.55,54.95-18.93,79.48-33.57"/>
    <path class="cls-9" d="M569.06,677.15c.71-.43,1.42-.87,2.13-1.31"/>
  </g>
  <circle class="cls-11" cx="185.68" cy="210.75" r="79.14"/>
  <path class="cls-24" d="M184.88,189.43c-1.95,0-3.88-.26-5.8-.78-1.92-.52-3.55-1.26-4.88-2.22l2.52-4.96c1.07.77,2.31,1.39,3.72,1.84,1.41.45,2.84.68,4.28.68,1.63,0,2.91-.32,3.84-.96.93-.64,1.4-1.52,1.4-2.64s-.41-1.91-1.24-2.52c-.83-.61-2.16-.92-4-.92h-2.96v-4.28l7.8-8.84.72,2.32h-14.68v-5.2h19.6v4.2l-7.76,8.84-3.28-1.88h1.88c3.44,0,6.04.77,7.8,2.32,1.76,1.55,2.64,3.53,2.64,5.96,0,1.57-.41,3.05-1.24,4.42-.83,1.37-2.09,2.49-3.8,3.34-1.71.85-3.89,1.28-6.56,1.28Z"/>
  <g>
    <path class="cls-16" d="M145.42,218.67v-12.6h8.89v1.57h-7.09v9.47h7.34v1.57h-9.14ZM147.06,213.04v-1.53h6.48v1.53h-6.48Z"/>
    <path class="cls-16" d="M157.23,218.67v-13.36h1.73v13.36h-1.73Z"/>
    <path class="cls-16" d="M166.5,218.78c-1.02,0-1.92-.21-2.69-.63-.77-.42-1.37-1-1.8-1.73-.43-.73-.64-1.57-.64-2.52s.21-1.79.62-2.52.98-1.31,1.71-1.72c.73-.41,1.54-.62,2.46-.62s1.74.2,2.45.61c.71.41,1.26.98,1.67,1.72.4.74.6,1.6.6,2.58,0,.07,0,.16,0,.25,0,.1-.02.19-.03.27h-8.12v-1.24h7.22l-.7.43c.01-.61-.11-1.16-.38-1.64-.26-.48-.63-.85-1.09-1.12s-1-.4-1.61-.4-1.13.13-1.6.4c-.47.27-.83.65-1.1,1.13-.26.49-.4,1.04-.4,1.67v.29c0,.64.15,1.2.44,1.7.29.5.7.89,1.23,1.16.53.28,1.13.41,1.82.41.56,0,1.08-.1,1.54-.29s.87-.48,1.21-.86l.95,1.12c-.43.5-.97.89-1.61,1.15-.64.26-1.36.4-2.15.4Z"/>
    <path class="cls-16" d="M177.43,218.78c-.97,0-1.84-.21-2.6-.63s-1.36-1-1.79-1.73c-.43-.73-.65-1.57-.65-2.52s.22-1.79.65-2.52c.43-.73,1.03-1.31,1.79-1.72.76-.41,1.63-.62,2.6-.62.86,0,1.63.17,2.31.51.68.34,1.2.85,1.58,1.52l-1.31.85c-.31-.47-.69-.81-1.14-1.04-.45-.22-.93-.33-1.45-.33-.62,0-1.18.14-1.67.41-.49.28-.88.66-1.17,1.16s-.43,1.09-.43,1.77.14,1.28.43,1.78c.29.5.68.89,1.17,1.17.49.28,1.05.41,1.67.41.52,0,1-.11,1.45-.33.45-.22.83-.57,1.14-1.04l1.31.83c-.37.66-.9,1.17-1.58,1.52-.68.35-1.45.53-2.31.53Z"/>
    <path class="cls-16" d="M182.3,210.56v-1.42h6.08v1.42h-6.08ZM186.95,218.78c-.96,0-1.7-.26-2.23-.77-.53-.52-.79-1.25-.79-2.21v-8.75h1.73v8.68c0,.52.13.91.39,1.19.26.28.63.41,1.11.41.54,0,.99-.15,1.35-.45l.54,1.24c-.26.23-.58.4-.94.5-.37.11-.75.16-1.14.16Z"/>
    <path class="cls-16" d="M191.12,218.67v-9.54h1.66v2.59l-.16-.65c.26-.66.71-1.16,1.33-1.51s1.39-.52,2.3-.52v1.67c-.07-.01-.14-.02-.21-.02h-.19c-.92,0-1.66.28-2.2.83-.54.55-.81,1.35-.81,2.39v4.75h-1.73Z"/>
    <path class="cls-16" d="M199.24,207.3c-.34,0-.62-.11-.84-.32-.22-.22-.33-.48-.33-.79s.11-.59.33-.81c.22-.22.5-.32.84-.32s.61.1.84.31.33.47.33.78-.11.6-.32.82c-.22.22-.5.33-.85.33ZM198.38,218.67v-9.54h1.73v9.54h-1.73Z"/>
    <path class="cls-16" d="M207.56,218.78c-.97,0-1.84-.21-2.6-.63s-1.36-1-1.79-1.73c-.43-.73-.65-1.57-.65-2.52s.22-1.79.65-2.52c.43-.73,1.03-1.31,1.79-1.72.76-.41,1.63-.62,2.6-.62.86,0,1.63.17,2.31.51.68.34,1.2.85,1.58,1.52l-1.31.85c-.31-.47-.69-.81-1.14-1.04-.45-.22-.93-.33-1.45-.33-.62,0-1.18.14-1.67.41-.49.28-.88.66-1.17,1.16s-.43,1.09-.43,1.77.14,1.28.43,1.78c.29.5.68.89,1.17,1.17.49.28,1.05.41,1.67.41.52,0,1-.11,1.45-.33.45-.22.83-.57,1.14-1.04l1.31.83c-.37.66-.9,1.17-1.58,1.52-.68.35-1.45.53-2.31.53Z"/>
    <path class="cls-16" d="M216.47,218.78c-.71,0-1.33-.12-1.86-.36-.53-.24-.94-.57-1.23-1-.29-.43-.43-.91-.43-1.45s.12-.98.37-1.4c.25-.42.65-.76,1.21-1.01s1.31-.38,2.26-.38h3.02v1.24h-2.95c-.86,0-1.45.14-1.75.43-.3.29-.45.64-.45,1.04,0,.47.19.84.56,1.12.37.28.89.42,1.55.42s1.22-.14,1.7-.43c.49-.29.84-.71,1.05-1.26l.34,1.19c-.23.56-.63,1.01-1.21,1.34-.58.33-1.3.5-2.18.5ZM219.6,218.67v-2.02l-.09-.38v-3.44c0-.73-.21-1.3-.64-1.7-.43-.4-1.06-.6-1.92-.6-.56,0-1.12.09-1.66.28s-1,.44-1.37.75l-.72-1.3c.49-.4,1.08-.7,1.77-.91s1.41-.31,2.17-.31c1.31,0,2.32.32,3.02.95.71.64,1.06,1.61,1.06,2.92v5.76h-1.64Z"/>
    <path class="cls-16" d="M224.44,218.67v-13.36h1.73v13.36h-1.73Z"/>
    <path class="cls-16" d="M121.19,240.27v-9.54h1.66v2.54l-.27-.65c.3-.62.76-1.11,1.39-1.46.62-.35,1.35-.52,2.18-.52.91,0,1.7.23,2.36.67.66.45,1.09,1.13,1.3,2.04l-.7-.29c.29-.73.79-1.32,1.51-1.76.72-.44,1.56-.67,2.52-.67.77,0,1.45.15,2.03.45.59.3,1.05.76,1.38,1.37s.5,1.39.5,2.32v5.49h-1.73v-5.29c0-.92-.22-1.62-.65-2.09-.43-.47-1.04-.7-1.82-.7-.58,0-1.08.12-1.51.36-.43.24-.77.59-1,1.06-.23.47-.35,1.05-.35,1.75v4.91h-1.73v-5.29c0-.92-.21-1.62-.64-2.09-.43-.47-1.04-.7-1.83-.7-.56,0-1.06.12-1.49.36-.43.24-.77.59-1.01,1.06-.24.47-.36,1.05-.36,1.75v4.91h-1.73Z"/>
    <path class="cls-16" d="M144.31,240.38c-.96,0-1.81-.21-2.56-.63s-1.33-1-1.76-1.74c-.43-.74-.65-1.58-.65-2.51s.22-1.79.65-2.52c.43-.73,1.02-1.31,1.76-1.72.74-.41,1.6-.62,2.56-.62s1.8.21,2.55.62c.75.41,1.34.98,1.76,1.71.43.73.64,1.57.64,2.53s-.21,1.79-.64,2.52c-.43.73-1.01,1.31-1.76,1.73s-1.6.63-2.55.63ZM144.31,238.87c.61,0,1.16-.14,1.65-.41.49-.28.87-.67,1.14-1.18.28-.51.41-1.1.41-1.77s-.14-1.27-.41-1.77c-.28-.5-.66-.88-1.14-1.16-.49-.28-1.04-.41-1.65-.41s-1.16.14-1.64.41c-.48.28-.86.66-1.15,1.16s-.43,1.09-.43,1.77.14,1.26.43,1.77c.29.51.67.9,1.15,1.18s1.03.41,1.64.41Z"/>
    <path class="cls-16" d="M150.28,232.16v-1.42h6.08v1.42h-6.08ZM154.92,240.38c-.96,0-1.7-.26-2.23-.77-.53-.52-.79-1.25-.79-2.21v-8.75h1.73v8.68c0,.52.13.91.39,1.19.26.28.63.41,1.11.41.54,0,.99-.15,1.35-.45l.54,1.24c-.26.23-.58.4-.94.5-.37.11-.75.16-1.14.16Z"/>
    <path class="cls-16" d="M162.86,240.38c-.96,0-1.81-.21-2.56-.63-.74-.42-1.33-1-1.76-1.74-.43-.74-.65-1.58-.65-2.51s.22-1.79.65-2.52c.43-.73,1.02-1.31,1.76-1.72.74-.41,1.6-.62,2.56-.62s1.8.21,2.55.62c.75.41,1.34.98,1.76,1.71.43.73.64,1.57.64,2.53s-.21,1.79-.64,2.52c-.43.73-1.01,1.31-1.76,1.73s-1.6.63-2.55.63ZM162.86,238.87c.61,0,1.16-.14,1.65-.41.49-.28.87-.67,1.14-1.18.28-.51.41-1.1.41-1.77s-.14-1.27-.41-1.77c-.28-.5-.66-.88-1.14-1.16-.49-.28-1.04-.41-1.65-.41s-1.16.14-1.64.41c-.48.28-.86.66-1.15,1.16s-.43,1.09-.43,1.77.14,1.26.43,1.77c.29.51.67.9,1.15,1.18s1.03.41,1.64.41Z"/>
    <path class="cls-16" d="M170.21,240.27v-9.54h1.66v2.59l-.16-.65c.26-.66.71-1.16,1.33-1.51s1.39-.52,2.3-.52v1.67c-.07-.01-.14-.02-.21-.02h-.19c-.92,0-1.66.28-2.2.83-.54.55-.81,1.35-.81,2.39v4.75h-1.73Z"/>
    <path class="cls-16" d="M180.3,240.38c-.79,0-1.55-.11-2.26-.32-.71-.22-1.28-.48-1.68-.79l.72-1.37c.41.28.91.51,1.51.7.6.19,1.21.29,1.84.29.8,0,1.38-.11,1.74-.34s.53-.55.53-.95c0-.3-.11-.53-.32-.7-.22-.17-.5-.29-.85-.38-.35-.08-.75-.16-1.18-.22-.43-.07-.86-.15-1.3-.25-.43-.1-.83-.25-1.19-.43-.36-.19-.65-.44-.86-.77s-.32-.77-.32-1.32.16-1.08.49-1.51c.32-.43.78-.77,1.38-1,.59-.23,1.3-.35,2.11-.35.62,0,1.26.08,1.9.23.64.15,1.17.36,1.57.64l-.74,1.37c-.43-.29-.88-.49-1.35-.59-.47-.11-.94-.16-1.4-.16-.76,0-1.32.12-1.69.37-.37.25-.56.56-.56.95,0,.32.11.57.33.75s.51.31.86.4c.35.1.75.18,1.18.24.43.07.86.15,1.3.25.43.1.82.24,1.18.42s.64.43.86.76c.22.32.33.76.33,1.3,0,.58-.17,1.07-.5,1.49-.34.42-.81.75-1.42.98-.61.23-1.34.35-2.2.35Z"/>
    <path class="cls-16" d="M195.37,240.38c-.92,0-1.75-.2-2.48-.61-.73-.41-1.3-.98-1.72-1.71-.42-.73-.63-1.58-.63-2.56s.21-1.82.63-2.55c.42-.73.99-1.29,1.72-1.7.73-.41,1.55-.61,2.48-.61.8,0,1.53.18,2.18.54.65.36,1.17.9,1.56,1.62.39.72.58,1.62.58,2.7s-.19,1.98-.57,2.7c-.38.72-.89,1.26-1.54,1.63s-1.39.55-2.21.55ZM195.51,238.87c.6,0,1.14-.14,1.63-.41s.87-.67,1.15-1.18c.28-.51.42-1.1.42-1.77s-.14-1.27-.42-1.77-.67-.88-1.15-1.16c-.49-.28-1.03-.41-1.63-.41s-1.16.14-1.64.41c-.48.28-.86.66-1.15,1.16s-.43,1.09-.43,1.77.14,1.26.43,1.77c.29.51.67.9,1.15,1.18s1.03.41,1.64.41ZM198.77,240.27v-2.57l.11-2.21-.18-2.21v-6.35h1.73v13.36h-1.66Z"/>
    <path class="cls-16" d="M207.95,240.38c-1.02,0-1.92-.21-2.69-.63-.77-.42-1.37-1-1.8-1.73-.43-.73-.64-1.57-.64-2.52s.21-1.79.62-2.52.98-1.31,1.71-1.72c.73-.41,1.54-.62,2.46-.62s1.74.2,2.45.61c.71.41,1.26.98,1.67,1.72.4.74.6,1.6.6,2.58,0,.07,0,.16,0,.25,0,.1-.02.19-.03.27h-8.12v-1.24h7.22l-.7.43c.01-.61-.11-1.16-.38-1.64-.26-.48-.63-.85-1.09-1.12s-1-.4-1.61-.4-1.13.13-1.6.4c-.47.27-.83.65-1.1,1.13-.26.49-.4,1.04-.4,1.67v.29c0,.64.15,1.2.44,1.7.29.5.7.89,1.23,1.16.53.28,1.13.41,1.82.41.56,0,1.08-.1,1.54-.29s.87-.48,1.21-.86l.95,1.12c-.43.5-.97.89-1.61,1.15-.64.26-1.36.4-2.15.4Z"/>
    <path class="cls-16" d="M217.46,240.38c-.79,0-1.55-.11-2.26-.32-.71-.22-1.28-.48-1.68-.79l.72-1.37c.41.28.91.51,1.51.7.6.19,1.21.29,1.84.29.8,0,1.38-.11,1.74-.34s.53-.55.53-.95c0-.3-.11-.53-.32-.7-.22-.17-.5-.29-.85-.38-.35-.08-.75-.16-1.18-.22-.43-.07-.86-.15-1.3-.25-.43-.1-.83-.25-1.19-.43-.36-.19-.65-.44-.86-.77s-.32-.77-.32-1.32.16-1.08.49-1.51c.32-.43.78-.77,1.38-1,.59-.23,1.3-.35,2.11-.35.62,0,1.26.08,1.9.23.64.15,1.17.36,1.57.64l-.74,1.37c-.43-.29-.88-.49-1.35-.59-.47-.11-.94-.16-1.4-.16-.76,0-1.32.12-1.69.37-.37.25-.56.56-.56.95,0,.32.11.57.33.75s.51.31.86.4c.35.1.75.18,1.18.24.43.07.86.15,1.3.25.43.1.82.24,1.18.42s.64.43.86.76c.22.32.33.76.33,1.3,0,.58-.17,1.07-.5,1.49-.34.42-.81.75-1.42.98-.61.23-1.34.35-2.2.35Z"/>
    <path class="cls-16" d="M224.6,228.9c-.34,0-.62-.11-.84-.32-.22-.22-.33-.48-.33-.79s.11-.59.33-.81c.22-.22.5-.32.84-.32s.61.1.84.31.33.47.33.78-.11.6-.32.82c-.22.22-.5.33-.85.33ZM223.74,240.27v-9.54h1.73v9.54h-1.73Z"/>
    <path class="cls-16" d="M232.72,239.88c-.92,0-1.75-.19-2.48-.58-.73-.39-1.3-.93-1.73-1.63-.43-.7-.64-1.5-.64-2.41s.21-1.73.64-2.42c.43-.69,1-1.23,1.73-1.61.73-.38,1.55-.58,2.48-.58.82,0,1.56.17,2.23.5.67.33,1.21.84,1.61,1.52.4.68.6,1.55.6,2.59s-.2,1.89-.6,2.57c-.4.68-.94,1.2-1.61,1.54-.67.34-1.42.51-2.23.51ZM232.94,243.87c-.88,0-1.73-.12-2.55-.37-.82-.25-1.49-.6-2.01-1.05l.83-1.33c.44.38.99.69,1.64.91s1.33.33,2.03.33c1.13,0,1.96-.26,2.48-.79.53-.53.79-1.33.79-2.41v-2.02l.18-1.89-.09-1.91v-2.61h1.64v8.24c0,1.68-.42,2.92-1.26,3.71s-2.07,1.19-3.69,1.19ZM232.92,238.37c.64,0,1.2-.13,1.69-.4.49-.26.88-.63,1.16-1.1.28-.47.42-1.01.42-1.62s-.14-1.15-.42-1.62c-.28-.47-.67-.83-1.16-1.09-.49-.26-1.06-.39-1.69-.39s-1.2.13-1.7.39c-.5.26-.89.62-1.17,1.09-.28.47-.42,1.01-.42,1.62s.14,1.15.42,1.62c.28.47.67.83,1.17,1.1.5.26,1.06.4,1.7.4Z"/>
    <path class="cls-16" d="M241.18,240.27v-9.54h1.66v2.57l-.27-.68c.31-.62.79-1.11,1.44-1.46s1.4-.52,2.27-.52c.78,0,1.47.15,2.06.45.59.3,1.06.76,1.4,1.37s.5,1.39.5,2.32v5.49h-1.73v-5.29c0-.92-.23-1.62-.67-2.09-.45-.47-1.08-.7-1.9-.7-.61,0-1.15.12-1.6.36-.46.24-.81.59-1.05,1.06-.25.47-.37,1.05-.37,1.75v4.91h-1.73Z"/>
  </g>
  <circle class="cls-11" cx="400" cy="104.46" r="79.14"/>
  <path class="cls-24" d="M387.86,71.03v-4.36l13.2-17.76h6.8l-12.92,17.76-3.16-.92h22.04v5.28h-25.96ZM402.94,76.91v-5.88l.2-5.28v-5.24h6.12v16.4h-6.32Z"/>
  <g>
    <path class="cls-16" d="M354.23,117.82v-12.6h8.89v1.57h-7.09v9.47h7.34v1.57h-9.14ZM355.87,112.18v-1.53h6.48v1.53h-6.48Z"/>
    <path class="cls-16" d="M366.04,117.82v-13.36h1.73v13.36h-1.73Z"/>
    <path class="cls-16" d="M375.31,117.93c-1.02,0-1.92-.21-2.69-.63-.77-.42-1.37-1-1.8-1.73-.43-.73-.64-1.57-.64-2.52s.21-1.79.62-2.52.98-1.31,1.71-1.72c.73-.41,1.54-.62,2.46-.62s1.74.2,2.45.61c.71.41,1.26.98,1.67,1.72.4.74.6,1.6.6,2.58,0,.07,0,.16,0,.25,0,.1-.02.19-.03.27h-8.12v-1.24h7.22l-.7.43c.01-.61-.11-1.16-.38-1.64-.26-.48-.63-.85-1.09-1.12s-1-.4-1.61-.4-1.13.13-1.6.4c-.47.27-.83.65-1.1,1.13-.26.49-.4,1.04-.4,1.67v.29c0,.64.15,1.2.44,1.7.29.5.7.89,1.23,1.16.53.28,1.13.41,1.82.41.56,0,1.08-.1,1.54-.29s.87-.48,1.21-.86l.95,1.12c-.43.5-.97.89-1.61,1.15-.64.26-1.36.4-2.15.4Z"/>
    <path class="cls-16" d="M386.23,117.93c-.97,0-1.84-.21-2.6-.63s-1.36-1-1.79-1.73c-.43-.73-.65-1.57-.65-2.52s.22-1.79.65-2.52c.43-.73,1.03-1.31,1.79-1.72.76-.41,1.63-.62,2.6-.62.86,0,1.63.17,2.31.51.68.34,1.2.85,1.58,1.52l-1.31.85c-.31-.47-.69-.81-1.14-1.04-.45-.22-.93-.33-1.45-.33-.62,0-1.18.14-1.67.41-.49.28-.88.66-1.17,1.16s-.43,1.09-.43,1.77.14,1.28.43,1.78c.29.5.68.89,1.17,1.17.49.28,1.05.41,1.67.41.52,0,1-.11,1.45-.33.45-.22.83-.57,1.14-1.04l1.31.83c-.37.66-.9,1.17-1.58,1.52-.68.35-1.45.53-2.31.53Z"/>
    <path class="cls-16" d="M391.11,109.7v-1.42h6.08v1.42h-6.08ZM395.75,117.93c-.96,0-1.7-.26-2.23-.77-.53-.52-.79-1.25-.79-2.21v-8.75h1.73v8.68c0,.52.13.91.39,1.19.26.28.63.41,1.11.41.54,0,.99-.15,1.35-.45l.54,1.24c-.26.23-.58.4-.94.5-.37.11-.75.16-1.14.16Z"/>
    <path class="cls-16" d="M399.93,117.82v-9.54h1.66v2.59l-.16-.65c.26-.66.71-1.16,1.33-1.51s1.39-.52,2.3-.52v1.67c-.07-.01-.14-.02-.21-.02h-.19c-.92,0-1.66.28-2.2.83-.54.55-.81,1.35-.81,2.39v4.75h-1.73Z"/>
    <path class="cls-16" d="M411.18,117.93c-.96,0-1.81-.21-2.56-.63s-1.33-1-1.76-1.74c-.43-.74-.65-1.58-.65-2.51s.22-1.79.65-2.52c.43-.73,1.02-1.31,1.76-1.72.74-.41,1.6-.62,2.56-.62s1.8.21,2.55.62c.75.41,1.34.98,1.76,1.71.43.73.64,1.57.64,2.53s-.21,1.79-.64,2.52c-.43.73-1.01,1.31-1.76,1.73s-1.6.63-2.55.63ZM411.18,116.41c.61,0,1.16-.14,1.65-.41.49-.28.87-.67,1.14-1.18.28-.51.41-1.1.41-1.77s-.14-1.27-.41-1.77-.66-.88-1.14-1.16c-.49-.28-1.04-.41-1.65-.41s-1.16.14-1.64.41c-.48.28-.86.66-1.15,1.16s-.43,1.09-.43,1.77.14,1.26.43,1.77c.29.51.67.9,1.15,1.18.48.28,1.03.41,1.64.41Z"/>
    <path class="cls-16" d="M418.52,117.82v-9.54h1.66v2.57l-.27-.68c.31-.62.79-1.11,1.44-1.46.65-.35,1.4-.52,2.27-.52.78,0,1.47.15,2.06.45.59.3,1.06.76,1.39,1.37s.5,1.39.5,2.32v5.49h-1.73v-5.29c0-.92-.23-1.62-.67-2.09-.45-.47-1.08-.7-1.9-.7-.61,0-1.15.12-1.6.36-.46.24-.81.59-1.05,1.06-.25.47-.37,1.05-.37,1.75v4.91h-1.73Z"/>
    <path class="cls-16" d="M431.64,106.44c-.34,0-.62-.11-.84-.32-.22-.22-.33-.48-.33-.79s.11-.59.33-.81c.22-.22.5-.32.84-.32s.61.1.84.31c.22.21.33.47.33.78s-.11.6-.32.82c-.22.22-.5.33-.85.33ZM430.78,117.82v-9.54h1.73v9.54h-1.73Z"/>
    <path class="cls-16" d="M439.96,117.93c-.97,0-1.84-.21-2.6-.63-.76-.42-1.36-1-1.79-1.73-.43-.73-.65-1.57-.65-2.52s.22-1.79.65-2.52c.43-.73,1.03-1.31,1.79-1.72.76-.41,1.63-.62,2.6-.62.86,0,1.63.17,2.31.51.68.34,1.2.85,1.58,1.52l-1.31.85c-.31-.47-.69-.81-1.14-1.04-.45-.22-.93-.33-1.45-.33-.62,0-1.18.14-1.67.41-.49.28-.88.66-1.17,1.16s-.43,1.09-.43,1.77.14,1.28.43,1.78c.29.5.68.89,1.17,1.17s1.05.41,1.67.41c.52,0,1-.11,1.45-.33s.83-.57,1.14-1.04l1.31.83c-.37.66-.9,1.17-1.58,1.52s-1.45.53-2.31.53Z"/>
    <path class="cls-16" d="M448.82,117.93c-.79,0-1.55-.11-2.26-.32-.71-.22-1.28-.48-1.68-.79l.72-1.37c.41.28.91.51,1.51.7.6.19,1.21.29,1.84.29.8,0,1.38-.11,1.74-.34.35-.23.53-.55.53-.95,0-.3-.11-.53-.32-.7-.22-.17-.5-.29-.85-.38-.35-.08-.75-.16-1.18-.22-.43-.07-.86-.15-1.3-.25-.43-.1-.83-.25-1.19-.43s-.65-.44-.86-.77-.32-.77-.32-1.32.16-1.08.49-1.51c.32-.43.78-.77,1.38-1,.59-.23,1.3-.35,2.12-.35.62,0,1.26.08,1.9.23.64.15,1.17.36,1.57.64l-.74,1.37c-.43-.29-.88-.49-1.35-.59-.47-.11-.94-.16-1.4-.16-.76,0-1.32.12-1.69.37-.37.25-.56.56-.56.95,0,.32.11.57.33.75.22.17.51.31.86.4.35.1.75.18,1.18.24.43.07.86.15,1.3.25.43.1.82.24,1.18.42.35.18.64.43.86.76.22.32.33.76.33,1.3,0,.58-.17,1.07-.5,1.49-.34.42-.81.75-1.42.98-.61.23-1.34.35-2.2.35Z"/>
    <path class="cls-16" d="M377.47,139.52c-.92,0-1.75-.2-2.48-.61-.73-.41-1.3-.98-1.72-1.71-.42-.73-.63-1.58-.63-2.56s.21-1.82.63-2.55c.42-.73.99-1.29,1.72-1.7.73-.41,1.55-.61,2.48-.61.8,0,1.53.18,2.18.54.65.36,1.17.9,1.56,1.62.39.72.58,1.62.58,2.7s-.19,1.98-.57,2.7c-.38.72-.89,1.26-1.54,1.63s-1.39.55-2.21.55ZM377.62,138.01c.6,0,1.14-.14,1.63-.41s.87-.67,1.15-1.18c.28-.51.42-1.1.42-1.77s-.14-1.27-.42-1.77-.67-.88-1.15-1.16c-.49-.28-1.03-.41-1.63-.41s-1.16.14-1.64.41c-.48.28-.86.66-1.15,1.16s-.43,1.09-.43,1.77.14,1.26.43,1.77c.29.51.67.9,1.15,1.18s1.03.41,1.64.41ZM380.88,139.42v-2.57l.11-2.21-.18-2.21v-6.35h1.73v13.36h-1.66Z"/>
    <path class="cls-16" d="M390.06,139.52c-1.02,0-1.92-.21-2.69-.63-.77-.42-1.37-1-1.8-1.73-.43-.73-.64-1.57-.64-2.52s.21-1.79.62-2.52.98-1.31,1.71-1.72c.73-.41,1.54-.62,2.46-.62s1.74.2,2.45.61c.71.41,1.26.98,1.67,1.72.4.74.6,1.6.6,2.58,0,.07,0,.16,0,.25,0,.1-.02.19-.03.27h-8.12v-1.24h7.22l-.7.43c.01-.61-.11-1.16-.38-1.64-.26-.48-.63-.85-1.09-1.12s-1-.4-1.61-.4-1.13.13-1.6.4c-.47.27-.83.65-1.1,1.13-.26.49-.4,1.04-.4,1.67v.29c0,.64.15,1.2.44,1.7.29.5.7.89,1.23,1.16.53.28,1.13.41,1.82.41.56,0,1.08-.1,1.54-.29s.87-.48,1.21-.86l.95,1.12c-.43.5-.97.89-1.61,1.15-.64.26-1.36.4-2.15.4Z"/>
    <path class="cls-16" d="M399.56,139.52c-.79,0-1.55-.11-2.26-.32-.71-.22-1.28-.48-1.68-.79l.72-1.37c.41.28.91.51,1.51.7.6.19,1.21.29,1.84.29.8,0,1.38-.11,1.74-.34.35-.23.53-.55.53-.95,0-.3-.11-.53-.32-.7s-.5-.29-.85-.38c-.35-.08-.75-.16-1.18-.22-.43-.07-.86-.15-1.3-.25-.43-.1-.83-.25-1.19-.43-.36-.19-.65-.44-.86-.77s-.32-.77-.32-1.32.16-1.08.49-1.51c.32-.43.78-.77,1.38-1,.59-.23,1.3-.35,2.11-.35.62,0,1.26.08,1.9.23s1.17.36,1.58.64l-.74,1.37c-.43-.29-.88-.49-1.35-.59-.47-.11-.94-.16-1.4-.16-.76,0-1.32.12-1.69.37-.37.25-.56.56-.56.95,0,.32.11.57.33.75s.51.31.86.4c.35.1.75.18,1.18.24.43.07.86.15,1.3.25s.83.24,1.18.42c.35.18.64.43.86.76.22.32.33.76.33,1.3,0,.58-.17,1.07-.5,1.49-.34.42-.81.75-1.42.98-.61.23-1.34.35-2.2.35Z"/>
    <path class="cls-16" d="M406.71,128.04c-.34,0-.62-.11-.84-.32-.22-.22-.33-.48-.33-.79s.11-.59.33-.81c.22-.22.5-.32.84-.32s.61.1.84.31c.22.21.33.47.33.78s-.11.6-.32.82c-.22.22-.5.33-.85.33ZM405.84,139.42v-9.54h1.73v9.54h-1.73Z"/>
    <path class="cls-16" d="M414.82,139.02c-.92,0-1.75-.19-2.48-.58-.73-.39-1.3-.93-1.73-1.63-.43-.7-.64-1.5-.64-2.41s.21-1.73.64-2.42c.43-.69,1-1.23,1.73-1.61.73-.38,1.55-.58,2.48-.58.82,0,1.56.17,2.23.5s1.21.84,1.61,1.52c.4.68.6,1.55.6,2.59s-.2,1.89-.6,2.57c-.4.68-.94,1.2-1.61,1.54-.67.34-1.42.51-2.23.51ZM415.04,143.02c-.88,0-1.73-.12-2.55-.37-.82-.25-1.49-.6-2.01-1.05l.83-1.33c.44.38.99.69,1.64.91.65.22,1.33.33,2.03.33,1.13,0,1.96-.26,2.48-.79.53-.53.79-1.33.79-2.41v-2.02l.18-1.89-.09-1.91v-2.61h1.64v8.24c0,1.68-.42,2.92-1.26,3.71s-2.07,1.19-3.69,1.19ZM415.02,137.51c.64,0,1.2-.13,1.69-.4.49-.26.88-.63,1.16-1.1.28-.47.42-1.01.42-1.62s-.14-1.15-.42-1.62c-.28-.47-.67-.83-1.16-1.09-.49-.26-1.06-.39-1.69-.39s-1.2.13-1.7.39c-.5.26-.89.62-1.17,1.09-.28.47-.42,1.01-.42,1.62s.14,1.15.42,1.62c.28.47.67.83,1.17,1.1.5.26,1.06.4,1.7.4Z"/>
    <path class="cls-16" d="M423.28,139.42v-9.54h1.66v2.57l-.27-.68c.31-.62.79-1.11,1.44-1.46.65-.35,1.4-.52,2.27-.52.78,0,1.47.15,2.06.45.59.3,1.06.76,1.4,1.37s.5,1.39.5,2.32v5.49h-1.73v-5.29c0-.92-.22-1.62-.67-2.09-.45-.47-1.08-.7-1.9-.7-.61,0-1.15.12-1.6.36-.46.24-.81.59-1.05,1.06-.25.47-.37,1.05-.37,1.75v4.91h-1.73Z"/>
  </g>
  <circle class="cls-11" cx="617.71" cy="210.75" r="79.14"/>
  <g>
    <path class="cls-24" d="M607.02,186.06v-25.6l2.8,2.8h-8.4v-5.2h12.08v28h-6.48Z"/>
    <path class="cls-24" d="M630.38,186.54c-2.29,0-4.35-.57-6.16-1.7-1.81-1.13-3.24-2.78-4.28-4.94s-1.56-4.77-1.56-7.84.52-5.68,1.56-7.84c1.04-2.16,2.47-3.81,4.28-4.94,1.81-1.13,3.87-1.7,6.16-1.7s4.38.57,6.18,1.7,3.22,2.78,4.26,4.94c1.04,2.16,1.56,4.77,1.56,7.84s-.52,5.68-1.56,7.84-2.46,3.81-4.26,4.94-3.86,1.7-6.18,1.7ZM630.38,181.06c1.09,0,2.05-.31,2.86-.92s1.45-1.59,1.92-2.92c.47-1.33.7-3.05.7-5.16s-.23-3.83-.7-5.16c-.47-1.33-1.11-2.31-1.92-2.92-.81-.61-1.77-.92-2.86-.92s-2.01.31-2.82.92c-.81.61-1.45,1.59-1.92,2.92-.47,1.33-.7,3.05-.7,5.16s.23,3.83.7,5.16c.47,1.33,1.11,2.31,1.92,2.92.81.61,1.75.92,2.82.92Z"/>
  </g>
  <g>
    <path class="cls-16" d="M567.37,222.46v-12.6h8.89v1.57h-7.09v11.03h-1.8ZM568.99,217.37v-1.55h6.5v1.55h-6.5Z"/>
    <path class="cls-16" d="M579.41,211.08c-.34,0-.62-.11-.84-.32-.22-.22-.33-.48-.33-.79s.11-.59.33-.81c.22-.22.5-.32.84-.32s.61.1.84.31c.22.21.33.47.33.78s-.11.6-.32.82c-.22.22-.5.33-.85.33ZM578.55,222.46v-9.54h1.73v9.54h-1.73Z"/>
    <path class="cls-16" d="M583.57,222.46v-9.54h1.66v2.59l-.16-.65c.26-.66.71-1.16,1.33-1.51s1.39-.52,2.3-.52v1.67c-.07-.01-.14-.02-.21-.02h-.19c-.92,0-1.66.28-2.2.83-.54.55-.81,1.35-.81,2.39v4.75h-1.73Z"/>
    <path class="cls-16" d="M590.82,222.46v-9.54h1.66v2.54l-.27-.65c.3-.62.76-1.11,1.39-1.46s1.35-.52,2.18-.52c.91,0,1.7.23,2.36.67.66.45,1.09,1.13,1.3,2.04l-.7-.29c.29-.73.79-1.32,1.51-1.76.72-.44,1.56-.67,2.52-.67.77,0,1.45.15,2.03.45.59.3,1.05.76,1.38,1.37s.5,1.39.5,2.32v5.49h-1.73v-5.29c0-.92-.22-1.62-.65-2.09-.43-.47-1.04-.7-1.82-.7-.58,0-1.08.12-1.51.36-.43.24-.77.59-1,1.06-.23.47-.35,1.05-.35,1.75v4.91h-1.73v-5.29c0-.92-.21-1.62-.64-2.09-.43-.47-1.04-.7-1.83-.7-.56,0-1.06.12-1.49.36-.43.24-.77.59-1.01,1.06-.24.47-.36,1.05-.36,1.75v4.91h-1.73Z"/>
    <path class="cls-16" d="M611.68,222.46l-3.55-9.54h1.64l3.15,8.64h-.77l3.28-8.64h1.46l3.2,8.64h-.76l3.22-8.64h1.55l-3.56,9.54h-1.66l-3.01-7.88h.5l-3.04,7.88h-1.66Z"/>
    <path class="cls-16" d="M628.24,222.57c-.71,0-1.33-.12-1.86-.36-.53-.24-.95-.57-1.23-1-.29-.43-.43-.91-.43-1.45s.12-.98.37-1.4c.25-.42.65-.76,1.21-1.01.56-.25,1.31-.38,2.26-.38h3.02v1.24h-2.95c-.86,0-1.45.14-1.75.43-.3.29-.45.64-.45,1.04,0,.47.19.84.56,1.12.37.28.89.42,1.55.42s1.22-.14,1.7-.43c.49-.29.84-.71,1.05-1.26l.34,1.19c-.23.56-.63,1.01-1.21,1.34-.58.33-1.3.5-2.18.5ZM631.38,222.46v-2.02l-.09-.38v-3.44c0-.73-.21-1.3-.64-1.7-.43-.4-1.06-.6-1.92-.6-.56,0-1.12.09-1.66.28s-1,.44-1.37.75l-.72-1.3c.49-.4,1.08-.7,1.77-.91.69-.21,1.41-.31,2.17-.31,1.31,0,2.32.32,3.02.95.71.64,1.06,1.61,1.06,2.92v5.76h-1.64Z"/>
    <path class="cls-16" d="M636.22,222.46v-9.54h1.66v2.59l-.16-.65c.26-.66.71-1.16,1.33-1.51s1.39-.52,2.3-.52v1.67c-.07-.01-.14-.02-.21-.02h-.19c-.92,0-1.66.28-2.2.83-.54.55-.81,1.35-.81,2.39v4.75h-1.73Z"/>
    <path class="cls-16" d="M647.63,222.57c-1.02,0-1.92-.21-2.69-.63s-1.37-1-1.8-1.73c-.43-.73-.64-1.57-.64-2.52s.21-1.79.62-2.52.98-1.31,1.71-1.72c.73-.41,1.54-.62,2.46-.62s1.74.2,2.45.61c.71.41,1.26.98,1.67,1.72.4.74.6,1.6.6,2.58,0,.07,0,.16,0,.25s-.01.19-.03.27h-8.12v-1.24h7.22l-.7.43c.01-.61-.11-1.16-.38-1.64-.26-.48-.63-.85-1.09-1.12s-1-.4-1.61-.4-1.13.13-1.6.4-.83.65-1.1,1.13c-.26.49-.4,1.04-.4,1.67v.29c0,.64.15,1.2.44,1.7.29.5.7.89,1.23,1.16s1.13.41,1.82.41c.56,0,1.08-.1,1.54-.29s.87-.48,1.21-.86l.95,1.12c-.43.5-.97.89-1.61,1.15-.64.26-1.36.4-2.15.4Z"/>
    <path class="cls-16" d="M668.71,222.66l-7.07-7.04c-.42-.42-.75-.79-.99-1.12-.24-.33-.41-.65-.52-.96-.11-.31-.16-.63-.16-.95,0-.56.14-1.06.42-1.49.28-.43.68-.76,1.19-.99s1.11-.35,1.79-.35c.64,0,1.19.1,1.66.31s.83.51,1.09.9c.26.39.39.86.39,1.41,0,.48-.12.92-.35,1.33-.23.41-.61.8-1.12,1.19-.52.38-1.21.8-2.09,1.24-.72.37-1.28.72-1.69,1.03-.41.32-.7.63-.87.95s-.26.65-.26,1.03c0,.4.12.75.35,1.05.23.31.56.54.99.71s.92.25,1.49.25c.8,0,1.53-.17,2.18-.52.65-.35,1.19-.87,1.63-1.57.44-.7.76-1.56.96-2.59l1.39.45c-.24,1.21-.65,2.24-1.23,3.08-.58.84-1.3,1.48-2.15,1.93-.85.44-1.81.67-2.88.67-.85,0-1.61-.14-2.27-.41-.66-.28-1.18-.66-1.57-1.15s-.58-1.06-.58-1.71c0-.56.13-1.08.38-1.55.25-.47.65-.92,1.21-1.36.55-.44,1.28-.89,2.18-1.36.73-.38,1.31-.72,1.72-1.01.41-.29.71-.56.88-.82.17-.26.26-.54.26-.84,0-.41-.14-.74-.43-1-.29-.26-.7-.39-1.24-.39s-1,.14-1.32.42c-.32.28-.48.65-.48,1.11,0,.23.04.45.12.66.08.21.22.44.43.7.21.26.51.58.91.98l6.66,6.62-.97,1.15Z"/>
    <path class="cls-16" d="M582.69,244.17c-.79,0-1.55-.11-2.26-.32-.71-.22-1.28-.48-1.68-.79l.72-1.37c.41.28.91.51,1.51.7.6.19,1.21.29,1.84.29.8,0,1.38-.11,1.74-.34.35-.23.53-.55.53-.95,0-.3-.11-.53-.32-.7-.22-.17-.5-.29-.85-.38-.35-.08-.75-.16-1.18-.22-.43-.07-.86-.15-1.3-.25-.43-.1-.83-.25-1.19-.43s-.65-.44-.86-.77-.32-.77-.32-1.32.16-1.08.49-1.51c.32-.43.78-.77,1.38-1,.59-.23,1.3-.35,2.12-.35.62,0,1.26.08,1.9.23.64.15,1.17.36,1.57.64l-.74,1.37c-.43-.29-.88-.49-1.35-.59-.47-.11-.94-.16-1.4-.16-.76,0-1.32.12-1.69.37-.37.25-.56.56-.56.95,0,.32.11.57.33.75.22.17.51.31.86.4.35.1.75.18,1.18.24.43.07.86.15,1.3.25.43.1.82.24,1.18.42.35.18.64.43.86.76.22.32.33.76.33,1.3,0,.58-.17,1.07-.5,1.49-.34.42-.81.75-1.42.98-.61.23-1.34.35-2.2.35Z"/>
    <path class="cls-16" d="M593.05,244.17c-.96,0-1.81-.21-2.56-.63s-1.33-1-1.76-1.74c-.43-.74-.65-1.58-.65-2.51s.22-1.79.65-2.52,1.02-1.31,1.76-1.72c.74-.41,1.6-.62,2.56-.62s1.8.21,2.55.62c.75.41,1.34.98,1.76,1.71s.64,1.57.64,2.53-.21,1.79-.64,2.52-1.01,1.31-1.76,1.73-1.6.63-2.55.63ZM593.05,242.66c.61,0,1.16-.14,1.65-.41.49-.28.87-.67,1.14-1.18.28-.51.41-1.1.41-1.77s-.14-1.27-.41-1.77c-.28-.5-.66-.88-1.14-1.16-.49-.28-1.04-.41-1.65-.41s-1.16.14-1.64.41c-.48.28-.86.66-1.15,1.16s-.43,1.09-.43,1.77.14,1.26.43,1.77c.29.51.67.9,1.15,1.18.48.28,1.03.41,1.64.41Z"/>
    <path class="cls-16" d="M599.03,235.94v-1.42h6.08v1.42h-6.08ZM600.65,244.06v-10.39c0-.94.27-1.68.82-2.24s1.32-.84,2.33-.84c.37,0,.73.04,1.07.13.34.09.63.23.87.42l-.52,1.31c-.18-.14-.38-.25-.61-.33-.23-.08-.47-.12-.72-.12-.5,0-.89.14-1.15.42-.26.28-.4.7-.4,1.25v1.28l.04.79v8.3h-1.73Z"/>
    <path class="cls-16" d="M605.38,235.94v-1.42h6.08v1.42h-6.08ZM610.03,244.17c-.96,0-1.7-.26-2.23-.77-.53-.52-.79-1.25-.79-2.21v-8.75h1.73v8.68c0,.52.13.91.39,1.19.26.28.63.41,1.11.41.54,0,.99-.15,1.35-.45l.54,1.24c-.26.23-.58.4-.95.5-.37.11-.75.16-1.14.16Z"/>
    <path class="cls-16" d="M616.04,244.06l-3.55-9.54h1.64l3.15,8.64h-.77l3.28-8.64h1.46l3.2,8.64h-.76l3.22-8.64h1.55l-3.56,9.54h-1.66l-3.01-7.88h.5l-3.04,7.88h-1.66Z"/>
    <path class="cls-16" d="M632.6,244.17c-.71,0-1.33-.12-1.86-.36-.53-.24-.94-.57-1.23-1-.29-.43-.43-.91-.43-1.45s.12-.98.37-1.4c.25-.42.65-.76,1.21-1.01.56-.25,1.31-.38,2.26-.38h3.02v1.24h-2.95c-.86,0-1.45.14-1.75.43s-.45.64-.45,1.04c0,.47.19.84.56,1.12.37.28.89.42,1.55.42s1.21-.14,1.7-.43c.49-.29.84-.71,1.05-1.26l.34,1.19c-.23.56-.63,1.01-1.21,1.34-.58.33-1.3.5-2.18.5ZM635.73,244.06v-2.02l-.09-.38v-3.44c0-.73-.21-1.3-.64-1.7-.43-.4-1.07-.6-1.92-.6-.56,0-1.12.09-1.66.28s-1,.44-1.37.75l-.72-1.3c.49-.4,1.08-.7,1.77-.91.69-.21,1.41-.31,2.17-.31,1.31,0,2.32.32,3.02.95.71.64,1.06,1.61,1.06,2.92v5.76h-1.64Z"/>
    <path class="cls-16" d="M640.57,244.06v-9.54h1.66v2.59l-.16-.65c.26-.66.71-1.16,1.33-1.51s1.39-.52,2.3-.52v1.67c-.07-.01-.14-.02-.21-.02h-.19c-.92,0-1.66.28-2.2.83-.54.55-.81,1.35-.81,2.39v4.75h-1.73Z"/>
    <path class="cls-16" d="M651.99,244.17c-1.02,0-1.92-.21-2.69-.63-.77-.42-1.37-1-1.8-1.73s-.64-1.57-.64-2.52.21-1.79.62-2.52c.41-.73.98-1.31,1.71-1.72.73-.41,1.54-.62,2.46-.62s1.74.2,2.45.61c.71.41,1.26.98,1.67,1.72.4.74.6,1.6.6,2.58,0,.07,0,.16,0,.25,0,.1-.02.19-.03.27h-8.12v-1.24h7.22l-.7.43c.01-.61-.11-1.16-.38-1.64-.26-.48-.63-.85-1.09-1.12s-1-.4-1.61-.4-1.13.13-1.6.4c-.47.27-.83.65-1.1,1.13-.26.49-.4,1.04-.4,1.67v.29c0,.64.15,1.2.44,1.7s.71.89,1.23,1.16c.53.28,1.13.41,1.82.41.56,0,1.08-.1,1.54-.29s.87-.48,1.21-.86l.95,1.12c-.43.5-.97.89-1.61,1.15-.64.26-1.36.4-2.15.4Z"/>
  </g>
  <circle class="cls-11" cx="710.33" cy="414.18" r="79.14"/>
  <path class="cls-24" d="M710.79,389.97c-1.95,0-3.88-.26-5.8-.78-1.92-.52-3.55-1.26-4.88-2.22l2.52-4.96c1.07.77,2.31,1.39,3.72,1.84,1.41.45,2.84.68,4.28.68,1.63,0,2.91-.32,3.84-.96.93-.64,1.4-1.52,1.4-2.64s-.41-1.91-1.24-2.52c-.83-.61-2.16-.92-4-.92h-2.96v-4.28l7.8-8.84.72,2.32h-14.68v-5.2h19.6v4.2l-7.76,8.84-3.28-1.88h1.88c3.44,0,6.04.77,7.8,2.32,1.76,1.55,2.64,3.53,2.64,5.96,0,1.57-.41,3.05-1.24,4.42-.83,1.37-2.09,2.49-3.8,3.34-1.71.85-3.89,1.28-6.56,1.28Z"/>
  <g>
    <path class="cls-16" d="M659.86,421.32v-12.6h1.48l5.65,9.52h-.79l5.58-9.52h1.48l.02,12.6h-1.73l-.02-9.88h.41l-4.97,8.35h-.83l-5-8.35h.45v9.88h-1.73Z"/>
    <path class="cls-16" d="M681.04,421.43c-1.02,0-1.92-.21-2.69-.63s-1.37-1-1.8-1.73c-.43-.73-.64-1.57-.64-2.52s.21-1.79.62-2.52c.41-.73.98-1.31,1.71-1.72.73-.41,1.54-.62,2.46-.62s1.74.2,2.45.61c.71.41,1.26.98,1.67,1.72.4.74.6,1.6.6,2.58,0,.07,0,.16,0,.25,0,.1-.01.19-.03.27h-8.12v-1.24h7.22l-.7.43c.01-.61-.11-1.16-.38-1.64-.26-.48-.63-.85-1.09-1.12-.46-.27-1-.4-1.61-.4s-1.13.13-1.6.4c-.47.27-.83.65-1.1,1.13-.26.49-.4,1.04-.4,1.67v.29c0,.64.15,1.2.44,1.7.29.5.7.89,1.23,1.16.53.28,1.13.41,1.82.41.56,0,1.08-.1,1.54-.29.46-.19.87-.48,1.21-.86l.95,1.12c-.43.5-.97.89-1.61,1.15s-1.36.4-2.15.4Z"/>
    <path class="cls-16" d="M691.97,421.43c-.97,0-1.84-.21-2.6-.63-.76-.42-1.36-1-1.79-1.73-.43-.73-.65-1.57-.65-2.52s.22-1.79.65-2.52c.43-.73,1.03-1.31,1.79-1.72.76-.41,1.63-.62,2.6-.62.86,0,1.63.17,2.31.51s1.2.85,1.58,1.52l-1.31.85c-.31-.47-.69-.81-1.14-1.04s-.93-.33-1.45-.33c-.62,0-1.18.14-1.67.41s-.88.66-1.17,1.16-.43,1.09-.43,1.77.14,1.28.43,1.78.68.89,1.17,1.17c.49.28,1.05.41,1.67.41.52,0,1-.11,1.45-.33.45-.22.83-.57,1.14-1.04l1.31.83c-.37.66-.9,1.17-1.58,1.52-.68.35-1.45.53-2.31.53Z"/>
    <path class="cls-16" d="M697.96,421.32v-13.36h1.73v6.39l-.34-.68c.31-.62.79-1.11,1.44-1.46.65-.35,1.4-.52,2.27-.52.78,0,1.47.15,2.06.45.59.3,1.06.76,1.4,1.37.34.61.5,1.39.5,2.32v5.49h-1.73v-5.29c0-.92-.22-1.62-.67-2.09-.45-.47-1.08-.7-1.9-.7-.61,0-1.15.12-1.6.36-.46.24-.81.59-1.05,1.06-.25.47-.37,1.05-.37,1.75v4.91h-1.73Z"/>
    <path class="cls-16" d="M713.01,421.43c-.71,0-1.33-.12-1.86-.36-.53-.24-.95-.57-1.23-1s-.43-.91-.43-1.45.12-.98.37-1.4c.25-.42.65-.76,1.21-1.01.56-.25,1.31-.38,2.26-.38h3.02v1.24h-2.95c-.86,0-1.45.14-1.75.43-.3.29-.45.64-.45,1.04,0,.47.19.84.56,1.12.37.28.89.42,1.55.42s1.22-.14,1.7-.43c.49-.29.84-.71,1.05-1.26l.34,1.19c-.23.56-.63,1.01-1.21,1.34-.58.33-1.3.5-2.18.5ZM716.14,421.32v-2.02l-.09-.38v-3.44c0-.73-.21-1.3-.64-1.7s-1.06-.6-1.92-.6c-.56,0-1.12.09-1.66.28-.54.19-1,.44-1.37.75l-.72-1.3c.49-.4,1.08-.7,1.77-.91.69-.21,1.41-.31,2.17-.31,1.31,0,2.32.32,3.02.95.71.64,1.06,1.61,1.06,2.92v5.76h-1.64Z"/>
    <path class="cls-16" d="M720.98,421.32v-9.54h1.66v2.57l-.27-.68c.31-.62.79-1.11,1.44-1.46.65-.35,1.4-.52,2.27-.52.78,0,1.47.15,2.06.45.59.3,1.06.76,1.4,1.37.34.61.5,1.39.5,2.32v5.49h-1.73v-5.29c0-.92-.22-1.62-.67-2.09-.45-.47-1.08-.7-1.9-.7-.61,0-1.15.12-1.6.36-.46.24-.81.59-1.05,1.06s-.37,1.05-.37,1.75v4.91h-1.73Z"/>
    <path class="cls-16" d="M734.1,409.94c-.34,0-.62-.11-.84-.32s-.33-.48-.33-.79.11-.59.33-.81c.22-.22.5-.32.84-.32s.62.1.84.31c.22.21.33.47.33.78s-.11.6-.32.82c-.22.22-.5.33-.85.33ZM733.24,421.32v-9.54h1.73v9.54h-1.73Z"/>
    <path class="cls-16" d="M742.42,421.43c-.97,0-1.84-.21-2.6-.63-.76-.42-1.36-1-1.79-1.73-.43-.73-.65-1.57-.65-2.52s.22-1.79.65-2.52c.43-.73,1.03-1.31,1.79-1.72.76-.41,1.63-.62,2.6-.62.86,0,1.63.17,2.31.51s1.2.85,1.58,1.52l-1.31.85c-.31-.47-.69-.81-1.14-1.04s-.93-.33-1.45-.33c-.62,0-1.18.14-1.67.41s-.88.66-1.17,1.16-.43,1.09-.43,1.77.14,1.28.43,1.78.68.89,1.17,1.17c.49.28,1.05.41,1.67.41.52,0,1-.11,1.45-.33.45-.22.83-.57,1.14-1.04l1.31.83c-.37.66-.9,1.17-1.58,1.52-.68.35-1.45.53-2.31.53Z"/>
    <path class="cls-16" d="M751.33,421.43c-.71,0-1.33-.12-1.86-.36-.53-.24-.95-.57-1.23-1s-.43-.91-.43-1.45.12-.98.37-1.4c.25-.42.65-.76,1.21-1.01.56-.25,1.31-.38,2.26-.38h3.02v1.24h-2.95c-.86,0-1.45.14-1.75.43-.3.29-.45.64-.45,1.04,0,.47.19.84.56,1.12.37.28.89.42,1.55.42s1.22-.14,1.7-.43c.49-.29.84-.71,1.05-1.26l.34,1.19c-.23.56-.63,1.01-1.21,1.34-.58.33-1.3.5-2.18.5ZM754.46,421.32v-2.02l-.09-.38v-3.44c0-.73-.21-1.3-.64-1.7s-1.06-.6-1.92-.6c-.56,0-1.12.09-1.66.28-.54.19-1,.44-1.37.75l-.72-1.3c.49-.4,1.08-.7,1.77-.91.69-.21,1.41-.31,2.17-.31,1.31,0,2.32.32,3.02.95.71.64,1.06,1.61,1.06,2.92v5.76h-1.64Z"/>
    <path class="cls-16" d="M759.3,421.32v-13.36h1.73v13.36h-1.73Z"/>
    <path class="cls-16" d="M684.9,443.03c-.92,0-1.75-.2-2.47-.61-.73-.41-1.3-.98-1.72-1.71-.42-.73-.63-1.58-.63-2.56s.21-1.82.63-2.55c.42-.73.99-1.29,1.72-1.7.73-.41,1.55-.61,2.47-.61.8,0,1.53.18,2.18.54.65.36,1.17.9,1.56,1.62.39.72.58,1.62.58,2.7s-.19,1.98-.57,2.7-.89,1.26-1.54,1.63c-.65.37-1.39.55-2.21.55ZM685.05,441.51c.6,0,1.14-.14,1.63-.41.49-.28.87-.67,1.15-1.18.28-.51.42-1.1.42-1.77s-.14-1.27-.42-1.77c-.28-.5-.67-.88-1.15-1.16-.49-.28-1.03-.41-1.63-.41s-1.16.14-1.64.41c-.48.28-.86.66-1.15,1.16s-.43,1.09-.43,1.77.14,1.26.43,1.77.67.9,1.15,1.18c.48.28,1.03.41,1.64.41ZM688.3,442.92v-2.57l.11-2.21-.18-2.21v-6.35h1.73v13.36h-1.66Z"/>
    <path class="cls-16" d="M697.48,443.03c-1.02,0-1.92-.21-2.69-.63-.77-.42-1.37-1-1.8-1.73-.43-.73-.64-1.57-.64-2.52s.21-1.79.62-2.52c.41-.73.98-1.31,1.71-1.72.73-.41,1.54-.62,2.46-.62s1.74.2,2.45.61c.71.41,1.26.98,1.67,1.72.4.74.6,1.6.6,2.58,0,.07,0,.16,0,.25,0,.1-.02.19-.03.27h-8.12v-1.24h7.22l-.7.43c.01-.61-.11-1.16-.38-1.64-.26-.48-.63-.85-1.09-1.12-.46-.27-1-.4-1.61-.4s-1.13.13-1.6.4c-.47.27-.83.65-1.1,1.13-.26.49-.4,1.04-.4,1.67v.29c0,.64.15,1.2.44,1.7s.71.89,1.23,1.16c.53.28,1.13.41,1.82.41.56,0,1.08-.1,1.54-.29.46-.19.87-.48,1.21-.86l.95,1.12c-.43.5-.97.89-1.61,1.15-.64.26-1.36.4-2.15.4Z"/>
    <path class="cls-16" d="M706.99,443.03c-.79,0-1.54-.11-2.26-.32-.71-.22-1.28-.48-1.68-.79l.72-1.37c.41.28.91.51,1.51.7.6.19,1.21.29,1.84.29.8,0,1.38-.11,1.74-.34.35-.23.53-.55.53-.95,0-.3-.11-.53-.32-.7s-.5-.29-.86-.38c-.35-.08-.75-.16-1.18-.22-.43-.07-.86-.15-1.3-.25-.43-.1-.83-.25-1.19-.43-.36-.19-.65-.44-.86-.77s-.32-.77-.32-1.32.16-1.08.49-1.51c.32-.43.78-.76,1.38-1,.59-.23,1.3-.35,2.11-.35.62,0,1.26.08,1.9.22.64.15,1.17.36,1.58.64l-.74,1.37c-.43-.29-.88-.49-1.35-.59-.47-.11-.94-.16-1.4-.16-.76,0-1.32.12-1.69.37s-.56.56-.56.95c0,.32.11.57.33.75.22.17.51.31.86.4.35.1.75.18,1.18.24.43.07.86.15,1.3.25.43.1.83.24,1.18.42.35.18.64.43.86.76.22.32.33.76.33,1.3,0,.58-.17,1.07-.5,1.49-.34.42-.81.75-1.42.98s-1.34.35-2.2.35Z"/>
    <path class="cls-16" d="M714.13,431.54c-.34,0-.62-.11-.84-.32-.22-.22-.33-.48-.33-.79s.11-.59.33-.81c.22-.22.5-.32.84-.32s.61.1.84.31c.22.21.33.47.33.78s-.11.6-.32.82-.5.33-.85.33ZM713.27,442.92v-9.54h1.73v9.54h-1.73Z"/>
    <path class="cls-16" d="M722.25,442.52c-.92,0-1.75-.19-2.48-.58-.73-.39-1.3-.93-1.73-1.63-.43-.7-.64-1.5-.64-2.41s.21-1.73.64-2.42c.43-.69,1-1.23,1.73-1.61.73-.38,1.55-.58,2.48-.58.82,0,1.56.17,2.23.5.67.33,1.21.84,1.61,1.52.4.68.6,1.55.6,2.59s-.2,1.89-.6,2.57c-.4.68-.94,1.2-1.61,1.54-.67.34-1.42.51-2.23.51ZM722.47,446.52c-.88,0-1.73-.12-2.55-.37-.82-.25-1.49-.6-2.01-1.05l.83-1.33c.44.38.99.69,1.64.91.65.22,1.33.33,2.03.33,1.13,0,1.96-.26,2.48-.79.53-.53.79-1.33.79-2.41v-2.02l.18-1.89-.09-1.91v-2.61h1.64v8.24c0,1.68-.42,2.92-1.26,3.71s-2.07,1.19-3.69,1.19ZM722.45,441.01c.64,0,1.2-.13,1.69-.4.49-.26.88-.63,1.16-1.1.28-.47.42-1.01.42-1.62s-.14-1.15-.42-1.62c-.28-.47-.67-.83-1.16-1.09-.49-.26-1.06-.39-1.69-.39s-1.2.13-1.7.39c-.5.26-.89.62-1.17,1.09-.28.47-.42,1.01-.42,1.62s.14,1.15.42,1.62c.28.47.67.83,1.17,1.1.5.26,1.06.4,1.7.4Z"/>
    <path class="cls-16" d="M730.71,442.92v-9.54h1.66v2.57l-.27-.68c.31-.62.79-1.11,1.44-1.46.65-.35,1.4-.52,2.27-.52.78,0,1.47.15,2.06.45.59.3,1.06.76,1.4,1.37.34.61.5,1.39.5,2.32v5.49h-1.73v-5.29c0-.92-.22-1.62-.67-2.09-.45-.47-1.08-.7-1.9-.7-.61,0-1.15.12-1.6.36-.46.24-.81.59-1.05,1.06s-.37,1.05-.37,1.75v4.91h-1.73Z"/>
  </g>
  <circle class="cls-11" cx="620.04" cy="613.6" r="79.14"/>
  <path class="cls-24" d="M605.57,581.61v-4.36l13.2-17.76h6.8l-12.92,17.76-3.16-.92h22.04v5.28h-25.96ZM620.65,587.49v-5.88l.2-5.28v-5.24h6.12v16.4h-6.32Z"/>
  <g>
    <path class="cls-16" d="M555.64,623.96v-12.6h1.48l5.65,9.52h-.79l5.58-9.52h1.48l.02,12.6h-1.73l-.02-9.88h.41l-4.97,8.35h-.83l-5-8.35h.45v9.88h-1.73Z"/>
    <path class="cls-16" d="M576.66,624.07c-.96,0-1.81-.21-2.56-.63s-1.33-1-1.76-1.74c-.43-.74-.65-1.58-.65-2.51s.22-1.79.65-2.52c.43-.73,1.02-1.31,1.76-1.72.74-.41,1.6-.62,2.56-.62s1.8.21,2.55.62c.75.41,1.34.98,1.76,1.71.43.73.64,1.57.64,2.53s-.21,1.79-.64,2.52c-.43.73-1.01,1.31-1.76,1.73s-1.6.63-2.55.63ZM576.66,622.56c.61,0,1.16-.14,1.65-.41.49-.28.87-.67,1.14-1.18s.41-1.1.41-1.77-.14-1.27-.41-1.77-.66-.88-1.14-1.16c-.49-.28-1.04-.41-1.65-.41s-1.16.14-1.64.41c-.48.28-.86.66-1.15,1.16s-.43,1.09-.43,1.77.14,1.26.43,1.77.67.9,1.15,1.18c.48.28,1.03.41,1.64.41Z"/>
    <path class="cls-16" d="M582.64,615.84v-1.42h6.08v1.42h-6.08ZM587.28,624.07c-.96,0-1.7-.26-2.23-.77s-.79-1.25-.79-2.21v-8.75h1.73v8.68c0,.52.13.91.39,1.19.26.28.63.41,1.11.41.54,0,.99-.15,1.35-.45l.54,1.24c-.26.23-.58.4-.95.5-.37.11-.75.16-1.14.16Z"/>
    <path class="cls-16" d="M595.22,624.07c-.96,0-1.81-.21-2.56-.63s-1.33-1-1.76-1.74c-.43-.74-.65-1.58-.65-2.51s.22-1.79.65-2.52c.43-.73,1.02-1.31,1.76-1.72.74-.41,1.6-.62,2.56-.62s1.8.21,2.55.62c.75.41,1.34.98,1.76,1.71.43.73.64,1.57.64,2.53s-.21,1.79-.64,2.52c-.43.73-1.01,1.31-1.76,1.73s-1.6.63-2.55.63ZM595.22,622.56c.61,0,1.16-.14,1.65-.41.49-.28.87-.67,1.14-1.18s.41-1.1.41-1.77-.14-1.27-.41-1.77-.66-.88-1.14-1.16c-.49-.28-1.04-.41-1.65-.41s-1.16.14-1.64.41c-.48.28-.86.66-1.15,1.16s-.43,1.09-.43,1.77.14,1.26.43,1.77.67.9,1.15,1.18c.48.28,1.03.41,1.64.41Z"/>
    <path class="cls-16" d="M602.56,623.96v-9.54h1.66v2.59l-.16-.65c.26-.66.71-1.16,1.33-1.51.62-.35,1.39-.52,2.3-.52v1.67c-.07-.01-.14-.02-.21-.02h-.19c-.92,0-1.66.28-2.2.83-.54.55-.81,1.35-.81,2.39v4.75h-1.73Z"/>
    <path class="cls-16" d="M614.79,627.45v-13.03h1.66v2.57l-.11,2.21.18,2.21v6.03h-1.73ZM619.84,624.07c-.79,0-1.51-.18-2.17-.55-.65-.37-1.18-.91-1.57-1.63-.39-.72-.58-1.62-.58-2.7s.19-1.98.57-2.7c.38-.72.89-1.26,1.55-1.62.65-.36,1.39-.54,2.2-.54.94,0,1.76.2,2.48.61.72.41,1.29.98,1.71,1.7.42.73.63,1.58.63,2.55s-.21,1.82-.63,2.56c-.42.73-.99,1.3-1.71,1.71s-1.55.61-2.48.61ZM619.7,622.56c.61,0,1.16-.14,1.65-.41.49-.28.87-.67,1.15-1.18s.42-1.1.42-1.77-.14-1.27-.42-1.77-.67-.88-1.15-1.16c-.49-.28-1.04-.41-1.65-.41s-1.14.14-1.63.41-.87.66-1.15,1.16-.42,1.09-.42,1.77.14,1.26.42,1.77.67.9,1.15,1.18c.49.28,1.03.41,1.63.41Z"/>
    <path class="cls-16" d="M627.06,623.96v-9.54h1.66v2.59l-.16-.65c.26-.66.71-1.16,1.33-1.51.62-.35,1.39-.52,2.3-.52v1.67c-.07-.01-.14-.02-.21-.02h-.19c-.92,0-1.66.28-2.2.83-.54.55-.81,1.35-.81,2.39v4.75h-1.73Z"/>
    <path class="cls-16" d="M638.31,624.07c-.96,0-1.81-.21-2.56-.63s-1.33-1-1.76-1.74c-.43-.74-.65-1.58-.65-2.51s.22-1.79.65-2.52c.43-.73,1.02-1.31,1.76-1.72.74-.41,1.6-.62,2.56-.62s1.8.21,2.55.62c.75.41,1.34.98,1.76,1.71.43.73.64,1.57.64,2.53s-.21,1.79-.64,2.52c-.43.73-1.01,1.31-1.76,1.73s-1.6.63-2.55.63ZM638.31,622.56c.61,0,1.16-.14,1.65-.41.49-.28.87-.67,1.14-1.18.28-.51.41-1.1.41-1.77s-.14-1.27-.41-1.77c-.28-.5-.66-.88-1.14-1.16s-1.04-.41-1.65-.41-1.16.14-1.64.41c-.48.28-.86.66-1.15,1.16s-.43,1.09-.43,1.77.14,1.26.43,1.77.67.9,1.15,1.18c.48.28,1.03.41,1.64.41Z"/>
    <path class="cls-16" d="M649.6,624.07c-.92,0-1.75-.2-2.47-.61-.73-.41-1.3-.98-1.72-1.71-.42-.73-.63-1.58-.63-2.56s.21-1.82.63-2.55c.42-.73.99-1.29,1.72-1.7.73-.41,1.55-.61,2.47-.61.8,0,1.53.18,2.18.54.65.36,1.17.9,1.56,1.62.39.72.58,1.62.58,2.7s-.19,1.98-.57,2.7-.89,1.26-1.54,1.63c-.65.37-1.39.55-2.21.55ZM649.74,622.56c.6,0,1.14-.14,1.63-.41.49-.28.87-.67,1.15-1.18.28-.51.42-1.1.42-1.77s-.14-1.27-.42-1.77c-.28-.5-.67-.88-1.15-1.16-.49-.28-1.03-.41-1.63-.41s-1.16.14-1.64.41c-.48.28-.86.66-1.15,1.16s-.43,1.09-.43,1.77.14,1.26.43,1.77.67.9,1.15,1.18c.48.28,1.03.41,1.64.41ZM653,623.96v-2.57l.11-2.21-.18-2.21v-6.35h1.73v13.36h-1.66Z"/>
    <path class="cls-16" d="M661.95,624.07c-.82,0-1.53-.15-2.15-.45s-1.1-.76-1.44-1.38c-.34-.62-.51-1.39-.51-2.33v-5.49h1.73v5.29c0,.94.23,1.64.68,2.11.45.47,1.08.7,1.9.7.6,0,1.12-.12,1.57-.37.44-.25.79-.61,1.03-1.08.24-.47.36-1.05.36-1.72v-4.93h1.73v9.54h-1.64v-2.57l.27.68c-.31.64-.78,1.13-1.4,1.48s-1.33.52-2.11.52Z"/>
    <path class="cls-16" d="M674.28,624.07c-.97,0-1.84-.21-2.6-.63-.76-.42-1.36-1-1.79-1.73-.43-.73-.65-1.57-.65-2.52s.22-1.79.65-2.52c.43-.73,1.03-1.31,1.79-1.72.76-.41,1.63-.62,2.6-.62.86,0,1.63.17,2.31.51s1.2.85,1.58,1.52l-1.31.85c-.31-.47-.69-.81-1.14-1.04s-.93-.33-1.45-.33c-.62,0-1.18.14-1.67.41s-.88.66-1.17,1.16-.43,1.09-.43,1.77.14,1.28.43,1.78.68.89,1.17,1.17c.49.28,1.05.41,1.67.41.52,0,1-.11,1.45-.33.45-.22.83-.57,1.14-1.04l1.31.83c-.37.66-.9,1.17-1.58,1.52-.68.35-1.45.53-2.31.53Z"/>
    <path class="cls-16" d="M679.15,615.84v-1.42h6.08v1.42h-6.08ZM683.8,624.07c-.96,0-1.7-.26-2.23-.77s-.79-1.25-.79-2.21v-8.75h1.73v8.68c0,.52.13.91.39,1.19.26.28.63.41,1.11.41.54,0,.99-.15,1.35-.45l.54,1.24c-.26.23-.58.4-.95.5-.37.11-.75.16-1.14.16Z"/>
    <path class="cls-16" d="M569.95,645.67c-1.02,0-1.92-.21-2.69-.63s-1.37-1-1.8-1.73c-.43-.73-.64-1.57-.64-2.52s.21-1.79.62-2.52c.41-.73.98-1.31,1.71-1.72.73-.41,1.54-.62,2.46-.62s1.74.2,2.45.61c.71.41,1.26.98,1.67,1.72.4.74.6,1.6.6,2.58,0,.07,0,.16,0,.25,0,.1-.01.19-.03.27h-8.12v-1.24h7.22l-.7.43c.01-.61-.11-1.16-.38-1.64-.26-.48-.63-.85-1.09-1.12-.46-.27-1-.4-1.61-.4s-1.13.13-1.6.4c-.47.27-.83.65-1.1,1.13-.26.49-.4,1.04-.4,1.67v.29c0,.64.15,1.2.44,1.7.29.5.7.89,1.23,1.16.53.28,1.13.41,1.82.41.56,0,1.08-.1,1.54-.29.46-.19.87-.48,1.21-.86l.95,1.12c-.43.5-.97.89-1.61,1.15s-1.36.4-2.15.4Z"/>
    <path class="cls-16" d="M576.72,645.56v-9.54h1.66v2.57l-.27-.68c.31-.62.79-1.11,1.44-1.46.65-.35,1.4-.52,2.27-.52.78,0,1.47.15,2.06.45.59.3,1.06.76,1.39,1.37.34.61.5,1.39.5,2.32v5.49h-1.73v-5.29c0-.92-.23-1.62-.67-2.09-.45-.47-1.08-.7-1.9-.7-.61,0-1.15.12-1.6.36-.46.24-.81.59-1.05,1.06s-.37,1.05-.37,1.75v4.91h-1.73Z"/>
    <path class="cls-16" d="M592.93,645.17c-.92,0-1.75-.19-2.47-.58-.73-.39-1.3-.93-1.73-1.63-.43-.7-.64-1.5-.64-2.41s.21-1.73.64-2.42c.43-.69,1-1.23,1.73-1.61.73-.38,1.55-.58,2.47-.58.82,0,1.56.17,2.23.5.67.33,1.21.84,1.61,1.52s.6,1.55.6,2.59-.2,1.89-.6,2.57-.94,1.2-1.61,1.54c-.67.34-1.42.51-2.23.51ZM593.15,649.16c-.88,0-1.72-.12-2.55-.37s-1.49-.6-2.01-1.05l.83-1.33c.44.38.99.69,1.64.91.65.22,1.33.33,2.03.33,1.13,0,1.96-.26,2.48-.79.53-.53.79-1.33.79-2.41v-2.02l.18-1.89-.09-1.91v-2.61h1.64v8.24c0,1.68-.42,2.92-1.26,3.71s-2.07,1.19-3.69,1.19ZM593.13,643.65c.64,0,1.2-.13,1.69-.4.49-.26.88-.63,1.16-1.1s.42-1.01.42-1.62-.14-1.15-.42-1.62c-.28-.47-.67-.83-1.16-1.09-.49-.26-1.06-.39-1.69-.39s-1.2.13-1.7.39c-.5.26-.89.62-1.17,1.09-.28.47-.42,1.01-.42,1.62s.14,1.15.42,1.62.67.83,1.17,1.1c.5.26,1.06.4,1.7.4Z"/>
    <path class="cls-16" d="M602.26,634.19c-.34,0-.62-.11-.84-.32-.22-.22-.33-.48-.33-.79s.11-.59.33-.81c.22-.22.5-.32.84-.32s.61.1.84.31c.22.21.33.47.33.78s-.11.6-.32.82-.5.33-.85.33ZM601.39,645.56v-9.54h1.73v9.54h-1.73Z"/>
    <path class="cls-16" d="M606.42,645.56v-9.54h1.66v2.57l-.27-.68c.31-.62.79-1.11,1.44-1.46.65-.35,1.4-.52,2.27-.52.78,0,1.47.15,2.06.45.59.3,1.06.76,1.4,1.37.34.61.5,1.39.5,2.32v5.49h-1.73v-5.29c0-.92-.22-1.62-.67-2.09-.45-.47-1.08-.7-1.9-.7-.61,0-1.15.12-1.6.36-.46.24-.81.59-1.05,1.06s-.37,1.05-.37,1.75v4.91h-1.73Z"/>
    <path class="cls-16" d="M622.92,645.67c-1.02,0-1.92-.21-2.69-.63s-1.37-1-1.8-1.73c-.43-.73-.64-1.57-.64-2.52s.21-1.79.62-2.52c.41-.73.98-1.31,1.71-1.72.73-.41,1.54-.62,2.46-.62s1.74.2,2.45.61c.71.41,1.26.98,1.67,1.72.4.74.6,1.6.6,2.58,0,.07,0,.16,0,.25,0,.1-.01.19-.03.27h-8.12v-1.24h7.22l-.7.43c.01-.61-.11-1.16-.38-1.64-.26-.48-.63-.85-1.09-1.12-.46-.27-1-.4-1.61-.4s-1.13.13-1.6.4c-.47.27-.83.65-1.1,1.13-.26.49-.4,1.04-.4,1.67v.29c0,.64.15,1.2.44,1.7.29.5.7.89,1.23,1.16.53.28,1.13.41,1.82.41.56,0,1.08-.1,1.54-.29.46-.19.87-.48,1.21-.86l.95,1.12c-.43.5-.97.89-1.61,1.15s-1.36.4-2.15.4Z"/>
    <path class="cls-16" d="M633.94,645.67c-1.02,0-1.92-.21-2.69-.63-.77-.42-1.37-1-1.8-1.73-.43-.73-.64-1.57-.64-2.52s.21-1.79.62-2.52c.41-.73.98-1.31,1.71-1.72.73-.41,1.54-.62,2.46-.62s1.74.2,2.45.61c.71.41,1.26.98,1.67,1.72.4.74.6,1.6.6,2.58,0,.07,0,.16,0,.25,0,.1-.02.19-.03.27h-8.12v-1.24h7.22l-.7.43c.01-.61-.11-1.16-.38-1.64-.26-.48-.63-.85-1.09-1.12-.46-.27-1-.4-1.61-.4s-1.13.13-1.6.4c-.47.27-.83.65-1.1,1.13-.26.49-.4,1.04-.4,1.67v.29c0,.64.15,1.2.44,1.7s.71.89,1.23,1.16c.53.28,1.13.41,1.82.41.56,0,1.08-.1,1.54-.29.46-.19.87-.48,1.21-.86l.95,1.12c-.43.5-.97.89-1.61,1.15-.64.26-1.36.4-2.15.4Z"/>
    <path class="cls-16" d="M640.71,645.56v-9.54h1.66v2.59l-.16-.65c.26-.66.71-1.16,1.33-1.51.62-.35,1.39-.52,2.3-.52v1.67c-.07-.01-.14-.02-.21-.02h-.19c-.92,0-1.66.28-2.2.83-.54.55-.81,1.35-.81,2.39v4.75h-1.73Z"/>
    <path class="cls-16" d="M648.82,634.19c-.34,0-.62-.11-.84-.32s-.33-.48-.33-.79.11-.59.33-.81c.22-.22.5-.32.84-.32s.62.1.84.31c.22.21.33.47.33.78s-.11.6-.32.82c-.22.22-.5.33-.85.33ZM647.96,645.56v-9.54h1.73v9.54h-1.73Z"/>
    <path class="cls-16" d="M652.98,645.56v-9.54h1.66v2.57l-.27-.68c.31-.62.79-1.11,1.44-1.46.65-.35,1.4-.52,2.27-.52.78,0,1.47.15,2.06.45.59.3,1.06.76,1.39,1.37.34.61.5,1.39.5,2.32v5.49h-1.73v-5.29c0-.92-.23-1.62-.67-2.09-.45-.47-1.08-.7-1.9-.7-.61,0-1.15.12-1.6.36-.46.24-.81.59-1.05,1.06s-.37,1.05-.37,1.75v4.91h-1.73Z"/>
    <path class="cls-16" d="M669.2,645.17c-.92,0-1.75-.19-2.47-.58-.73-.39-1.3-.93-1.73-1.63-.43-.7-.64-1.5-.64-2.41s.21-1.73.64-2.42c.43-.69,1-1.23,1.73-1.61.73-.38,1.55-.58,2.47-.58.82,0,1.56.17,2.23.5.67.33,1.21.84,1.61,1.52s.6,1.55.6,2.59-.2,1.89-.6,2.57-.94,1.2-1.61,1.54c-.67.34-1.42.51-2.23.51ZM669.42,649.16c-.88,0-1.72-.12-2.55-.37s-1.49-.6-2.01-1.05l.83-1.33c.44.38.99.69,1.64.91.65.22,1.33.33,2.03.33,1.13,0,1.96-.26,2.48-.79.53-.53.79-1.33.79-2.41v-2.02l.18-1.89-.09-1.91v-2.61h1.64v8.24c0,1.68-.42,2.92-1.26,3.71s-2.07,1.19-3.69,1.19ZM669.4,643.65c.64,0,1.2-.13,1.69-.4.49-.26.88-.63,1.16-1.1s.42-1.01.42-1.62-.14-1.15-.42-1.62c-.28-.47-.67-.83-1.16-1.09-.49-.26-1.06-.39-1.69-.39s-1.2.13-1.7.39c-.5.26-.89.62-1.17,1.09-.28.47-.42,1.01-.42,1.62s.14,1.15.42,1.62.67.83,1.17,1.1c.5.26,1.06.4,1.7.4Z"/>
  </g>
  <circle class="cls-11" cx="402.9" cy="697.03" r="79.14"/>
  <path class="cls-24" d="M390.23,670.26v-4.36l13.2-17.76h6.8l-12.92,17.76-3.16-.92h22.04v5.28h-25.96ZM405.31,676.14v-5.88l.2-5.28v-5.24h6.12v16.4h-6.32Z"/>
  <g>
    <path class="cls-16" d="M388.81,720.14c-.96,0-1.88-.15-2.75-.44-.88-.29-1.57-.67-2.07-1.14l.67-1.4c.48.42,1.09.77,1.84,1.04.74.28,1.52.41,2.32.41.73,0,1.33-.08,1.78-.25.46-.17.79-.4,1.01-.69.22-.29.32-.63.32-1,0-.43-.14-.78-.42-1.04-.28-.26-.65-.48-1.1-.64-.45-.16-.94-.3-1.48-.42s-1.08-.26-1.63-.42c-.55-.16-1.04-.37-1.49-.62-.45-.25-.81-.59-1.09-1.02-.28-.43-.41-.97-.41-1.65s.17-1.25.51-1.79c.34-.55.87-.98,1.58-1.31.71-.33,1.62-.5,2.73-.5.73,0,1.46.1,2.18.29.72.19,1.34.47,1.87.83l-.59,1.44c-.54-.36-1.11-.62-1.71-.78s-1.18-.24-1.75-.24c-.71,0-1.29.09-1.75.27-.46.18-.79.42-1,.72s-.31.64-.31,1.01c0,.44.14.8.42,1.06.28.26.65.47,1.1.63.45.16.94.3,1.48.42s1.08.27,1.63.42,1.04.36,1.49.61.81.59,1.09,1.01.41.96.41,1.62-.17,1.23-.52,1.77c-.35.55-.89.98-1.61,1.31-.73.33-1.64.5-2.75.5Z"/>
    <path class="cls-16" d="M402.01,720.14c-.96,0-1.85-.16-2.67-.49-.82-.32-1.53-.78-2.13-1.36-.6-.58-1.07-1.26-1.4-2.04-.34-.78-.5-1.63-.5-2.56s.17-1.78.5-2.56c.34-.78.8-1.46,1.4-2.04s1.31-1.04,2.12-1.36c.82-.32,1.71-.49,2.68-.49s1.84.16,2.65.48c.81.32,1.52.77,2.12,1.35.61.58,1.07,1.26,1.4,2.04.33.78.5,1.64.5,2.57s-.17,1.79-.5,2.57-.8,1.46-1.4,2.04c-.61.58-1.31,1.03-2.12,1.35-.81.32-1.69.48-2.65.48ZM402.01,718.54c.7,0,1.34-.12,1.93-.36s1.11-.58,1.55-1.03c.44-.44.78-.96,1.03-1.55s.37-1.22.37-1.91-.12-1.34-.37-1.93-.59-1.1-1.03-1.54c-.44-.44-.95-.78-1.55-1.02-.59-.24-1.24-.36-1.93-.36s-1.36.12-1.95.36c-.59.24-1.11.58-1.56,1.02s-.79.95-1.03,1.54c-.25.59-.37,1.23-.37,1.93s.12,1.32.37,1.91c.25.59.59,1.1,1.03,1.55.44.44.96.79,1.56,1.03s1.24.36,1.95.36ZM406.13,722.62c-.42,0-.82-.05-1.21-.15-.38-.1-.77-.26-1.15-.49-.38-.22-.78-.51-1.19-.86-.41-.35-.85-.79-1.33-1.3l1.93-.5c.36.44.7.81,1.04,1.09.33.28.66.49.98.61s.64.19.95.19c.9,0,1.67-.36,2.3-1.08l.85,1.03c-.82.98-1.87,1.48-3.17,1.48Z"/>
    <path class="cls-16" d="M409.35,719.99l5.71-12.6h1.78l5.72,12.6h-1.89l-5.09-11.59h.72l-5.09,11.59h-1.85ZM411.78,716.84l.49-1.44h7.09l.52,1.44h-8.1Z"/>
  </g>
  <circle class="cls-7" cx="406.24" cy="408.57" r="125.81"/>
  <circle class="cls-5" cx="406.24" cy="408.57" r="134.56"/>
  <g>
    <path class="cls-16" d="M382.53,396.88c-3.8,0-7.57-.51-11.31-1.52s-6.92-2.46-9.52-4.33l4.91-9.67c2.08,1.51,4.5,2.7,7.25,3.59,2.76.88,5.54,1.33,8.35,1.33,3.17,0,5.67-.62,7.49-1.87,1.82-1.25,2.73-2.96,2.73-5.15s-.81-3.72-2.42-4.91c-1.61-1.2-4.21-1.79-7.8-1.79h-5.77v-8.35l15.21-17.24,1.4,4.52h-28.63v-10.14h38.22v8.19l-15.13,17.24-6.4-3.67h3.67c6.71,0,11.78,1.51,15.21,4.52,3.43,3.02,5.15,6.89,5.15,11.62,0,3.07-.81,5.94-2.42,8.62-1.61,2.68-4.08,4.85-7.41,6.51-3.33,1.66-7.59,2.5-12.79,2.5Z"/>
    <path class="cls-16" d="M428.79,396.88c-3.8,0-7.55-.51-11.27-1.52-3.72-1.01-6.9-2.46-9.55-4.33l4.99-9.67c2.08,1.51,4.48,2.7,7.21,3.59,2.73.88,5.5,1.33,8.31,1.33,3.17,0,5.67-.62,7.49-1.87,1.82-1.25,2.73-2.99,2.73-5.23,0-1.4-.36-2.65-1.09-3.74-.73-1.09-2.02-1.92-3.86-2.5-1.85-.57-4.43-.86-7.76-.86h-13.96l2.81-30.73h33.31v10.14h-28.78l6.55-5.77-1.95,21.92-6.55-5.77h11.54c5.41,0,9.76.74,13.07,2.22,3.3,1.48,5.71,3.5,7.21,6.04,1.51,2.55,2.26,5.43,2.26,8.66s-.81,6.2-2.42,8.93c-1.61,2.73-4.09,4.94-7.45,6.63-3.35,1.69-7.63,2.54-12.83,2.54Z"/>
  </g>
  <g>
    <path class="cls-16" d="M320.26,445.07v-17.54h-6.87v-2.49h16.57v2.49h-6.87v17.54h-2.83Z"/>
    <path class="cls-16" d="M341.83,445.3c-1.53,0-2.94-.26-4.25-.77-1.31-.51-2.44-1.23-3.39-2.16-.95-.92-1.7-2.01-2.23-3.25-.53-1.24-.8-2.59-.8-4.06s.27-2.82.8-4.06c.53-1.24,1.28-2.32,2.23-3.25.95-.93,2.08-1.65,3.38-2.16,1.3-.51,2.72-.77,4.26-.77s2.93.25,4.22.76,2.41,1.22,3.38,2.15c.96.93,1.71,2.01,2.23,3.25.52,1.24.79,2.6.79,4.09s-.26,2.85-.79,4.09c-.52,1.24-1.27,2.32-2.23,3.25-.96.93-2.09,1.64-3.38,2.15-1.29.51-2.69.76-4.22.76ZM341.83,442.76c1.11,0,2.13-.19,3.08-.57.94-.38,1.76-.92,2.46-1.62s1.24-1.51,1.63-2.45c.39-.93.59-1.96.59-3.06s-.2-2.13-.59-3.06c-.39-.93-.94-1.75-1.63-2.45s-1.52-1.24-2.46-1.62c-.94-.38-1.97-.57-3.08-.57s-2.16.19-3.1.57c-.94.38-1.77.92-2.48,1.62-.71.7-1.25,1.51-1.65,2.45s-.59,1.96-.59,3.06.2,2.13.59,3.06.94,1.75,1.65,2.45c.71.7,1.53,1.24,2.48,1.62s1.98.57,3.1.57Z"/>
    <path class="cls-16" d="M360.52,445.07v-17.54h-6.87v-2.49h16.57v2.49h-6.87v17.54h-2.83Z"/>
    <path class="cls-16" d="M369.3,445.07l9.07-20.03h2.83l9.1,20.03h-3l-8.1-18.43h1.14l-8.1,18.43h-2.95ZM373.16,440.07l.77-2.29h11.27l.83,2.29h-12.88Z"/>
    <path class="cls-16" d="M393.28,445.07v-20.03h2.86v17.54h10.84v2.49h-13.71Z"/>
    <path class="cls-16" d="M421.95,445.07v-17.54h-6.87v-2.49h16.57v2.49h-6.87v17.54h-2.83Z"/>
    <path class="cls-16" d="M434.77,445.07v-20.03h14.13v2.49h-11.27v15.05h11.67v2.49h-14.54ZM437.37,436.12v-2.43h10.3v2.43h-10.3Z"/>
    <path class="cls-16" d="M450.91,445.07l9.07-20.03h2.83l9.1,20.03h-3l-8.1-18.43h1.14l-8.1,18.43h-2.95ZM454.77,440.07l.77-2.29h11.27l.83,2.29h-12.88Z"/>
    <path class="cls-16" d="M474.89,445.07v-20.03h2.35l8.99,15.14h-1.26l8.87-15.14h2.35l.03,20.03h-2.75l-.03-15.71h.66l-7.9,13.28h-1.32l-7.95-13.28h.71v15.71h-2.75Z"/>
    <path class="cls-16" d="M321.43,465.61c-.91,0-1.74-.15-2.51-.45-.77-.3-1.43-.73-1.99-1.28-.56-.55-1-1.19-1.32-1.93-.32-.74-.48-1.55-.48-2.43s.16-1.69.48-2.43.76-1.38,1.33-1.93c.57-.55,1.23-.97,2-1.28.76-.3,1.6-.45,2.51-.45s1.77.16,2.54.47c.78.31,1.44.77,1.98,1.39l-1.1,1.07c-.45-.48-.96-.83-1.53-1.06-.57-.23-1.17-.35-1.82-.35s-1.29.11-1.86.34c-.57.23-1.07.54-1.49.95-.42.41-.75.89-.98,1.45-.23.56-.35,1.17-.35,1.83s.12,1.27.35,1.83c.23.56.56,1.04.98,1.45s.92.73,1.49.95c.57.23,1.19.34,1.86.34s1.25-.12,1.82-.35c.57-.23,1.08-.59,1.53-1.08l1.1,1.07c-.54.61-1.2,1.08-1.98,1.39-.78.32-1.63.48-2.56.48Z"/>
    <path class="cls-16" d="M327.99,465.47v-9.01h1.56v2.45l-.15-.61c.25-.62.67-1.1,1.26-1.43.59-.33,1.31-.49,2.18-.49v1.58c-.07-.01-.13-.02-.2-.02h-.18c-.87,0-1.56.26-2.07.78-.51.52-.76,1.28-.76,2.26v4.49h-1.63Z"/>
    <path class="cls-16" d="M338.62,465.57c-.91,0-1.71-.2-2.41-.59-.7-.4-1.26-.94-1.67-1.64-.41-.7-.61-1.49-.61-2.37s.2-1.69.61-2.38c.41-.69.96-1.23,1.67-1.62.7-.39,1.51-.59,2.41-.59s1.7.2,2.41.59c.71.39,1.26.93,1.67,1.62s.6,1.48.6,2.39-.2,1.69-.6,2.38-.96,1.24-1.67,1.63c-.71.4-1.51.59-2.41.59ZM338.62,464.15c.58,0,1.1-.13,1.56-.39s.82-.63,1.08-1.11c.26-.48.39-1.04.39-1.67s-.13-1.2-.39-1.67c-.26-.47-.62-.84-1.08-1.1-.46-.26-.98-.39-1.56-.39s-1.09.13-1.55.39c-.45.26-.82.63-1.09,1.1-.27.47-.41,1.03-.41,1.67s.14,1.19.41,1.67c.27.48.63.85,1.09,1.11s.97.39,1.55.39Z"/>
    <path class="cls-16" d="M348.14,465.57c-.75,0-1.46-.1-2.13-.31s-1.2-.45-1.59-.75l.68-1.29c.39.26.86.48,1.43.66.57.18,1.14.27,1.73.27.76,0,1.31-.11,1.64-.32.33-.21.5-.52.5-.9,0-.28-.1-.5-.31-.66-.2-.16-.47-.28-.81-.36s-.71-.15-1.11-.21-.82-.14-1.22-.24c-.41-.1-.78-.23-1.12-.41-.34-.18-.61-.42-.82-.73s-.31-.73-.31-1.25.15-1.02.46-1.43c.31-.41.74-.72,1.3-.94s1.23-.33,2-.33c.59,0,1.19.07,1.79.21.61.14,1.1.34,1.49.6l-.7,1.29c-.41-.27-.83-.46-1.27-.56-.44-.1-.88-.15-1.33-.15-.71,0-1.25.12-1.6.35s-.53.53-.53.89c0,.31.1.54.31.71.21.17.48.29.82.38s.71.17,1.11.23c.41.06.82.14,1.22.24.41.1.78.23,1.11.4.33.17.61.41.82.71.21.31.31.71.31,1.22,0,.54-.16,1.01-.48,1.41-.32.4-.76.71-1.34.93s-1.27.33-2.07.33Z"/>
    <path class="cls-16" d="M356.65,465.57c-.75,0-1.46-.1-2.13-.31s-1.2-.45-1.59-.75l.68-1.29c.39.26.86.48,1.43.66.57.18,1.14.27,1.73.27.76,0,1.31-.11,1.64-.32.33-.21.5-.52.5-.9,0-.28-.1-.5-.31-.66-.2-.16-.47-.28-.81-.36s-.71-.15-1.11-.21-.82-.14-1.22-.24c-.41-.1-.78-.23-1.12-.41-.34-.18-.61-.42-.82-.73s-.31-.73-.31-1.25.15-1.02.46-1.43c.31-.41.74-.72,1.3-.94s1.23-.33,2-.33c.59,0,1.19.07,1.79.21.61.14,1.1.34,1.49.6l-.7,1.29c-.41-.27-.83-.46-1.27-.56-.44-.1-.88-.15-1.33-.15-.71,0-1.25.12-1.6.35s-.53.53-.53.89c0,.31.1.54.31.71.21.17.48.29.82.38s.71.17,1.11.23c.41.06.82.14,1.22.24.41.1.78.23,1.11.4.33.17.61.41.82.71.21.31.31.71.31,1.22,0,.54-.16,1.01-.48,1.41-.32.4-.76.71-1.34.93s-1.27.33-2.07.33Z"/>
    <path class="cls-16" d="M362.01,461.51v-1.41h4.57v1.41h-4.57Z"/>
    <path class="cls-16" d="M367.8,457.81v-1.34h5.75v1.34h-5.75ZM369.33,465.47v-9.81c0-.88.26-1.59.77-2.12.52-.53,1.25-.79,2.2-.79.35,0,.69.04,1.01.13.32.08.6.22.82.4l-.49,1.24c-.17-.14-.36-.24-.58-.31-.22-.07-.44-.11-.68-.11-.48,0-.84.13-1.09.4-.25.27-.37.66-.37,1.18v1.21l.03.75v7.84h-1.63Z"/>
    <path class="cls-16" d="M378.89,465.57c-.77,0-1.45-.14-2.03-.42-.58-.28-1.04-.72-1.36-1.3-.32-.58-.48-1.32-.48-2.2v-5.18h1.63v5c0,.88.21,1.55.64,1.99.43.44,1.02.66,1.79.66.57,0,1.06-.12,1.48-.35.42-.23.74-.57.97-1.02.23-.45.34-.99.34-1.62v-4.66h1.63v9.01h-1.55v-2.43l.25.65c-.29.6-.74,1.07-1.33,1.39-.59.33-1.25.49-1.99.49Z"/>
    <path class="cls-16" d="M386.61,465.47v-9.01h1.56v2.43l-.25-.65c.29-.59.75-1.05,1.36-1.38.61-.33,1.33-.49,2.14-.49.74,0,1.39.14,1.95.42s1,.71,1.32,1.29c.32.58.48,1.31.48,2.19v5.18h-1.63v-5c0-.87-.21-1.53-.64-1.97-.43-.44-1.02-.66-1.79-.66-.58,0-1.08.11-1.51.34s-.76.56-.99,1-.35.99-.35,1.65v4.64h-1.63Z"/>
    <path class="cls-16" d="M402.11,465.57c-.92,0-1.74-.2-2.46-.59-.72-.4-1.28-.94-1.69-1.63-.41-.69-.61-1.48-.61-2.38s.2-1.69.61-2.38c.41-.69.97-1.23,1.69-1.62.72-.39,1.54-.59,2.46-.59.82,0,1.54.16,2.18.48s1.14.8,1.49,1.44l-1.24.8c-.29-.44-.65-.77-1.08-.98-.43-.21-.88-.31-1.37-.31-.59,0-1.12.13-1.58.39-.46.26-.83.63-1.1,1.1-.27.47-.41,1.03-.41,1.67s.14,1.21.41,1.68c.27.48.64.84,1.1,1.11s.99.39,1.58.39c.49,0,.94-.1,1.37-.31.42-.21.78-.54,1.08-.98l1.24.78c-.35.62-.85,1.1-1.49,1.44s-1.37.5-2.18.5Z"/>
    <path class="cls-16" d="M406.72,457.81v-1.34h5.75v1.34h-5.75ZM411.1,465.57c-.91,0-1.61-.24-2.11-.73-.5-.49-.75-1.18-.75-2.09v-8.26h1.63v8.19c0,.49.12.86.37,1.12.24.26.59.39,1.05.39.51,0,.93-.14,1.27-.42l.51,1.17c-.25.22-.55.37-.89.48-.35.1-.71.15-1.08.15Z"/>
    <path class="cls-16" d="M415.86,454.73c-.32,0-.58-.1-.79-.31s-.31-.45-.31-.75.1-.56.31-.77c.21-.2.47-.31.79-.31s.58.1.79.3.31.44.31.74-.1.56-.31.77-.47.31-.8.31ZM415.05,465.47v-9.01h1.63v9.01h-1.63Z"/>
    <path class="cls-16" d="M423.65,465.57c-.91,0-1.71-.2-2.41-.59-.7-.4-1.26-.94-1.67-1.64-.41-.7-.61-1.49-.61-2.37s.2-1.69.61-2.38.96-1.23,1.67-1.62c.7-.39,1.51-.59,2.41-.59s1.7.2,2.41.59c.71.39,1.26.93,1.67,1.62s.6,1.48.6,2.39-.2,1.69-.6,2.38-.96,1.24-1.67,1.63c-.71.4-1.51.59-2.41.59ZM423.65,464.15c.58,0,1.1-.13,1.56-.39s.82-.63,1.08-1.11c.26-.48.39-1.04.39-1.67s-.13-1.2-.39-1.67c-.26-.47-.62-.84-1.08-1.1-.46-.26-.98-.39-1.56-.39s-1.09.13-1.55.39c-.45.26-.82.63-1.09,1.1-.27.47-.41,1.03-.41,1.67s.14,1.19.41,1.67c.27.48.63.85,1.09,1.11.45.26.97.39,1.55.39Z"/>
    <path class="cls-16" d="M430.58,465.47v-9.01h1.56v2.43l-.25-.65c.29-.59.75-1.05,1.36-1.38.61-.33,1.33-.49,2.14-.49.74,0,1.38.14,1.95.42.56.28,1,.71,1.32,1.29s.48,1.31.48,2.19v5.18h-1.63v-5c0-.87-.21-1.53-.64-1.97-.42-.44-1.02-.66-1.79-.66-.58,0-1.08.11-1.51.34-.43.23-.76.56-1,1s-.35.99-.35,1.65v4.64h-1.63Z"/>
    <path class="cls-16" d="M444.8,465.57c-.67,0-1.25-.11-1.76-.34-.5-.23-.89-.54-1.17-.94-.27-.4-.41-.86-.41-1.37s.12-.93.35-1.33.61-.71,1.14-.95c.53-.24,1.24-.36,2.13-.36h2.86v1.17h-2.79c-.82,0-1.37.14-1.65.41-.28.27-.42.6-.42.99,0,.44.18.8.53,1.06.35.27.84.4,1.46.4s1.15-.14,1.61-.41c.46-.27.79-.67.99-1.19l.32,1.12c-.22.53-.59.96-1.14,1.27s-1.23.47-2.06.47ZM447.75,465.47v-1.9l-.08-.36v-3.25c0-.69-.2-1.23-.6-1.61s-1.01-.57-1.81-.57c-.53,0-1.05.09-1.56.26-.51.18-.94.41-1.29.71l-.68-1.22c.46-.37,1.02-.66,1.67-.86.65-.2,1.33-.3,2.05-.3,1.24,0,2.19.3,2.86.9.67.6,1,1.52,1,2.75v5.44h-1.55Z"/>
    <path class="cls-16" d="M452.33,465.47v-12.61h1.63v12.61h-1.63Z"/>
    <path class="cls-16" d="M461.88,465.47v-11.9h4.64c1.54,0,2.75.37,3.64,1.1.88.73,1.33,1.75,1.33,3.05,0,.86-.2,1.6-.59,2.22-.4.62-.96,1.09-1.7,1.42-.74.33-1.63.49-2.67.49h-3.71l.77-.78v4.4h-1.7ZM463.58,461.24l-.77-.83h3.66c1.09,0,1.91-.23,2.47-.71.56-.47.84-1.13.84-1.98s-.28-1.51-.84-1.97c-.56-.46-1.39-.7-2.47-.7h-3.66l.77-.85v7.04ZM469.84,465.47l-3.03-4.32h1.82l3.06,4.32h-1.85Z"/>
    <path class="cls-16" d="M482.95,465.66l-6.68-6.65c-.4-.4-.71-.75-.93-1.06s-.39-.61-.49-.91c-.1-.29-.15-.6-.15-.9,0-.53.13-1,.4-1.4.27-.4.64-.71,1.12-.94.48-.22,1.05-.33,1.69-.33.6,0,1.12.1,1.56.3s.79.48,1.03.85c.24.37.37.81.37,1.33,0,.45-.11.87-.33,1.26-.22.38-.58.76-1.06,1.12-.49.36-1.14.75-1.97,1.17-.68.35-1.21.68-1.6.98-.38.3-.66.6-.82.89s-.25.62-.25.97c0,.37.11.71.33.99s.53.51.94.67c.4.16.87.24,1.4.24.76,0,1.44-.16,2.06-.49s1.12-.82,1.54-1.48c.41-.66.72-1.47.91-2.45l1.31.42c-.23,1.14-.61,2.11-1.16,2.91-.55.79-1.23,1.4-2.03,1.82-.81.42-1.71.63-2.72.63-.8,0-1.52-.13-2.14-.39s-1.12-.62-1.48-1.09c-.36-.46-.54-1-.54-1.62,0-.53.12-1.02.36-1.46s.62-.87,1.14-1.28c.52-.41,1.21-.84,2.06-1.28.69-.36,1.23-.68,1.62-.95.39-.27.67-.53.83-.77.16-.24.25-.51.25-.79,0-.38-.14-.7-.41-.94-.27-.24-.66-.37-1.17-.37s-.95.13-1.25.4c-.3.27-.45.61-.45,1.04,0,.22.04.42.11.62.07.2.21.42.41.66.2.24.48.55.86.93l6.29,6.26-.92,1.09Z"/>
    <path class="cls-16" d="M485.9,465.47v-11.9h5.01c1.27,0,2.39.25,3.36.75.97.5,1.72,1.2,2.26,2.09.54.89.81,1.93.81,3.11s-.27,2.22-.81,3.11c-.54.9-1.29,1.59-2.26,2.09-.97.5-2.09.75-3.36.75h-5.01ZM487.6,463.99h3.21c.99,0,1.84-.19,2.56-.56s1.28-.9,1.67-1.57c.4-.67.6-1.45.6-2.34s-.2-1.68-.6-2.35-.95-1.19-1.67-1.56-1.57-.56-2.56-.56h-3.21v8.94Z"/>
  </g>
  <circle class="cls-11" cx="182.29" cy="617.6" r="79.14"/>
  <path class="cls-24" d="M185.36,594.4c-1.95,0-3.88-.26-5.8-.78-1.92-.52-3.55-1.26-4.88-2.22l2.52-4.96c1.07.77,2.31,1.39,3.72,1.84,1.41.45,2.84.68,4.28.68,1.63,0,2.91-.32,3.84-.96.93-.64,1.4-1.52,1.4-2.64s-.41-1.91-1.24-2.52c-.83-.61-2.16-.92-4-.92h-2.96v-4.28l7.8-8.84.72,2.32h-14.68v-5.2h19.6v4.2l-7.76,8.84-3.28-1.88h1.88c3.44,0,6.04.77,7.8,2.32,1.76,1.55,2.64,3.53,2.64,5.96,0,1.57-.41,3.05-1.24,4.42-.83,1.37-2.09,2.49-3.8,3.34-1.71.85-3.89,1.28-6.56,1.28Z"/>
  <g>
    <path class="cls-16" d="M167.31,631.25v-12.6h1.8v11.03h6.82v1.57h-8.62Z"/>
    <path class="cls-16" d="M180.54,631.35c-.71,0-1.33-.12-1.86-.36-.53-.24-.94-.57-1.23-1s-.43-.91-.43-1.45.12-.98.37-1.4c.25-.42.65-.76,1.21-1.01s1.31-.38,2.26-.38h3.02v1.24h-2.95c-.86,0-1.45.14-1.75.43-.3.29-.45.64-.45,1.04,0,.47.19.84.56,1.12.37.28.89.42,1.55.42s1.22-.14,1.7-.43.84-.71,1.05-1.26l.34,1.19c-.23.56-.63,1.01-1.21,1.34-.58.33-1.3.5-2.18.5ZM183.67,631.25v-2.02l-.09-.38v-3.44c0-.73-.21-1.3-.64-1.7-.43-.4-1.06-.6-1.92-.6-.56,0-1.12.09-1.66.28-.54.19-1,.44-1.37.75l-.72-1.3c.49-.4,1.08-.7,1.77-.91s1.41-.31,2.17-.31c1.31,0,2.32.32,3.02.95.71.64,1.06,1.61,1.06,2.92v5.76h-1.64Z"/>
    <path class="cls-16" d="M188.51,631.25v-13.36h1.73v6.35l-.18,2.21.11,2.21v2.57h-1.66ZM193.57,631.35c-.82,0-1.55-.18-2.2-.55-.65-.37-1.17-.91-1.55-1.63s-.57-1.62-.57-2.7.19-1.98.58-2.7c.39-.72.91-1.26,1.57-1.62.65-.36,1.38-.54,2.17-.54.94,0,1.76.2,2.48.61.72.41,1.29.98,1.71,1.7.42.73.63,1.58.63,2.55s-.21,1.82-.63,2.56c-.42.73-.99,1.3-1.71,1.71-.72.41-1.55.61-2.48.61ZM193.43,629.84c.61,0,1.16-.14,1.65-.41.49-.28.87-.67,1.15-1.18.28-.51.42-1.1.42-1.77s-.14-1.27-.42-1.77c-.28-.5-.67-.88-1.15-1.16-.49-.28-1.04-.41-1.65-.41s-1.14.14-1.63.41c-.49.28-.87.66-1.15,1.16-.28.5-.42,1.09-.42,1.77s.14,1.26.42,1.77c.28.51.67.9,1.15,1.18.49.28,1.03.41,1.63.41Z"/>
    <path class="cls-16" d="M146.55,652.95c-1.02,0-1.92-.21-2.69-.63-.77-.42-1.37-1-1.8-1.73-.43-.73-.64-1.57-.64-2.52s.21-1.79.62-2.52c.41-.73.98-1.31,1.71-1.72.73-.41,1.54-.62,2.46-.62s1.74.2,2.45.61c.71.41,1.26.98,1.67,1.72.4.74.6,1.6.6,2.58,0,.07,0,.16,0,.25,0,.1-.02.19-.03.27h-8.12v-1.24h7.22l-.7.43c.01-.61-.11-1.16-.38-1.64-.26-.48-.63-.85-1.09-1.12-.46-.27-1-.4-1.61-.4s-1.13.13-1.6.4c-.47.27-.83.65-1.1,1.13-.26.49-.4,1.04-.4,1.67v.29c0,.64.15,1.2.44,1.7.29.5.7.89,1.23,1.16.53.28,1.13.41,1.82.41.56,0,1.08-.1,1.54-.29.46-.19.87-.48,1.21-.86l.95,1.12c-.43.5-.97.89-1.61,1.15-.64.26-1.36.4-2.15.4Z"/>
    <path class="cls-16" d="M153.32,652.85v-13.36h1.73v13.36h-1.73Z"/>
    <path class="cls-16" d="M162.59,652.95c-1.02,0-1.92-.21-2.69-.63-.77-.42-1.37-1-1.8-1.73-.43-.73-.64-1.57-.64-2.52s.21-1.79.62-2.52c.41-.73.98-1.31,1.71-1.72.73-.41,1.54-.62,2.46-.62s1.74.2,2.45.61c.71.41,1.26.98,1.67,1.72.4.74.6,1.6.6,2.58,0,.07,0,.16,0,.25,0,.1-.02.19-.03.27h-8.12v-1.24h7.22l-.7.43c.01-.61-.11-1.16-.38-1.64-.26-.48-.63-.85-1.09-1.12-.46-.27-1-.4-1.61-.4s-1.13.13-1.6.4c-.47.27-.83.65-1.1,1.13-.26.49-.4,1.04-.4,1.67v.29c0,.64.15,1.2.44,1.7.29.5.7.89,1.23,1.16.53.28,1.13.41,1.82.41.56,0,1.08-.1,1.54-.29.46-.19.87-.48,1.21-.86l.95,1.12c-.43.5-.97.89-1.61,1.15-.64.26-1.36.4-2.15.4Z"/>
    <path class="cls-16" d="M173.51,652.95c-.97,0-1.84-.21-2.6-.63s-1.36-1-1.79-1.73c-.43-.73-.65-1.57-.65-2.52s.22-1.79.65-2.52c.43-.73,1.03-1.31,1.79-1.72.76-.41,1.63-.62,2.6-.62.86,0,1.63.17,2.31.51.68.34,1.2.85,1.58,1.52l-1.31.85c-.31-.47-.69-.81-1.14-1.04-.45-.22-.93-.33-1.45-.33-.62,0-1.18.14-1.67.41-.49.28-.88.66-1.17,1.16-.29.5-.43,1.09-.43,1.77s.14,1.28.43,1.78c.29.5.68.89,1.17,1.17.49.28,1.05.41,1.67.41.52,0,1-.11,1.45-.33.45-.22.83-.57,1.14-1.04l1.31.83c-.37.66-.9,1.17-1.58,1.52-.68.35-1.45.53-2.31.53Z"/>
    <path class="cls-16" d="M178.39,644.73v-1.42h6.08v1.42h-6.08ZM183.03,652.95c-.96,0-1.7-.26-2.23-.77-.53-.52-.79-1.25-.79-2.21v-8.75h1.73v8.68c0,.52.13.91.39,1.19.26.28.63.41,1.11.41.54,0,.99-.15,1.35-.45l.54,1.24c-.26.23-.58.4-.94.5-.37.11-.75.16-1.14.16Z"/>
    <path class="cls-16" d="M187.21,652.85v-9.54h1.66v2.59l-.16-.65c.26-.66.71-1.16,1.33-1.51.62-.35,1.39-.52,2.3-.52v1.67c-.07-.01-.14-.02-.21-.02h-.19c-.92,0-1.66.28-2.2.83-.54.55-.81,1.35-.81,2.39v4.75h-1.73Z"/>
    <path class="cls-16" d="M195.33,641.47c-.34,0-.62-.11-.84-.32-.22-.22-.33-.48-.33-.79s.11-.59.33-.81c.22-.22.5-.32.84-.32s.61.1.84.31.33.47.33.78-.11.6-.32.82c-.22.22-.5.33-.85.33ZM194.46,652.85v-9.54h1.73v9.54h-1.73Z"/>
    <path class="cls-16" d="M203.64,652.95c-.97,0-1.84-.21-2.6-.63s-1.36-1-1.79-1.73c-.43-.73-.65-1.57-.65-2.52s.22-1.79.65-2.52c.43-.73,1.03-1.31,1.79-1.72.76-.41,1.63-.62,2.6-.62.86,0,1.63.17,2.31.51.68.34,1.2.85,1.58,1.52l-1.31.85c-.31-.47-.69-.81-1.14-1.04-.45-.22-.93-.33-1.45-.33-.62,0-1.18.14-1.67.41-.49.28-.88.66-1.17,1.16s-.43,1.09-.43,1.77.14,1.28.43,1.78.68.89,1.17,1.17c.49.28,1.05.41,1.67.41.52,0,1-.11,1.45-.33.45-.22.83-.57,1.14-1.04l1.31.83c-.37.66-.9,1.17-1.58,1.52-.68.35-1.45.53-2.31.53Z"/>
    <path class="cls-16" d="M212.55,652.95c-.71,0-1.33-.12-1.86-.36-.53-.24-.94-.57-1.23-1s-.43-.91-.43-1.45.12-.98.37-1.4c.25-.42.65-.76,1.21-1.01s1.31-.38,2.26-.38h3.02v1.24h-2.95c-.86,0-1.45.14-1.75.43-.3.29-.45.64-.45,1.04,0,.47.19.84.56,1.12.37.28.89.42,1.55.42s1.22-.14,1.7-.43.84-.71,1.05-1.26l.34,1.19c-.23.56-.63,1.01-1.21,1.34-.58.33-1.3.5-2.18.5ZM215.68,652.85v-2.02l-.09-.38v-3.44c0-.73-.21-1.3-.64-1.7-.43-.4-1.06-.6-1.92-.6-.56,0-1.12.09-1.66.28-.54.19-1,.44-1.37.75l-.72-1.3c.49-.4,1.08-.7,1.77-.91s1.41-.31,2.17-.31c1.31,0,2.32.32,3.02.95.71.64,1.06,1.61,1.06,2.92v5.76h-1.64Z"/>
    <path class="cls-16" d="M220.53,652.85v-13.36h1.73v13.36h-1.73Z"/>
  </g>
  <circle class="cls-11" cx="93.58" cy="414.18" r="79.14"/>
  <path class="cls-24" d="M80.44,386.9v-4.36l13.2-17.76h6.8l-12.92,17.76-3.16-.92h22.04v5.28h-25.96ZM95.52,392.78v-5.88l.2-5.28v-5.24h6.12v16.4h-6.32Z"/>
  <g>
    <path class="cls-16" d="M60.98,421.46c-.96,0-1.88-.15-2.75-.44s-1.57-.68-2.07-1.14l.67-1.4c.48.42,1.09.77,1.84,1.04.74.28,1.52.41,2.32.41.73,0,1.33-.08,1.78-.25.46-.17.79-.4,1.01-.69s.32-.63.32-1c0-.43-.14-.78-.42-1.04-.28-.26-.65-.48-1.1-.64-.45-.16-.94-.3-1.48-.42-.54-.12-1.08-.26-1.63-.42-.55-.16-1.04-.37-1.49-.62s-.81-.59-1.09-1.02c-.28-.43-.41-.97-.41-1.65s.17-1.24.51-1.79c.34-.55.87-.98,1.58-1.31s1.62-.5,2.73-.5c.73,0,1.46.1,2.18.29s1.34.47,1.87.83l-.59,1.44c-.54-.36-1.11-.62-1.71-.78-.6-.16-1.18-.24-1.75-.24-.71,0-1.29.09-1.75.27s-.79.42-1,.72c-.21.3-.32.64-.32,1.01,0,.44.14.8.42,1.06s.65.47,1.1.63c.45.16.94.3,1.48.42s1.08.27,1.63.42c.55.16,1.04.36,1.49.61s.81.59,1.09,1.01c.28.42.41.96.41,1.62s-.17,1.23-.52,1.77c-.35.55-.89.98-1.61,1.31-.73.33-1.64.5-2.75.5Z"/>
    <path class="cls-16" d="M68.65,424.92c-.46,0-.9-.08-1.33-.22-.43-.15-.8-.37-1.12-.66l.74-1.3c.24.23.5.4.79.52s.59.18.92.18c.42,0,.77-.11,1.04-.32s.53-.6.77-1.15l.59-1.31.18-.22,3.74-8.66h1.69l-4.63,10.49c-.28.67-.58,1.2-.93,1.58-.34.38-.72.66-1.12.82-.41.16-.86.24-1.35.24ZM70.92,421.62l-4.36-9.85h1.8l3.71,8.5-1.15,1.35Z"/>
    <path class="cls-16" d="M80.91,421.43c-.79,0-1.54-.11-2.26-.32-.71-.22-1.28-.48-1.68-.79l.72-1.37c.41.28.91.51,1.51.7.6.19,1.21.29,1.84.29.8,0,1.38-.11,1.74-.34.35-.23.53-.55.53-.95,0-.3-.11-.53-.32-.7s-.5-.29-.86-.38c-.35-.08-.75-.16-1.18-.22-.43-.07-.86-.15-1.3-.25-.43-.1-.83-.25-1.19-.43-.36-.19-.65-.44-.86-.77s-.32-.77-.32-1.32.16-1.08.49-1.51c.32-.43.78-.76,1.38-1,.59-.23,1.3-.35,2.11-.35.62,0,1.26.08,1.9.22.64.15,1.17.36,1.58.64l-.74,1.37c-.43-.29-.88-.49-1.35-.59-.47-.11-.94-.16-1.4-.16-.76,0-1.32.12-1.69.37s-.56.56-.56.95c0,.32.11.57.33.75.22.17.51.31.86.4.35.1.75.18,1.18.24.43.07.86.15,1.3.25.43.1.83.24,1.18.42.35.18.64.43.86.76.22.32.33.76.33,1.3,0,.58-.17,1.07-.5,1.49-.34.42-.81.75-1.42.98s-1.34.35-2.2.35Z"/>
    <path class="cls-16" d="M85.82,413.2v-1.42h6.08v1.42h-6.08ZM90.47,421.43c-.96,0-1.7-.26-2.23-.77s-.79-1.25-.79-2.21v-8.75h1.73v8.68c0,.52.13.91.39,1.19.26.28.63.41,1.11.41.54,0,.99-.15,1.35-.45l.54,1.24c-.26.23-.58.4-.95.5-.37.11-.75.16-1.14.16Z"/>
    <path class="cls-16" d="M98.57,421.43c-1.02,0-1.92-.21-2.69-.63-.77-.42-1.37-1-1.8-1.73-.43-.73-.64-1.57-.64-2.52s.21-1.79.62-2.52c.41-.73.98-1.31,1.71-1.72.73-.41,1.54-.62,2.46-.62s1.74.2,2.45.61c.71.41,1.26.98,1.67,1.72.4.74.6,1.6.6,2.58,0,.07,0,.16,0,.25,0,.1-.02.19-.03.27h-8.12v-1.24h7.22l-.7.43c.01-.61-.11-1.16-.38-1.64-.26-.48-.63-.85-1.09-1.12-.46-.27-1-.4-1.61-.4s-1.13.13-1.6.4c-.47.27-.83.65-1.1,1.13-.26.49-.4,1.04-.4,1.67v.29c0,.64.15,1.2.44,1.7s.71.89,1.23,1.16c.53.28,1.13.41,1.82.41.56,0,1.08-.1,1.54-.29.46-.19.87-.48,1.21-.86l.95,1.12c-.43.5-.97.89-1.61,1.15-.64.26-1.36.4-2.15.4Z"/>
    <path class="cls-16" d="M105.34,421.32v-9.54h1.66v2.54l-.27-.65c.3-.62.76-1.11,1.39-1.46.62-.35,1.35-.52,2.18-.52.91,0,1.7.22,2.36.67s1.09,1.13,1.3,2.04l-.7-.29c.29-.73.79-1.32,1.51-1.76.72-.44,1.56-.67,2.52-.67.77,0,1.45.15,2.03.45.59.3,1.05.76,1.38,1.37.33.61.5,1.39.5,2.32v5.49h-1.73v-5.29c0-.92-.22-1.62-.65-2.09-.43-.47-1.04-.7-1.82-.7-.58,0-1.08.12-1.51.36-.43.24-.77.59-1,1.06-.23.47-.35,1.05-.35,1.75v4.91h-1.73v-5.29c0-.92-.21-1.62-.64-2.09-.43-.47-1.04-.7-1.83-.7-.56,0-1.06.12-1.49.36-.43.24-.77.59-1.01,1.06-.24.47-.36,1.05-.36,1.75v4.91h-1.73Z"/>
    <path class="cls-16" d="M127.1,421.43c-.79,0-1.55-.11-2.26-.32-.71-.22-1.28-.48-1.68-.79l.72-1.37c.41.28.91.51,1.51.7.6.19,1.21.29,1.84.29.8,0,1.38-.11,1.74-.34.35-.23.53-.55.53-.95,0-.3-.11-.53-.32-.7-.22-.17-.5-.29-.85-.38-.35-.08-.75-.16-1.18-.22-.43-.07-.86-.15-1.3-.25-.43-.1-.83-.25-1.19-.43-.36-.19-.65-.44-.86-.77s-.32-.77-.32-1.32.16-1.08.49-1.51.78-.76,1.38-1,1.3-.35,2.12-.35c.62,0,1.26.08,1.9.22.64.15,1.17.36,1.57.64l-.74,1.37c-.43-.29-.88-.49-1.35-.59s-.94-.16-1.4-.16c-.76,0-1.32.12-1.69.37s-.56.56-.56.95c0,.32.11.57.33.75.22.17.51.31.86.4.35.1.75.18,1.18.24.43.07.86.15,1.3.25.43.1.82.24,1.18.42.35.18.64.43.86.76.22.32.33.76.33,1.3,0,.58-.17,1.07-.5,1.49-.34.42-.81.75-1.42.98-.61.23-1.34.35-2.2.35Z"/>
    <path class="cls-16" d="M43.49,443.03c-1.02,0-1.92-.21-2.69-.63s-1.37-1-1.8-1.73c-.43-.73-.64-1.57-.64-2.52s.21-1.79.62-2.52c.41-.73.98-1.31,1.71-1.72.73-.41,1.54-.62,2.46-.62s1.74.2,2.45.61c.71.41,1.26.98,1.67,1.72.4.74.6,1.6.6,2.58,0,.07,0,.16,0,.25,0,.1-.01.19-.03.27h-8.12v-1.24h7.22l-.7.43c.01-.61-.11-1.16-.38-1.64-.26-.48-.63-.85-1.09-1.12-.46-.27-1-.4-1.61-.4s-1.13.13-1.6.4c-.47.27-.83.65-1.1,1.13-.26.49-.4,1.04-.4,1.67v.29c0,.64.15,1.2.44,1.7.29.5.7.89,1.23,1.16.53.28,1.13.41,1.82.41.56,0,1.08-.1,1.54-.29.46-.19.87-.48,1.21-.86l.95,1.12c-.43.5-.97.89-1.61,1.15s-1.36.4-2.15.4Z"/>
    <path class="cls-16" d="M50.26,442.92v-9.54h1.66v2.57l-.27-.68c.31-.62.79-1.11,1.44-1.46.65-.35,1.4-.52,2.27-.52.78,0,1.47.15,2.06.45.59.3,1.06.76,1.39,1.37.34.61.5,1.39.5,2.32v5.49h-1.73v-5.29c0-.92-.23-1.62-.67-2.09-.45-.47-1.08-.7-1.9-.7-.61,0-1.15.12-1.6.36-.46.24-.81.59-1.05,1.06s-.37,1.05-.37,1.75v4.91h-1.73Z"/>
    <path class="cls-16" d="M66.47,442.52c-.92,0-1.75-.19-2.47-.58-.73-.39-1.3-.93-1.73-1.63-.43-.7-.64-1.5-.64-2.41s.21-1.73.64-2.42c.43-.69,1-1.23,1.73-1.61.73-.38,1.55-.58,2.47-.58.82,0,1.56.17,2.23.5.67.33,1.21.84,1.61,1.52s.6,1.55.6,2.59-.2,1.89-.6,2.57-.94,1.2-1.61,1.54c-.67.34-1.42.51-2.23.51ZM66.69,446.52c-.88,0-1.72-.12-2.55-.37s-1.49-.6-2.01-1.05l.83-1.33c.44.38.99.69,1.64.91.65.22,1.33.33,2.03.33,1.13,0,1.96-.26,2.48-.79.53-.53.79-1.33.79-2.41v-2.02l.18-1.89-.09-1.91v-2.61h1.64v8.24c0,1.68-.42,2.92-1.26,3.71s-2.07,1.19-3.69,1.19ZM66.67,441.01c.64,0,1.2-.13,1.69-.4.49-.26.88-.63,1.16-1.1s.42-1.01.42-1.62-.14-1.15-.42-1.62c-.28-.47-.67-.83-1.16-1.09-.49-.26-1.06-.39-1.69-.39s-1.2.13-1.7.39c-.5.26-.89.62-1.17,1.09-.28.47-.42,1.01-.42,1.62s.14,1.15.42,1.62.67.83,1.17,1.1c.5.26,1.06.4,1.7.4Z"/>
    <path class="cls-16" d="M75.8,431.54c-.34,0-.62-.11-.84-.32-.22-.22-.33-.48-.33-.79s.11-.59.33-.81c.22-.22.5-.32.84-.32s.61.1.84.31c.22.21.33.47.33.78s-.11.6-.32.82-.5.33-.85.33ZM74.93,442.92v-9.54h1.73v9.54h-1.73Z"/>
    <path class="cls-16" d="M79.96,442.92v-9.54h1.66v2.57l-.27-.68c.31-.62.79-1.11,1.44-1.46.65-.35,1.4-.52,2.27-.52.78,0,1.47.15,2.06.45.59.3,1.06.76,1.4,1.37.34.61.5,1.39.5,2.32v5.49h-1.73v-5.29c0-.92-.22-1.62-.67-2.09-.45-.47-1.08-.7-1.9-.7-.61,0-1.15.12-1.6.36-.46.24-.81.59-1.05,1.06s-.37,1.05-.37,1.75v4.91h-1.73Z"/>
    <path class="cls-16" d="M96.46,443.03c-1.02,0-1.92-.21-2.69-.63s-1.37-1-1.8-1.73c-.43-.73-.64-1.57-.64-2.52s.21-1.79.62-2.52c.41-.73.98-1.31,1.71-1.72.73-.41,1.54-.62,2.46-.62s1.74.2,2.45.61c.71.41,1.26.98,1.67,1.72.4.74.6,1.6.6,2.58,0,.07,0,.16,0,.25,0,.1-.01.19-.03.27h-8.12v-1.24h7.22l-.7.43c.01-.61-.11-1.16-.38-1.64-.26-.48-.63-.85-1.09-1.12-.46-.27-1-.4-1.61-.4s-1.13.13-1.6.4c-.47.27-.83.65-1.1,1.13-.26.49-.4,1.04-.4,1.67v.29c0,.64.15,1.2.44,1.7.29.5.7.89,1.23,1.16.53.28,1.13.41,1.82.41.56,0,1.08-.1,1.54-.29.46-.19.87-.48,1.21-.86l.95,1.12c-.43.5-.97.89-1.61,1.15s-1.36.4-2.15.4Z"/>
    <path class="cls-16" d="M107.48,443.03c-1.02,0-1.92-.21-2.69-.63-.77-.42-1.37-1-1.8-1.73-.43-.73-.64-1.57-.64-2.52s.21-1.79.62-2.52c.41-.73.98-1.31,1.71-1.72.73-.41,1.54-.62,2.46-.62s1.74.2,2.45.61c.71.41,1.26.98,1.67,1.72.4.74.6,1.6.6,2.58,0,.07,0,.16,0,.25,0,.1-.02.19-.03.27h-8.12v-1.24h7.22l-.7.43c.01-.61-.11-1.16-.38-1.64-.26-.48-.63-.85-1.09-1.12-.46-.27-1-.4-1.61-.4s-1.13.13-1.6.4c-.47.27-.83.65-1.1,1.13-.26.49-.4,1.04-.4,1.67v.29c0,.64.15,1.2.44,1.7.29.5.71.89,1.23,1.16.53.28,1.13.41,1.82.41.56,0,1.08-.1,1.54-.29.46-.19.87-.48,1.21-.86l.95,1.12c-.43.5-.97.89-1.61,1.15-.64.26-1.36.4-2.15.4Z"/>
    <path class="cls-16" d="M114.25,442.92v-9.54h1.66v2.59l-.16-.65c.26-.66.71-1.16,1.33-1.51.62-.35,1.39-.52,2.3-.52v1.67c-.07-.01-.14-.02-.21-.02h-.19c-.92,0-1.66.28-2.2.83-.54.55-.81,1.35-.81,2.39v4.75h-1.73Z"/>
    <path class="cls-16" d="M122.36,431.54c-.34,0-.62-.11-.84-.32s-.33-.48-.33-.79.11-.59.33-.81c.22-.22.5-.32.84-.32s.62.1.84.31c.22.21.33.47.33.78s-.11.6-.32.82c-.22.22-.5.33-.85.33ZM121.5,442.92v-9.54h1.73v9.54h-1.73Z"/>
    <path class="cls-16" d="M126.52,442.92v-9.54h1.66v2.57l-.27-.68c.31-.62.79-1.11,1.44-1.46.65-.35,1.4-.52,2.27-.52.78,0,1.47.15,2.06.45.59.3,1.06.76,1.39,1.37.34.61.5,1.39.5,2.32v5.49h-1.73v-5.29c0-.92-.23-1.62-.67-2.09-.45-.47-1.08-.7-1.9-.7-.61,0-1.15.12-1.6.36-.46.24-.81.59-1.05,1.06s-.37,1.05-.37,1.75v4.91h-1.73Z"/>
    <path class="cls-16" d="M142.74,442.52c-.92,0-1.75-.19-2.47-.58-.73-.39-1.3-.93-1.73-1.63-.43-.7-.64-1.5-.64-2.41s.21-1.73.64-2.42c.43-.69,1-1.23,1.73-1.61.73-.38,1.55-.58,2.47-.58.82,0,1.56.17,2.23.5.67.33,1.21.84,1.61,1.52s.6,1.55.6,2.59-.2,1.89-.6,2.57-.94,1.2-1.61,1.54c-.67.34-1.42.51-2.23.51ZM142.96,446.52c-.88,0-1.72-.12-2.55-.37s-1.49-.6-2.01-1.05l.83-1.33c.44.38.99.69,1.64.91.65.22,1.33.33,2.03.33,1.13,0,1.96-.26,2.48-.79.53-.53.79-1.33.79-2.41v-2.02l.18-1.89-.09-1.91v-2.61h1.64v8.24c0,1.68-.42,2.92-1.26,3.71s-2.07,1.19-3.69,1.19ZM142.94,441.01c.64,0,1.2-.13,1.69-.4.49-.26.88-.63,1.16-1.1s.42-1.01.42-1.62-.14-1.15-.42-1.62c-.28-.47-.67-.83-1.16-1.09-.49-.26-1.06-.39-1.69-.39s-1.2.13-1.7.39c-.5.26-.89.62-1.17,1.09-.28.47-.42,1.01-.42,1.62s.14,1.15.42,1.62.67.83,1.17,1.1c.5.26,1.06.4,1.7.4Z"/>
  </g>
  <line class="cls-3" x1="402.9" y1="183.79" x2="402.9" y2="274.01"/>
  <line class="cls-3" x1="251.35" y1="268.42" x2="301.65" y2="316.58"/>
  <line class="cls-3" x1="177.6" y1="414.18" x2="266.74" y2="414.18"/>
  <line class="cls-3" x1="301.86" y1="502.49" x2="240.43" y2="563.92"/>
  <line class="cls-3" x1="402.9" y1="548.51" x2="402.9" y2="617.89"/>
  <line class="cls-3" x1="503.61" y1="501.45" x2="558.53" y2="558.48"/>
  <line class="cls-3" x1="540.9" y1="414.18" x2="624.01" y2="414.18"/>
  <line class="cls-3" x1="557.89" y1="262.91" x2="503.61" y2="317.51"/>
  <circle class="cls-16" cx="247.82" cy="264.84" r="2.98"/>
  <circle class="cls-16" cx="305" cy="319.93" r="2.98"/>
  <circle class="cls-16" cx="402.9" cy="274.01" r="2.98"/>
  <circle class="cls-16" cx="402.9" cy="186.59" r="2.98"/>
  <circle class="cls-16" cx="556.11" cy="265.13" r="2.98"/>
  <circle class="cls-16" cx="504.59" cy="316.53" r="2.98"/>
  <circle class="cls-16" cx="540.8" cy="414.18" r="2.98"/>
  <circle class="cls-16" cx="628.9" cy="414.18" r="2.98"/>
  <circle class="cls-16" cx="558.76" cy="558.61" r="2.98"/>
  <circle class="cls-16" cx="503.61" cy="501.45" r="2.98"/>
  <circle class="cls-16" cx="402.9" cy="543.14" r="2.98"/>
  <circle class="cls-16" cx="402.9" cy="617.89" r="2.98"/>
  <circle class="cls-16" cx="240.43" cy="563.92" r="2.98"/>
  <circle class="cls-16" cx="305.57" cy="498.78" r="2.98"/>
  <circle class="cls-16" cx="271.68" cy="414.18" r="2.98"/>
  <circle class="cls-16" cx="172.73" cy="414.18" r="2.98"/>
  <g id="text">
    <text class="cls-23" transform="translate(174.18 188.79)"><tspan x="0" y="0">3</tspan></text>
    <text class="cls-17" transform="translate(143.48 218.52)"><tspan x="0" y="0">Ele</tspan><tspan class="cls-31" x="28.1" y="0">c</tspan><tspan x="38.5" y="0">t</tspan><tspan class="cls-32" x="45.95" y="0">r</tspan><tspan x="53.21" y="0">ical </tspan><tspan x="-23.98" y="21.6">mo</tspan><tspan class="cls-33" x="6.48" y="21.6">t</tspan><tspan x="13.61" y="21.6">o</tspan><tspan class="cls-27" x="25.04" y="21.6">r</tspan><tspan x="32.4" y="21.6">s design</tspan></text>
    <text class="cls-23" transform="translate(386.56 76.76)"><tspan x="0" y="0">4</tspan></text>
    <text class="cls-17" transform="translate(352.28 117.66)"><tspan x="0" y="0">Ele</tspan><tspan class="cls-31" x="28.1" y="0">c</tspan><tspan x="38.5" y="0">t</tspan><tspan class="cls-34" x="45.95" y="0">r</tspan><tspan x="53.12" y="0">onics </tspan><tspan x="19.56" y="21.6">design</tspan></text>
    <text class="cls-23" transform="translate(601.09 185.9)"><tspan x="0" y="0">10</tspan></text>
    <text class="cls-17" transform="translate(565.42 222.31)"><tspan x="0" y="0">Fi</tspan><tspan class="cls-32" x="16.45" y="0">r</tspan><tspan class="cls-28" x="23.71" y="0">m</tspan><tspan class="cls-14" x="42.55" y="0">w</tspan><tspan x="58.34" y="0">a</tspan><tspan class="cls-34" x="69.1" y="0">r</tspan><tspan x="76.27" y="0">e &amp; </tspan><tspan x="12.83" y="21.6">sof</tspan><tspan class="cls-28" x="39.64" y="21.6">t</tspan><tspan class="cls-14" x="46.91" y="21.6">w</tspan><tspan x="62.69" y="21.6">a</tspan><tspan class="cls-34" x="73.46" y="21.6">r</tspan><tspan x="80.62" y="21.6">e</tspan></text>
    <text class="cls-23" transform="translate(700.09 389.33)"><tspan x="0" y="0">3</tspan></text>
    <text class="cls-17" transform="translate(657.91 421.16)"><tspan x="0" y="0">Me</tspan><tspan class="cls-32" x="28.21" y="0">c</tspan><tspan x="38.36" y="0">hanical</tspan><tspan x="21.36" y="21.6">design</tspan></text>
    <text class="cls-23" transform="translate(604.28 587.34)"><tspan x="0" y="0">4</tspan></text>
    <text class="cls-17" transform="translate(553.69 623.81)"><tspan x="0" y="0">Mo</tspan><tspan class="cls-33" x="28.62" y="0">t</tspan><tspan x="35.75" y="0">or p</tspan><tspan class="cls-34" x="71.67" y="0">r</tspan><tspan x="78.84" y="0">odu</tspan><tspan class="cls-26" x="114.73" y="0">c</tspan><tspan x="125.13" y="0">t </tspan><tspan x="10.31" y="21.6">enginee</tspan><tspan class="cls-32" x="85.32" y="21.6">r</tspan><tspan x="92.57" y="21.6">ing</tspan></text>
    <text class="cls-23" transform="translate(388.93 675.99)"><tspan x="0" y="0">4</tspan></text>
    <text class="cls-17" transform="translate(383.2 719.84)"><tspan x="0" y="0">S</tspan><tspan class="cls-28" x="11.18" y="0">Q</tspan><tspan x="26.12" y="0">A</tspan></text>
    <text class="cls-18" transform="translate(361.73 395.79)"><tspan class="cls-21" x="0" y="0">3</tspan><tspan class="cls-22" x="45.4" y="0">5</tspan></text>
    <text class="cls-15" transform="translate(313.22 444.92)"><tspan class="cls-25"><tspan class="cls-30" x="0" y="0">TO</tspan><tspan class="cls-35" x="40.26" y="0">T</tspan><tspan x="56.05" y="0">AL TEAM</tspan></tspan><tspan class="cls-29"><tspan x="1.05" y="20.4">C</tspan><tspan class="cls-20" x="13.17" y="20.4">r</tspan><tspan x="19.93" y="20.4">oss-fun</tspan><tspan class="cls-19" x="83.36" y="20.4">c</tspan><tspan x="93.19" y="20.4">tional R&amp;D</tspan></tspan></text>
    <text class="cls-23" transform="translate(174.67 593.76)"><tspan x="0" y="0">3</tspan></text>
    <text class="cls-17" transform="translate(165.36 631.09)"><tspan x="0" y="0">Lab </tspan><tspan x="-24.76" y="21.6">ele</tspan><tspan class="cls-31" x="2.3" y="21.6">c</tspan><tspan x="12.7" y="21.6">t</tspan><tspan class="cls-32" x="20.15" y="21.6">r</tspan><tspan x="27.4" y="21.6">ical</tspan></text>
    <text class="cls-23" transform="translate(79.15 392.63)"><tspan x="0" y="0">4</tspan></text>
    <text class="cls-17" transform="translate(55.37 421.16)"><tspan x="0" y="0">S</tspan><tspan class="cls-32" x="11.18" y="0">y</tspan><tspan x="21.11" y="0">s</tspan><tspan class="cls-33" x="30.13" y="0">t</tspan><tspan x="37.26" y="0">ems </tspan><tspan x="-17.82" y="21.6">enginee</tspan><tspan class="cls-32" x="57.19" y="21.6">r</tspan><tspan x="64.44" y="21.6">ing</tspan></text>
  </g>
</svg>